<?xml version="1.0" encoding="utf-8"?>
<!-- Generator: Adobe Illustrator 27.5.0, SVG Export Plug-In . SVG Version: 6.00 Build 0)  -->
<svg version="1.1" xmlns="http://www.w3.org/2000/svg" xmlns:xlink="http://www.w3.org/1999/xlink" x="0px" y="0px"
	 viewBox="0 0 750 500" style="enable-background:new 0 0 750 500;" xml:space="preserve">
<g id="BACKGROUND">
	<rect style="fill:#EFD4D3;" width="750" height="500"/>
</g>
<g id="OBJECTS">
	<g>
		<g>
			<ellipse style="fill:#E2BDBC;" cx="364.989" cy="436.878" rx="227.918" ry="16.999"/>
			<g>
				<path style="fill:#5E1F3C;" d="M392.244,204.146c8.8,80.828-53.623,97.967-99.229,80.828
					c-49.8-24.857,2.538-52.312,2.538-80.828c0-28.516,21.798-56.39,57.443-56.39C379.697,147.757,392.244,175.63,392.244,204.146z"
					/>
				<g>
					<path style="fill:#FCA886;" d="M259.572,302.611l-53.976,103.662c0,0-25.51,12.341-35.901,18.309
						c-4.907,2.407-1.408,6.901,2.954,6.921l19.515-1.234c1.044,0.964,2.492,1.4,4.401,1.234c0,0,13.798-2.078,16.752-1.842
						c2.953,0.236,8.629,1.997,13.65,1.842c4.26,0,8.187-2.393,10.264-6.256l56.486-105.035L259.572,302.611z"/>
					<path style="fill:#FFFFFF;" d="M297.586,246.867c-11.641,7.134-31.062,28.838-45.389,59.504
						c4.74,9.72,22.485,23.138,37.929,27.66l29.062-39.38L297.586,246.867z"/>
					<path style="fill:#5E1F3C;" d="M191.98,430.445c-0.855-0.898-1.153-2.156-0.817-3.45c0.441-1.696,1.876-3.074,3.84-3.684
						c4.719-1.425,10.568-2.58,17.884-3.533l0.064,0.496c-7.288,0.949-13.111,2.099-17.802,3.515
						c-1.795,0.558-3.105,1.804-3.502,3.332c-0.292,1.123-0.039,2.209,0.695,2.979L191.98,430.445z"/>
					<path style="fill:#5E1F3C;" d="M194.348,430.522l-0.05-0.498c1.56-0.155,3.376-0.472,3.589-0.71
						c0.095-0.326-0.277-2.237-0.936-3.436c-0.435-0.789-2.692-0.167-3.45,0.114l-0.174-0.469c0.339-0.126,3.342-1.196,4.063,0.114
						c0.618,1.123,1.146,3.25,0.958,3.856C198.215,429.924,196.869,430.27,194.348,430.522z"/>
					
						<rect x="166.654" y="422.359" transform="matrix(0.9194 -0.3932 0.3932 0.9194 -151.3501 106.4209)" style="fill:#5E1F3C;" width="34.822" height="0.499"/>
					
						<rect x="165.625" y="419.805" transform="matrix(0.8976 -0.4409 0.4409 0.8976 -166.5516 123.2839)" style="fill:#5E1F3C;" width="32.805" height="0.501"/>
				</g>
				<path style="fill:#5E1F3C;" d="M429.148,221.405c7.731-1.454,19.781,46.892,15.086,49.255
					C428.845,270.054,419.411,228.99,429.148,221.405z"/>
				<g>
					<g>
						<path style="fill:#FFFFFF;" d="M526.663,105.986c0,0,3.979-10.509,19.078-7.303
							C545.74,98.683,541.797,107.748,526.663,105.986z"/>
						<path style="fill:#FFFFFF;" d="M529.712,99.174c0,0-9.542-5.936-3.477-20.129C526.235,79.045,534.367,84.667,529.712,99.174z"
							/>
						<path style="fill:#5E1F3C;" d="M521.852,136.36c-13.696-16.294-29.32-21.37-40.015-22.759
							c-11.599-1.507-20.064,0.875-20.146,0.899l-0.139-0.481c0.085-0.024,8.634-2.431,20.327-0.918
							c10.789,1.397,26.549,6.51,40.355,22.937L521.852,136.36z"/>
						<path style="fill:#FFB000;" d="M490.139,44.854c0,0-9.013-11.675-1.53-13.617C496.092,29.295,490.139,44.854,490.139,44.854z"
							/>
						<path style="fill:#FFB000;" d="M491.931,53.415c0,0-0.098-14.749,7.032-11.761C506.093,44.643,491.931,53.415,491.931,53.415z
							"/>
						<path style="fill:#FFB000;" d="M495.593,69.536c0,0,0.433-14.743,7.451-11.5C510.061,61.279,495.593,69.536,495.593,69.536z"
							/>
						<path style="fill:#FFB000;" d="M499.694,83.931c0,0,0.961-14.718,7.858-11.226C514.449,76.197,499.694,83.931,499.694,83.931z
							"/>
						<path style="fill:#FFB000;" d="M510.602,115.054c0,0,0.961-14.718,7.858-11.226
							C525.357,107.321,510.602,115.054,510.602,115.054z"/>
						<path style="fill:#D85B6B;" d="M482.866,128.129c0,0,12.949,7.061,6.88,11.85
							C483.677,144.767,482.866,128.129,482.866,128.129z"/>
						<path style="fill:#D85B6B;" d="M492.625,121.266c0,0,11.759,8.903,5.048,12.739
							C490.961,137.841,492.625,121.266,492.625,121.266z"/>
						<path style="fill:#FFB000;" d="M504.697,99.805c0,0,0.961-14.718,7.858-11.226C519.452,92.071,504.697,99.805,504.697,99.805z
							"/>
						<path style="fill:#FFB000;" d="M494.1,61.554c0,0-8.59-11.99-12.602-5.382C477.486,62.781,494.1,61.554,494.1,61.554z"/>
						<path style="fill:#FFB000;" d="M497.458,75.25c0,0-10.174-10.679-13.227-3.577C481.177,78.775,497.458,75.25,497.458,75.25z"
							/>
						<path style="fill:#FFB000;" d="M507.651,107.418c0,0-10.174-10.679-13.228-3.577
							C491.369,110.944,507.651,107.418,507.651,107.418z"/>
						<path style="fill:#FFB000;" d="M513.682,121.678c0,0-12.672-7.547-13.702,0.115S513.682,121.678,513.682,121.678z"/>
						<path style="fill:#D85B6B;" d="M486.947,123.991c0,0-10.822-10.022-13.425-2.743
							C470.918,128.528,486.947,123.991,486.947,123.991z"/>
						<path style="fill:#D85B6B;" d="M497.468,120.495c0,0-3.217-14.394-9.493-9.881S497.468,120.495,497.468,120.495z"/>
						<path style="fill:#FFB000;" d="M502.32,91.574c0,0-10.174-10.679-13.227-3.577C486.039,95.099,502.32,91.574,502.32,91.574z"
							/>
						<path style="fill:#5E1F3C;" d="M523.514,136.895c-0.057-0.389-5.314-39.008,20.182-51.491l0.221,0.449
							c-25.169,12.322-19.963,50.585-19.908,50.97L523.514,136.895z"/>
						<path style="fill:#5E1F3C;" d="M526.82,136.718c-0.663-0.225-1.851-5.409-0.752-10.622c1.4-6.644,6.502-14.26,22.936-12.799
							l-0.045,0.498c-10.76-0.959-18.089,2.064-21.194,8.735c-2.861,6.144-1.255,13.224-0.736,13.74L526.82,136.718z"/>
						<path style="fill:#5E1F3C;" d="M520.404,141.127c-11.638-29.169-28.897-43.163-41.328-49.767
							c-13.455-7.148-24.284-7.411-24.392-7.413l0.008-0.5c0.109,0.002,11.059,0.268,24.618,7.472
							c12.504,6.643,29.864,20.713,41.559,50.022L520.404,141.127z"/>
						<path style="fill:#5E1F3C;" d="M478.494,141.344c-0.361-9.036,5.49-17.763,13.611-20.299
							c9.965-3.113,21.028,3.515,30.338,18.188l-0.422,0.268c-9.18-14.466-20.024-21.023-29.768-17.978
							c-7.912,2.471-13.612,10.984-13.26,19.802L478.494,141.344z"/>
						<path style="fill:#5E1F3C;" d="M522.783,139.78c-13.975-46.599-1.012-80.209-0.879-80.543l0.465,0.185
							c-0.132,0.333-13.029,33.791,0.893,80.214L522.783,139.78z"/>
						<path style="fill:#5E1F3C;" d="M524.852,141.801c-22.141-29.351-35.025-97.6-35.153-98.286l0.492-0.092
							c0.127,0.685,12.99,68.82,35.06,98.077L524.852,141.801z"/>
						<path style="fill:#D85B6B;" d="M535.732,115.933c0,0,7.88-0.107,8.654,2.593c0.773,2.701-3.501,0.913-3.501,0.913
							s4.013,2.608,2.113,4.48S535.732,115.933,535.732,115.933z"/>
						<path style="fill:#D85B6B;" d="M538.683,112.894c0,0,0.774-6.859,3.268-6.712c2.494,0.147,0.428,3.31,0.428,3.31
							s2.769-2.687,4.23-0.475C548.069,111.229,538.683,112.894,538.683,112.894z"/>
						<path style="fill:#D85B6B;" d="M547.716,113.341c0,0,10.01-7.614,11.742-3.287c1.732,4.327-4.208,5.003-4.208,5.003
							s5.834,1.106,3.932,6.397S547.716,113.341,547.716,113.341z"/>
						<path style="fill:#D85B6B;" d="M543.081,85.031c-3.261-12.993,11.049-22.806,11.049-22.806
							c1.372,2.156,2.357,4.711,2.882,7.743c4.674-0.298,8.703,1.543,8.703,1.543s-2.109,5.148-4.484,7.755
							c5.141,0.799,8.525,4.24,8.525,4.24s-3.503,3.849-6.682,5.006c2.843,1.656,5.1,3.877,6.863,7.453
							C569.937,95.965,546.342,98.024,543.081,85.031z"/>
						<path style="fill:#FFB000;" d="M551.726,79.243c1.74-3.253,2.416-6.452,2.028-9.599c0,0-13.212,4.566-9.473,16.047
							c2.992,8.501,17.794,4.135,17.794,4.135c-1.836-2.658-4.07-4.337-6.78-4.853c2.175-1.349,4.495-6.197,4.495-6.197
							S554.614,77.831,551.726,79.243z"/>
						<g>
							<path style="fill:#D85B6B;" d="M452.612,80.627c1.622-0.019,2.953,1.28,2.972,2.902c0.019,1.622-1.28,2.953-2.902,2.972
								c-1.622,0.019-2.953-1.28-2.972-2.902C449.691,81.977,450.99,80.646,452.612,80.627z"/>
							<path style="fill:#5E1F3C;" d="M451.043,82.794c0.295-0.003,0.537,0.233,0.54,0.528c0.004,0.295-0.233,0.537-0.527,0.54
								c-0.295,0.004-0.537-0.233-0.54-0.528C450.512,83.039,450.748,82.798,451.043,82.794z"/>
						</g>
						<path style="fill:#5E1F3C;" d="M457.14,92.106l-0.049-0.498c0.101-0.01,10.094-1.039,11.494-5.044
							c1.385-3.965-7.5-9.214-7.59-9.267l0.252-0.432c0.382,0.223,9.329,5.514,7.81,9.863
							C467.552,91.035,457.564,92.064,457.14,92.106z"/>
						<path style="fill:#5E1F3C;" d="M477.243,96.354c-3.353,0-6.723-0.831-6.962-0.891l0.121-0.485
							c0.1,0.025,9.855,2.43,12.523-0.87c2.641-3.264-3.952-11.205-4.019-11.285l0.383-0.321c0.284,0.339,6.923,8.339,4.024,11.92
							C482.106,95.914,479.68,96.354,477.243,96.354z"/>
						<path style="fill:#5E1F3C;" d="M489.939,104.808c-3.352,0-6.722-0.831-6.961-0.891l0.121-0.485
							c0.099,0.025,9.854,2.429,12.523-0.87c2.641-3.264-3.951-11.205-4.018-11.285l0.383-0.321
							c0.284,0.339,6.922,8.339,4.023,11.92C494.803,104.368,492.376,104.808,489.939,104.808z"/>
						<g>
							<path style="fill:#D85B6B;" d="M463.098,73.751c1.16,1.134,1.181,2.994,0.046,4.154c-1.134,1.16-2.994,1.18-4.154,0.046
								c-1.16-1.134-1.181-2.994-0.046-4.154C460.078,72.637,461.938,72.617,463.098,73.751z"/>
							<path style="fill:#5E1F3C;" d="M460.455,74.172c0.211,0.206,0.215,0.544,0.008,0.755c-0.206,0.211-0.544,0.215-0.755,0.008
								c-0.211-0.206-0.215-0.544-0.008-0.755C459.906,73.969,460.244,73.965,460.455,74.172z"/>
						</g>
						<g>
							<path style="fill:#D85B6B;" d="M480.197,78.973c1.16,1.134,1.181,2.994,0.046,4.154c-1.134,1.16-2.994,1.18-4.154,0.046
								c-1.16-1.134-1.181-2.994-0.046-4.154C477.177,77.859,479.037,77.839,480.197,78.973z"/>
							<path style="fill:#5E1F3C;" d="M477.554,79.393c0.211,0.206,0.215,0.544,0.008,0.755c-0.206,0.211-0.544,0.215-0.755,0.008
								c-0.211-0.206-0.215-0.544-0.008-0.755C477.005,79.191,477.343,79.187,477.554,79.393z"/>
						</g>
						<g>
							<path style="fill:#D85B6B;" d="M454.931,88.934c1.613-0.173,3.06,0.995,3.233,2.608c0.173,1.613-0.995,3.06-2.608,3.233
								c-1.613,0.173-3.06-0.995-3.233-2.608C452.15,90.554,453.318,89.107,454.931,88.934z"/>
							<path style="fill:#5E1F3C;" d="M453.573,91.24c0.293-0.031,0.556,0.181,0.588,0.474s-0.181,0.556-0.474,0.588
								c-0.293,0.031-0.556-0.181-0.588-0.474C453.068,91.535,453.28,91.272,453.573,91.24z"/>
						</g>
						<g>
							<path style="fill:#D85B6B;" d="M468.948,92.315c1.594,0.302,2.641,1.839,2.339,3.433c-0.302,1.594-1.839,2.641-3.433,2.339
								c-1.594-0.302-2.641-1.839-2.339-3.433C465.817,93.06,467.354,92.013,468.948,92.315z"/>
							<path style="fill:#5E1F3C;" d="M466.98,94.129c0.29,0.055,0.48,0.334,0.425,0.624c-0.055,0.29-0.334,0.48-0.624,0.425
								c-0.29-0.055-0.48-0.334-0.425-0.624C466.411,94.265,466.69,94.074,466.98,94.129z"/>
						</g>
						<g>
							<path style="fill:#D85B6B;" d="M481.339,100.226c1.594,0.302,2.641,1.839,2.338,3.433c-0.302,1.594-1.839,2.641-3.433,2.338
								c-1.594-0.302-2.641-1.839-2.339-3.433C478.208,100.971,479.745,99.924,481.339,100.226z"/>
							<path style="fill:#5E1F3C;" d="M479.371,102.04c0.29,0.055,0.48,0.334,0.425,0.624c-0.055,0.29-0.334,0.48-0.624,0.425
								c-0.29-0.055-0.48-0.334-0.425-0.624C478.802,102.175,479.081,101.985,479.371,102.04z"/>
						</g>
						<g>
							<path style="fill:#D85B6B;" d="M492.752,87.327c1.16,1.134,1.18,2.994,0.046,4.154c-1.134,1.16-2.994,1.18-4.154,0.046
								c-1.16-1.134-1.18-2.994-0.046-4.154C489.733,86.214,491.592,86.193,492.752,87.327z"/>
							<path style="fill:#5E1F3C;" d="M490.109,87.748c0.211,0.206,0.215,0.544,0.008,0.755c-0.206,0.211-0.544,0.215-0.755,0.008
								c-0.211-0.206-0.215-0.544-0.008-0.755C489.56,87.546,489.898,87.542,490.109,87.748z"/>
						</g>
						<path style="fill:#FFFFFF;" d="M515.109,132.034c0.213-0.774-3.67-3.045-4.429-1.272
							C509.922,132.535,514.896,132.808,515.109,132.034z"/>
						<path style="fill:#FFFFFF;" d="M501.338,116.511c0.207-0.776-3.696-3.013-4.439-1.234
							C496.155,117.057,501.131,117.287,501.338,116.511z"/>
						<path style="fill:#FFFFFF;" d="M501.406,114.571c0.958-0.46-0.152-6.31-2.581-5.526
							C496.395,109.828,500.448,115.03,501.406,114.571z"/>
						<path style="fill:#FFFFFF;" d="M526.815,120.55c1.051,0.154,3.398-5.319,0.945-6.026
							C525.307,113.818,525.763,120.396,526.815,120.55z"/>
						<path style="fill:#FFFFFF;" d="M527.259,126.139c0.516,0.929,6.29-0.527,5.363-2.905
							C531.694,120.856,526.743,125.211,527.259,126.139z"/>
						<path style="fill:#FFFFFF;" d="M515.19,133.303c-0.304-0.549-3.715,0.308-3.169,1.713
							C512.568,136.421,515.494,133.852,515.19,133.303z"/>
						<path style="fill:#FFFFFF;" d="M525.494,124.203c0.613-0.133,0.777-3.646-0.726-3.528
							C523.265,120.793,524.881,124.336,525.494,124.203z"/>
						<path style="fill:#FFFFFF;" d="M498.932,113.759c0.212-0.59-2.68-2.591-3.376-1.254
							C494.859,113.841,498.72,114.349,498.932,113.759z"/>
						<g>
							<path style="fill:#FFFFFF;" d="M519.301,57.429c0,0-3.055-3.121-5.572-2.919s1.545-1.96,4.39-1.903
								c2.845,0.057,2.127,4.896,2.127,4.896L519.301,57.429z"/>
							<path style="fill:#FFFFFF;" d="M525.318,58.857c0,0,3.841-1.54,5.89-0.397c2.049,1.143-0.52-2.298-2.951-3.341
								c-2.431-1.043-3.769,3.44-3.769,3.44L525.318,58.857z"/>
							<path style="fill:#FFFFFF;" d="M521.14,56.872c0,0-1.021-4.153-0.126-4.301c0.894-0.148,4.137,0.713,4.579,1.391
								c0.442,0.679-2.091,3.351-2.091,3.351L521.14,56.872z"/>
							<path style="fill:#FFFFFF;" d="M517.971,57.183c0,0-8.65-3.524-10.008,2.145c-1.358,5.669,5.06-1.58,9.733-0.564
								C522.368,59.78,517.971,57.183,517.971,57.183z"/>
							<path style="fill:#FFFFFF;" d="M526.801,59.127c0,0,9.299-0.88,8.964,4.94c-0.334,5.819-4.389-2.972-9.156-3.347
								S526.801,59.127,526.801,59.127z"/>
							<path style="fill:#FFFFFF;" d="M518.948,59.694c0,0-13.475,2.905-8.599,8.5c4.876,5.595,5.002-4.854,9.53-7.533
								C523.581,59.165,518.948,59.694,518.948,59.694z"/>
							<path style="fill:#FFFFFF;" d="M520.594,61.823c0,0-9.129,10.885-2.159,12.868c6.97,1.984,3.861-12.881,3.861-12.881
								L520.594,61.823z"/>
							<path style="fill:#FFFFFF;" d="M522.975,61.901c3.139,3.15,3.671,12.203,7.057,10.723c3.392-2.172,2.577-5.936-4.951-12.239
								L522.975,61.901z"/>
							<path style="fill:#FFB000;" d="M526.335,60.096c-0.277,1.52-2.382,2.409-4.7,1.986c-2.319-0.423-3.973-1.998-3.696-3.517
								c0.277-1.52,2.382-2.409,4.7-1.986C524.957,57.001,526.612,58.576,526.335,60.096z"/>
						</g>
						<g>
							<path style="fill:#FFFFFF;" d="M471.131,66.657c0,0-2.263,0.433-2.908,1.599s-0.411-1.251,0.443-2.485
								c0.855-1.234,2.773,0.492,2.773,0.492L471.131,66.657z"/>
							<path style="fill:#FFFFFF;" d="M473.513,64.427c0,0,0.443-2.138,1.543-2.705c1.1-0.568-1.162-0.442-2.33,0.323
								c-1.168,0.765,0.413,2.66,0.413,2.66L473.513,64.427z"/>
							<path style="fill:#FFFFFF;" d="M471.422,65.686c0,0-2.124-0.762-1.928-1.199c0.196-0.436,1.519-1.611,1.947-1.608
								c0.427,0.004,0.864,1.897,0.864,1.897L471.422,65.686z"/>
							<path style="fill:#FFFFFF;" d="M470.635,67.17c0,0-4.071,2.776-1.975,5.025c2.096,2.25,0.78-2.685,2.59-4.444
								C473.059,65.993,470.635,67.17,470.635,67.17z"/>
							<path style="fill:#FFFFFF;" d="M474.064,63.854c0,0,2.324-4.345,4.785-2.501c2.461,1.844-2.586,1.063-4.141,3.05
								C473.154,66.39,474.064,63.854,474.064,63.854z"/>
							<path style="fill:#FFFFFF;" d="M472.024,67.472c0,0-2.652,6.772,1.23,6.259c3.882-0.513-0.676-3.615-0.534-6.386
								C473.142,65.281,472.024,67.472,472.024,67.472z"/>
							<path style="fill:#FFFFFF;" d="M473.44,67.369c0,0,2.124,7.188,5.029,4.701c2.905-2.486-4.538-5.453-4.538-5.453
								L473.44,67.369z"/>
							<path style="fill:#FFFFFF;" d="M474.168,66.345c2.301-0.462,6.436,1.944,6.772,0.024c0.034-2.124-1.858-2.864-6.825-1.392
								L474.168,66.345z"/>
							<path style="fill:#FFB000;" d="M474.354,64.342c0.587,0.565,0.365,1.749-0.497,2.646c-0.862,0.896-2.037,1.165-2.624,0.6
								c-0.587-0.565-0.365-1.749,0.497-2.646C472.592,64.045,473.767,63.777,474.354,64.342z"/>
						</g>
						<g>
							<path style="fill:#FFFFFF;" d="M458.688,119.07c0,0-1.2,4.199,0.222,6.286c1.422,2.087-2.468-0.372-3.826-2.873
								c-1.358-2.5,3.201-4.272,3.201-4.272L458.688,119.07z"/>
							<path style="fill:#FFFFFF;" d="M456.95,113.134c0,0-3.239-2.575-3.26-4.922c-0.021-2.347-1.74,1.589-1.443,4.218
								c0.297,2.629,4.854,1.572,4.854,1.572L456.95,113.134z"/>
							<path style="fill:#FFFFFF;" d="M457.293,117.747c0,0-3.104,2.943-3.675,2.239c-0.571-0.704-1.428-3.947-1.058-4.667
								c0.371-0.72,3.947,0.158,3.947,0.158L457.293,117.747z"/>
							<path style="fill:#FFFFFF;" d="M459.132,120.347c0,0,1.22,9.26,6.817,7.634c5.598-1.626-3.877-3.615-5.308-8.178
								C459.212,115.241,459.132,120.347,459.132,120.347z"/>
							<path style="fill:#FFFFFF;" d="M456.451,111.712c0,0-5.367-7.644-0.145-10.234c5.222-2.59-0.41,5.285,1.624,9.613
								C459.964,115.418,456.451,111.712,456.451,111.712z"/>
							<path style="fill:#FFFFFF;" d="M460.83,118.255c0,0,9.194,10.271,11.642,3.264c2.448-7.007-6.694-1.944-11.263-4.551
								C458.078,114.491,460.83,118.255,460.83,118.255z"/>
							<path style="fill:#FFFFFF;" d="M461.865,115.771c0,0,13.977,2.545,12.25-4.494c-1.726-7.039-13.103,3.021-13.103,3.021
								L461.865,115.771z"/>
							<path style="fill:#FFFFFF;" d="M460.755,113.663c1.184-4.287,8.786-9.23,5.824-11.439c-3.566-1.872-6.433,0.699-8.184,10.36
								L460.755,113.663z"/>
							<path style="fill:#FFB000;" d="M457.523,111.638c1.458-0.511,3.272,0.877,4.052,3.101c0.78,2.224,0.231,4.441-1.227,4.953
								c-1.458,0.511-3.272-0.877-4.052-3.101C455.516,114.366,456.066,112.149,457.523,111.638z"/>
						</g>
						<path style="fill:#D85B6B;" d="M479.649,134.581c0,0-14.581-2.22-12.65,5.266
							C468.929,147.333,479.649,134.581,479.649,134.581z"/>
						<path style="fill:#D85B6B;" d="M478.757,140.531c0,0-7.678,12.594-0.027,13.702
							C486.382,155.342,478.757,140.531,478.757,140.531z"/>
					</g>
					<path style="fill:#FCA886;" d="M402.897,275.203l78.75-29.139c29.036-11.262,13.854-44.707-14.048-37.785l-86.801,32.98
						L402.897,275.203z"/>
					<path style="fill:#FCA886;" d="M508.349,158.218L462.95,213.37c-16.277,26.552,16.065,43.961,34.069,21.549
						c8.4-10.677,23.129-38.004,37.046-63.192L508.349,158.218z"/>
					<path style="fill:#FCA886;" d="M501.577,167.079c0,0,3.5-21.292,7.655-25.096c2.974-8.182,13.268-11.604,17.712-9.825
						c3.475-4.643,11.405-0.724,12.315,4.809c2.974,0.591,6.367,3.779,6.288,7.71c3.696,1.754,5.646,6.072,4.326,10.162
						c0,0,5.819,5.295,0.516,12.358c-5.303,7.063-15.887,15.999-25.922,17.942C514.434,187.083,501.567,175.458,501.577,167.079z"/>
					<path style="fill:#5E1F3C;" d="M531.409,151.635c-1.803,0-3.723-1.011-5.723-3.015l-7.182-7.341l0.357-0.35l7.18,7.339
						c2.182,2.186,4.232,3.136,6.1,2.803c2.39-0.419,3.766-2.84,4.029-3.348c-5.354-13.654-9.238-15.316-9.277-15.331l0.178-0.468
						c0.165,0.062,4.114,1.674,9.606,15.721l0.039,0.099l-0.045,0.097c-0.06,0.131-1.523,3.208-4.44,3.722
						C531.96,151.611,531.685,151.635,531.409,151.635z"/>
					<path style="fill:#5E1F3C;" d="M522.365,172.02l-0.392-0.31c3.817-4.827,5.364-9.371,4.597-13.505
						c-0.995-5.363-5.636-8.167-5.683-8.194l-0.109-0.064l-0.013-0.126c-0.362-3.611,0.662-5.432,0.705-5.508l0.434,0.249
						c-0.01,0.017-0.963,1.733-0.652,5.087c0.729,0.472,4.856,3.343,5.809,8.458C527.857,162.391,526.278,167.072,522.365,172.02z"
						/>
					<path style="fill:#5E1F3C;" d="M516.611,150.766l-0.256-0.43c0.089-0.053,2.213-1.294,4.708-0.786l-0.1,0.49
						C518.663,149.573,516.631,150.755,516.611,150.766z"/>
					
						<rect x="532.651" y="138.346" transform="matrix(0.8217 -0.5699 0.5699 0.8217 16.577 330.1843)" style="fill:#5E1F3C;" width="6.782" height="0.5"/>
					<path style="fill:#5E1F3C;" d="M528.024,155.446c-1.159,0-2.454-0.386-3.243-1.832c-1.686-3.09,1.181-4.972,1.21-4.99
						l0.269,0.421c-0.102,0.066-2.501,1.654-1.04,4.33c1.463,2.682,4.929,1.172,5.078,1.108c4.208-2.001,8.957-5.211,14.514-9.812
						l0.318,0.385c-5.588,4.628-10.372,7.86-14.623,9.881C530.483,154.948,529.342,155.446,528.024,155.446z"/>
					<path style="fill:#5E1F3C;" d="M534.002,161.23c-2.625,0-4.355-1.711-4.929-3.554c-0.443-1.419-0.123-2.664,0.777-3.027
						l0.188,0.464c-0.639,0.257-0.844,1.273-0.488,2.415c0.472,1.513,2.224,3.863,5.79,3.058l12.653-6.011l0.215,0.452
						l-12.706,6.029C534.974,161.174,534.474,161.23,534.002,161.23z"/>
					<path style="fill:#5E1F3C;" d="M540.295,166.306c-0.974,0-1.913-0.171-2.748-0.592c-1.86-1.539-2.472-4.145-1.771-5.298
						l0.428,0.26c-0.534,0.877-0.091,3.204,1.615,4.622c3.935,1.98,10.858-2.352,10.922-2.399l0.339,0.365
						C549.038,163.31,544.374,166.306,540.295,166.306z"/>
					<path style="fill:#5E1F3C;" d="M548.813,165.854c-1.453,0-2.719-1.095-2.776-1.145l0.33-0.376
						c0.013,0.012,1.352,1.165,2.716,1.005l0.059,0.496C549.032,165.847,548.922,165.854,548.813,165.854z"/>
					<path style="fill:#5E1F3C;" d="M503.23,173.334c-2.629-3.686-1.794-6.983-1.757-7.122l0.483,0.128
						c-0.009,0.032-0.806,3.217,1.68,6.704L503.23,173.334z"/>
					<path style="fill:#5E1F3C;" d="M525.777,184.811c-2.006,0-3.861-0.395-3.955-0.416l0.105-0.488
						c0.027,0.005,2.729,0.578,5.069,0.347l0.049,0.497C526.627,184.794,526.199,184.811,525.777,184.811z"/>
					<path style="fill:#5E1F3C;" d="M534.523,148.356c-0.551-0.568-3.302-3.457-3.346-4.505c-0.048-1.159,1.436-1.861,1.498-1.891
						l0.211,0.453c-0.013,0.006-1.244,0.591-1.209,1.417c0.027,0.664,1.981,2.915,3.205,4.178L534.523,148.356z"/>
					
						<rect x="468.945" y="207.807" transform="matrix(0.8389 -0.5443 0.5443 0.8389 -39.1105 289.3481)" style="fill:#5E1F3C;" width="0.501" height="5.861"/>
					<path style="fill:#5E1F3C;" d="M526.005,155.205l0.53-0.319l2.927,0.371c-0.434,3.602-1.267,4.951-2.489,4.106L526.005,155.205
						z"/>
					<g>
						<path style="fill:#5E1F3C;" d="M535.072,217.347c-5.486-18.642-6.419-32.112-7.71-50.755c-0.185-2.666-0.376-5.441-0.59-8.355
							l0.498-0.036c0.214,2.915,0.406,5.69,0.591,8.357c1.289,18.612,2.22,32.06,7.691,50.648L535.072,217.347z"/>
						
							<rect x="531.387" y="154.289" transform="matrix(0.9738 -0.2274 0.2274 0.9738 -26.3418 125.5433)" style="fill:#5E1F3C;" width="0.499" height="45.591"/>
						<path style="fill:#5E1F3C;" d="M554.396,205.216c-6.391-18.124-13.677-29.974-27.591-49.679l0.408-0.288
							c13.942,19.744,21.243,31.62,27.653,49.801L554.396,205.216z"/>
						<path style="fill:#5E1F3C;" d="M544.391,206.328c-4.21-21.289-8.611-32.052-17.515-49.579l0.445-0.226
							c8.926,17.571,13.338,28.361,17.56,49.709L544.391,206.328z"/>
						<path style="fill:#5E1F3C;" d="M552.471,180.827c-9.942-7.422-18.624-14.357-24.169-24.067l0.434-0.248
							c5.498,9.627,14.138,16.526,24.034,23.915L552.471,180.827z"/>
					</g>
					<path style="fill:#FFFFFF;" d="M390.019,234.496l39.129-13.091c-3.09,2.242,8.906,48.922,15.086,49.255l-41.076,23.991
						L390.019,234.496z"/>
				</g>
				<g>
					<path style="fill:#5E1F3C;" d="M295.553,342.387c5.822-29.015,95.065-45.001,118.167-11.924
						C407.762,338.757,297.258,348.659,295.553,342.387z"/>
					<path style="fill:#FFFFFF;" d="M248.7,421.024c0,0-7.822,27.51,24.783,27.51c2.77,0,16.559,0,16.559,0
						s43.36-0.343,53.725-8.597L248.7,421.024z"/>
					<path style="fill:#5E1F3C;" d="M261.713,443.031c-7.145-6.055-8.076-16.183-8.084-16.284l0.498-0.043
						c0.008,0.1,0.925,10.026,7.91,15.946L261.713,443.031z"/>
					<polygon style="fill:#FCA886;" points="369.502,248.398 338.176,248.398 341.235,202.639 366.443,202.639 					"/>
					<path style="fill:#5E1F3C;" d="M353.839,231.893c-0.735,0-1.471-0.143-2.201-0.429l0.183-0.466c1.34,0.525,2.699,0.524,4.037,0
						l0.183,0.466C355.31,231.749,354.574,231.893,353.839,231.893z"/>
					<path style="fill:#FCA886;" d="M484.95,336.014c-5.201,0-9.794,1.214-14.598,3.115l-58.669,25.37
						c-1.385,0.578-2.768,1.128-4.15,1.663l-4.375-14.986c8.694-26.02,12.321-55.711,12.679-87.77
						c2.868-14.36-3.111-26.934-19.848-29.328l-27.274,1.517c-6.555,9.044-23.586,8.014-29.751,2.424l-30.512,5.087
						c-16.737,2.394-22.716,14.968-19.848,29.328c3.873,32.742,8.115,63.332,14.407,81.97l-2.914,11.951
						c-1.745-0.595-3.497-1.208-5.261-1.857c-14.535-4.786-29.297-8.975-44.268-12.16c-8.213-1.747-16.371-3.54-24.69-1.467
						c-6.5,1.619-12.477,5.105-17.109,9.941c-6.326,6.604-9.907,15.525-9.907,24.669c0,14.221,5.063,25.368,20.381,32.232
						c40.752,16.921,82.972,28.384,138.566,30.819h45.349c29.659,0,79.306-15.904,68.99-32.955l22.237-9.495
						c15.446-6.767,26.233-17.971,26.233-34.403C520.616,351.983,504.648,336.014,484.95,336.014z"/>
					<path style="fill:#ED8E6E;" d="M355.533,342.206c-0.697-0.4-1.514-0.514-2.461-0.322c-0.852,0.26-1.133,0.826-0.626,1.264
						c0.507,0.438,1.608,0.582,2.461,0.322C355.759,343.21,356.04,342.644,355.533,342.206z"/>
					<path style="fill:#5E1F3C;" d="M269.36,382.533c-8.249-11.436-21.99-9.568-22.128-9.548l-0.073-0.494
						c0.143-0.024,14.177-1.938,22.606,9.749L269.36,382.533z"/>
					<path style="fill:#5E1F3C;" d="M365.977,404.014l-0.224-0.447c35.81-17.917,59.895-28.065,80.534-33.935l0.137,0.48
						C425.815,375.973,401.757,386.111,365.977,404.014z"/>
					<path style="fill:#FFFFFF;" d="M403.157,414.769c5.335,11.481,5.364,23.063,0,33.765c28.537,0,49.113,1.288,69.048-7.867
						c5.841-2.682,7.085-9.593,7.192-15.372c-0.206-4.733-0.732-9.508-2.123-14.052c-1.849-6.038-4.939-11.721-11.867-12.338
						c-5.94-0.529-11.133,1.87-16.431,4.113c-5.449,2.307-10.908,4.616-16.533,6.466c-7.946,2.615-15.903,5.039-24.334,5.269
						C406.46,414.797,404.808,414.805,403.157,414.769z"/>
					<path style="fill:#5E1F3C;" d="M436.826,373.022l-0.42-0.274c4.276-6.577,14.908-11.96,15.015-12.014l0.225,0.447
						C451.54,361.234,441.027,366.558,436.826,373.022z"/>
					<path style="fill:#5E1F3C;" d="M470.964,437.909l-0.389-0.315c5.966-7.398-0.44-30.991-5.543-35.398l0.326-0.379
						C470.693,406.425,477.228,430.142,470.964,437.909z"/>
					<path style="fill:#5E1F3C;" d="M413.478,448.619l-0.469-0.172c4.42-12.035,3.842-23.402-1.719-33.787l0.441-0.236
						C417.362,424.94,417.95,436.445,413.478,448.619z"/>
					<path style="fill:#FFFFFF;" d="M295.553,342.387c15.242-10.758,110.557-17.02,118.167-11.924
						c4.045-27.415,8.144-53.817,4.886-70.163c2.868-14.36-7.537-24.853-24.274-27.247l-11.304,1.483
						c-14.137,13.249-41.303,16.615-63.161,6.668l-11.415,1.903c-16.737,2.394-22.716,14.968-19.848,29.328L295.553,342.387z"/>
					<path style="fill:#5E1F3C;" d="M419.405,285.225c-0.02,0-0.039-0.002-0.059-0.007c-0.121-0.029-0.202-0.143-0.19-0.267
						l2.049-22.19l0.498,0.047l-1.892,20.491l3.834-9.514l0.463,0.188l-4.472,11.096
						C419.599,285.164,419.505,285.225,419.405,285.225z"/>
					<path style="fill:#D85B6B;" d="M344.978,284.192c-0.114,0.448-0.265,0.887-0.451,1.31c-0.516,1.172-1.299,2.235-2.303,3.034
						c-1.227,0.977-2.784,1.36-4.32,1.038c-1.292-0.271-2.528-0.936-3.386-1.804c-2.099-2.126-2.582-5.598-2.663-8.525
						c-0.059-2.149,0.307-4.344,1.169-6.32c0.841-1.928,2.072-3.624,4.18-4.221c1.139-0.323,2.359-0.31,3.517-0.065
						c0.883,0.187,1.748,0.513,2.47,1.055c1.031,0.774,1.869,2.166,1.442,3.484c-0.139,0.43-0.503,0.818-0.954,0.848
						c-1.003,0.066-1.664-1.341-2.483-1.749c-1.163-0.579-2.621,0.141-3.34,1.106c-1.594,2.142-1.414,5.476-1.236,7.995
						c0.141,1.993,0.292,6.037,3.52,5.139c1.392-0.477,2.229-1.516,2.223-2.983c-0.001-0.305-0.047-0.623-0.225-0.87
						c-0.195-0.271-0.515-0.415-0.808-0.574c-0.616-0.332-1.172-0.774-1.636-1.298c-0.235-0.266-0.458-0.593-0.416-0.945
						c0.057-0.473,0.553-0.754,1.006-0.904c1.449-0.377,2.159-0.383,3.644-0.189C346.342,279.285,345.073,283.814,344.978,284.192z
						 M363.874,283.887c0.241,0.973,0.492,2.108,0.064,3.048c-0.394,0.864-1.258,1.446-2.204,1.054
						c-1.803-0.748-2.525-2.663-2.86-4.447c-0.18-0.96-0.294-1.924-0.606-2.856c-0.233-0.695-0.845-2.188-1.672-2.388
						c-3.188-0.771,0.834,8.802-2.383,10.152c-1.633,0.685-3.105-0.665-3.618-2.137c-0.349-1.002-0.282-2.043-0.327-3.084
						c-0.169-3.867-0.312-7.735-0.474-11.602c-0.045-1.082-0.092-2.163-0.142-3.245c-0.083-1.813,3.518-1.781,4.668-1.689
						c3.01,0.242,6.736,2.137,7.044,5.5c0.09,0.989-0.148,2.038-0.685,2.878c-0.343,0.536-1.741,1.045-1.11,1.835
						c0.356,0.447,0.861,0.732,1.24,1.17C362.242,279.732,363.346,281.757,363.874,283.887z M357.406,271.581
						c-0.207-0.705-0.788-1.565-1.777-1.506c-0.5,0.03-0.91,0.299-1.146,0.669c-0.272,0.425-0.219,0.913-0.172,1.373
						c0.074,0.73,0.289,3.383,1.867,2.479c0.59-0.338,1.005-0.729,1.21-1.32C357.578,272.726,357.568,272.129,357.406,271.581z
						 M369.048,285.711c0.099,0.378,0.302,1.955,1.891,1.853c1.588-0.102,6.318-0.514,6.318-0.514s1.969-0.018,1.887-1.277
						c-0.085-1.326-0.755-1.349-5.001-0.927c-1.49-0.959-1.323-11.955-1.706-15.374c-0.413-3.32-5.368-5.127-5.027,0.293
						C368.069,274.988,367.726,280.691,369.048,285.711z M342.932,295.242c3.796,3.495,3.894,10.965-3.72,10.135
						c-0.273,2.48,1.62,8.271-1.231,8.454c-2.49,0.16-2.598-1.533-2.947-5.474c-0.037-0.9-0.16-1.799-0.259-2.693
						c-0.143-1.293-0.283-2.586-0.386-3.882c-0.103-1.297-0.179-2.603-0.137-3.904c0.028-0.88,0.009-1.941,0.501-2.71
						c0.369-0.576,1.064-0.792,1.702-0.906c0.868-0.155,1.748-0.288,2.632-0.295C340.464,293.954,341.896,294.288,342.932,295.242z
						 M339.617,296.767c-1.038-0.009-1.298,1.054-1.288,1.647c0.036,1.978,0.51,4.927,2.446,4.033
						C342.885,301.21,342.077,296.89,339.617,296.767z M362.822,293.185c0,0-0.126,12.023-1.244,12.073
						c-1.118,0.051-1.4-3.704-2.486-5.29c-0.62-1.163-3.35-0.94-3.635,0.09s-1.222,6.823-1.944,5.696
						c-1.647-3.444-2.128-11.645-4.434-12.329c-0.643-0.41-2.65-0.345-2.78,0.852c0.321,4.072,1.822,7.771,2.716,11.787
						c0.489,2.316,0.467,5.694,3.508,5.79c3.48-0.033,3.856-7.276,5.804-6.027c0.807,2.311,0.802,6.35,3.96,5.024
						c1.614-0.611,2.707-13.259,2.375-17.488C364.618,292.039,362.849,292.11,362.822,293.185z M380.664,309.37
						c-0.665,0.635-1.49,0.781-2.261,0.579c-0.591-0.155-1.149-0.513-1.58-1.012c-0.851-0.986-1.156-2.294-1.522-3.51
						c-0.393-1.305-0.906-2.619-2.081-3.413c-2.849-0.688,0.766,7.202-2.109,8.408c-1.157,0.61-3.221,0.449-3.428-1.395
						c-0.248-5.187-0.428-10.594-0.669-15.876c0.302-1.432,2.041-1.462,3.197-1.493c1.984-0.053,4.105,0.321,5.585,1.743
						c1.652,1.588,2.622,4.796,0.385,6.369c-0.348,0.245-0.621,0.603-0.303,1.001c2.504,1.675,4.263,6.156,4.263,6.156
						S381.253,308.689,380.664,309.37z M372.979,294.16c-1.227-0.676-2.031,0.452-1.863,1.598c0.109,0.741,0.229,1.506,0.493,2.214
						c0.122,0.328,0.334,0.821,0.739,0.872c0.19,0.024,0.365-0.019,0.525-0.11c0.662-0.374,1.061-1.557,1.139-2.142
						C374.136,295.66,373.853,294.642,372.979,294.16z"/>
					<path style="fill:#5E1F3C;" d="M344.615,250.977c-11.987,0-22.444-3.119-29.093-8.887l0.328-0.378
						c8.417,7.303,23.056,10.3,39.158,8.014c14.622-2.075,26.785-8.122,31.741-15.783l0.42,0.271
						c-5.033,7.779-17.329,13.912-32.09,16.006C351.503,250.729,347.998,250.977,344.615,250.977z"/>
					<g>
						<path style="fill:#FFFFFF;" d="M410.498,364.987c-2.07-8.963-6.371-12.402-7.342-13.81
							c-37.224-5.143-64.599-1.929-100.145,3.229c-3.272,2.678-5.797,8.46-5.507,11.053c13.009,3.135,36.345,12.679,45.578,32.09
							l14.646,3.581C364.625,378.5,390.798,372.884,410.498,364.987z"/>
						<path style="fill:#D85B6B;" d="M334.599,385.513c3.388,3.504,6.324,7.496,8.483,12.035l14.646,3.581
							c1.961-6.434,5.483-11.489,9.969-15.616C358.809,381.817,343.767,382.529,334.599,385.513z"/>
						<path style="fill:#FFFFFF;" d="M308.895,354.715l-0.576-0.977c-1.04-1.763-2.579-2.204-3.64-1.861
							c-0.99,0.321-1.534,1.28-1.419,2.505l-0.498,0.047c-0.138-1.471,0.538-2.63,1.763-3.027c1.105-0.359,2.629-0.021,3.782,1.436
							c0.17-1.055,0.906-1.872,2.02-2.175c1.182-0.323,2.74-0.006,3.72,1.336c0.229-1.113,1.034-1.786,1.855-1.98
							c0.931-0.222,2.119,0.111,2.944,1.264c0.228-1.438,1.277-2.228,2.363-2.384c1.105-0.157,2.362,0.321,3.04,1.5
							c0.339-1.38,1.444-2.197,2.57-2.32c1.021-0.111,2.146,0.337,2.77,1.517c0.294-1.154,1.141-1.795,2.02-1.931
							c1.02-0.152,2.204,0.328,2.879,1.518c0.297-1.54,1.344-2.275,2.356-2.444c1.257-0.202,2.816,0.383,3.711,1.835
							c0.118-0.764,0.471-1.403,1.029-1.835c0.699-0.54,1.603-0.663,2.418-0.325c0.667,0.275,1.194,0.828,1.529,1.58
							c0.397-1.447,1.563-2.209,2.751-2.328c1.415-0.134,2.985,0.588,3.661,2.228c0.528-1.563,1.846-2.354,3.089-2.446
							c1.256-0.095,2.672,0.472,3.5,1.874c0.12-0.72,0.466-1.316,1.015-1.72c0.77-0.564,1.818-0.639,2.67-0.185
							c0.645,0.343,1.101,0.932,1.334,1.69c0.432-0.839,1.232-1.313,2.029-1.368c0.946-0.064,1.965,0.432,2.494,1.638
							c0.396-1.308,1.358-1.945,2.294-1.991c0.982-0.059,2.134,0.565,2.694,1.988c0.355-0.873,1.111-1.234,1.789-1.261
							c0.919-0.028,1.881,0.501,2.372,1.492c0.202-0.585,0.566-1.037,1.07-1.316c0.759-0.421,1.722-0.373,2.513,0.12
							c0.483,0.303,0.842,0.733,1.056,1.25c0.456-1.117,1.404-1.627,2.339-1.627c0.021,0,0.043,0.001,0.064,0.001
							c1.1,0.028,2.244,0.767,2.673,2.116c0.54-1.149,1.64-1.695,2.65-1.638c0.999,0.058,1.994,0.69,2.39,1.968
							c0.454-0.894,1.316-1.318,2.121-1.325c0.007,0,0.015,0,0.022,0c1.082,0,2.26,0.705,2.666,2.24
							c0.553-0.959,1.583-1.542,2.806-1.527c1.55,0.01,3.329,1.022,3.808,3.26l-0.488,0.105c-0.422-1.967-1.973-2.857-3.323-2.865
							c-0.007,0-0.014,0-0.021,0c-1.325,0-2.362,0.801-2.646,2.045l-0.408,1.79l-0.086-1.834c-0.087-1.868-1.254-2.714-2.308-2.714
							c-0.006,0-0.012,0-0.019,0c-0.937,0.009-1.903,0.691-1.946,2.198l-0.5-0.012c0.034-1.87-1.028-2.769-2.097-2.83
							c-1.108-0.059-2.287,0.744-2.448,2.409l-0.499-0.027c0.024-1.818-1.198-2.83-2.36-2.859c-0.96-0.011-2.069,0.607-2.163,2.453
							c-0.001,0.023-0.002,0.047-0.003,0.071l-0.5-0.022c0.001-0.022,0.002-0.045,0.003-0.067c0.031-0.921-0.35-1.696-1.049-2.135
							c-0.628-0.392-1.417-0.432-2.005-0.107c-0.645,0.357-0.999,1.097-1,2.083l-0.499,0.018c-0.099-1.403-1.131-2.216-2.097-2.216
							c-0.023,0-0.045,0.001-0.068,0.001c-0.74,0.03-1.526,0.56-1.513,1.961l-0.498,0.034c-0.253-1.941-1.457-2.759-2.466-2.723
							c-0.958,0.048-1.948,0.9-2.004,2.698l-0.498,0.024c-0.244-1.851-1.384-2.453-2.276-2.369
							c-0.878,0.061-1.815,0.755-1.886,2.132c0,0.07-0.001,0.143-0.004,0.215l-0.5-0.008c0-0.073,0.001-0.145,0.004-0.216
							c-0.003-1.174-0.451-2.08-1.247-2.503c-0.684-0.363-1.525-0.306-2.14,0.146c-0.716,0.526-1.003,1.485-0.789,2.631
							l-0.488,0.105c-0.509-2.072-2.126-2.88-3.496-2.795c-1.19,0.089-2.649,0.935-2.844,3.034l-0.189,2.029l-0.307-2.015
							c-0.313-2.05-1.947-2.975-3.397-2.83c-1.19,0.119-2.543,1.022-2.438,3.176l-0.498,0.044c-0.163-1.245-0.741-2.159-1.585-2.508
							c-0.647-0.267-1.365-0.17-1.921,0.259c-0.686,0.53-0.992,1.467-0.841,2.569l-0.487,0.106c-0.591-1.97-2.314-2.79-3.636-2.578
							c-1.329,0.222-2.083,1.373-2.016,3.078l-0.494,0.066c-0.391-1.673-1.669-2.382-2.731-2.217
							c-0.866,0.134-1.829,0.915-1.693,2.673l-0.495,0.063c-0.328-1.887-1.62-2.431-2.624-2.318
							c-1.166,0.127-2.305,1.164-2.226,2.898l-0.494,0.065c-0.375-1.705-1.756-2.309-2.874-2.145
							c-0.987,0.142-2.096,0.949-1.97,2.755l0.099,1.422l-0.577-1.303c-0.718-1.623-1.964-1.962-2.815-1.763
							c-0.985,0.232-1.586,1.135-1.531,2.299l0.061,1.279l-0.538-1.163c-0.773-1.673-2.381-2.094-3.551-1.774
							c-0.902,0.245-1.816,1.016-1.674,2.442L308.895,354.715z"/>
						<path style="fill:#5E1F3C;" d="M344.639,398.08c-8.639-26.385-42.967-33.684-43.313-33.754l0.1-0.49
							c0.349,0.071,34.958,7.426,43.689,34.088L344.639,398.08z"/>
						<path style="fill:#5E1F3C;" d="M356.835,401.151l-0.498-0.045c0.006-0.066,0.673-6.742,7.593-14.822
							c6.363-7.431,19.481-17.629,45.836-24.023l0.117,0.486c-14.475,3.511-34.132,10.501-45.574,23.861
							C357.493,394.569,356.841,401.086,356.835,401.151z"/>
						<path style="fill:#D85B6B;" d="M316.394,356.657c-0.324-0.281-0.735-0.445-1.222-0.408c-0.773,0.06-1.572,0.624-1.923,1.312
							c-0.556,1.089-0.121,2.537-0.121,2.537s-0.742-0.804-1.016-1.021c-0.545-0.43-1.151-0.79-1.873-0.641
							c-0.974,0.202-1.64,1.272-1.512,2.239c0.189,1.428,1.381,2.141,2.627,2.541c1.074,0.345,2.17,0.624,3.264,0.893
							c0.307,0.075,0.613,0.157,0.923,0.221c-0.129-0.027,1.07-2.779,1.171-3.017c0.461-1.086,0.704-2.197,0.423-3.37
							C317.015,357.447,316.762,356.977,316.394,356.657z"/>
						<path style="fill:#D85B6B;" d="M354.559,358.874c-0.324-0.281-0.735-0.445-1.222-0.408c-0.773,0.06-1.572,0.624-1.923,1.312
							c-0.556,1.089-0.121,2.537-0.121,2.537s-0.742-0.804-1.016-1.021c-0.545-0.43-1.151-0.79-1.873-0.641
							c-0.974,0.202-1.64,1.272-1.512,2.239c0.189,1.428,1.382,2.141,2.627,2.541c1.074,0.345,2.17,0.624,3.265,0.893
							c0.307,0.075,0.613,0.157,0.923,0.221c-0.129-0.027,1.07-2.779,1.171-3.017c0.461-1.086,0.704-2.197,0.422-3.37
							C355.18,359.664,354.927,359.193,354.559,358.874z"/>
						<path style="fill:#D85B6B;" d="M371.904,363.105c0.408,0.13,0.851,0.119,1.283-0.108c0.686-0.361,1.197-1.195,1.248-1.965
							c0.081-1.22-0.891-2.378-0.891-2.378s0.999,0.446,1.337,0.536c0.671,0.18,1.37,0.271,1.974-0.151
							c0.815-0.57,1.004-1.817,0.505-2.654c-0.738-1.237-2.115-1.421-3.417-1.297c-1.123,0.108-2.24,0.284-3.352,0.469
							c-0.312,0.052-0.626,0.098-0.935,0.161c0.129-0.026,0.115,2.976,0.117,3.234c0.005,1.18,0.221,2.296,0.943,3.263
							C371.022,362.625,371.44,362.957,371.904,363.105z"/>
						<path style="fill:#D85B6B;" d="M361.365,380.502c0.396,0.163,0.839,0.187,1.288-0.004c0.713-0.304,1.29-1.094,1.403-1.857
							c0.179-1.21-0.696-2.442-0.696-2.442s0.96,0.525,1.289,0.642c0.654,0.234,1.343,0.381,1.98,0.009
							c0.859-0.502,1.148-1.73,0.718-2.605c-0.635-1.293-1.993-1.587-3.301-1.568c-1.128,0.017-2.255,0.102-3.379,0.197
							c-0.315,0.027-0.632,0.047-0.945,0.085c0.131-0.016-0.125,2.975-0.145,3.233c-0.09,1.177,0.035,2.307,0.677,3.329
							C360.524,379.952,360.915,380.317,361.365,380.502z"/>
						<path style="fill:#D85B6B;" d="M393.525,353.304c-0.428-0.012-0.851,0.122-1.203,0.46c-0.56,0.537-0.819,1.48-0.655,2.234
							c0.261,1.195,1.515,2.038,1.515,2.038s-1.084-0.151-1.433-0.145c-0.694,0.013-1.391,0.119-1.855,0.693
							c-0.625,0.774-0.461,2.024,0.251,2.69c1.051,0.984,2.426,0.779,3.643,0.298c1.049-0.415,2.073-0.893,3.09-1.38
							c0.285-0.136,0.574-0.268,0.854-0.414c-0.117,0.061-0.936-2.827-1.009-3.075c-0.332-1.133-0.849-2.145-1.811-2.874
							C394.506,353.521,394.012,353.318,393.525,353.304z"/>
						<path style="fill:#D85B6B;" d="M335.34,371.599c-0.264,0.337-0.407,0.757-0.345,1.241c0.099,0.769,0.703,1.538,1.408,1.854
							c1.116,0.5,2.54-0.008,2.54-0.008s-0.766,0.782-0.968,1.067c-0.402,0.566-0.731,1.19-0.545,1.903
							c0.251,0.963,1.354,1.574,2.313,1.397c1.416-0.261,2.069-1.488,2.405-2.753c0.29-1.09,0.513-2.199,0.727-3.306
							c0.06-0.31,0.126-0.621,0.174-0.933c-0.02,0.13-2.83-0.927-3.073-1.016c-1.109-0.406-2.23-0.592-3.387-0.251
							C336.097,370.939,335.64,371.216,335.34,371.599z"/>
						<path style="fill:#D85B6B;" d="M330.083,362.464c0.41,0.125,0.853,0.108,1.282-0.124c0.682-0.369,1.182-1.209,1.224-1.98
							c0.066-1.221-0.921-2.367-0.921-2.367s1.005,0.433,1.343,0.52c0.673,0.172,1.373,0.254,1.972-0.176
							c0.808-0.58,0.982-1.829,0.472-2.66c-0.753-1.228-2.132-1.395-3.433-1.254c-1.121,0.122-2.236,0.311-3.346,0.51
							c-0.311,0.056-0.624,0.106-0.933,0.173c0.129-0.028,0.152,2.974,0.156,3.233c0.02,1.18,0.249,2.293,0.984,3.251
							C329.194,361.995,329.617,362.322,330.083,362.464z"/>
						<path style="fill:#5E1F3C;" d="M334.666,385.753l-0.135-0.48c11.912-3.345,23.097-3.344,33.244,0.003l-0.156,0.475
							C357.568,382.436,346.481,382.438,334.666,385.753z"/>
					</g>
					<path style="fill:#5E1F3C;" d="M294.143,328.44c-0.104,0-0.199-0.065-0.235-0.166l-8.034-22.451l0.471-0.168l7.349,20.536
						l-5.337-53.73l0.497-0.049l5.539,55.754c0.012,0.125-0.071,0.24-0.194,0.269C294.179,328.438,294.161,328.44,294.143,328.44z"
						/>
					<path style="fill:#5E1F3C;" d="M272.386,357.879c-18.422-4.944-30.437-7.366-38.956-7.853l0.028-0.5
						c8.555,0.489,20.601,2.916,39.057,7.87L272.386,357.879z"/>
					<path style="fill:#5E1F3C;" d="M234.752,424.766c-14.232-4.985-24.372-10.9-30.137-17.584l0.379-0.326
						c5.707,6.615,15.775,12.482,29.923,17.438L234.752,424.766z"/>
					<path style="fill:#E57F63;" d="M324.112,346.046l-0.189-0.463c15.595-6.374,44.146-9.458,61.792-3.881l-0.15,0.477
						C368.021,336.636,339.626,339.704,324.112,346.046z"/>
					<path style="fill:#5E1F3C;" d="M403.406,415.014c-53.221-16.85-103.21-28.483-148.579-34.577l0.066-0.496
						c45.398,6.099,95.415,17.738,148.663,34.597L403.406,415.014z"/>
				</g>
				<g>
					<g>
						<path style="fill:#FFFFFF;" d="M393.331,205.844c-0.061,0-0.12-0.021-0.169-0.065c-0.102-0.093-0.108-0.251-0.016-0.353
							c0.492-0.54,0.724-1.264,0.635-1.988c-0.105-0.858-0.637-1.591-1.423-1.958c-0.125-0.059-0.179-0.208-0.12-0.333
							c0.06-0.126,0.206-0.178,0.333-0.121c0.942,0.441,1.58,1.32,1.706,2.351c0.107,0.869-0.171,1.738-0.762,2.386
							C393.467,205.817,393.398,205.844,393.331,205.844z"/>
						<path style="fill:#FFFFFF;" d="M320.109,216.564c-0.099,0-0.192-0.059-0.232-0.155c-0.052-0.128,0.009-0.274,0.137-0.326
							c0.676-0.276,1.196-0.832,1.426-1.524c0.273-0.821,0.107-1.711-0.445-2.379c-0.088-0.107-0.073-0.264,0.034-0.352
							c0.105-0.088,0.263-0.074,0.352,0.034c0.663,0.802,0.862,1.87,0.534,2.856c-0.276,0.83-0.9,1.497-1.711,1.829
							C320.173,216.559,320.141,216.564,320.109,216.564z"/>
						<path style="fill:#FCA886;" d="M329.678,199.609c0.841,6.858-4.036,13.099-10.894,13.941
							c-6.858,0.841-13.099-4.036-13.941-10.894s4.036-13.099,10.894-13.941C322.595,187.874,328.837,192.752,329.678,199.609z"/>
						<path style="fill:#5E1F3C;" d="M317.393,208.329c-2.032,0-3.846-0.791-5.242-2.319c-2.037-2.229-2.748-5.58-1.768-8.337
							c0.863-2.43,2.896-3.999,5.724-4.42l0.073,0.494c-2.636,0.393-4.528,1.846-5.326,4.093c-0.905,2.548-0.22,5.769,1.666,7.832
							c1.749,1.913,4.208,2.585,6.93,1.885l0.124,0.484C318.826,208.234,318.096,208.329,317.393,208.329z"/>
						<path style="fill:#5E1F3C;" d="M311.449,204.295l-0.485-0.122c0.35-1.39,1.434-2.57,2.83-3.081
							c1.518-0.556,3.207-0.249,4.754,0.863l-0.292,0.406c-1.408-1.012-2.93-1.297-4.29-0.8
							C312.742,202.009,311.753,203.082,311.449,204.295z"/>
						
							<ellipse transform="matrix(0.6098 -0.7925 0.7925 0.6098 -1.6486 381.8145)" style="fill:#FCA886;" cx="386.959" cy="192.582" rx="12.51" ry="12.51"/>
						<path style="fill:#5E1F3C;" d="M386.456,199.846c-0.023,0-0.047-0.001-0.071-0.001l0.004-0.5
							c2.798,0.004,5.033-1.224,6.268-3.505c1.331-2.458,1.218-5.749-0.276-8.002c-1.317-1.987-3.506-2.941-6.157-2.684
							l-0.049-0.498c2.849-0.268,5.197,0.756,6.623,2.905c1.616,2.439,1.737,5.862,0.3,8.517
							C391.78,198.509,389.424,199.845,386.456,199.846z"/>
						<path style="fill:#5E1F3C;" d="M393.363,194.245c-0.59-1.104-1.808-1.906-3.104-2.044c-1.44-0.152-2.847,0.492-3.968,1.814
							l-0.381-0.323c1.231-1.454,2.794-2.161,4.401-1.987c1.479,0.158,2.817,1.041,3.493,2.306L393.363,194.245z"/>
						<path style="fill:#FFFFFF;" d="M391.303,206.738c-1.491,0-2.787-1.115-2.973-2.632c-0.091-0.74,0.096-1.484,0.526-2.094
							c0.08-0.114,0.236-0.14,0.349-0.06c0.112,0.08,0.14,0.235,0.06,0.348c-0.358,0.508-0.515,1.128-0.438,1.745
							c0.168,1.366,1.416,2.342,2.782,2.174c0.592-0.073,1.138-0.354,1.538-0.794c0.093-0.102,0.251-0.108,0.353-0.016
							c0.103,0.093,0.109,0.251,0.017,0.353c-0.48,0.527-1.137,0.866-1.847,0.953C391.546,206.731,391.424,206.738,391.303,206.738z
							"/>
						<path style="fill:#FFFFFF;" d="M319.073,216.768c-0.319,0-0.639-0.051-0.947-0.153c-1.567-0.522-2.419-2.222-1.898-3.789
							c0.236-0.709,0.724-1.3,1.375-1.665c0.121-0.068,0.272-0.025,0.34,0.095c0.068,0.121,0.025,0.273-0.095,0.34
							c-0.542,0.304-0.949,0.797-1.145,1.388c-0.434,1.306,0.275,2.722,1.581,3.156c0.564,0.189,1.18,0.168,1.73-0.057
							c0.129-0.053,0.273,0.009,0.326,0.137c0.052,0.128-0.009,0.274-0.137,0.326C319.842,216.694,319.458,216.768,319.073,216.768z
							"/>
					</g>
					
						<ellipse transform="matrix(0.8427 -0.5384 0.5384 0.8427 -47.6945 219.2951)" style="fill:#FCA886;" cx="351.424" cy="191.265" rx="33.804" ry="33.803"/>
					<path style="fill:#5E1F3C;" d="M351.892,225.768c-4.322,0-8.979-0.927-12.567-2.569l0.208-0.455
						c4.444,2.035,10.558,2.953,15.583,2.336c4.684-0.575,9.176-2.262,12.992-4.88l0.283,0.412
						c-3.882,2.663-8.452,4.38-13.215,4.964C354.121,225.705,353.018,225.768,351.892,225.768z"/>
					<path style="fill:#5E1F3C;" d="M324.046,211.527c-0.535-0.722-1.048-1.475-1.524-2.237l0.424-0.265
						c0.469,0.751,0.974,1.493,1.501,2.204L324.046,211.527z"/>
					<path style="fill:#5E1F3C;" d="M382.916,204.304l-0.461-0.192c0.338-0.813,0.649-1.654,0.925-2.501l0.475,0.154
						C383.576,202.624,383.26,203.479,382.916,204.304z"/>
					<path style="fill:#D85B6B;" d="M317.943,178.799c5.096-2.157,15.886-5.428,15.886-5.428c-0.435-2.001-0.491-4.149-0.283-6.401
						c0.409,2.291,0.902,4.441,1.74,6.009l4.949-1.13c-0.353-1.627-0.444-3.295-0.191-5.016c0.45,1.79,1.116,3.359,2.158,4.544
						c5.848-1.097,13.505-2.006,18.998-2.187c-0.072-2.836-0.993-5.554-2.3-8.218c2.131,2.513,3.73,5.244,4.636,8.26
						c0,0,8.511,0.041,16.477,1.464c0,0-5.454-22.143-32.655-19.357C320.158,154.126,317.943,178.799,317.943,178.799z"/>
					<g>
						<path style="fill:#FFFFFF;" d="M346.208,200.574c0.55,3.367,3.66,5.729,7.076,5.31c3.416-0.419,5.862-3.463,5.583-6.863
							C354.294,198.199,350.074,198.717,346.208,200.574z"/>
						<path style="fill:#5E1F3C;" d="M348.218,194.498l-0.497-0.054c0.004-0.036,0.418-3.554,3.411-4.291
							c3.007-0.742,4.992,3.059,5.075,3.22l-0.445,0.228c-0.018-0.036-1.876-3.607-4.511-2.962
							C348.602,191.29,348.222,194.465,348.218,194.498z"/>
						<path style="fill:#5E1F3C;" d="M342.332,184.868c0.116,0.945-2.382,0.01-5.277,0.366c-2.896,0.355-5.093,1.866-5.209,0.921
							c-0.116-0.945,2.167-2.887,5.063-3.243C339.804,182.557,342.216,183.923,342.332,184.868z"/>
						<path style="fill:#5E1F3C;" d="M371.407,181.301c0.116,0.945-2.382,0.01-5.277,0.366c-2.896,0.355-5.093,1.866-5.209,0.921
							s2.167-2.887,5.063-3.243C368.879,178.99,371.291,180.356,371.407,181.301z"/>
						<path style="fill:#ED8E6E;" d="M337.112,195.394c0.107,0.869-1.787,1.816-4.23,2.116c-2.443,0.3-4.509-0.162-4.616-1.031
							s1.787-1.816,4.23-2.116C334.939,194.064,337.005,194.525,337.112,195.394z"/>
						<path style="fill:#ED8E6E;" d="M376.83,190.521c0.107,0.869-1.787,1.816-4.229,2.116c-2.443,0.3-4.509-0.162-4.616-1.031
							c-0.107-0.869,1.787-1.816,4.229-2.116C374.656,189.191,376.723,189.652,376.83,190.521z"/>
						<path style="fill:#5E1F3C;" d="M352.756,209.059c-0.664,0-1.337-0.087-2.018-0.262l0.124-0.484
							c1.865,0.479,3.669,0.258,5.361-0.658l0.237,0.44C355.272,208.737,354.032,209.059,352.756,209.059z"/>
						<path style="fill:#5E1F3C;" d="M339.055,190.142c0.107,0.875-0.515,1.671-1.39,1.779c-0.875,0.107-1.671-0.515-1.779-1.39
							c-0.107-0.875,0.515-1.671,1.39-1.779C338.152,188.645,338.948,189.267,339.055,190.142z"/>
						<path style="fill:#5E1F3C;" d="M368.067,186.582c0.107,0.875-0.515,1.671-1.39,1.778c-0.875,0.107-1.671-0.515-1.779-1.39
							c-0.107-0.875,0.515-1.671,1.39-1.779C367.163,185.085,367.96,185.707,368.067,186.582z"/>
						<g>
							<path style="fill:#FFFFFF;" d="M332.06,205.725c-3.087,0-6.081-0.985-8.605-2.86c-3.107-2.308-5.129-5.688-5.694-9.517
								c-1.168-7.905,4.309-15.286,12.209-16.453c7.906-1.169,15.278,4.313,16.446,12.218c1.169,7.905-4.309,15.286-12.208,16.453
								C333.49,205.672,332.772,205.725,332.06,205.725z M332.094,177.238c-0.677,0-1.362,0.049-2.052,0.151
								c-7.627,1.127-12.915,8.253-11.787,15.885c0.546,3.697,2.499,6.96,5.498,9.188c2.999,2.228,6.684,3.153,10.38,2.608
								c7.627-1.127,12.915-8.254,11.787-15.886C344.895,182.244,338.909,177.238,332.094,177.238z"/>
							<path style="fill:#FFFFFF;" d="M370.731,200.009c-3.087,0-6.081-0.985-8.604-2.86c-3.107-2.308-5.129-5.688-5.694-9.517
								c-1.168-7.905,4.309-15.286,12.208-16.453c7.907-1.166,15.278,4.314,16.446,12.218l0,0
								c1.168,7.905-4.31,15.286-12.209,16.453C372.161,199.957,371.443,200.009,370.731,200.009z M370.766,171.523
								c-0.677,0-1.362,0.049-2.052,0.151c-7.628,1.127-12.915,8.253-11.787,15.885c0.546,3.697,2.499,6.96,5.498,9.188
								c2.999,2.228,6.683,3.151,10.38,2.608c7.627-1.127,12.915-8.254,11.788-15.886l0,0
								C383.566,176.529,377.579,171.523,370.766,171.523z"/>
							<path style="fill:#FFFFFF;" d="M345.228,185.451l-0.443-0.23c0.962-1.854,2.666-3.166,4.798-3.694
								c2.478-0.616,5.211-0.058,7.496,1.526l-0.285,0.411c-2.167-1.504-4.751-2.034-7.091-1.452
								C347.713,182.505,346.124,183.726,345.228,185.451z"/>
						</g>
					</g>
				</g>
			</g>
		</g>
		<g>
			<g>
				<path style="fill:#D85B6B;" d="M147.582,135.651c1.549,1.552-2.874,5.956-4.421,4.402l-21.008-21.1l4.421-4.402L147.582,135.651
					z"/>
				<path style="fill:#D85B6B;" d="M107.398,62.743L88.884,81.177L70.37,99.611c0,0,7.427,8.38,12.209,7.104
					c0,0,33.705,26.482,47.698,16.035c10.508-13.948-15.828-47.767-15.828-47.767C115.746,70.206,107.398,62.743,107.398,62.743z"/>
				<path style="fill:#D85B6B;" d="M81.357,73.616c-5.302,5.279-10.015,10.545-13.271,14.828c-4.033,5.304-6.032,9.094-3.542,11.595
					c2.49,2.501,6.288,0.518,11.61-3.491c4.297-3.237,9.583-7.927,14.885-13.206c5.302-5.279,10.015-10.545,13.271-14.828
					c4.033-5.305,6.032-9.094,3.542-11.595c-2.49-2.501-6.288-0.518-11.61,3.492C91.945,63.647,86.659,68.337,81.357,73.616
					L81.357,73.616z"/>
				<path style="fill:#C1485C;" d="M82.694,74.959c10.764-10.717,20.875-18.013,22.585-16.296
					c1.709,1.717-5.631,11.797-16.394,22.514C78.12,91.894,68.009,99.19,66.299,97.473C64.59,95.756,71.93,85.676,82.694,74.959"/>
				<path style="fill:#5E1F3C;" d="M66.501,95.729l-0.475-0.156c1.279-3.888,7.906-12.243,16.491-20.791l0.353,0.354
					C74.469,83.501,67.738,91.969,66.501,95.729z"/>
				<path style="fill:#5E1F3C;" d="M82.87,75.136l-0.353-0.354c8.173-8.137,16.134-14.491,20.281-16.187l0.189,0.463
					C98.96,60.705,90.875,67.166,82.87,75.136z"/>
				<path style="fill:#5E1F3C;" d="M82.662,106.95l-0.166-0.472c8.773-3.096,27.157-21.405,31.726-31.598l0.456,0.204
					C110.072,85.36,91.521,103.824,82.662,106.95z"/>
				<path style="fill:#5E1F3C;" d="M70.911,100.296l-0.227-0.445c1.41-0.718,3.1-1.831,5.319-3.503
					c4.285-3.228,9.563-7.91,14.859-13.184c5.295-5.272,10-10.529,13.248-14.802c1.682-2.212,2.803-3.897,3.526-5.303l0.444,0.229
					c-0.737,1.433-1.872,3.142-3.572,5.377c-3.261,4.291-7.982,9.565-13.294,14.854c-5.313,5.289-10.608,9.987-14.911,13.229
					C74.062,98.438,72.348,99.565,70.911,100.296z"/>
				<path style="fill:#5E1F3C;" d="M127.499,124.51l-0.114-0.487c1.548-0.362,3.689-2.246,4.238-4.225l0.481,0.134
					C131.552,121.926,129.399,124.065,127.499,124.51z"/>
				<path style="fill:#5E1F3C;" d="M141.485,138.557l-0.114-0.487c1.548-0.362,3.689-2.246,4.238-4.225l0.481,0.134
					C145.538,135.973,143.385,138.112,141.485,138.557z"/>
				<path style="fill:#5E1F3C;" d="M136.901,133.953l-0.114-0.487c1.548-0.362,3.689-2.247,4.238-4.226l0.482,0.134
					C140.953,131.368,138.801,133.507,136.901,133.953z"/>
				<path style="fill:#5E1F3C;" d="M132.316,129.348l-0.114-0.487c1.548-0.362,3.688-2.246,4.238-4.225l0.482,0.134
					C136.369,126.764,134.216,128.903,132.316,129.348z"/>
				<path style="fill:#5E1F3C;" d="M116.781,124.873l-0.004-0.5c4.258-0.037,14.715-10.461,15.121-15.074l0.498,0.044
					c-0.229,2.602-3.485,6.732-6.205,9.478C123.31,121.732,119.323,124.851,116.781,124.873z"/>
				<path style="fill:#5E1F3C;" d="M120.573,125.204l-0.192-0.461c4.3-1.798,10.075-7.697,11.881-12.14l0.463,0.188
					C130.878,117.332,124.972,123.365,120.573,125.204z"/>
				<path style="fill:#5E1F3C;" d="M122.832,125.471l-0.161-0.474c3.775-1.285,8.556-6.195,9.836-10.103l0.476,0.155
					C131.662,119.08,126.729,124.145,122.832,125.471z"/>
			</g>
			<g>
				<path style="fill:#FFFFFF;" d="M690.042,388.287c5.979-5.298,9.147-15.69,11.019-23.919c2.187-9.114,6.812-14.261,7.979-15.447
					l0.559-0.51c10.38-9.475,11.121-25.72,1.646-36.1h0c-9.475-10.38-25.72-11.121-36.1-1.646l-0.273,0.25
					c0,0-5.741,5.24-16.404,6.79c-8.366,1.115-19.002,3.324-24.823,8.796c-5.979,5.298-9.088,15.448-10.96,23.677
					c-2.594,10.378-9.615,17.148-9.615,17.148l-4.437,4.05c-10.38,9.475-11.121,25.72-1.646,36.1v0
					c9.475,10.38,25.72,11.121,36.1,1.646l4.652-4.246c1.301-1.055,8.223-6.355,17.727-7.829
					C673.831,395.932,684.221,393.759,690.042,388.287z"/>
				<path style="fill:#EAC6BB;" d="M627.217,410.5c-0.317,0-0.635-0.007-0.953-0.022c-5.421-0.247-10.407-2.575-14.04-6.555
					l-1.231-1.35c-7.53-8.25-6.945-21.089,1.304-28.619l65.084-59.406c3.981-3.634,9.16-5.497,14.578-5.251
					c5.421,0.247,10.407,2.576,14.04,6.556l1.232,1.349c7.53,8.25,6.945,21.089-1.304,28.619l-65.084,59.406
					C637.096,408.647,632.288,410.5,627.217,410.5z M612.593,403.586c3.543,3.882,8.406,6.152,13.693,6.393
					c5.285,0.249,10.338-1.577,14.218-5.12l65.084-59.406c8.046-7.345,8.617-19.866,1.273-27.912l-1.232-1.349
					c-3.543-3.882-8.406-6.152-13.693-6.393c-5.31-0.255-10.338,1.577-14.218,5.12l-65.084,59.406
					c-8.046,7.345-8.617,19.866-1.273,27.912L612.593,403.586z"/>
				<path style="fill:#EAC6BB;" d="M627.553,405.039c-4.363,0-8.524-1.614-11.489-4.862l-0.99-1.087
					c-6.077-6.657-4.864-17.693,2.703-24.602c8.68-7.957,13.529-10.878,18.664-13.97c2.533-1.525,5.152-3.104,8.389-5.36
					c4.002-2.859,7.661-6.199,10.873-9.925c2.708-3.236,4.547-5.737,6.324-8.156c3.572-4.858,6.656-9.056,15.386-17.022
					c3.646-3.329,8.232-5.212,12.914-5.302c0.117-0.003,0.234-0.004,0.352-0.004c4.552,0,8.617,1.716,11.481,4.852l0.99,1.086
					c6.077,6.657,4.864,17.694-2.703,24.602c-8.73,7.968-13.189,10.658-18.354,13.772c-2.57,1.551-5.228,3.153-8.699,5.558
					c-4.002,2.859-7.661,6.199-10.873,9.925c-2.54,3.015-4.349,5.479-6.099,7.863c-3.547,4.832-6.898,9.396-15.612,17.316
					C636.934,403.26,632.132,405.039,627.553,405.039z M690.677,315.249c-0.113,0-0.227,0.001-0.341,0.004
					c-4.56,0.088-9.029,1.924-12.586,5.171c-8.693,7.934-11.765,12.112-15.32,16.95c-1.782,2.425-3.626,4.933-6.347,8.183
					c-3.24,3.76-6.929,7.126-10.966,10.01c-3.252,2.269-5.879,3.851-8.419,5.38c-5.113,3.079-9.941,5.987-18.584,13.911
					c-7.364,6.722-8.563,17.441-2.672,23.896l0.99,1.087c5.892,6.452,16.676,6.232,24.039-0.486
					c8.679-7.887,12.015-12.432,15.546-17.243c1.755-2.391,3.569-4.862,6.121-7.892c3.24-3.759,6.929-7.125,10.966-10.009
					c3.488-2.416,6.152-4.023,8.729-5.577c5.142-3.101,9.581-5.779,18.273-13.714c7.364-6.722,8.563-17.441,2.672-23.896
					l-0.99-1.085C699.022,316.907,695.087,315.249,690.677,315.249z"/>
				<path style="fill:#D85B6B;" d="M680.675,340.205l0.246,0.27c2.969,3.252,2.367,8.679-1.337,12.06
					c-6.441,5.879-8.158,5.944-13.442,9.603c-2.001,1.43-3.825,3.094-5.431,4.957c-3.885,4.612-4.37,6.68-10.787,12.512
					c-3.704,3.381-9.163,3.486-12.132,0.234l-0.247-0.27l-0.246-0.27c-2.969-3.252-2.367-8.679,1.337-12.06
					c6.392-5.86,8.496-6.154,13.442-9.603c2.001-1.43,3.825-3.094,5.431-4.957c4.125-4.929,4.346-6.633,10.787-12.512
					c3.704-3.381,9.163-3.486,12.132-0.234L680.675,340.205z"/>
				<polygon style="fill:#EAC6BB;" points="615.761,365.028 615.423,364.659 673.368,311.768 673.706,312.137 				"/>
				<polygon style="fill:#EAC6BB;" points="650.44,403.02 650.102,402.65 708.046,349.76 708.384,350.129 				"/>
				<path style="fill:#5E1F3C;" d="M636.124,330.69c-0.024,0-0.048,0-0.072-0.001c-0.412-0.02-0.791-0.197-1.068-0.502
					c-0.278-0.303-0.421-0.697-0.402-1.108c0.019-0.412,0.197-0.792,0.501-1.069c0.63-0.573,1.606-0.528,2.179,0.099
					c0.278,0.305,0.421,0.699,0.402,1.11c-0.019,0.412-0.197,0.792-0.501,1.069h-0.001
					C636.875,330.55,636.509,330.69,636.124,330.69z M636.122,328.107c-0.251,0-0.503,0.09-0.703,0.272
					c-0.205,0.188-0.325,0.444-0.338,0.723c-0.013,0.278,0.084,0.544,0.271,0.749c0.387,0.425,1.047,0.457,1.472,0.068l0,0
					c0.425-0.388,0.455-1.049,0.067-1.473C636.686,328.222,636.405,328.107,636.122,328.107z"/>
				<path style="fill:#5E1F3C;" d="M688.482,386.512c-0.527,0.481-1.344,0.444-1.826-0.083c-0.481-0.527-0.444-1.344,0.083-1.826
					c0.527-0.481,1.344-0.444,1.826,0.083C689.046,385.213,689.009,386.031,688.482,386.512z"/>
			</g>
			<g>
				<path style="fill:#FFFFFF;" d="M267.734,138.166l-90.988,38.197c-1.372,0.576-2.966-0.075-3.542-1.447l-3.302-7.867
					c-0.576-1.372,0.075-2.966,1.447-3.542l90.988-38.197c1.372-0.576,2.966,0.075,3.542,1.447l3.302,7.867
					C269.757,135.996,269.106,137.59,267.734,138.166z"/>
				
					<rect x="128.248" y="174.886" transform="matrix(-0.922 0.3871 -0.3871 -0.922 360.4323 286.3097)" style="fill:#FFFFFF;" width="46.276" height="9.125"/>
				<path style="fill:#FFFFFF;" d="M264.566,143.169c-24.76,12.98-51.026,23.865-78.563,32.981c-1.04,0.437-2.248-0.057-2.685-1.097
					l-6.431-15.319c-0.437-1.04,0.057-2.248,1.097-2.685c21.515-10.881,46.302-21.841,78.563-32.981
					C261.97,124.954,267.786,139.667,264.566,143.169z"/>
				<path style="fill:#5E1F3C;" d="M265.208,139.149c-0.521-4.632-2.341-8.904-5.411-12.697l0.389-0.314
					c3.13,3.868,4.987,8.228,5.519,12.956L265.208,139.149z"/>
				<path style="fill:#EAC6BB;" d="M219.294,157.498l-15.648,6.569c-3,1.259-6.484-0.165-7.743-3.164l0,0
					c-1.259-3,0.165-6.484,3.164-7.743l15.648-6.569c3-1.259,6.484,0.165,7.743,3.164l0,0
					C223.717,152.754,222.293,156.239,219.294,157.498z"/>
				<path style="fill:#F9E4DC;" d="M218.073,155.771l-14.806,6.215c-0.649,0.272-1.402-0.036-1.675-0.684l-1.991-4.742
					c-0.272-0.649,0.036-1.402,0.684-1.675l14.806-6.215c0.649-0.272,1.402,0.036,1.675,0.684l1.991,4.742
					C219.03,154.746,218.722,155.499,218.073,155.771z"/>
				
					<rect x="205.51" y="152.684" transform="matrix(0.922 -0.3871 0.3871 0.922 -44.5087 92.0589)" style="fill:#D85B6B;" width="1.595" height="7.701"/>
				
					<rect x="211.255" y="150.273" transform="matrix(0.922 -0.3871 0.3871 0.922 -43.1274 94.0946)" style="fill:#D85B6B;" width="1.595" height="7.701"/>
				
					<rect x="171.304" y="166.419" transform="matrix(0.922 -0.3871 0.3871 0.922 -52.8109 79.735)" style="fill:#5E1F3C;" width="0.5" height="9.125"/>
				
					<rect x="179.852" y="160.422" transform="matrix(0.922 -0.3871 0.3871 0.922 -50.7559 82.7659)" style="fill:#5E1F3C;" width="0.5" height="13.942"/>
				<g>
					
						<rect x="132.303" y="184.904" transform="matrix(0.922 -0.3871 0.3871 0.922 -62.0715 66.0825)" style="fill:#FFB229;" width="1.463" height="4.497"/>
					
						<rect x="134.57" y="183.953" transform="matrix(0.9221 -0.3871 0.3871 0.9221 -61.5261 66.8853)" style="fill:#FFB229;" width="1.463" height="4.497"/>
					
						<rect x="136.837" y="183.001" transform="matrix(0.9221 -0.3871 0.3871 0.9221 -60.981 67.6887)" style="fill:#FFB229;" width="1.463" height="4.497"/>
					
						<rect x="139.104" y="182.049" transform="matrix(0.922 -0.3871 0.3871 0.922 -60.4432 68.5046)" style="fill:#FFB229;" width="1.463" height="4.497"/>
					
						<rect x="141.371" y="181.097" transform="matrix(0.9221 -0.3871 0.3871 0.9221 -59.8908 69.2953)" style="fill:#FFB229;" width="1.463" height="4.497"/>
				</g>
			</g>
			<g>
				<path style="fill:#FFFFFF;" d="M47.834,253.195c37.729-18.117,72.152-28.616,111.028-33.863
					c11.231,14.639,17.736,30.171,21.849,50.718c-26.805,2.297-41.188,18.334-44.861,35.868c-8.547,3.742-17.362,6.442-26.452,8.068
					c-17.646-12.585-30.083-15.668-53.601-9.403C50.805,288.217,46.976,268.335,47.834,253.195z"/>
				<path style="fill:#F9CFD6;" d="M91.245,239.377c-1.352,0.437-2.727,0.807-4.045,1.341c-1.355,0.549-2.699,1.173-4.142,1.45
					c-0.011,0.159-0.037,0.315-0.034,0.477c0.039,1.742,1.09,3.272,2.672,4.001c1.574,0.725,4.143,0.852,5.279-0.685
					c0.887-1.201,1.095-2.993,1.037-4.444C91.979,240.679,91.693,239.961,91.245,239.377z"/>
				<path style="fill:#F9CFD6;" d="M112.892,286.752c0.039,1.742,1.09,3.273,2.672,4.001c1.574,0.725,4.143,0.852,5.279-0.685
					c0.888-1.201,1.095-2.993,1.037-4.444c-0.093-2.326-2.08-3.772-4.299-3.787C114.76,281.818,112.832,284.107,112.892,286.752z"/>
				<path style="fill:#D85B6B;" d="M112.001,313.489c7.498-1.519,14.807-3.776,21.931-6.751c0.087-0.937,1.139-12.603,8.002-20.588
					c-18.968-2.261-35.247,2.858-49.088,14.629C105.91,305.458,111.136,313.665,112.001,313.489z"/>
				<path style="fill:#5E1F3C;" d="M92.76,301.016c-11.09-4.024-24.321-4.314-38.261-0.843l-0.121-0.484
					c14.037-3.499,27.369-3.201,38.553,0.856L92.76,301.016z"/>
				<path style="fill:#F9CFD6;" d="M114.897,232.107c-0.846,0.249-1.662,0.579-2.511,0.818c-0.946,0.267-1.901,0.515-2.864,0.71
					c-0.864,0.174-1.741,0.342-2.543,0.718c0.469,0.764,1.158,1.393,2.01,1.785c1.574,0.725,4.143,0.852,5.279-0.685
					c0.698-0.944,0.972-2.251,1.03-3.473C115.164,232.024,115.031,232.067,114.897,232.107z"/>
				<path style="fill:#F9CFD6;" d="M148.184,279.138c0.695-0.458,1.342-0.944,2.001-1.452c0.673-0.52,1.376-0.983,2.079-1.459
					c0.671-0.455,1.255-1.023,1.881-1.536c-0.571-1.67-2.237-2.68-4.079-2.692c-2.82-0.019-4.748,2.27-4.689,4.915
					c0.029,1.308,0.629,2.497,1.596,3.317C147.199,279.743,147.736,279.434,148.184,279.138z"/>
				<path style="fill:#5E1F3C;" d="M142.135,286.299l-0.402-0.297c8.027-10.851,21.135-18.113,37.907-21.004l0.085,0.492
					C163.082,268.358,150.083,275.554,142.135,286.299z"/>
				<path style="fill:#5E1F3C;" d="M47.826,257.038l-0.212-0.453c35.679-16.703,73.818-28.335,113.358-34.574l0.078,0.494
					C121.557,228.736,83.462,240.355,47.826,257.038z"/>
				<path style="fill:#F9CFD6;" d="M69.137,276.615c-0.149-0.698-0.378-1.379-0.517-2.078c-0.132-0.666-0.128-1.348-0.164-2.024
					c-0.642-0.323-1.373-0.51-2.139-0.515c-2.82-0.019-4.748,2.27-4.689,4.915c0.039,1.742,1.09,3.272,2.672,4.001
					c1.574,0.725,4.143,0.852,5.279-0.685c0.009-0.012,0.016-0.027,0.025-0.039c-0.036-0.537-0.069-1.075-0.108-1.612
					C69.389,277.922,69.276,277.266,69.137,276.615z"/>
				<path style="fill:#F9CFD6;" d="M155.763,257.263c-0.537-0.894-1.112-1.767-1.549-2.714c-0.303-0.657-0.539-1.342-0.803-2.015
					c-0.264-0.673-0.556-1.335-0.798-2.016c-0.181-0.021-0.361-0.047-0.546-0.048c-2.82-0.019-4.748,2.27-4.689,4.914
					c0.039,1.742,1.09,3.272,2.672,4.001c1.574,0.725,4.143,0.852,5.279-0.685c0.243-0.329,0.427-0.706,0.576-1.104
					C155.853,257.487,155.808,257.375,155.763,257.263z"/>
				<path style="fill:#F9CFD6;" d="M146.006,239.061c-0.229-0.321-0.421-0.669-0.613-1.012c-0.404-0.724-0.835-1.431-1.244-2.152
					c-0.418-0.74-0.775-1.534-1.251-2.238c-0.418-0.616-0.958-1.139-1.436-1.706c-1.541,0.83-2.494,2.494-2.453,4.352
					c0.039,1.742,1.09,3.273,2.672,4.001c1.445,0.665,3.714,0.811,4.957-0.355C146.495,239.619,146.214,239.352,146.006,239.061z"/>
				<path style="fill:#5E1F3C;" d="M73.248,297.53c-4.602-15.604-6.447-32.288-5.484-49.587l0.499,0.027
					c-0.959,17.242,0.879,33.869,5.464,49.419L73.248,297.53z"/>
				<path style="fill:#5E1F3C;" d="M160.585,271.033c-4.896-15.538-12.673-30.439-23.116-44.289l0.399-0.301
					c10.477,13.895,18.28,28.847,23.193,44.439L160.585,271.033z"/>
				<path style="fill:#F9CFD6;" d="M76.312,261.726c0.039,1.742,1.09,3.272,2.672,4.001c1.574,0.725,4.143,0.852,5.279-0.685
					c0.888-1.201,1.095-2.993,1.037-4.444c-0.093-2.326-2.08-3.772-4.299-3.787C78.181,256.793,76.253,259.082,76.312,261.726z"/>
				<path style="fill:#F9CFD6;" d="M80.21,287.694c0.039,1.742,1.09,3.272,2.672,4.001c1.574,0.725,4.143,0.852,5.279-0.685
					c0.888-1.201,1.095-2.993,1.037-4.444c-0.093-2.326-2.08-3.772-4.299-3.787C82.079,282.761,80.151,285.05,80.21,287.694z"/>
				<path style="fill:#F9CFD6;" d="M97.318,274.205c0.039,1.742,1.09,3.273,2.672,4.001c1.574,0.725,4.143,0.852,5.279-0.685
					c0.888-1.201,1.095-2.993,1.037-4.444c-0.093-2.326-2.08-3.772-4.299-3.787C99.187,269.272,97.259,271.561,97.318,274.205z"/>
				<path style="fill:#F9CFD6;" d="M99.137,253.69c0.039,1.742,1.09,3.272,2.672,4.001c1.574,0.725,4.143,0.852,5.279-0.685
					c0.888-1.201,1.095-2.993,1.037-4.444c-0.093-2.326-2.08-3.772-4.299-3.787C101.006,248.757,99.078,251.046,99.137,253.69z"/>
				<path style="fill:#F9CFD6;" d="M125.207,268.672c0.039,1.742,1.09,3.273,2.672,4.001c1.574,0.725,4.143,0.852,5.279-0.685
					c0.888-1.201,1.095-2.993,1.037-4.444c-0.093-2.326-2.08-3.772-4.299-3.787C127.076,263.739,125.148,266.028,125.207,268.672z"
					/>
				<path style="fill:#F9CFD6;" d="M120.708,245.95c0.039,1.742,1.09,3.273,2.672,4.001c1.574,0.725,4.143,0.852,5.279-0.685
					c0.888-1.201,1.095-2.993,1.037-4.444c-0.093-2.326-2.08-3.772-4.299-3.787C122.576,241.017,120.648,243.306,120.708,245.95z"/>
				<path style="fill:#F9CFD6;" d="M156.31,244.45c0.039,1.742,1.09,3.273,2.672,4.001c1.574,0.725,4.143,0.852,5.279-0.685
					c0.887-1.201,1.095-2.993,1.037-4.444c-0.093-2.326-2.08-3.772-4.299-3.787C158.179,239.516,156.251,241.805,156.31,244.45z"/>
				<g>
					<path style="fill:#F9CFD6;" d="M54.259,268.758c0.888-1.201,1.095-2.993,1.037-4.444c-0.093-2.326-2.08-3.772-4.299-3.787
						c-1.288-0.009-2.375,0.479-3.186,1.247c0.102,2.381,0.289,4.828,0.548,7.319c0.197,0.13,0.403,0.249,0.621,0.349
						C50.554,270.167,53.123,270.295,54.259,268.758z"/>
					<path style="fill:#F9CFD6;" d="M157.462,229.808c0.039,1.742,1.09,3.272,2.672,4.001c1.574,0.725,4.143,0.852,5.279-0.685
						c0.548-0.741,0.835-1.708,0.962-2.68c-1.092-1.853-2.244-3.679-3.461-5.484c-0.25-0.04-0.505-0.065-0.764-0.067
						C159.33,224.875,157.402,227.163,157.462,229.808z"/>
					<path style="fill:#F9CFD6;" d="M170.686,257.009c0.039,1.742,1.09,3.272,2.672,4.001c1.522,0.701,3.962,0.829,5.149-0.552
						c-0.743-2.856-1.54-5.627-2.416-8.301c-0.235-0.035-0.474-0.061-0.717-0.063C172.554,252.075,170.626,254.364,170.686,257.009z
						"/>
					<path style="fill:#F9CFD6;" d="M55.673,295.728c0.888-1.201,1.095-2.993,1.037-4.444c-0.093-2.326-2.08-3.772-4.299-3.787
						c-0.358-0.002-0.701,0.034-1.028,0.102c0.676,3.128,1.424,6.225,2.225,9.259C54.43,296.727,55.186,296.387,55.673,295.728z"/>
				</g>
			</g>
			<g>
				<path style="fill:#FFFFFF;" d="M518.174,314.387l-1-0.004c0.024-5.312,3.346-9.118,6.932-12.441
					c1.99-1.844,3.885-3.949,4.262-6.836c0.122-0.934,0.15-1.915,0.177-2.863c0.054-1.866,0.108-3.796,0.858-5.615l0.924,0.381
					c-0.68,1.65-0.729,3.405-0.782,5.263c-0.027,0.974-0.057,1.98-0.185,2.964c-0.42,3.211-2.548,5.564-4.574,7.441
					C521.365,305.845,518.196,309.458,518.174,314.387z"/>
				<path style="fill:#FFFFFF;" d="M538.571,288.627l12.591-38.059c1.515-4.579-0.992-9.565-5.571-11.08l0,0
					c-4.579-1.515-9.565,0.992-11.08,5.571l-12.6,38.085c-0.39,1.177,0.249,2.448,1.427,2.837l12.36,4.089
					C536.89,290.466,538.176,289.819,538.571,288.627z"/>
				<g>
					<path style="fill:#EAC6BB;" d="M524.082,283.862l-0.475-0.156l12.473-37.701c1.002-3.03,3.229-5.417,5.81-6.228l0.15,0.477
						c-2.432,0.764-4.533,3.028-5.485,5.909L524.082,283.862z"/>
					<path style="fill:#EAC6BB;" d="M536.874,288.065l-0.475-0.156l12.465-37.675c0.952-2.88,0.615-5.952-0.88-8.015l0.404-0.293
						c1.588,2.19,1.952,5.434,0.95,8.465L536.874,288.065z"/>
				</g>
				<g>
					<path style="fill:#EAC6BB;" d="M527.299,284.927l-0.475-0.156l12.473-37.701c0.993-3.001,2.558-5.581,4.084-6.735l0.301,0.398
						c-1.449,1.097-2.947,3.585-3.91,6.494L527.299,284.927z"/>
					<path style="fill:#EAC6BB;" d="M533.657,287.001l-0.475-0.156l12.464-37.675c0.963-2.91,1.244-5.8,0.734-7.544l0.48-0.141
						c0.536,1.836,0.253,4.841-0.74,7.842L533.657,287.001z"/>
				</g>
				<path style="fill:#D85B6B;" d="M535.109,243.83c-0.032,0.371-0.106,1.15,0.367,1.289c0.673,0.198,1.321-0.569,2-0.539
					c0.843,0.037,0.864,1.15,0.805,1.765c-0.152,1.6-1.456,3.489-0.405,5.029c0.33,0.483,1.34,1.382,1.933,0.867
					c0.276-0.24,0.405-0.627,0.565-0.946c0.138-0.274,0.252-0.557,0.367-0.841c0.441-1.097,1.033-2.695,2.466-2.658
					c1.417,0.036,1.001,1.647,1.337,2.531c0.627,1.652,2.848,1.583,3.603,0.086c0.315-0.625,0.442-1.391,0.956-1.901
					c0.553-0.549,1.33-0.28,1.935,0.027c0.175,0.089,0.344,0.163,0.513,0.219c0.43-4.014-1.981-7.952-5.96-9.268l0,0
					c-4.08-1.35-8.475,0.498-10.458,4.154C535.125,243.705,535.114,243.767,535.109,243.83z"/>
			</g>
			<g>
				<path style="fill:#FFFFFF;" d="M243.926,203.756l-0.925-0.38c0.809-1.967,0.867-4.05,0.928-6.256
					c0.032-1.148,0.065-2.336,0.216-3.496c0.49-3.768,2.991-6.536,5.374-8.747c4.057-3.764,7.813-8.055,7.837-13.919l1,0.004
					c-0.025,6.246-3.935,10.731-8.157,14.649c-2.364,2.194-4.614,4.699-5.062,8.142c-0.144,1.109-0.176,2.271-0.208,3.395
					C244.868,199.347,244.805,201.62,243.926,203.756z"/>
				<path style="fill:#FFFFFF;" d="M233.168,201.434l-14.856,45.01c-1.787,5.415,1.181,11.309,6.596,13.096h0
					c5.415,1.787,11.309-1.181,13.096-6.596l14.867-45.042c0.46-1.392-0.297-2.894-1.689-3.354l-14.618-4.825
					C235.154,199.258,233.633,200.024,233.168,201.434z"/>
				<g>
					<path style="fill:#EAC6BB;" d="M229.27,259.152l-0.15-0.477c2.887-0.909,5.382-3.599,6.511-7.02l14.717-44.587l0.475,0.156
						l-14.717,44.587C234.926,255.384,232.307,258.196,229.27,259.152z"/>
					<path style="fill:#EAC6BB;" d="M221.635,256.633c-1.872-2.576-2.302-6.396-1.124-9.966l14.707-44.557l0.475,0.156
						l-14.707,44.557c-1.128,3.421-0.725,7.068,1.054,9.517L221.635,256.633z"/>
				</g>
				<g>
					<path style="fill:#EAC6BB;" d="M227.494,258.502l-0.302-0.399c1.719-1.301,3.494-4.253,4.633-7.703l14.717-44.587l0.475,0.156
						L232.3,250.557C231.13,254.099,229.289,257.143,227.494,258.502z"/>
					<path style="fill:#EAC6BB;" d="M223.449,257.168c-0.634-2.162-0.302-5.705,0.867-9.246l14.707-44.557l0.475,0.156
						l-14.707,44.557c-1.139,3.45-1.469,6.878-0.862,8.949L223.449,257.168z"/>
				</g>
				<path style="fill:#D85B6B;" d="M237.298,254.399c0.038-0.438,0.124-1.36-0.435-1.523c-0.796-0.233-1.562,0.674-2.364,0.639
					c-0.997-0.043-1.022-1.359-0.954-2.087c0.178-1.892,1.718-4.126,0.474-5.946c-0.391-0.571-1.585-1.632-2.286-1.023
					c-0.326,0.283-0.478,0.742-0.667,1.119c-0.162,0.324-0.298,0.658-0.433,0.995c-0.521,1.297-1.219,3.188-2.914,3.145
					c-1.676-0.042-1.185-1.947-1.583-2.992c-0.743-1.953-3.369-1.87-4.26-0.099c-0.372,0.739-0.522,1.645-1.129,2.248
					c-0.654,0.65-1.572,0.332-2.288-0.03c-0.207-0.105-0.407-0.192-0.607-0.259c-0.505,4.746,2.349,9.4,7.055,10.954h0
					c4.825,1.592,10.02-0.596,12.362-4.92C237.279,254.546,237.292,254.473,237.298,254.399z"/>
			</g>
			<g>
				<path style="fill:#FFB000;" d="M115.101,391.09l-14.157,22.21c-0.395,0.619-1.217,0.801-1.836,0.407l-42.29-26.956
					c-0.619-0.395-0.801-1.217-0.407-1.836l14.157-22.21c0.395-0.619,1.217-0.801,1.836-0.407l42.29,26.956
					C115.314,389.649,115.496,390.471,115.101,391.09z"/>
				<path style="fill:#FFFFFF;" d="M104.396,382.69l-7.075,11.1c-0.235,0.369-0.725,0.477-1.094,0.242l-20.356-12.975
					c-0.369-0.235-0.477-0.725-0.242-1.094l7.075-11.099L104.396,382.69z"/>
				<g>
					
						<rect x="45.531" y="368.316" transform="matrix(0.5375 -0.8433 0.8433 0.5375 -285.6687 223.6028)" style="fill:#FFFFFF;" width="30.964" height="7.829"/>
					
						<rect x="45.324" y="367.508" transform="matrix(0.5375 -0.8433 0.8433 0.5375 -285.3133 218.2117)" style="fill:#FFFFFF;" width="21.902" height="3.407"/>
					<polygon style="fill:#5E1F3C;" points="52.036,379.496 51.614,379.227 63.387,360.757 63.809,361.026 					"/>
				</g>
			</g>
			<g>
				<path style="fill:#FFB000;" d="M405.527,127.358l-23.045-8.09c-0.643-0.225-0.981-0.929-0.755-1.572l15.403-43.879
					c0.226-0.643,0.929-0.981,1.572-0.755l23.045,8.09c0.643,0.226,0.981,0.929,0.755,1.572l-15.403,43.88
					C406.873,127.245,406.169,127.583,405.527,127.358z"/>
				<path style="fill:#FFFFFF;" d="M410.072,118.131l-10.731-3.767c-0.362-0.127-0.553-0.524-0.426-0.886l8.995-25.625
					c0.127-0.362,0.524-0.553,0.886-0.425l10.731,3.767L410.072,118.131z"/>
				<g>
					
						<rect x="396.77" y="70.906" transform="matrix(0.9436 0.3312 -0.3312 0.9436 47.8935 -131.9644)" style="fill:#FFFFFF;" width="28.713" height="7.259"/>
					
						<rect x="402.697" y="68.041" transform="matrix(0.9436 0.3312 -0.3312 0.9436 46.3636 -132.8147)" style="fill:#FFFFFF;" width="20.31" height="3.159"/>
					
						<rect x="412.079" y="60.956" transform="matrix(0.3312 -0.9436 0.9436 0.3312 208.6579 436.6106)" style="fill:#5E1F3C;" width="0.5" height="20.309"/>
				</g>
			</g>
			<path style="fill:#D85B6B;" d="M651.554,95.665c0,0-4.699-17.522,2.024-17.471c6.723,0.05,4.382,8.351,4.382,8.351
				s4.663-7.184,10.687-1.756C674.671,90.216,651.554,95.665,651.554,95.665z"/>
			<path style="fill:#D85B6B;" d="M422.938,187.525c0,0-5.668-17.232,1.048-17.557c6.715-0.324,4.84,8.093,4.84,8.093
				s4.256-7.433,10.573-2.349C445.715,180.797,422.938,187.525,422.938,187.525z"/>
			<path style="fill:#FFB000;" d="M559.128,392.874c0,0-6.879-20.915,1.271-21.308c8.15-0.394,5.874,9.823,5.874,9.823
				s5.165-9.021,12.832-2.851C586.772,384.708,559.128,392.874,559.128,392.874z"/>
			<path style="fill:#D85B6B;" d="M209.743,326.718c0,0-13.492-6.297-9.912-10.495c3.581-4.199,7.561,1.655,7.561,1.655
				s-2.053-6.723,4.538-7.644C218.522,309.313,209.743,326.718,209.743,326.718z"/>
			<path style="fill:#D85B6B;" d="M536.594,414.251c0,0-12.099-10.91-7.008-14.155c5.091-3.246,7.38,4.153,7.38,4.153
				s0.005-7.691,7.196-6.543C551.354,398.854,536.594,414.251,536.594,414.251z"/>
			<g>
				<path style="fill:#D85B6B;" d="M337.289,88.999c0,0-20.293-17.993-11.863-23.466c8.43-5.474,12.344,6.811,12.344,6.811
					s-0.098-12.804,11.888-10.993C361.646,63.162,337.289,88.999,337.289,88.999z"/>
				<path style="fill:#D85B6B;" d="M307.4,70.282c0,0-21.682,3.837-20.913-4.287c0.769-8.124,10.559-4.419,10.559-4.419
					s-8.196-6.395-0.998-13.108C303.246,41.756,307.4,70.282,307.4,70.282z"/>
				<path style="fill:#D85B6B;" d="M332,136.804c0,0,7.749-35.116-5.56-34.419c-13.309,0.697-7.936,16.926-7.936,16.926
					s-9.872-13.813-21.32-2.528C285.738,128.067,332,136.804,332,136.804z"/>
			</g>
			<g>
				<path style="fill:#FFFFFF;" d="M155.367,356.5c0,0-4.71,2.608-5.294,5.665c-0.584,3.057-1.823-2.478-0.823-5.84
					c1-3.362,6.515-0.924,6.515-0.924L155.367,356.5z"/>
				<path style="fill:#FFFFFF;" d="M159.034,349.817c0,0-0.572-5.069,1.458-7.129c2.03-2.061-2.901-0.135-4.937,2.413
					c-2.036,2.547,2.853,5.605,2.853,5.605L159.034,349.817z"/>
				<path style="fill:#FFFFFF;" d="M155.307,354.132c0,0-5.27-0.147-5.153-1.259c0.117-1.111,2.202-4.682,3.153-4.985
					c0.951-0.303,3.297,3.582,3.297,3.582L155.307,354.132z"/>
				<path style="fill:#FFFFFF;" d="M154.638,358c0,0-7.02,9.125-0.729,12.595c6.291,3.47-0.22-6.53,2.517-11.75
					C159.164,353.625,154.638,358,154.638,358z"/>
				<path style="fill:#FFFFFF;" d="M159.84,348.144c0,0,2-11.338,8.806-9.034c6.806,2.303-4.969,4.242-6.976,9.785
					C159.664,354.436,159.84,348.144,159.84,348.144z"/>
				<path style="fill:#FFFFFF;" d="M157.942,357.661c0,0-0.961,16.964,7.285,13.002c8.246-3.962-4.13-7.534-5.831-13.791
					C158.831,351.982,157.942,357.661,157.942,357.661z"/>
				<path style="fill:#FFFFFF;" d="M161.011,356.402c0,0,9.944,14.413,14.585,6.78c4.64-7.633-14.042-8.807-14.042-8.807
					L161.011,356.402z"/>
				<path style="fill:#FFFFFF;" d="M161.883,353.598c4.772-2.699,15.703-0.366,15.053-4.874c-1.47-4.742-6.209-5.007-16.165,1.875
					L161.883,353.598z"/>
				<path style="fill:#FFB000;" d="M160.839,349.015c1.715,0.827,2.082,3.619,0.82,6.236c-1.262,2.617-3.675,4.067-5.39,3.24
					c-1.715-0.827-2.082-3.619-0.82-6.236C156.711,349.638,159.124,348.188,160.839,349.015z"/>
			</g>
			<g>
				<path style="fill:#FFFFFF;" d="M188.002,75.395c0,0-5.923-6.065-10.809-5.677c-4.886,0.387,3.003-3.801,8.525-3.684
					c5.522,0.118,4.118,9.507,4.118,9.507L188.002,75.395z"/>
				<path style="fill:#FFFFFF;" d="M199.68,78.179c0,0,7.458-2.981,11.434-0.757c3.975,2.224-1.004-4.462-5.721-6.492
					c-4.717-2.03-7.323,6.668-7.323,6.668L199.68,78.179z"/>
				<path style="fill:#FFFFFF;" d="M191.574,74.317c0,0-1.973-8.064-0.236-8.349c1.736-0.285,8.028,1.392,8.885,2.71
					c0.856,1.318-4.066,6.5-4.066,6.5L191.574,74.317z"/>
				<path style="fill:#FFFFFF;" d="M185.421,74.914c0,0-16.782-6.858-19.43,4.142c-2.648,11,9.825-3.056,18.892-1.074
					C193.951,79.963,185.421,74.914,185.421,74.914z"/>
				<path style="fill:#FFFFFF;" d="M202.556,78.706c0,0,18.05-1.688,17.389,9.607c-0.661,11.295-8.513-5.778-17.766-6.516
					C192.927,81.061,202.556,78.706,202.556,78.706z"/>
				<path style="fill:#FFFFFF;" d="M187.312,79.79c0,0-26.162,5.61-16.708,16.481c9.453,10.87,9.72-9.412,18.513-14.602
					C196.306,78.773,187.312,79.79,187.312,79.79z"/>
				<path style="fill:#FFFFFF;" d="M190.504,83.926c0,0-17.743,21.108-4.218,24.973c13.525,3.866,7.522-24.993,7.522-24.993
					L190.504,83.926z"/>
				<path style="fill:#FFFFFF;" d="M195.124,84.082c6.087,6.122,7.1,23.694,13.674,20.828c6.588-4.209,5.015-11.516-9.584-23.767
					L195.124,84.082z"/>
				<path style="fill:#FFB000;" d="M201.649,80.586c-0.541,2.949-4.628,4.67-9.127,3.844c-4.5-0.826-7.708-3.886-7.167-6.835
					c0.541-2.949,4.628-4.67,9.128-3.844C198.982,74.576,202.191,77.637,201.649,80.586z"/>
			</g>
			<g>
				<path style="fill:#FFFFFF;" d="M456.758,300.197c0,0-3.847-4.097-7.091-3.904c-3.244,0.193,2.04-2.481,5.699-2.331
					s2.606,6.356,2.606,6.356L456.758,300.197z"/>
				<path style="fill:#FFFFFF;" d="M464.462,302.194c0,0,4.983-1.879,7.589-0.354c2.606,1.525-0.608-2.97-3.708-4.378
					c-3.1-1.407-4.941,4.325-4.941,4.325L464.462,302.194z"/>
				<path style="fill:#FFFFFF;" d="M459.139,299.529c0,0-1.203-5.371-0.048-5.537c1.155-0.166,5.303,1.027,5.854,1.912
					c0.551,0.885-2.779,4.256-2.779,4.256L459.139,299.529z"/>
				<path style="fill:#FFFFFF;" d="M455.053,299.845c0,0-11.035-4.764-12.933,2.493c-1.898,7.257,6.552-1.898,12.537-0.467
					C460.642,303.303,455.053,299.845,455.053,299.845z"/>
				<path style="fill:#FFFFFF;" d="M466.362,302.581c0,0,11.987-0.885,11.402,6.594c-0.585,7.478-5.568-3.94-11.691-4.549
					C459.949,304.017,466.362,302.581,466.362,302.581z"/>
				<path style="fill:#FFFFFF;" d="M456.243,303.102c0,0-17.414,3.379-11.289,10.707c6.125,7.328,6.565-6.112,12.461-9.439
					C462.218,302.544,456.243,303.102,456.243,303.102z"/>
				<path style="fill:#FFFFFF;" d="M458.305,305.885c0,0-12.035,13.761-3.12,16.499c8.915,2.738,5.31-16.469,5.31-16.469
					L458.305,305.885z"/>
				<path style="fill:#FFFFFF;" d="M461.366,306.048c3.955,4.137,4.399,15.798,8.794,13.984c4.421-2.704,3.474-7.568-6.045-15.878
					L461.366,306.048z"/>
				<path style="fill:#FFB000;" d="M465.737,303.815c-0.397,1.948-3.128,3.035-6.1,2.43c-2.972-0.606-5.059-2.676-4.662-4.624
					c0.397-1.948,3.128-3.036,6.1-2.43C464.046,299.797,466.134,301.867,465.737,303.815z"/>
			</g>
			<path style="fill:#FFFFFF;" d="M558.522,305.981c-8.811,3.936-12.777,14.305-8.842,23.116
				c3.936,8.811,14.306,12.777,23.117,8.842c8.359-3.734,12.352-13.258,9.38-21.749l8.164-3.647l2.014,4.509l2.682-1.198
				l-2.014-4.509l6.649-2.97l-1.198-2.682l-6.649,2.97l-2.014-4.509l-2.682,1.198l2.014,4.508l-8.164,3.647
				C576.639,305.628,566.881,302.247,558.522,305.981z M571.599,335.256c-7.332,3.275-15.961-0.026-19.236-7.358
				c-3.275-7.332,0.026-15.961,7.357-19.236s15.961,0.025,19.236,7.357C582.232,323.352,578.931,331.981,571.599,335.256z"/>
			<path style="fill:#FFFFFF;" d="M37.542,154.733c-5.249,8.097-2.932,18.955,5.165,24.204c8.097,5.249,18.956,2.932,24.205-5.165
				c4.98-7.682,3.146-17.845-3.969-23.35l4.864-7.503l4.144,2.686l1.598-2.465l-4.143-2.686l3.961-6.11l-2.465-1.598l-3.961,6.11
				l-4.144-2.686l-1.598,2.465l4.143,2.686l-4.864,7.503C52.548,144.576,42.522,147.051,37.542,154.733z M64.448,172.174
				c-4.368,6.738-13.404,8.666-20.142,4.298c-6.738-4.368-8.666-13.403-4.298-20.141c4.368-6.738,13.403-8.666,20.141-4.299
				C66.887,156.4,68.815,165.436,64.448,172.174z"/>
			<path style="fill:#FFB000;" d="M667.939,103.975c10.15-5.597,13.854-18.408,8.257-28.558
				c-5.597-10.15-18.409-13.855-28.559-8.257c-9.629,5.31-13.451,17.112-9.039,26.976l-9.405,5.186l-2.864-5.194l-3.09,1.704
				l2.864,5.194l-7.659,4.224l1.704,3.09l7.659-4.224l2.864,5.194l3.09-1.704l-2.864-5.194l9.405-5.186
				C646.29,106.219,658.309,109.285,667.939,103.975z M649.341,70.249c8.446-4.658,19.107-1.575,23.765,6.871
				c4.657,8.446,1.575,19.107-6.871,23.764s-19.107,1.575-23.765-6.871C637.813,85.568,640.895,74.907,649.341,70.249z"/>
			<g>
				<path style="fill:#FFFFFF;" d="M592.895,160.516c0,0,10.626-2.309,14.669,7.755c0,0,7.058-5.286,17.319-2.891l-0.794,2.074
					c-7.442-0.59-12.796,1.583-16.974,5.311c-9.542,13.443-28.848,0.147-23.061-8.493
					C587.49,164.659,590.42,163.349,592.895,160.516z"/>
				<path style="fill:#D85B6B;" d="M721.996,196.115c-4.442-10.273-25.491-1.243-30.006-3.026c-2.032-0.802-3.498-2.815-4.658-4.568
					c-1.693-2.56-3.091-5.308-4.61-7.972c-1.878-3.293-3.9-6.509-6.274-9.471c-2.778-3.466-6.016-6.553-9.674-9.078
					c-4.786-3.303-10.012-5.484-15.726-6.559c-4.352-0.818-8.807-0.949-13.207-0.485c-3.765,0.397-7.463,1.223-11.111,2.214
					c-2.964,0.805-5.899,1.759-8.906,2.396c-2.124,0.45-4.494,0.818-6.594,0.061c-0.063-0.022-0.126-0.044-0.188-0.071
					c-4.453-1.933-12.95-23.202-23.356-19.08c-10.406,4.123-3.632,23.795-3.632,23.795c3.397,0.429,6.315-0.931,8.841-3.755
					c0,0-7.874-11.209-2.513-13.757c6.376-2.922,14.386,13.642,19.782,15.877s15.928,0.24,15.928,0.24
					c-5.401,9.951-4.237,21.366-0.383,32.456c1.453,4.181,0.778,8.807-1.75,12.441c-16.196,23.291-1.965,26.156-12.182,47.854
					l5.879,2.435l5.879,2.435c8.12-22.567,20.208-14.529,25.227-42.45c0.783-4.357,3.576-8.105,7.56-10.034
					c10.567-5.116,19.463-12.364,22.68-23.219c0,0,6.036,8.859,11.432,11.094c5.395,2.235,22.772-3.812,25.215,2.763
					c1.988,5.592-11.505,7.95-11.505,7.95c-0.212,3.783,0.89,6.808,3.595,8.907C707.738,215.507,726.439,206.388,721.996,196.115z"
					/>
				<path style="fill:#FFFFFF;" d="M704.142,206.6c0,0-5.88-9.147-15.856-4.891c0,0-1.252-8.728-10.201-14.291l-0.906,2.028
					c5.68,4.845,7.928,10.168,8.246,15.758c-2.759,16.253,20.293,20.504,22.312,10.302
					C705.034,213.352,703.889,210.354,704.142,206.6z"/>
				<path style="fill:#C13E54;" d="M634.399,163.077c-0.469-0.253-0.925,0.338-0.575,0.741c1.997,2.298,4.168,6.028,3.912,11.234
					c-0.143,2.904-0.569,5.769-0.875,8.656c-0.198,1.864-0.284,3.744,0.053,5.597c0.182,1.001,0.477,1.979,0.853,2.924
					c0.503,1.266,1.316,2.392,1.713,3.703c0.343,1.135,0.415,2.333,0.315,3.511c-0.165,1.943-7.465,20.158-10.612,27.523
					c-0.457,1.069-1.935,1.102-2.479,0.074c-0.551-1.04-0.925-2.218-1.449-3.369c-1.201-2.636-4.383-2.9-5.647-0.09
					c-1.234,2.745-1.338,6.068-1.496,9.023c-0.188,3.512-0.175,7.03-0.327,10.544c-0.341,7.902-3.51,12.844-3.834,13.329
					c-0.014,0.021-0.004,0.049,0.019,0.058l3.685,1.527l3.685,1.527c0.023,0.01,0.05-0.003,0.055-0.028
					c0.114-0.572,1.368-6.307,6.715-12.135c2.377-2.591,4.874-5.07,7.225-7.686c1.978-2.202,4.255-4.624,5.323-7.438
					c1.094-2.881-1.343-4.945-4.056-3.93c-1.166,0.436-2.247,0.994-3.353,1.341c-1.131,0.355-2.175-0.743-1.733-1.843
					c2.998-7.465,10.683-25.424,11.938-26.91c0.762-0.903,1.66-1.7,2.705-2.26c1.207-0.647,2.578-0.868,3.83-1.407
					c0.934-0.403,1.834-0.885,2.67-1.464c1.549-1.072,2.818-2.462,3.996-3.92c1.825-2.258,3.55-4.585,5.502-6.739
					c3.666-4.044,8.069-5.062,11.132-5.201c0.469-0.021,0.537-0.671,0.088-0.807C659.799,175.068,646.786,169.75,634.399,163.077z"
					/>
				<g>
					<path style="fill:#AF2845;" d="M638.423,236.209c-6.428-3.31-13.147-6.094-19.972-8.273l0.152-0.477
						c6.851,2.188,13.596,4.982,20.048,8.305L638.423,236.209z"/>
					<path style="fill:#AF2845;" d="M635.093,240.099c-5.307-2.818-11.032-5.19-17.018-7.049l0.148-0.478
						c6.016,1.869,11.77,4.252,17.104,7.085L635.093,240.099z"/>
					<path style="fill:#AF2845;" d="M631.537,243.896c-4.333-2.27-8.943-4.18-13.705-5.678l0.15-0.477
						c4.789,1.506,9.428,3.428,13.787,5.711L631.537,243.896z"/>
					<path style="fill:#AF2845;" d="M628.047,247.719c-3.169-1.759-6.651-3.201-10.351-4.288l0.141-0.479
						c3.734,1.096,7.251,2.553,10.452,4.33L628.047,247.719z"/>
					<path style="fill:#AF2845;" d="M624.916,251.691c-2.37-1.302-5.008-2.394-7.839-3.246l0.145-0.479
						c2.864,0.862,5.534,1.968,7.935,3.287L624.916,251.691z"/>
					<path style="fill:#AF2845;" d="M622.539,255.977c-2.014-1.185-4.322-2.141-6.861-2.842l0.133-0.482
						c2.581,0.713,4.931,1.687,6.983,2.893L622.539,255.977z"/>
				</g>
				<g>
					<path style="fill:#AF2845;" d="M666.787,181.866c-9.692-4.864-19.773-9.039-29.962-12.412l0.156-0.475
						c10.213,3.38,20.317,7.565,30.03,12.439L666.787,181.866z"/>
					<path style="fill:#AF2845;" d="M662.724,184.773c-7.854-4.051-16.286-7.544-25.061-10.382l0.154-0.476
						c8.801,2.846,17.258,6.35,25.136,10.413L662.724,184.773z"/>
					<path style="fill:#AF2845;" d="M659.69,188.119c-7.097-3.614-14.607-6.725-22.32-9.246l0.156-0.476
						c7.738,2.529,15.271,5.65,22.391,9.276L659.69,188.119z"/>
					<path style="fill:#AF2845;" d="M656.933,191.617c-6.158-3.303-12.883-6.089-19.988-8.28l0.146-0.477
						c7.137,2.201,13.892,4.999,20.078,8.317L656.933,191.617z"/>
					<path style="fill:#AF2845;" d="M653.914,194.957c-5.238-2.785-11.032-5.184-17.219-7.133l0.15-0.477
						c6.216,1.957,12.037,4.369,17.303,7.168L653.914,194.957z"/>
					<path style="fill:#AF2845;" d="M649.39,197.634c-3.384-1.912-7.232-3.506-11.439-4.739l0.141-0.479
						c4.244,1.243,8.128,2.853,11.545,4.783L649.39,197.634z"/>
				</g>
			</g>
		</g>
	</g>
</g>
</svg>
