<?xml version="1.0" encoding="utf-8"?>
<!-- Generator: Adobe Illustrator 27.5.0, SVG Export Plug-In . SVG Version: 6.00 Build 0)  -->
<svg version="1.1" xmlns="http://www.w3.org/2000/svg" xmlns:xlink="http://www.w3.org/1999/xlink" x="0px" y="0px"
	 viewBox="0 0 500 500" style="enable-background:new 0 0 500 500;" xml:space="preserve">
<g id="BACKGROUND">
	<g>
		<rect style="fill:#CDECFF;" width="500" height="500"/>
	</g>
</g>
<g id="OBJECTS">
	<g>
		<ellipse style="opacity:0.43;fill:#CDD9FC;" cx="106.797" cy="395.991" rx="57.692" ry="8.829"/>
		<ellipse style="opacity:0.43;fill:#CDD9FC;" cx="407.359" cy="392.025" rx="57.692" ry="8.829"/>
		<ellipse style="opacity:0.43;fill:#CDD9FC;" cx="247.081" cy="404.819" rx="100.308" ry="8.829"/>
	</g>
	<g>
		<g>
			<path style="fill:#FDBDBE;" d="M331.845,147.597c0.139-2.911,0.437-7.519,1.622-7.333c0.601,0.094,0.856,3.641,1.116,3.358
				c0.372-0.406-0.412-4.435,0.95-4.49c1.045-0.042,0.92,4.432,1.473,4.317c0.45-0.093-0.01-4.817,1.306-4.965
				c1.111-0.125,0.383,4.966,1.445,5.562c0.816,0.458-0.275-5.208,0.741-5.326c1.211-0.14,1.565,3.596,1.605,3.908
				c0.097,0.772,1.566,2.598-0.216,9.653c-0.346,1.368-0.441,2.891-0.345,4.488c-3.489,0.177-6.957,0.242-10.422,0.182
				C331.417,153.634,331.71,150.423,331.845,147.597z"/>
			<path style="fill:#0540F2;" d="M377.26,219.181c5.194-4.165,13.696-18.605,11.82-23.652c-1.876-5.047-7.72-1.593-19.39-5.005
				c-5.901-1.725-12.576-9.588-16.872-16.387c-4.295-6.799-9.758-20.897-9.758-20.897l-13.343,2.738c0,0-1.579,21.038,13.873,41.474
				C357.935,216.423,372.635,222.889,377.26,219.181z"/>
		</g>
		<g>
			<path style="fill:#698CF7;" d="M323.237,118.11v261.482c0,13.925-11.29,25.227-25.227,25.227H194.226
				c-13.924,0-25.227-11.302-25.227-25.227V118.11c0-13.937,11.302-25.227,25.227-25.227H298.01
				C311.947,92.883,323.237,104.173,323.237,118.11z"/>
			<path style="fill:#FFFFFF;" d="M294.508,397.215h-96.777c-10.984,0-19.889-8.905-19.889-19.889V120.373
				c0-10.984,8.904-19.889,19.889-19.889h96.777c10.984,0,19.889,8.904,19.889,19.889v256.954
				C314.397,388.311,305.493,397.215,294.508,397.215z"/>
			<path style="fill:#CDD9FC;" d="M266.825,385.182h-46.331c-0.434,0-0.785-0.351-0.785-0.785v-0.307
				c0-0.433,0.351-0.785,0.785-0.785h46.331c0.434,0,0.785,0.351,0.785,0.785v0.307C267.61,384.831,267.259,385.182,266.825,385.182
				z"/>
			<g>
				<defs>
					<path id="SVGID_1_" d="M294.508,397.215h-96.777c-10.984,0-19.889-8.905-19.889-19.889V120.373
						c0-10.984,8.904-19.889,19.889-19.889h96.777c10.984,0,19.889,8.904,19.889,19.889v256.954
						C314.397,388.311,305.493,397.215,294.508,397.215z"/>
				</defs>
				<clipPath id="SVGID_00000012453821572916588380000017726484665104954503_">
					<use xlink:href="#SVGID_1_"  style="overflow:visible;"/>
				</clipPath>
			</g>
			<path style="fill:#698CF7;" d="M207.171,95.748v4.288c0,4.786,3.87,8.667,8.644,8.667h60.61c4.774,0,8.644-3.88,8.644-8.667
				v-6.139L207.171,95.748z"/>
			<path style="fill:#3766F5;" d="M272.598,100.779c0,0.712-0.577,1.29-1.29,1.29s-1.29-0.577-1.29-1.29
				c0-0.712,0.577-1.29,1.29-1.29S272.598,100.067,272.598,100.779z"/>
			<path style="fill:#3766F5;" d="M258.081,102.069h-24.128c-0.712,0-1.29-0.577-1.29-1.29l0,0c0-0.712,0.578-1.29,1.29-1.29h24.128
				c0.712,0,1.29,0.577,1.29,1.29l0,0C259.37,101.492,258.793,102.069,258.081,102.069z"/>
		</g>
		<g>
			<path style="opacity:0.3;fill:#92AAF7;" d="M298.338,220.441H199.1c-3.85,0-6.972-3.121-6.972-6.972v-84.408
				c0-3.851,3.121-6.972,6.972-6.972h99.237c3.85,0,6.972,3.121,6.972,6.972v84.408C305.31,217.32,302.188,220.441,298.338,220.441z
				"/>
			<path style="opacity:0.3;fill:#92AAF7;" d="M298.338,277.716H199.1c-3.85,0-6.972-3.122-6.972-6.972v-31.68
				c0-3.85,3.121-6.972,6.972-6.972h99.237c3.85,0,6.972,3.122,6.972,6.972v31.68C305.31,274.595,302.188,277.716,298.338,277.716z"
				/>
			<path style="opacity:0.3;fill:#92AAF7;" d="M288.193,358.706h-94.465c-0.883,0-1.6-0.716-1.6-1.6v-0.385
				c0-0.883,0.716-1.6,1.6-1.6h94.465c0.883,0,1.6,0.716,1.6,1.6v0.385C289.793,357.99,289.077,358.706,288.193,358.706z"/>
			<path style="opacity:0.3;fill:#92AAF7;" d="M247.919,365.873h-54.191c-0.883,0-1.6-0.716-1.6-1.6v-0.385
				c0-0.884,0.716-1.6,1.6-1.6h54.191c0.883,0,1.6,0.716,1.6,1.6v0.385C249.519,365.156,248.803,365.873,247.919,365.873z"/>
			<path style="opacity:0.3;fill:#92AAF7;" d="M298.338,346.253H199.1c-3.85,0-6.972-3.121-6.972-6.972v-31.68
				c0-3.851,3.121-6.972,6.972-6.972h99.237c3.85,0,6.972,3.121,6.972,6.972v31.68C305.31,343.132,302.188,346.253,298.338,346.253z
				"/>
		</g>
		<g>
			<path style="opacity:0.3;fill:#92AAF7;" d="M359.267,244.231H260.03c-3.851,0-6.972-3.121-6.972-6.972v-84.407
				c0-3.851,3.121-6.972,6.972-6.972h99.237c3.851,0,6.972,3.121,6.972,6.972v84.407
				C366.239,241.11,363.117,244.231,359.267,244.231z"/>
			<path style="fill:#FFACC9;" d="M355.365,239.479h-99.237c-3.851,0-6.972-3.122-6.972-6.972v-84.408
				c0-3.85,3.122-6.972,6.972-6.972h99.237c3.85,0,6.972,3.121,6.972,6.972v84.408C362.336,236.357,359.215,239.479,355.365,239.479
				z"/>
			<path style="fill:#FF3077;" d="M362.336,159.007H249.155v-10.907c0-3.851,3.122-6.972,6.972-6.972h99.237
				c3.851,0,6.972,3.121,6.972,6.972V159.007z"/>
			<path style="fill:#FFFFFF;" d="M267.64,177.171h-7.075c-1,0-1.811-0.811-1.811-1.811v-7.075c0-1,0.811-1.811,1.811-1.811h7.075
				c1,0,1.811,0.811,1.811,1.811v7.075C269.451,176.361,268.64,177.171,267.64,177.171z"/>
			<path style="fill:#FFFFFF;" d="M281.521,177.171h-7.075c-1,0-1.811-0.811-1.811-1.811v-7.075c0-1,0.811-1.811,1.811-1.811h7.075
				c1,0,1.811,0.811,1.811,1.811v7.075C283.332,176.361,282.521,177.171,281.521,177.171z"/>
			<path style="fill:#FFFFFF;" d="M295.402,177.171h-7.075c-1,0-1.811-0.811-1.811-1.811v-7.075c0-1,0.811-1.811,1.811-1.811h7.075
				c1,0,1.811,0.811,1.811,1.811v7.075C297.213,176.361,296.402,177.171,295.402,177.171z"/>
			<path style="fill:#FFFFFF;" d="M309.283,177.171h-7.075c-1,0-1.811-0.811-1.811-1.811v-7.075c0-1,0.811-1.811,1.811-1.811h7.075
				c1,0,1.811,0.811,1.811,1.811v7.075C311.094,176.361,310.283,177.171,309.283,177.171z"/>
			<path style="fill:#FFFFFF;" d="M323.164,177.171h-7.075c-1,0-1.811-0.811-1.811-1.811v-7.075c0-1,0.811-1.811,1.811-1.811h7.075
				c1,0,1.811,0.811,1.811,1.811v7.075C324.975,176.361,324.164,177.171,323.164,177.171z"/>
			<path style="fill:#698CF7;" d="M337.046,177.171h-7.075c-1,0-1.811-0.811-1.811-1.811v-7.075c0-1,0.811-1.811,1.811-1.811h7.075
				c1,0,1.811,0.811,1.811,1.811v7.075C338.856,176.361,338.046,177.171,337.046,177.171z"/>
			<path style="fill:#698CF7;" d="M350.927,177.171h-7.075c-1,0-1.811-0.811-1.811-1.811v-7.075c0-1,0.811-1.811,1.811-1.811h7.075
				c1,0,1.811,0.811,1.811,1.811v7.075C352.737,176.361,351.927,177.171,350.927,177.171z"/>
			<path style="fill:#FFFFFF;" d="M267.64,190.902h-7.075c-1,0-1.811-0.811-1.811-1.811v-7.075c0-1,0.811-1.811,1.811-1.811h7.075
				c1,0,1.811,0.811,1.811,1.811v7.075C269.451,190.091,268.64,190.902,267.64,190.902z"/>
			<path style="fill:#FFFFFF;" d="M281.521,190.902h-7.075c-1,0-1.811-0.811-1.811-1.811v-7.075c0-1,0.811-1.811,1.811-1.811h7.075
				c1,0,1.811,0.811,1.811,1.811v7.075C283.332,190.091,282.521,190.902,281.521,190.902z"/>
			<path style="fill:#FFFFFF;" d="M295.402,190.902h-7.075c-1,0-1.811-0.811-1.811-1.811v-7.075c0-1,0.811-1.811,1.811-1.811h7.075
				c1,0,1.811,0.811,1.811,1.811v7.075C297.213,190.091,296.402,190.902,295.402,190.902z"/>
			<path style="fill:#FFFFFF;" d="M309.283,190.902h-7.075c-1,0-1.811-0.811-1.811-1.811v-7.075c0-1,0.811-1.811,1.811-1.811h7.075
				c1,0,1.811,0.811,1.811,1.811v7.075C311.094,190.091,310.283,190.902,309.283,190.902z"/>
			<path style="fill:#FFFFFF;" d="M323.164,190.902h-7.075c-1,0-1.811-0.811-1.811-1.811v-7.075c0-1,0.811-1.811,1.811-1.811h7.075
				c1,0,1.811,0.811,1.811,1.811v7.075C324.975,190.091,324.164,190.902,323.164,190.902z"/>
			<path style="fill:#698CF7;" d="M337.046,190.902h-7.075c-1,0-1.811-0.811-1.811-1.811v-7.075c0-1,0.811-1.811,1.811-1.811h7.075
				c1,0,1.811,0.811,1.811,1.811v7.075C338.856,190.091,338.046,190.902,337.046,190.902z"/>
			<path style="fill:#698CF7;" d="M350.927,190.902h-7.075c-1,0-1.811-0.811-1.811-1.811v-7.075c0-1,0.811-1.811,1.811-1.811h7.075
				c1,0,1.811,0.811,1.811,1.811v7.075C352.737,190.091,351.927,190.902,350.927,190.902z"/>
			<path style="fill:#FFFFFF;" d="M267.64,204.632h-7.075c-1,0-1.811-0.811-1.811-1.811v-7.075c0-1,0.811-1.811,1.811-1.811h7.075
				c1,0,1.811,0.811,1.811,1.811v7.075C269.451,203.821,268.64,204.632,267.64,204.632z"/>
			<path style="fill:#FF3077;" d="M281.521,204.632h-7.075c-1,0-1.811-0.811-1.811-1.811v-7.075c0-1,0.811-1.811,1.811-1.811h7.075
				c1,0,1.811,0.811,1.811,1.811v7.075C283.332,203.821,282.521,204.632,281.521,204.632z"/>
			<path style="fill:#FFFFFF;" d="M295.402,204.632h-7.075c-1,0-1.811-0.811-1.811-1.811v-7.075c0-1,0.811-1.811,1.811-1.811h7.075
				c1,0,1.811,0.811,1.811,1.811v7.075C297.213,203.821,296.402,204.632,295.402,204.632z"/>
			<path style="fill:#FFFFFF;" d="M309.283,204.632h-7.075c-1,0-1.811-0.811-1.811-1.811v-7.075c0-1,0.811-1.811,1.811-1.811h7.075
				c1,0,1.811,0.811,1.811,1.811v7.075C311.094,203.821,310.283,204.632,309.283,204.632z"/>
			<path style="fill:#FFFFFF;" d="M323.164,204.632h-7.075c-1,0-1.811-0.811-1.811-1.811v-7.075c0-1,0.811-1.811,1.811-1.811h7.075
				c1,0,1.811,0.811,1.811,1.811v7.075C324.975,203.821,324.164,204.632,323.164,204.632z"/>
			<path style="fill:#698CF7;" d="M337.046,204.632h-7.075c-1,0-1.811-0.811-1.811-1.811v-7.075c0-1,0.811-1.811,1.811-1.811h7.075
				c1,0,1.811,0.811,1.811,1.811v7.075C338.856,203.821,338.046,204.632,337.046,204.632z"/>
			<path style="fill:#698CF7;" d="M350.927,204.632h-7.075c-1,0-1.811-0.811-1.811-1.811v-7.075c0-1,0.811-1.811,1.811-1.811h7.075
				c1,0,1.811,0.811,1.811,1.811v7.075C352.737,203.821,351.927,204.632,350.927,204.632z"/>
			<path style="fill:#FFFFFF;" d="M267.64,218.362h-7.075c-1,0-1.811-0.811-1.811-1.811v-7.075c0-1,0.811-1.811,1.811-1.811h7.075
				c1,0,1.811,0.811,1.811,1.811v7.075C269.451,217.551,268.64,218.362,267.64,218.362z"/>
			<path style="fill:#FFFFFF;" d="M281.521,218.362h-7.075c-1,0-1.811-0.811-1.811-1.811v-7.075c0-1,0.811-1.811,1.811-1.811h7.075
				c1,0,1.811,0.811,1.811,1.811v7.075C283.332,217.551,282.521,218.362,281.521,218.362z"/>
			<path style="fill:#FFFFFF;" d="M295.402,218.362h-7.075c-1,0-1.811-0.811-1.811-1.811v-7.075c0-1,0.811-1.811,1.811-1.811h7.075
				c1,0,1.811,0.811,1.811,1.811v7.075C297.213,217.551,296.402,218.362,295.402,218.362z"/>
			<path style="fill:#FFFFFF;" d="M309.283,218.362h-7.075c-1,0-1.811-0.811-1.811-1.811v-7.075c0-1,0.811-1.811,1.811-1.811h7.075
				c1,0,1.811,0.811,1.811,1.811v7.075C311.094,217.551,310.283,218.362,309.283,218.362z"/>
			<path style="fill:#FFFFFF;" d="M323.164,218.362h-7.075c-1,0-1.811-0.811-1.811-1.811v-7.075c0-1,0.811-1.811,1.811-1.811h7.075
				c1,0,1.811,0.811,1.811,1.811v7.075C324.975,217.551,324.164,218.362,323.164,218.362z"/>
			<path style="fill:#698CF7;" d="M337.046,218.362h-7.075c-1,0-1.811-0.811-1.811-1.811v-7.075c0-1,0.811-1.811,1.811-1.811h7.075
				c1,0,1.811,0.811,1.811,1.811v7.075C338.856,217.551,338.046,218.362,337.046,218.362z"/>
			<path style="fill:#698CF7;" d="M350.927,218.362h-7.075c-1,0-1.811-0.811-1.811-1.811v-7.075c0-1,0.811-1.811,1.811-1.811h7.075
				c1,0,1.811,0.811,1.811,1.811v7.075C352.737,217.551,351.927,218.362,350.927,218.362z"/>
			<path style="fill:#FFFFFF;" d="M267.64,232.092h-7.075c-1,0-1.811-0.811-1.811-1.811v-7.075c0-1,0.811-1.811,1.811-1.811h7.075
				c1,0,1.811,0.811,1.811,1.811v7.075C269.451,231.282,268.64,232.092,267.64,232.092z"/>
			<path style="fill:#FFFFFF;" d="M281.521,232.092h-7.075c-1,0-1.811-0.811-1.811-1.811v-7.075c0-1,0.811-1.811,1.811-1.811h7.075
				c1,0,1.811,0.811,1.811,1.811v7.075C283.332,231.282,282.521,232.092,281.521,232.092z"/>
			<path style="fill:#FFFFFF;" d="M295.402,232.092h-7.075c-1,0-1.811-0.811-1.811-1.811v-7.075c0-1,0.811-1.811,1.811-1.811h7.075
				c1,0,1.811,0.811,1.811,1.811v7.075C297.213,231.282,296.402,232.092,295.402,232.092z"/>
			<path style="fill:#FFFFFF;" d="M309.283,232.092h-7.075c-1,0-1.811-0.811-1.811-1.811v-7.075c0-1,0.811-1.811,1.811-1.811h7.075
				c1,0,1.811,0.811,1.811,1.811v7.075C311.094,231.282,310.283,232.092,309.283,232.092z"/>
			<path style="fill:#FFFFFF;" d="M323.164,232.092h-7.075c-1,0-1.811-0.811-1.811-1.811v-7.075c0-1,0.811-1.811,1.811-1.811h7.075
				c1,0,1.811,0.811,1.811,1.811v7.075C324.975,231.282,324.164,232.092,323.164,232.092z"/>
			<path style="fill:#698CF7;" d="M337.046,232.092h-7.075c-1,0-1.811-0.811-1.811-1.811v-7.075c0-1,0.811-1.811,1.811-1.811h7.075
				c1,0,1.811,0.811,1.811,1.811v7.075C338.856,231.282,338.046,232.092,337.046,232.092z"/>
			<path style="fill:#698CF7;" d="M350.927,232.092h-7.075c-1,0-1.811-0.811-1.811-1.811v-7.075c0-1,0.811-1.811,1.811-1.811h7.075
				c1,0,1.811,0.811,1.811,1.811v7.075C352.737,231.282,351.927,232.092,350.927,232.092z"/>
			<g>
				<polyline style="fill:none;stroke:#FFFFFF;stroke-width:0.8286;stroke-linecap:round;stroke-miterlimit:10;" points="
					271.383,152.853 268.82,150.29 271.383,147.727 				"/>
			</g>
			<g>
				<polyline style="fill:none;stroke:#FFFFFF;stroke-width:0.8286;stroke-linecap:round;stroke-miterlimit:10;" points="
					340.108,152.853 342.671,150.29 340.108,147.727 				"/>
			</g>
			<path style="fill:#FFFFFF;" d="M327.485,154.055h-43.478c-1.657,0-3-1.343-3-3l0,0c0-1.657,1.343-3,3-3h43.478
				c1.657,0,3,1.343,3,3l0,0C330.485,152.712,329.142,154.055,327.485,154.055z"/>
		</g>
		<g>
			<path style="fill:#9BB3FA;" d="M298.774,346.253h-99.237c-3.85,0-6.972-3.121-6.972-6.972v-31.68
				c0-3.851,3.121-6.972,6.972-6.972h99.237c3.85,0,6.972,3.121,6.972,6.972v31.68C305.746,343.132,302.624,346.253,298.774,346.253
				z"/>
			<path style="fill:#FFFFFF;" d="M292.345,315.577h-86.381c-1.419,0-2.57-1.151-2.57-2.57l0,0c0-1.419,1.151-2.57,2.57-2.57h86.381
				c1.419,0,2.57,1.151,2.57,2.57l0,0C294.916,314.426,293.765,315.577,292.345,315.577z"/>
			<path style="fill:#FFFFFF;" d="M292.345,326.011h-86.381c-1.419,0-2.57-1.151-2.57-2.57l0,0c0-1.419,1.151-2.57,2.57-2.57h86.381
				c1.419,0,2.57,1.151,2.57,2.57l0,0C294.916,324.86,293.765,326.011,292.345,326.011z"/>
			<path style="fill:#FFFFFF;" d="M236.457,336.446h-30.492c-1.419,0-2.57-1.151-2.57-2.57l0,0c0-1.419,1.151-2.57,2.57-2.57h30.492
				c1.419,0,2.57,1.151,2.57,2.57l0,0C239.027,335.295,237.876,336.446,236.457,336.446z"/>
		</g>
		<g>
			<g>
				<path style="fill:#EA9A9E;" d="M394.546,180.376c0,2.531,0.633,6.328-0.633,8.226c-1.266,1.898-5.695,3.164-5.695,3.164
					s-0.808,6.38,8.226,8.859c9.552,2.62,15.186-8.859,15.186-8.859s-4.429-0.633-5.062-4.429c-0.633-3.796,0-12.023,0-12.023
					L394.546,180.376z"/>
				<path style="fill:#DD8790;" d="M394.626,184.591c1.003,1.869,2.191,2.024,4.337,0.943c2.147-1.081,7.144-7.26,7.144-7.26
					l-11.056,3.967L394.626,184.591z"/>
				<path style="fill:#EA9A9E;" d="M400.873,158.862c-8.859,0-14.554,6.96-13.288,17.085c1.266,10.124,5.062,9.492,8.859,8.226
					c3.797-1.266,18.161-6.622,13.288-19.616C407.834,159.495,403.405,158.862,400.873,158.862z"/>
				<path style="fill:none;stroke:#082A40;stroke-width:0.4819;stroke-miterlimit:10;" d="M390.3,172.859
					c0.076,0.512-0.157,1.058-0.578,1.358c-0.225,0.16-0.517,0.277-0.613,0.536c-0.09,0.245,0.045,0.526,0.25,0.687
					c0.206,0.16,0.467,0.227,0.72,0.289"/>
				<g>
					<g>
						<path style="fill:#FF5992;" d="M416.136,364.789c0,0-0.633,4.746,0.633,9.281c1.266,4.535,3.375,8.648-4.957,11.812
							c-8.331,3.164-27.209,4.535-33.642,3.586c-6.433-0.949,0.211-7.171,5.484-10.651c5.273-3.48,12.581-5.695,13.093-11.601
							C397.259,361.309,416.136,364.789,416.136,364.789z"/>
						<path style="fill:none;stroke:#FFFFFF;stroke-width:0.9637;stroke-miterlimit:10;" d="M375.86,386.189
							c0.333,1.274,3.339,1.59,9.35,1.274c6.011-0.316,19.537-1.186,25.785-3.717c6.249-2.531,6.979-4.746,6.979-4.746"/>
						<path style="fill:none;stroke:#FFFFFF;stroke-width:0.9637;stroke-miterlimit:10;" d="M393.792,379.111
							c-1.137-2.97-4.13-5.132-7.306-5.279"/>
						<path style="fill:none;stroke:#FFFFFF;stroke-width:0.9637;stroke-miterlimit:10;" d="M389.347,381.402
							c-1.07-2.55-3.559-4.448-6.301-4.804"/>
						<path style="fill:none;stroke:#FFFFFF;stroke-width:0.9637;stroke-miterlimit:10;" d="M384.722,383.502
							c-1.216-2.482-3.603-4.358-6.303-4.953"/>
					</g>
					<g>
						<path style="fill:#FF83AD;" d="M435.992,372.842c0,0-0.633,4.746,0.633,9.28c1.266,4.535,3.375,8.648-4.957,11.812
							c-8.331,3.164-27.209,4.535-33.642,3.586c-6.433-0.949,0.211-7.171,5.484-10.652c5.273-3.48,12.581-5.695,13.093-11.601
							C417.115,369.362,435.992,372.842,435.992,372.842z"/>
						<path style="fill:none;stroke:#FFFFFF;stroke-width:0.9637;stroke-miterlimit:10;" d="M395.716,394.243
							c0.333,1.274,3.339,1.59,9.35,1.274c6.011-0.316,19.537-1.186,25.785-3.717c6.249-2.531,6.979-4.746,6.979-4.746"/>
						<path style="fill:none;stroke:#FFFFFF;stroke-width:0.9637;stroke-miterlimit:10;" d="M416.411,385.305
							c-1.159-2.561-3.304-4.66-5.889-5.763"/>
						<path style="fill:none;stroke:#FFFFFF;stroke-width:0.9637;stroke-miterlimit:10;" d="M412.067,388.564
							c-0.631-2.993-3.016-5.548-5.959-6.384"/>
						<path style="fill:none;stroke:#FFFFFF;stroke-width:0.9637;stroke-miterlimit:10;" d="M407.359,390.613
							c-1.172-2.239-2.864-4.204-4.904-5.695"/>
					</g>
					<path style="fill:#698CF7;" d="M402.534,258.681c-0.369,12.286,5.587,19.63,5.587,26.38s1.477,14.343,7.171,27.209
						c5.695,12.866,4.007,53.574,4.007,53.574s-6.749,3.164-14.342,3.797c-7.593,0.633-16.452-2.953-16.452-2.953
						s-1.055-35.013-3.586-40.075c-2.531-5.062-5.567-12.165-9.702-23.834c-7.934-22.391-3.691-44.097-3.691-44.097H402.534z"/>
					<path style="fill:#9BB3FA;" d="M423.495,258.681c4.271,13.552,4.482,27.684,4.482,34.433c0,6.749,1.477,14.343,7.171,27.209
						c5.695,12.866,4.008,53.574,4.008,53.574s-6.75,3.164-14.343,3.797c-7.593,0.633-16.452-2.953-16.452-2.953
						s-1.055-35.013-3.586-40.075c-2.531-5.062-7.804-11.601-9.702-23.834c-1.898-12.233-8.877-48.198-8.877-48.198L423.495,258.681
						z"/>
					<path style="fill:none;stroke:#FFFFFF;stroke-width:0.9637;stroke-miterlimit:10;" d="M400.647,267.051
						c3.463,8.163,11.506,14.196,20.312,15.234"/>
					<path style="fill:none;stroke:#FFFFFF;stroke-width:0.9637;stroke-miterlimit:10;" d="M415.212,261.055
						c1.53,18.902,6.94,37.237,11.157,55.726c4.217,18.489,7.262,37.685,3.994,56.365"/>
				</g>
				<path style="fill:none;stroke:#082A40;stroke-width:0.4819;stroke-miterlimit:10;" d="M394.19,167.369
					c0.656-0.071,1.341,0.221,1.743,0.745"/>
				<path style="fill:none;stroke:#082A40;stroke-width:0.4819;stroke-miterlimit:10;" d="M390.794,167.04
					c-0.343-0.238-0.793-0.314-1.196-0.203"/>
				<path style="fill:#3766F5;" d="M411.631,191.766c7.593,3.006,11.864,4.904,14.554,9.966c2.689,5.062,8.7,12.972,1.74,36.859
					c-3.164,12.972-4.429,20.09-4.429,20.09s-10.16,7.547-27.561,7.547c-17.401,0-24.551-6.572-24.551-6.572
					s-7.709-19.794-4.339-31.625c2.167-7.609,3.105-23.659,8.567-30.975c4.192-5.616,12.608-5.289,12.608-5.289
					s2.185,6.075,9.471,5.759C404.976,197.208,411.631,191.766,411.631,191.766z"/>
				<path style="fill:#082A40;" d="M395.062,171.386c0,0.451-0.195,0.817-0.436,0.817s-0.436-0.366-0.436-0.817
					s0.195-0.817,0.436-0.817S395.062,170.934,395.062,171.386z"/>
				<path style="fill:#082A40;" d="M390.133,170.41c0,0.451-0.195,0.817-0.436,0.817c-0.241,0-0.436-0.366-0.436-0.817
					c0-0.451,0.195-0.817,0.436-0.817C389.938,169.593,390.133,169.959,390.133,170.41z"/>
				<path style="fill:#FFFFFF;" d="M389.288,178.109c-0.247-0.049,0.34,1.1,0.657,1.576s0.779,0.875,1.332,1.017
					c0.774,0.199,1.617-0.146,2.166-0.727c0.309-0.327,1.005-1.266,0.905-1.757c-0.062-0.306-0.218-0.127-0.482-0.001
					c-0.296,0.14-0.583,0.277-0.899,0.368c-0.624,0.18-1.285,0.209-1.931,0.144C390.018,178.626,389.553,178.162,389.288,178.109z"
					/>
				<path style="fill:#0540F2;" d="M391.759,165.027c7.58,1.454,11.592,1.508,11.546,4.477c-0.046,2.97-0.201,5.921,0.51,5.131
					c3.616-4.021,2.645,0.014,1.99,2.111c-0.654,2.098-0.772,5.008,2.513,3.161c3.285-1.847,10.726-8.461,4.581-19.814
					c-4.262-7.875-17.993-8.339-22.265-4.952C387.717,157.454,384.179,163.574,391.759,165.027z"/>
				<path style="fill:#EA9A9E;" d="M402.85,175.139c1.223-3.457,2.021-4.999,3.723-4.467c1.702,0.532,0.957,4.308-2.447,6.701
					C400.723,179.766,402.85,175.139,402.85,175.139z"/>
				<path style="fill:none;stroke:#082A40;stroke-width:0.4819;stroke-miterlimit:10;" d="M405.681,173.23
					c-0.101,0.51-0.608,0.906-1.127,0.88"/>
				<path style="fill:none;stroke:#082A40;stroke-width:0.4819;stroke-miterlimit:10;" d="M404.17,173.532
					c0.576,0.324,0.893,1.051,0.736,1.693"/>
			</g>
			<path style="fill:#EA9A9E;" d="M366.708,228.758c-1.412-2.044,0.125-2.035-4.259-5.637c-4.384-3.601-7.359-5.95-6.263-6.889
				c1.096-0.939,5.147,1.957,5.147,1.957s-6.23-4.697-5.375-5.793c0.854-1.096,7.117,3.21,7.117,3.21s-7.515-5.324-6.185-6.811
				c1.331-1.487,8.063,4.697,8.063,4.697s-6.185-5.637-4.932-6.654c1.253-1.018,7.124,4.306,8.377,5.48
				c1.253,1.174,3.503,6.419,3.904,9.394c0.402,2.975,1.498,4.296,1.498,4.296l-6.185,4.472L366.708,228.758z"/>
			<path style="fill:#698CF7;" d="M422.963,198.161c-11.089,5.291-11.402,10.458-11.246,14.059
				c0.157,3.601,3.957,14.036-4.384,16.127c-16.239,4.071-35.072-9.707-35.072-9.707s-0.334,3.992-2.907,5.989
				c-2.573,1.996-5.078,2.899-5.078,2.899s8.768,23.209,36.481,24.305c27.713,1.096,31.502-27.228,29.999-37.1
				C429.254,204.861,422.963,198.161,422.963,198.161z"/>
		</g>
		<g>
			<path style="fill:#EA9A9E;" d="M177.092,252.007c2.937,0.232,7.596,0.521,7.56-0.692c-0.018-0.614-3.543-1.323-3.225-1.547
				c0.455-0.321,4.396,0.978,4.624-0.381c0.175-1.042-4.327-1.488-4.141-2.027c0.151-0.44,4.83,0.624,5.146-0.677
				c0.267-1.098-4.931-1.017-5.394-2.159c-0.356-0.877,5.188,0.94,5.435-0.064c0.295-1.197-3.406-2.028-3.714-2.107
				c-0.761-0.196-2.406-1.901-9.708-1.014c-1.416,0.172-2.955,0.074-4.545-0.227c-0.622,3.477-1.129,6.946-1.511,10.428
				C170.983,251.667,174.242,251.782,177.092,252.007z"/>
			<path style="fill:#3766F5;" d="M111.096,197.339c4.839-4.678,14.891-3.918,19.713-1.393c4.822,2.525,6.005,9.759,8.059,12.638
				c3.61,5.059,8.012,13.834,14.282,19.008c6.271,5.174,19.712,12.449,19.712,12.449l-4.447,13.032c0,0-21.299-1.098-39.822-19.199
				C111.398,217.07,106.788,201.504,111.096,197.339z"/>
		</g>
		<g>
			<g>
				<g>
					<path style="fill:#3766F5;" d="M103.158,377.982c0,0,0.5,3.75-0.5,7.334c-1,3.584-2.667,6.834,3.917,9.334
						c6.584,2.5,21.502,3.583,26.585,2.833c5.084-0.75-0.167-5.667-4.334-8.417c-4.167-2.75-9.942-4.5-10.347-9.167
						C118.075,375.232,103.158,377.982,103.158,377.982z"/>
					<path style="fill:none;stroke:#082A40;stroke-width:1.007;stroke-miterlimit:10;" d="M134.985,394.894
						c-0.263,1.007-2.638,1.257-7.389,1.007c-4.75-0.25-15.439-0.938-20.377-2.938c-4.938-2-5.515-3.75-5.515-3.75"/>
					<path style="fill:none;stroke:#082A40;stroke-width:1.007;stroke-miterlimit:10;" d="M118.631,387.831
						c0.916-2.023,2.611-3.682,4.654-4.554"/>
					<path style="fill:none;stroke:#082A40;stroke-width:1.007;stroke-miterlimit:10;" d="M122.064,390.406
						c0.499-2.366,2.383-4.385,4.709-5.045"/>
					<path style="fill:none;stroke:#082A40;stroke-width:1.007;stroke-miterlimit:10;" d="M125.784,392.025
						c0.926-1.769,2.263-3.322,3.875-4.5"/>
				</g>
				<path style="fill:#FF3077;" d="M106.743,245.284c-5.644,11.016-7.65,15.134-7.873,29.377
					c-0.223,14.242,4.896,34.048,3.783,43.172c-1.113,9.124-6.353,17.581-6.069,26.482c0.283,8.901,4.957,37.386,4.957,37.386
					s6.899,2.225,12.907,1.78c6.009-0.445,7.936-1.558,7.936-1.558s2.523-47.178,4.749-52.742c2.225-5.564,4.034-5.54,5.814-12.884
					c1.78-7.344,2.399-31.825,2.844-43.619s-6.232-29.148-6.232-29.148L106.743,245.284z"/>
				<g>
					<path style="fill:#698CF7;" d="M81.099,381.37c0,0,0.5,3.75-0.5,7.334c-1,3.584-2.667,6.834,3.917,9.334
						c6.584,2.5,21.501,3.584,26.585,2.833c5.084-0.75-0.167-5.667-4.334-8.417c-4.167-2.75-9.942-4.5-10.347-9.167
						C96.017,378.62,81.099,381.37,81.099,381.37z"/>
					<path style="fill:none;stroke:#082A40;stroke-width:1.007;stroke-miterlimit:10;" d="M112.927,398.282
						c-0.263,1.007-2.638,1.257-7.389,1.007c-4.75-0.25-15.439-0.938-20.377-2.938c-4.938-2-5.515-3.75-5.515-3.75"/>
					<path style="fill:none;stroke:#082A40;stroke-width:1.007;stroke-miterlimit:10;" d="M96.573,391.219
						c0.915-2.024,2.611-3.682,4.653-4.554"/>
					<path style="fill:none;stroke:#082A40;stroke-width:1.007;stroke-miterlimit:10;" d="M100.006,393.794
						c0.499-2.366,2.384-4.385,4.709-5.045"/>
					<path style="fill:none;stroke:#082A40;stroke-width:1.007;stroke-miterlimit:10;" d="M103.726,395.413
						c0.926-1.77,2.263-3.322,3.875-4.5"/>
				</g>
				<path style="fill:#FF5992;" d="M87.129,245.669c-5.644,11.016-10.095,18.137-10.318,32.379
					c-0.223,14.242,4.896,34.048,3.783,43.172c-1.113,9.124-6.353,17.581-6.069,26.482c0.283,8.901,4.957,37.387,4.957,37.387
					s6.899,2.225,12.907,1.78c6.009-0.445,7.936-1.558,7.936-1.558s2.523-47.178,4.749-52.742c2.226-5.564,4.729-6.454,6.509-13.798
					c1.78-7.344,11.739-41.17,12.184-52.964c0.445-11.794,0-20.14,0-20.14H87.129z"/>
				<path style="fill:none;stroke:#082A40;stroke-width:1.007;stroke-miterlimit:10;" d="M95.147,250.198
					c-5.866,10.35-7.652,22.531-7.906,34.425c-0.254,11.894,0.914,23.791,0.466,35.679c-0.789,20.938-6.54,42.248-1.233,62.518"/>
				<path style="fill:none;stroke:#082A40;stroke-width:1.007;stroke-miterlimit:10;" d="M81.04,382.195
					c5.001,1.495,10.502,1.257,15.356-0.664"/>
				<path style="fill:none;stroke:#082A40;stroke-width:1.007;stroke-miterlimit:10;" d="M109.584,333.76
					c-3.169,15.232-4.192,30.908-3.031,46.423"/>
				<path style="fill:none;stroke:#082A40;stroke-width:1.007;stroke-miterlimit:10;" d="M102.104,376.795
					c5.356,3.017,12.279,3.038,17.653,0.052"/>
				<path style="fill:none;stroke:#082A40;stroke-width:1.007;stroke-miterlimit:10;" d="M105.615,254.358
					c-0.406,8.052-5.755,15.651-13.197,18.75"/>
			</g>
			<path style="fill:#698CF7;" d="M109.952,192.888c-7.248,0.309-12.94-5.548-12.94-5.548s-16.05,6.784-18.007,9.05
				c-1.957,2.266-0.787,7.005-2.127,11.023s1.929,17.629,3.511,24.137c1.582,6.508,4.545,10.747,5.574,14.119
				c0.248,0.813-0.569,3.354-0.569,3.354s8.181,1.966,23.887,2.481c15.706,0.515,22.035-2.903,22.035-2.903
				s-2.633-8.104,2.173-17.088c1.5-2.804,4.89-8.442,4.272-14.829c-0.618-6.387-7.647-17.428-6.499-23.286
				c1.187-6.057-11.381-6.058-11.381-6.058S119.895,192.464,109.952,192.888z"/>
			<g>
				<g>
					<g>
						<path style="fill:#FF3077;" d="M112.357,156.883c4.482-0.7,9.31,3.624,10.854,8.719c1.933,6.377-0.314,17.447-6.372,19.454
							c-6.058,2.007-11.556-1.579-13.246-6.464C101.903,173.707,102.49,158.423,112.357,156.883z"/>
						<path style="fill:#EA9A9E;" d="M112.01,177.881c0,2.47-0.618,6.176,0.618,8.029c1.235,1.853,5.559,3.088,5.559,3.088
							s1.214,5.413-6.254,7.626c-9.269,2.747-16.597-7.626-16.597-7.626s4.323-0.618,4.941-4.323c0.618-3.706,0-11.734,0-11.734
							L112.01,177.881z"/>
						<path style="fill:#DD8790;" d="M111.932,182.265c-1.002,1.869-2.191,2.024-4.337,0.943c-2.146-1.081-7.144-7.26-7.144-7.26
							l11.056,3.967L111.932,182.265z"/>
						<path style="fill:#EA9A9E;" d="M105.834,156.883c8.646,0,14.205,6.794,12.97,16.675c-1.235,9.882-4.941,9.264-8.646,8.029
							c-3.706-1.235-17.726-6.463-12.97-19.146C99.04,157.5,103.364,156.883,105.834,156.883z"/>
						<path style="fill:none;stroke:#082A40;stroke-width:0.4815;stroke-miterlimit:10;" d="M115.729,171.54
							c-0.074,0.5,0.153,1.033,0.565,1.325c0.22,0.156,0.504,0.27,0.598,0.523c0.088,0.239-0.044,0.514-0.244,0.67
							c-0.201,0.156-0.456,0.221-0.703,0.282"/>
						<path style="fill:none;stroke:#082A40;stroke-width:0.4815;stroke-miterlimit:10;" d="M113.208,167.023
							c-0.641-0.069-1.309,0.216-1.701,0.727"/>
						<path style="fill:none;stroke:#082A40;stroke-width:0.4815;stroke-miterlimit:10;" d="M116.255,166.665
							c0.335-0.232,0.774-0.307,1.167-0.198"/>
						<path style="fill:#082A40;" d="M112.923,170.132c0,0.441,0.19,0.798,0.425,0.798c0.235,0,0.425-0.357,0.425-0.798
							c0-0.441-0.19-0.798-0.425-0.798C113.113,169.335,112.923,169.692,112.923,170.132z"/>
						<path style="fill:#082A40;" d="M116.92,169.574c0,0.441,0.19,0.798,0.425,0.798c0.235,0,0.425-0.357,0.425-0.798
							s-0.19-0.798-0.425-0.798C117.11,168.776,116.92,169.133,116.92,169.574z"/>
						<path style="fill:#FFFFFF;" d="M117.288,176.006c0.241-0.048-0.332,1.074-0.641,1.538c-0.309,0.464-0.76,0.854-1.3,0.993
							c-0.756,0.194-1.579-0.143-2.115-0.709c-0.302-0.319-0.981-1.236-0.884-1.715c0.061-0.299,0.213-0.123,0.471-0.001
							c0.289,0.137,0.569,0.27,0.877,0.359c0.609,0.176,1.254,0.204,1.885,0.14C116.576,176.511,117.029,176.057,117.288,176.006z"
							/>
						<path style="fill:#FF3077;" d="M115.918,160.406c0.685,4.784-8.008,4.07-8.323,7.801c-0.315,3.731-0.247,4.887-2.435,6.034
							c-2.188,1.147-3.745,2.911-1.773,5.674c1.971,2.763,4.656,6.268,2.805,9.547c-1.851,3.279-5.229,7.688-2.805,10.288
							c2.423,2.6,1.572,8.136-1.172,8.14c-4.205,0.007-5.072-5.879-9.067-5.314c-2.485,0.352-7.01-0.791-5.54-5.088
							c1.47-4.296,5.201-6.105,4.07-10.741c-1.131-4.635-5.54-8.156-1.583-14.576c2.605-4.227,3.844-2.721,4.296-7.357
							c0.452-4.635,1.018-6.897,4.07-8.593C101.514,154.527,114.49,150.44,115.918,160.406z"/>
						<path style="fill:#EA9A9E;" d="M105.16,174.241c-0.169-3.583-1.817-4.495-3.347-4.016c-1.53,0.478-0.861,3.873,2.2,6.025
							C107.073,178.401,105.16,174.241,105.16,174.241z"/>
						<path style="fill:none;stroke:#082A40;stroke-width:0.4815;stroke-miterlimit:10;" d="M102.214,172.172
							c0.099,0.497,0.594,0.884,1.1,0.859"/>
						<path style="fill:none;stroke:#082A40;stroke-width:0.4815;stroke-miterlimit:10;" d="M103.689,172.467
							c-0.563,0.316-0.871,1.026-0.718,1.653"/>
					</g>
					<path style="fill:#FF3077;" d="M123.485,166.665c1.912,4.551,4.032,4.261,3.947,7.068c-0.122,4.046-3.081,8.074-1.385,10.149
						c1.696,2.075,4.589,4.476,4.862,8.294c0.212,2.968-1.018,7.462-4.183,9.61c-3.166,2.148-5.314,1.018-6.218,3.166
						c-0.904,2.148-5.061,1.131-4.792-2.035c0.27-3.166,1.908-3.844,0.241-6.784c-1.667-2.94-1.168-6.715-1.667-7.914
						c-0.499-1.199-1.932-2.021-2.223-3.739c-0.13-0.764,2.682,1.231,5.279-3.563C119.942,176.121,123.485,166.665,123.485,166.665z
						"/>
				</g>
			</g>
		</g>
		<path style="opacity:0.3;fill:#92AAF7;" d="M233.743,247.931h-99.237c-3.85,0-6.972,3.121-6.972,6.972v31.68
			c0,3.85,3.121,6.972,6.972,6.972h99.237c3.851,0,6.972-3.121,6.972-6.972v-31.68C240.715,251.053,237.594,247.931,233.743,247.931
			z"/>
		<g>
			<path style="fill:#FF83AD;" d="M230.031,289.855h-99.237c-3.85,0-6.972-3.121-6.972-6.972v-31.68c0-3.85,3.121-6.972,6.972-6.972
				h99.237c3.85,0,6.972,3.121,6.972,6.972v31.68C237.003,286.734,233.881,289.855,230.031,289.855z"/>
			<path style="fill:#FFFFFF;" d="M193.602,259.179h-56.381c-1.419,0-2.57-1.151-2.57-2.57l0,0c0-1.419,1.151-2.57,2.57-2.57h56.381
				c1.419,0,2.57,1.151,2.57,2.57l0,0C196.173,258.028,195.022,259.179,193.602,259.179z"/>
			<path style="fill:#FFFFFF;" d="M193.602,269.613h-56.381c-1.419,0-2.57-1.151-2.57-2.57l0,0c0-1.419,1.151-2.57,2.57-2.57h56.381
				c1.419,0,2.57,1.151,2.57,2.57l0,0C196.173,268.463,195.022,269.613,193.602,269.613z"/>
			<path style="fill:#FFFFFF;" d="M167.714,280.048h-30.492c-1.419,0-2.57-1.151-2.57-2.57l0,0c0-1.419,1.151-2.57,2.57-2.57h30.492
				c1.419,0,2.57,1.151,2.57,2.57l0,0C170.284,278.897,169.133,280.048,167.714,280.048z"/>
			<g>
				<g>
					<g>
						<path style="fill:#FFFFFF;" d="M215.381,257.59c3.755,0,6.512,3.791,6.512,7.104c0,8.047,2.96,10.063,2.96,10.063
							l-18.943-0.015c0,0,2.96-2.002,2.96-10.049C208.869,261.381,211.626,257.59,215.381,257.59 M215.381,255.814
							c-4.884,0-8.288,4.68-8.288,8.88c0,6.359-1.964,8.369-2.21,8.596c-0.678,0.403-0.953,1.174-0.751,1.942
							c0.205,0.78,0.969,1.286,1.775,1.287l18.943,0.015c0,0,0.001,0,0.002,0c0.804,0,1.567-0.504,1.774-1.282
							c0.204-0.767-0.068-1.538-0.744-1.944c-0.245-0.226-2.215-2.246-2.215-8.614C223.668,260.494,220.265,255.814,215.381,255.814
							L215.381,255.814z"/>
					</g>
				</g>
				
					<path style="fill:none;stroke:#FFFFFF;stroke-width:1.7759;stroke-linecap:round;stroke-linejoin:round;stroke-miterlimit:10;" d="
					M218.341,277.123c-0.76,0.782-1.824,1.268-3.001,1.268c-1.176,0-2.239-0.485-2.999-1.266"/>
				
					<path style="fill:none;stroke:#FFFFFF;stroke-width:1.7759;stroke-linecap:round;stroke-linejoin:round;stroke-miterlimit:10;" d="
					M213.013,256.406c0-1.268,1.191-2.368,2.368-2.368c1.176,0,2.368,1.102,2.368,2.368"/>
				<path style="fill:#FFFFFF;" d="M223.551,270.613h-16.34c-0.525,0-0.95,0.055-0.95,0.888s0.425,0.888,0.95,0.888h16.34
					c0.525,0,0.95-0.055,0.95-0.888S224.075,270.613,223.551,270.613z"/>
			</g>
		</g>
		<g>
			<path style="fill:#EA9A9E;" d="M109.254,265.593c1.53,2.065,2.035,0.557,4.098,6.052c2.063,5.495,3.371,9.193,4.657,8.433
				c1.286-0.76-0.199-5.694-0.199-5.694s2.521,7.669,3.879,7.198c1.359-0.471-0.768-8.042-0.768-8.042s2.705,9.137,4.606,8.33
				c1.901-0.807-1.909-9.465-1.909-9.465s3.456,7.938,4.871,7.051c1.415-0.887-1.839-8.414-2.571-10.033
				c-0.732-1.619-5.118-5.573-7.897-6.959c-2.779-1.386-3.707-2.9-3.707-2.9l-6.444,4.564L109.254,265.593z"/>
			<path style="fill:#9BB3FA;" d="M80.43,195.536c6.362-2.195,11.491,3.606,14.794,7.932c3.303,4.326,5.33,9.345,5.975,12.822
				c1.134,6.11,1.065,17.097,4.562,24.436c3.497,7.339,12.604,19.613,12.604,19.613l-9.537,9.932c0,0-18.839-9.996-27.979-34.229
				C72.365,213.546,74.765,197.49,80.43,195.536z"/>
		</g>
	</g>
	<g>
		<g>
			
				<line style="fill:none;stroke:#FFFFFF;stroke-width:1.544;stroke-linecap:round;stroke-linejoin:round;stroke-miterlimit:10;" x1="114.306" y1="115.476" x2="120.534" y2="115.476"/>
			
				<line style="fill:none;stroke:#FFFFFF;stroke-width:1.544;stroke-linecap:round;stroke-linejoin:round;stroke-miterlimit:10;" x1="133.012" y1="115.476" x2="139.24" y2="115.476"/>
			
				<line style="fill:none;stroke:#FFFFFF;stroke-width:1.544;stroke-linecap:round;stroke-linejoin:round;stroke-miterlimit:10;" x1="117.958" y1="106.661" x2="122.362" y2="111.065"/>
			
				<line style="fill:none;stroke:#FFFFFF;stroke-width:1.544;stroke-linecap:round;stroke-linejoin:round;stroke-miterlimit:10;" x1="131.185" y1="119.888" x2="135.589" y2="124.292"/>
			
				<line style="fill:none;stroke:#FFFFFF;stroke-width:1.544;stroke-linecap:round;stroke-linejoin:round;stroke-miterlimit:10;" x1="126.773" y1="103.009" x2="126.773" y2="109.237"/>
			
				<line style="fill:none;stroke:#FFFFFF;stroke-width:1.544;stroke-linecap:round;stroke-linejoin:round;stroke-miterlimit:10;" x1="126.773" y1="121.715" x2="126.773" y2="127.943"/>
			
				<line style="fill:none;stroke:#FFFFFF;stroke-width:1.544;stroke-linecap:round;stroke-linejoin:round;stroke-miterlimit:10;" x1="135.589" y1="106.661" x2="131.185" y2="111.065"/>
			
				<line style="fill:none;stroke:#FFFFFF;stroke-width:1.544;stroke-linecap:round;stroke-linejoin:round;stroke-miterlimit:10;" x1="122.362" y1="119.888" x2="117.958" y2="124.292"/>
		</g>
		<path style="fill:none;stroke:#FFFFFF;stroke-width:1.544;stroke-linecap:round;stroke-linejoin:round;stroke-miterlimit:10;" d="
			M352.737,336.203c2.892,0,5.237,2.345,5.237,5.237c0,2.892-2.345,5.237-5.237,5.237s-5.237-2.345-5.237-5.237
			C347.5,338.548,349.845,336.203,352.737,336.203z"/>
		<path style="fill:none;stroke:#FFFFFF;stroke-width:1.544;stroke-linecap:round;stroke-linejoin:round;stroke-miterlimit:10;" d="
			M349.667,96.484c1.66,0,3.006,1.346,3.006,3.006c0,1.66-1.346,3.006-3.006,3.006c-1.66,0-3.006-1.346-3.006-3.006
			C346.661,97.829,348.007,96.484,349.667,96.484z"/>
		<path style="fill:none;stroke:#FFFFFF;stroke-width:1.544;stroke-linecap:round;stroke-linejoin:round;stroke-miterlimit:10;" d="
			M389.347,85.432c1.66,0,3.006,1.346,3.006,3.006c0,1.66-1.346,3.006-3.006,3.006c-1.66,0-3.006-1.346-3.006-3.006
			C386.341,86.777,387.687,85.432,389.347,85.432z"/>
		<path style="fill:none;stroke:#FFFFFF;stroke-width:1.544;stroke-linecap:round;stroke-linejoin:round;stroke-miterlimit:10;" d="
			M66.027,147.061c1.66,0,3.006,1.346,3.006,3.006c0,1.66-1.346,3.006-3.006,3.006c-1.66,0-3.006-1.346-3.006-3.006
			C63.021,148.407,64.367,147.061,66.027,147.061z"/>
		<g>
			
				<line style="fill:none;stroke:#FFFFFF;stroke-width:1.544;stroke-linecap:round;stroke-linejoin:round;stroke-miterlimit:10;" x1="164.179" y1="73.251" x2="173.819" y2="73.251"/>
			
				<line style="fill:none;stroke:#FFFFFF;stroke-width:1.544;stroke-linecap:round;stroke-linejoin:round;stroke-miterlimit:10;" x1="168.999" y1="68.431" x2="168.999" y2="78.071"/>
		</g>
		<g>
			
				<line style="fill:none;stroke:#FFFFFF;stroke-width:1.544;stroke-linecap:round;stroke-linejoin:round;stroke-miterlimit:10;" x1="435.981" y1="135.073" x2="442.798" y2="141.889"/>
			
				<line style="fill:none;stroke:#FFFFFF;stroke-width:1.544;stroke-linecap:round;stroke-linejoin:round;stroke-miterlimit:10;" x1="442.798" y1="135.073" x2="435.981" y2="141.889"/>
		</g>
	</g>
</g>
</svg>
