<?xml version="1.0" encoding="utf-8"?>
<!-- Generator: Adobe Illustrator 27.5.0, SVG Export Plug-In . SVG Version: 6.00 Build 0)  -->
<svg version="1.1" xmlns="http://www.w3.org/2000/svg" xmlns:xlink="http://www.w3.org/1999/xlink" x="0px" y="0px"
	 viewBox="0 0 600 500" style="enable-background:new 0 0 600 500;" xml:space="preserve">
<g id="BACKGROUND">
	<g>
		<rect style="fill:#FFFFFF;" width="600" height="500"/>
		<g>
			<g style="opacity:0.47;">
				<g>
					<g style="opacity:0.41;">
						<path style="fill:#FFB3BA;" d="M44.939,88.14c-5.647-10.766-1.259-23.949,9.801-29.446c11.06-5.497,32.287-5.044,37.933,5.722
							c5.647,10.766-11.376,19.957-18.332,29.971C64.64,108.352,50.585,98.906,44.939,88.14z"/>
					</g>
					<g style="opacity:0.41;">
						<path style="fill:#FFB3BA;" d="M573.659,175.835c3.573,0.018,6.382,2.906,6.272,6.45c-0.109,3.544-3.171,8.866-6.744,8.848
							c-3.573-0.018-3.595-5.572-5.225-8.684C565.688,178.109,570.085,175.817,573.659,175.835z"/>
					</g>
					<g style="opacity:0.41;">
						<path style="fill:#FFB3BA;" d="M296.504,354.755c3.755-2.023,8.479-0.702,10.554,2.951c2.074,3.653,2.153,10.792-1.602,12.815
							c-3.755,2.023-7.206-3.591-10.836-5.812C289.558,361.611,292.75,356.778,296.504,354.755z"/>
					</g>
					<g style="opacity:0.41;">
						<path style="fill:#FFB3BA;" d="M221.932,118.731c2.509-3.721,7.558-4.8,11.276-2.411s7.283,9.002,4.774,12.723
							c-2.509,3.721-8.47,0.178-12.939-0.116C218.812,128.516,219.423,122.452,221.932,118.731z"/>
					</g>
					<g style="opacity:0.41;">
						<path style="fill:#FFB3BA;" d="M525.982,56.389c6.583-2.932,14.376-0.105,17.407,6.312c3.031,6.418,2.257,18.456-4.326,21.388
							c-6.583,2.932-11.686-6.965-17.519-11.168C513.407,67.059,519.399,59.321,525.982,56.389z"/>
					</g>
					<g style="opacity:0.19;">
						<path style="fill:#FFB3BA;" d="M383.114,143.177c1.221-1.811,3.678-2.336,5.487-1.173c1.81,1.163,3.544,4.38,2.323,6.191
							c-1.221,1.811-4.122,0.087-6.296-0.056C381.596,147.939,381.893,144.988,383.114,143.177z"/>
					</g>
					<g style="opacity:0.19;">
						<path style="fill:#FFB3BA;" d="M221.012,30.586c1.221-1.811,3.677-2.336,5.487-1.173c1.81,1.163,3.544,4.38,2.323,6.191
							c-1.221,1.811-4.122,0.087-6.296-0.056C219.494,35.348,219.791,32.397,221.012,30.586z"/>
					</g>
					<g style="opacity:0.19;">
						<path style="fill:#FFB3BA;" d="M464.654,69.384c1.221-1.811,3.677-2.336,5.487-1.173c1.81,1.163,3.544,4.381,2.323,6.191
							c-1.221,1.811-4.122,0.087-6.296-0.057C463.136,74.146,463.433,71.195,464.654,69.384z"/>
					</g>
					<g style="opacity:0.19;">
						<path style="fill:#FFB3BA;" d="M130.426,113.026c1.221-1.811,3.677-2.336,5.487-1.173c1.81,1.162,3.544,4.38,2.323,6.191
							c-1.221,1.811-4.122,0.087-6.296-0.057C128.908,117.787,129.205,114.836,130.426,113.026z"/>
					</g>
					<path style="fill:#FFB3BA;" d="M119.95,55.156c0,0.883-0.716,1.598-1.598,1.598c-0.883,0-1.598-0.716-1.598-1.598
						c0-0.883,0.716-1.598,1.598-1.598C119.235,53.557,119.95,54.273,119.95,55.156z"/>
					<path style="fill:#FFB3BA;" d="M423.288,81.678c0,0.883-0.716,1.598-1.598,1.598c-0.883,0-1.598-0.716-1.598-1.598
						c0-0.883,0.716-1.598,1.598-1.598C422.572,80.08,423.288,80.795,423.288,81.678z"/>
					<path style="fill:#FFB3BA;" d="M571.016,118.865c0,0.883-0.716,1.598-1.598,1.598c-0.883,0-1.598-0.716-1.598-1.598
						c0-0.883,0.716-1.598,1.598-1.598C570.3,117.267,571.016,117.983,571.016,118.865z"/>
					<path style="fill:#FFB3BA;" d="M397.817,317.543c0,0.883-0.716,1.598-1.598,1.598c-0.883,0-1.598-0.716-1.598-1.598
						c0-0.883,0.716-1.598,1.598-1.598C397.101,315.945,397.817,316.66,397.817,317.543z"/>
					<path style="fill:#FFB3BA;" d="M39.249,172.089c0,0.883-0.716,1.598-1.598,1.598c-0.883,0-1.598-0.716-1.598-1.598
						c0-0.883,0.716-1.598,1.598-1.598C38.533,170.49,39.249,171.206,39.249,172.089z"/>
					<path style="fill:#FFB3BA;" d="M250.621,338.481c0,0.883-0.716,1.598-1.598,1.598c-0.883,0-1.598-0.716-1.598-1.598
						c0-0.883,0.716-1.598,1.598-1.598C249.905,336.883,250.621,337.599,250.621,338.481z"/>
				</g>
			</g>
			<g>
				<g>
					<g style="opacity:0.53;">
						<path style="opacity:0.47;fill:#FFB3BA;" d="M564.586,230.6c-2.583-28.676-15.006-57.4-36.524-77.927
							c-33.529-31.986-84.248-40.048-128.699-32.653c-18.619,3.097-37.083,8.583-56.147,6.857
							c-27.805-2.518-52.298-19.783-77.613-32.439C231.142,77.21,191.64,67.938,155.005,75.434
							c-41.538,8.499-75.595,40.605-79.659,83.203c-1.841,19.302,16.869,53.306,10.964,71.599
							c-5.99,18.553-49.718,75.382-48.64,118.608c1.074,43.064,11.145,56.458,25.377,78.344h11.376H503.12h24.673
							c8.862-22.176,15.805-39.913,5.429-69.035c-8.29-23.268,14.233-42.431,22.947-64.09
							C563.924,274.786,566.477,251.604,564.586,230.6z"/>
					</g>
					<path style="opacity:0.41;fill:#FFB3BA;" d="M36.625,239.196c-4.143-9.065-0.924-20.165,7.191-24.794
						c8.115-4.628,23.69-4.247,27.833,4.818c4.143,9.065-8.347,16.804-13.451,25.236C51.081,256.215,40.769,248.261,36.625,239.196z
						"/>
					<path style="opacity:0.41;fill:#FFB3BA;" d="M560.75,331.543c4.406,3.67,5.314,10.635,2.028,15.556
						c-3.286,4.921-11.803,9.355-16.209,5.685c-4.406-3.67,0.504-11.578,1.253-17.66
						C548.866,326.641,556.344,327.872,560.75,331.543z"/>
					<path style="opacity:0.41;fill:#FFB3BA;" d="M312.875,53.157c4.682-12.4,19.593-16.847,33.304-9.932
						c13.711,6.915,30.555,27.377,25.873,39.777c-4.683,12.4-26.416,2.235-40.682,2.17
						C311.472,85.083,308.193,65.557,312.875,53.157z"/>
				</g>
				<g style="opacity:0.43;">
					<path style="fill:#FFB3BA;" d="M513.316,401.816c4.529-25.151-2.731-46.605-4.542-71.267
						c-1.714-23.348,5.71-42.984,9.828-65.222c3.665-19.791,2.444-42.208-2.157-61.659c-6.282-26.556-20.749-51.147-41.593-66.138
						c-32.478-23.359-75.793-20.608-111.669-4.541c-15.027,6.73-29.581,15.685-45.674,17.95
						c-23.472,3.303-46.317-7.998-69.181-14.778c-31.124-9.229-65.291-9.914-94.657,4.653
						c-33.296,16.516-56.971,53.799-54.205,94.863c1.253,18.607,7.665,36.969,5.395,55.453
						c-2.302,18.747-12.272,34.431-17.55,52.087c-7.204,24.099-7.86,59.517,3.722,83.97h414.486
						C509.095,419.192,511.729,410.63,513.316,401.816z"/>
				</g>
				<g>
					<g>
						<g style="opacity:0.47;">
							<path style="fill:#FFB3BA;" d="M436.243,323.019c-1.323-15.195-7.688-30.415-18.712-41.293
								c-17.178-16.949-43.162-21.221-65.935-17.303c-9.539,1.641-18.998,4.548-28.765,3.633
								c-14.245-1.334-26.793-10.483-39.763-17.189c-17.655-9.129-37.892-14.042-56.661-10.07
								c-21.281,4.504-38.729,21.516-40.811,44.088c-0.943,10.228,8.643,28.246,5.617,37.939
								c-3.069,9.831-25.472,39.944-24.919,62.848c0.55,22.819,5.71,29.916,13.001,41.513h5.828h219.63h12.64
								c4.54-11.751,8.097-21.15,2.781-36.581c-4.247-12.329,7.292-22.484,11.756-33.961
								C435.905,346.432,437.212,334.148,436.243,323.019z"/>
						</g>
					</g>
				</g>
			</g>
			<path style="fill:#FF9399;" d="M536.495,428.476H61.505c-0.673,0-1.223-0.551-1.223-1.223l0,0c0-0.673,0.55-1.223,1.223-1.223
				h474.99c0.673,0,1.223,0.55,1.223,1.223l0,0C537.718,427.925,537.168,428.476,536.495,428.476z"/>
		</g>
	</g>
</g>
<g id="OBJECTS">
	<g>
		<g>
			<path style="opacity:0.31;fill:#7694F3;" d="M523.831,312.538l5.101-10.394c5.761-11.737,0.871-26.053-10.866-31.814l0,0
				c-11.737-5.76-26.053-0.871-31.814,10.866l-27.86,56.763c-5.761,11.737-0.871,26.053,10.866,31.814l0,0
				c11.737,5.761,26.053,0.871,31.814-10.866l5.101-10.393c7.577,1.072,15.353-2.749,18.896-9.967l2.436-4.964
				C531.049,326.364,529.314,317.876,523.831,312.538z"/>
			<path style="fill:#FFFFFF;" d="M519.188,311.652l4.801-9.781c5.421-11.046,0.82-24.518-10.226-29.94l0,0
				c-11.046-5.421-24.518-0.82-29.94,10.226l-26.219,53.419c-5.421,11.046-0.82,24.518,10.226,29.94l0,0
				c11.046,5.421,24.518,0.819,29.94-10.226l4.801-9.781c7.13,1.009,14.448-2.587,17.783-9.38l2.293-4.672
				C525.98,324.664,524.348,316.676,519.188,311.652z"/>
			<path style="opacity:0.11;fill:#7694F3;" d="M478.808,360.955c-0.234,0-0.443-0.166-0.49-0.404
				c-0.053-0.272,0.124-0.533,0.395-0.587c1.596-0.311,3.148-0.824,4.612-1.527c0.245-0.116,0.548-0.016,0.667,0.235
				c0.119,0.249,0.014,0.547-0.235,0.667c-1.541,0.739-3.174,1.279-4.853,1.607C478.872,360.952,478.84,360.955,478.808,360.955z
				 M468.94,360.314c-0.053,0-0.107-0.009-0.159-0.026c-0.82-0.275-1.634-0.611-2.417-0.995c-0.752-0.369-1.485-0.788-2.181-1.247
				c-0.23-0.151-0.294-0.462-0.142-0.692c0.15-0.231,0.461-0.296,0.692-0.142c0.659,0.435,1.356,0.833,2.07,1.183
				c0.744,0.366,1.517,0.684,2.295,0.946c0.262,0.088,0.402,0.371,0.314,0.633C469.343,360.182,469.148,360.314,468.94,360.314z
				 M491.074,352.984c-0.099,0-0.198-0.029-0.285-0.09c-0.227-0.157-0.283-0.469-0.125-0.695c0.535-0.771,1.02-1.595,1.436-2.446
				l0.919-1.872c0.122-0.248,0.423-0.347,0.67-0.229c0.247,0.122,0.35,0.422,0.228,0.67l-0.919,1.872
				c-0.44,0.896-0.949,1.763-1.515,2.575C491.388,352.909,491.232,352.984,491.074,352.984z M457.875,350.75
				c-0.182,0-0.357-0.1-0.445-0.273c-0.776-1.522-1.355-3.143-1.722-4.814c-0.06-0.27,0.111-0.536,0.381-0.596
				c0.275-0.058,0.537,0.112,0.596,0.381c0.349,1.588,0.899,3.127,1.636,4.575c0.126,0.246,0.027,0.547-0.219,0.672
				C458.029,350.732,457.952,350.75,457.875,350.75z M499.343,342.126c-0.268,0-0.489-0.212-0.5-0.482
				c-0.01-0.275,0.205-0.508,0.481-0.518c1.613-0.061,3.198-0.391,4.709-0.979c0.257-0.102,0.548,0.027,0.647,0.284
				c0.101,0.258-0.027,0.547-0.284,0.647c-1.615,0.629-3.31,0.981-5.035,1.047C499.355,342.126,499.349,342.126,499.343,342.126z
				 M456.603,336.175c-0.049,0-0.099-0.007-0.148-0.022c-0.264-0.082-0.411-0.362-0.329-0.626c0.305-0.979,0.689-1.945,1.142-2.869
				l0.875-1.783c0.122-0.247,0.422-0.347,0.67-0.228c0.247,0.122,0.35,0.422,0.229,0.67l-0.875,1.782
				c-0.431,0.878-0.796,1.795-1.085,2.726C457.014,336.037,456.815,336.175,456.603,336.175z M511.667,334.735
				c-0.085,0-0.171-0.022-0.25-0.066c-0.239-0.139-0.321-0.444-0.184-0.684c0.16-0.276,0.311-0.56,0.454-0.85l1.763-3.594
				c0.122-0.247,0.423-0.348,0.67-0.228c0.247,0.122,0.35,0.422,0.228,0.67l-1.764,3.594c-0.153,0.31-0.315,0.612-0.484,0.908
				C512.008,334.646,511.84,334.735,511.667,334.735z M462.997,322.617c-0.074,0-0.149-0.017-0.221-0.051
				c-0.247-0.122-0.35-0.422-0.228-0.67l2.203-4.488c0.122-0.248,0.422-0.347,0.67-0.229c0.247,0.122,0.35,0.422,0.229,0.67
				l-2.203,4.488C463.359,322.515,463.182,322.617,462.997,322.617z M515.372,320.563c-0.235,0-0.445-0.167-0.49-0.407
				c-0.301-1.59-0.86-3.108-1.663-4.514c-0.137-0.239-0.054-0.545,0.186-0.683c0.235-0.135,0.544-0.055,0.683,0.186
				c0.857,1.501,1.455,3.125,1.776,4.824c0.052,0.272-0.127,0.533-0.398,0.584C515.435,320.56,515.403,320.563,515.372,320.563z
				 M511.125,312.628c-0.074,0-0.149-0.017-0.221-0.051c-0.247-0.122-0.35-0.422-0.228-0.67l2.203-4.488
				c0.122-0.247,0.422-0.346,0.67-0.229c0.247,0.122,0.35,0.422,0.228,0.67l-2.203,4.488
				C511.487,312.525,511.31,312.628,511.125,312.628z M469.605,309.151c-0.074,0-0.149-0.017-0.221-0.051
				c-0.247-0.122-0.35-0.422-0.228-0.67l2.203-4.488c0.122-0.247,0.423-0.346,0.67-0.229c0.247,0.122,0.35,0.422,0.229,0.67
				l-2.203,4.488C469.968,309.049,469.79,309.151,469.605,309.151z M516.991,298.882c-0.028,0-0.057-0.002-0.085-0.007
				c-0.273-0.047-0.455-0.305-0.409-0.577c0.176-1.033,0.265-2.091,0.264-3.144c0-0.57-0.026-1.146-0.077-1.71
				c-0.024-0.274,0.178-0.518,0.453-0.543c0.264-0.018,0.519,0.177,0.543,0.453c0.054,0.594,0.081,1.199,0.081,1.8
				c0.001,1.107-0.093,2.222-0.277,3.311C517.441,298.71,517.231,298.882,516.991,298.882z M476.215,295.686
				c-0.074,0-0.149-0.017-0.221-0.051c-0.247-0.122-0.35-0.422-0.229-0.67l2.203-4.489c0.122-0.247,0.423-0.348,0.67-0.229
				c0.247,0.122,0.35,0.422,0.228,0.67l-2.203,4.489C476.577,295.584,476.399,295.686,476.215,295.686z M513.832,284.593
				c-0.159,0-0.315-0.076-0.412-0.218c-0.922-1.345-2.012-2.561-3.238-3.617c-0.209-0.18-0.233-0.496-0.053-0.705
				c0.18-0.209,0.495-0.232,0.705-0.053c1.292,1.111,2.439,2.394,3.41,3.81c0.156,0.228,0.099,0.538-0.13,0.694
				C514.028,284.565,513.93,284.593,513.832,284.593z M483.461,282.611c-0.12,0-0.239-0.043-0.335-0.129
				c-0.205-0.185-0.221-0.502-0.036-0.706c1.143-1.265,2.452-2.381,3.892-3.317c0.229-0.15,0.541-0.086,0.691,0.146
				c0.15,0.231,0.085,0.541-0.147,0.691c-1.366,0.89-2.609,1.949-3.694,3.149C483.733,282.556,483.598,282.611,483.461,282.611z
				 M501.614,276.563c-0.032,0-0.064-0.003-0.097-0.009c-1.586-0.31-3.23-0.408-4.848-0.305c-0.304,0.024-0.515-0.191-0.532-0.466
				c-0.019-0.275,0.19-0.514,0.466-0.532c1.699-0.114,3.436-0.004,5.106,0.32c0.27,0.053,0.448,0.315,0.395,0.587
				C502.058,276.397,501.849,276.563,501.614,276.563z"/>
			<path style="opacity:0.31;fill:#7694F3;" d="M501.132,312.718l3.374-6.874c3.81-7.762,0.576-17.23-7.186-21.04l0,0
				c-7.762-3.81-17.23-0.576-21.04,7.186l-18.425,37.54c-3.81,7.762-0.576,17.23,7.186,21.04l0,0
				c7.762,3.81,17.23,0.576,21.04-7.186l3.374-6.874c5.011,0.709,10.154-1.818,12.497-6.592l1.611-3.283
				C505.905,321.862,504.758,316.249,501.132,312.718z"/>
			<path style="fill:#FFFFFF;" d="M370.248,284.654l-5.101,10.393c-5.761,11.737-0.871,26.053,10.866,31.814l0,0
				c11.737,5.761,26.053,0.871,31.814-10.866l27.859-56.763c5.761-11.737,0.871-26.053-10.866-31.814l0,0
				c-11.737-5.761-26.053-0.871-31.814,10.866l-5.101,10.393c-7.577-1.072-15.353,2.749-18.896,9.967l-2.436,4.964
				C363.03,270.827,364.765,279.316,370.248,284.654z"/>
			<path style="opacity:0.31;fill:#7694F3;" d="M370.248,284.654l-5.101,10.393c-5.761,11.737-0.871,26.053,10.866,31.814l0,0
				c11.737,5.761,26.053,0.871,31.814-10.866l27.859-56.763c5.761-11.737,0.871-26.053-10.866-31.814l0,0
				c-11.737-5.761-26.053-0.871-31.814,10.866l-5.101,10.393c-7.577-1.072-15.353,2.749-18.896,9.967l-2.436,4.964
				C363.03,270.827,364.765,279.316,370.248,284.654z"/>
			<path style="fill:#FFFFFF;" d="M374.891,285.539l-4.801,9.781c-5.421,11.046-0.82,24.518,10.226,29.94l0,0
				c11.045,5.421,24.518,0.819,29.94-10.226l26.219-53.419c5.421-11.045,0.82-24.518-10.226-29.94l0,0
				c-11.046-5.421-24.519-0.82-29.94,10.226l-4.801,9.781c-7.131-1.009-14.448,2.587-17.783,9.38l-2.293,4.672
				C368.099,272.528,369.731,280.516,374.891,285.539z"/>
			<path style="opacity:0.11;fill:#7694F3;" d="M396.15,321.984c-1.27,0-2.542-0.122-3.782-0.363
				c-0.271-0.053-0.448-0.315-0.396-0.587c0.053-0.272,0.319-0.444,0.587-0.396c1.588,0.309,3.228,0.409,4.847,0.304
				c0.286-0.019,0.514,0.19,0.532,0.466c0.018,0.275-0.191,0.514-0.466,0.532C397.033,321.97,396.592,321.984,396.15,321.984z
				 M406.824,318.815c-0.163,0-0.323-0.08-0.419-0.228c-0.15-0.231-0.085-0.541,0.146-0.691c1.365-0.89,2.609-1.949,3.695-3.149
				c0.186-0.205,0.505-0.219,0.706-0.036c0.205,0.186,0.221,0.502,0.036,0.706c-1.145,1.266-2.454,2.381-3.893,3.317
				C407.013,318.788,406.918,318.815,406.824,318.815z M383.568,317.311c-0.115,0-0.231-0.04-0.326-0.121
				c-1.292-1.111-2.439-2.393-3.41-3.81c-0.156-0.228-0.099-0.538,0.13-0.694c0.228-0.156,0.539-0.099,0.694,0.13
				c0.922,1.345,2.012,2.562,3.238,3.617c0.209,0.18,0.233,0.496,0.053,0.705C383.849,317.253,383.709,317.311,383.568,317.311z
				 M415.66,306.996c-0.074,0-0.149-0.017-0.221-0.051c-0.247-0.122-0.35-0.422-0.229-0.67l2.203-4.489
				c0.122-0.248,0.422-0.347,0.67-0.229c0.247,0.122,0.35,0.422,0.228,0.67l-2.203,4.489
				C416.022,306.894,415.845,306.996,415.66,306.996z M376.895,304.291c-0.256,0-0.474-0.195-0.497-0.455
				c-0.054-0.594-0.081-1.199-0.081-1.799c0-1.11,0.094-2.224,0.278-3.312c0.047-0.273,0.311-0.454,0.577-0.409
				c0.272,0.047,0.455,0.305,0.409,0.577c-0.176,1.032-0.265,2.09-0.265,3.144c0,0.569,0.026,1.145,0.077,1.709
				c0.024,0.274-0.178,0.518-0.453,0.543C376.925,304.29,376.91,304.291,376.895,304.291z M422.27,293.53
				c-0.074,0-0.149-0.017-0.221-0.051c-0.247-0.122-0.35-0.422-0.228-0.67l2.203-4.488c0.122-0.247,0.422-0.348,0.67-0.228
				c0.247,0.122,0.35,0.422,0.229,0.67l-2.203,4.488C422.632,293.428,422.454,293.53,422.27,293.53z M380.751,290.052
				c-0.074,0-0.149-0.017-0.221-0.051c-0.247-0.122-0.35-0.422-0.229-0.67l2.203-4.488c0.122-0.247,0.422-0.348,0.67-0.229
				c0.247,0.122,0.35,0.422,0.228,0.67l-2.203,4.488C381.113,289.949,380.935,290.052,380.751,290.052z M380.427,282.299
				c-0.173,0-0.342-0.091-0.434-0.252c-0.859-1.502-1.457-3.125-1.778-4.825c-0.052-0.272,0.127-0.533,0.398-0.584
				c0.266-0.049,0.533,0.126,0.584,0.398c0.301,1.591,0.86,3.109,1.663,4.515c0.138,0.239,0.055,0.545-0.186,0.682
				C380.597,282.277,380.512,282.299,380.427,282.299z M428.878,280.065c-0.074,0-0.149-0.017-0.221-0.051
				c-0.247-0.122-0.35-0.422-0.228-0.67l2.203-4.488c0.122-0.247,0.422-0.348,0.67-0.228c0.247,0.122,0.35,0.422,0.229,0.67
				l-2.203,4.488C429.24,279.962,429.063,280.065,428.878,280.065z M380.18,267.93c-0.074,0-0.149-0.017-0.221-0.051
				c-0.247-0.122-0.35-0.422-0.229-0.67l1.764-3.594c0.153-0.31,0.314-0.612,0.484-0.908c0.138-0.238,0.443-0.321,0.684-0.184
				c0.239,0.139,0.321,0.444,0.184,0.684c-0.16,0.276-0.311,0.56-0.454,0.85l-1.763,3.594
				C380.542,267.827,380.364,267.93,380.18,267.93z M435.487,266.599c-0.074,0-0.149-0.017-0.221-0.051
				c-0.247-0.122-0.35-0.422-0.229-0.67l0.876-1.784c0.433-0.879,0.797-1.795,1.084-2.723c0.081-0.265,0.359-0.416,0.625-0.33
				c0.265,0.082,0.412,0.361,0.33,0.625c-0.303,0.978-0.686,1.942-1.141,2.869l-0.876,1.784
				C435.85,266.496,435.672,266.599,435.487,266.599z M389.863,257.078c-0.2,0-0.389-0.121-0.466-0.318
				c-0.101-0.258,0.027-0.548,0.284-0.647c1.616-0.629,3.311-0.981,5.036-1.047c0.268-0.005,0.507,0.206,0.518,0.482
				c0.01,0.275-0.205,0.508-0.481,0.518c-1.613,0.061-3.198,0.391-4.71,0.979C389.985,257.067,389.924,257.078,389.863,257.078z
				 M437.882,252.138c-0.23,0-0.438-0.159-0.488-0.393c-0.349-1.587-0.898-3.127-1.636-4.576c-0.126-0.246-0.027-0.547,0.219-0.672
				c0.243-0.122,0.547-0.028,0.672,0.219c0.776,1.524,1.355,3.144,1.722,4.814c0.06,0.27-0.111,0.536-0.381,0.596
				C437.953,252.134,437.917,252.138,437.882,252.138z M400.61,249.589c-0.074,0-0.15-0.017-0.221-0.051
				c-0.247-0.122-0.35-0.421-0.228-0.669l0.919-1.871c0.438-0.893,0.946-1.76,1.513-2.576c0.158-0.227,0.47-0.283,0.696-0.126
				c0.227,0.157,0.283,0.469,0.126,0.696c-0.538,0.775-1.021,1.598-1.437,2.445l-0.919,1.872
				C400.973,249.487,400.795,249.589,400.61,249.589z M429.621,240.065c-0.095,0-0.19-0.027-0.275-0.082
				c-0.662-0.437-1.359-0.835-2.072-1.185c-0.743-0.365-1.515-0.683-2.293-0.944c-0.262-0.088-0.402-0.372-0.315-0.633
				c0.089-0.261,0.372-0.4,0.633-0.315c0.82,0.276,1.633,0.611,2.416,0.995c0.749,0.368,1.483,0.788,2.182,1.247
				c0.23,0.152,0.294,0.462,0.143,0.692C429.942,239.986,429.783,240.065,429.621,240.065z M410.539,238.805
				c-0.186,0-0.365-0.105-0.451-0.284c-0.119-0.249-0.014-0.548,0.234-0.667c1.541-0.74,3.174-1.28,4.854-1.608
				c0.268-0.051,0.533,0.124,0.587,0.395c0.053,0.271-0.124,0.534-0.396,0.586c-1.596,0.311-3.147,0.825-4.611,1.528
				C410.685,238.789,410.612,238.805,410.539,238.805z"/>
			<path style="opacity:0.31;fill:#7694F3;" d="M392.947,284.473l-3.374,6.874c-3.81,7.762-0.576,17.23,7.186,21.04l0,0
				c7.762,3.81,17.23,0.576,21.04-7.186l18.425-37.54c3.81-7.762,0.576-17.23-7.186-21.04l0,0c-7.762-3.81-17.23-0.576-21.04,7.186
				l-3.374,6.874c-5.011-0.709-10.154,1.818-12.497,6.592l-1.611,3.283C388.173,275.329,389.321,280.943,392.947,284.473z"/>
			<path style="fill:#FFFFFF;" d="M389.626,415.116L389.626,415.116c-25.022-12.281-35.447-42.802-23.166-67.824l20.001-32.07
				c16.28-26.104,29.834-53.811,40.451-82.685l12.328-33.53c12.281-25.022,42.802-35.447,67.824-23.166h0
				c25.022,12.281,35.447,42.802,23.166,67.824l0,0c-28.426,46.484-52.539,95.472-72.038,146.35l-0.742,1.936
				C445.169,416.972,414.648,427.397,389.626,415.116z"/>
			<path style="opacity:0.31;fill:#7694F3;" d="M389.626,415.116L389.626,415.116c-25.022-12.281-35.447-42.802-23.166-67.824
				l20.001-32.07c16.28-26.104,29.834-53.811,40.451-82.685l12.328-33.53c12.281-25.022,42.802-35.447,67.824-23.166h0
				c25.022,12.281,35.447,42.802,23.166,67.824l0,0c-28.426,46.484-52.539,95.472-72.038,146.35l-0.742,1.936
				C445.169,416.972,414.648,427.397,389.626,415.116z"/>
			<path style="fill:#FFFFFF;" d="M396.319,401.478L396.319,401.478c-22.17-10.881-31.406-37.923-20.525-60.093l17.721-28.415
				c14.424-23.128,26.434-47.677,35.84-73.26l10.923-29.708c10.881-22.17,37.923-31.406,60.093-20.525l0,0
				c22.17,10.881,31.406,37.923,20.525,60.093l0,0c-25.186,41.185-46.55,84.589-63.826,129.668l-0.657,1.715
				C445.531,403.123,418.489,412.36,396.319,401.478z"/>
			<path style="opacity:0.31;fill:#7694F3;" d="M410.092,373.415L410.092,373.415c-16.301-8.001-23.092-27.883-15.091-44.184
				l13.029-20.892c10.605-17.005,19.435-35.055,26.351-53.865l8.031-21.843c8-16.301,27.883-23.092,44.184-15.091l0,0
				c16.301,8.001,23.092,27.883,15.091,44.184l0,0c-18.518,30.282-34.226,62.194-46.929,95.339l-0.483,1.261
				C446.276,374.625,426.393,381.416,410.092,373.415z"/>
			<path style="opacity:0.31;fill:#7694F3;" d="M424.759,340.574L424.759,340.574c-10.023-4.919-14.199-17.145-9.279-27.168
				l8.011-12.846c6.521-10.456,11.95-21.554,16.203-33.12l4.938-13.431c4.919-10.023,17.145-14.199,27.168-9.279h0
				c10.023,4.919,14.198,17.145,9.279,27.168l0,0c-11.386,18.62-21.045,38.242-28.855,58.622l-0.297,0.775
				C447.008,341.318,434.782,345.494,424.759,340.574z"/>
			<path style="opacity:0.11;fill:#7694F3;" d="M427.993,365.484c-0.896,0-1.801-0.042-2.689-0.126
				c-0.275-0.026-0.477-0.271-0.451-0.545c0.026-0.274,0.269-0.47,0.545-0.451c1.632,0.154,3.311,0.16,4.927,0.023
				c0.267-0.018,0.518,0.181,0.54,0.456c0.023,0.275-0.181,0.517-0.456,0.54C429.614,365.449,428.802,365.483,427.993,365.484z
				 M440.022,362.814c-0.188,0-0.368-0.107-0.453-0.289c-0.117-0.25-0.009-0.547,0.242-0.664c1.491-0.696,2.927-1.525,4.266-2.467
				c0.224-0.158,0.537-0.104,0.696,0.122c0.158,0.226,0.104,0.537-0.122,0.696c-1.386,0.975-2.872,1.834-4.418,2.555
				C440.165,362.799,440.094,362.814,440.022,362.814z M415.732,362.658c-0.073,0-0.147-0.016-0.218-0.05l-0.093-0.045
				c-1.535-0.754-3.004-1.645-4.366-2.649c-0.222-0.164-0.27-0.477-0.105-0.699c0.164-0.222,0.477-0.27,0.699-0.105
				c1.314,0.969,2.731,1.828,4.211,2.555l0.09,0.044c0.249,0.12,0.353,0.419,0.232,0.668
				C416.096,362.555,415.918,362.658,415.732,362.658z M451.385,353.195c-0.098,0-0.196-0.028-0.282-0.087
				c-0.228-0.156-0.286-0.468-0.131-0.695c0.74-1.082,1.411-2.233,1.995-3.424l0.335-0.877c0.099-0.258,0.389-0.385,0.646-0.288
				c0.258,0.099,0.387,0.388,0.288,0.646l-0.353,0.919c-0.623,1.274-1.318,2.468-2.085,3.589
				C451.7,353.119,451.544,353.195,451.385,353.195z M404.496,352.746c-0.163,0-0.323-0.08-0.419-0.227
				c-0.928-1.423-1.735-2.938-2.4-4.504c-0.108-0.254,0.01-0.548,0.265-0.655c0.253-0.109,0.547,0.01,0.655,0.265
				c0.643,1.512,1.423,2.975,2.318,4.348c0.15,0.231,0.086,0.541-0.146,0.692C404.685,352.72,404.59,352.746,404.496,352.746z
				 M457.455,339.446c-0.063,0-0.127-0.012-0.189-0.037c-0.256-0.104-0.379-0.396-0.274-0.651c0.63-1.552,1.269-3.102,1.915-4.647
				c0.107-0.256,0.401-0.376,0.653-0.269c0.255,0.106,0.375,0.398,0.269,0.653c-0.645,1.544-1.281,3.09-1.911,4.64
				C457.84,339.329,457.652,339.446,457.455,339.446z M399.899,338.581c-0.266,0-0.486-0.208-0.499-0.476
				c-0.023-0.471-0.035-0.943-0.035-1.415c0-1.23,0.08-2.471,0.238-3.685c0.036-0.274,0.295-0.469,0.561-0.432
				c0.274,0.036,0.467,0.287,0.432,0.561c-0.153,1.173-0.23,2.369-0.23,3.557c0,0.456,0.012,0.911,0.033,1.366
				c0.014,0.276-0.199,0.511-0.475,0.523C399.915,338.581,399.907,338.581,399.899,338.581z M463.335,325.574
				c-0.067,0-0.136-0.014-0.202-0.043c-0.252-0.111-0.367-0.406-0.255-0.659c0.676-1.532,1.361-3.063,2.055-4.589
				c0.115-0.252,0.412-0.36,0.662-0.248c0.251,0.114,0.362,0.41,0.248,0.662c-0.691,1.522-1.375,3.049-2.051,4.579
				C463.71,325.463,463.526,325.574,463.335,325.574z M403.204,324.089c-0.091,0-0.183-0.024-0.265-0.076
				c-0.234-0.146-0.306-0.454-0.159-0.689l2.657-4.262c0.147-0.235,0.457-0.306,0.689-0.159c0.234,0.146,0.306,0.454,0.159,0.689
				l-2.657,4.262C403.533,324.006,403.37,324.089,403.204,324.089z M469.633,311.886c-0.073,0-0.147-0.016-0.216-0.049
				c-0.249-0.119-0.354-0.418-0.235-0.667c0.724-1.511,1.455-3.018,2.193-4.523c0.122-0.247,0.422-0.347,0.67-0.229
				c0.248,0.122,0.35,0.422,0.229,0.67c-0.738,1.501-1.468,3.007-2.189,4.514C469.998,311.781,469.819,311.886,469.633,311.886z
				 M411.178,311.304c-0.091,0-0.183-0.024-0.265-0.076c-0.234-0.146-0.306-0.454-0.159-0.688l2.657-4.262
				c0.146-0.235,0.457-0.306,0.689-0.159c0.234,0.146,0.306,0.454,0.159,0.688l-2.657,4.262
				C411.507,311.221,411.344,311.304,411.178,311.304z M418.981,298.416c-0.084,0-0.169-0.021-0.247-0.065
				c-0.24-0.137-0.324-0.442-0.188-0.682c0.827-1.452,1.641-2.912,2.438-4.381c0.133-0.244,0.439-0.331,0.678-0.201
				c0.243,0.132,0.333,0.436,0.201,0.678c-0.801,1.475-1.616,2.941-2.447,4.398C419.323,298.325,419.154,298.416,418.981,298.416z
				 M476.344,298.397c-0.078,0-0.156-0.018-0.23-0.056c-0.245-0.127-0.342-0.429-0.215-0.674c0.77-1.489,1.546-2.975,2.329-4.456
				c0.13-0.244,0.432-0.336,0.677-0.208c0.243,0.13,0.337,0.433,0.208,0.677c-0.783,1.478-1.558,2.959-2.325,4.446
				C476.699,298.298,476.524,298.397,476.344,298.397z M483.459,285.115c-0.083,0-0.166-0.021-0.242-0.063
				c-0.242-0.135-0.329-0.438-0.195-0.68c0.813-1.466,1.635-2.928,2.464-4.384c0.136-0.241,0.44-0.323,0.682-0.188
				c0.24,0.137,0.324,0.441,0.188,0.682c-0.827,1.454-1.646,2.912-2.458,4.374C483.805,285.022,483.635,285.115,483.459,285.115z
				 M426.04,285.106c-0.074,0-0.149-0.017-0.221-0.052c-0.248-0.122-0.35-0.421-0.228-0.669c0.737-1.499,1.461-3.006,2.169-4.52
				c0.117-0.251,0.418-0.358,0.665-0.241c0.25,0.117,0.358,0.415,0.241,0.665c-0.712,1.52-1.438,3.032-2.179,4.537
				C426.401,285.004,426.225,285.106,426.04,285.106z M490.972,272.055c-0.088,0-0.176-0.022-0.256-0.07
				c-0.237-0.142-0.315-0.448-0.174-0.686c0.858-1.44,1.724-2.875,2.596-4.306c0.144-0.237,0.452-0.311,0.686-0.167
				c0.236,0.143,0.311,0.451,0.167,0.686c-0.87,1.429-1.733,2.861-2.59,4.298C491.308,271.968,491.142,272.055,490.972,272.055z
				 M432.285,271.396c-0.064,0-0.13-0.013-0.193-0.039c-0.255-0.106-0.375-0.399-0.268-0.654c0.647-1.541,1.276-3.088,1.894-4.642
				c0.103-0.257,0.392-0.379,0.649-0.28c0.257,0.102,0.382,0.393,0.28,0.649c-0.619,1.561-1.253,3.113-1.901,4.66
				C432.666,271.28,432.48,271.396,432.285,271.396z M496.608,258.248c-0.021,0-0.042-0.001-0.064-0.004
				c-0.273-0.034-0.468-0.284-0.434-0.559c0.142-1.126,0.213-2.277,0.213-3.42c-0.001-0.501-0.015-1.002-0.041-1.503
				c-0.015-0.275,0.196-0.511,0.473-0.525c0.267-0.032,0.511,0.197,0.525,0.473c0.028,0.517,0.042,1.035,0.043,1.555
				c0,1.186-0.074,2.378-0.221,3.546C497.072,258.064,496.856,258.248,496.608,258.248z M437.722,257.345
				c-0.058,0-0.115-0.01-0.173-0.03c-0.259-0.096-0.392-0.383-0.297-0.643l1.732-4.714c0.097-0.259,0.383-0.39,0.643-0.297
				c0.259,0.096,0.392,0.383,0.297,0.643l-1.732,4.714C438.116,257.22,437.925,257.345,437.722,257.345z M494.499,243.508
				c-0.193,0-0.378-0.113-0.459-0.302c-0.65-1.51-1.438-2.97-2.34-4.338c-0.151-0.23-0.088-0.541,0.143-0.692
				c0.229-0.152,0.54-0.089,0.693,0.143c0.934,1.416,1.748,2.928,2.422,4.492c0.109,0.253-0.008,0.548-0.261,0.657
				C494.633,243.495,494.565,243.508,494.499,243.508z M442.921,243.203c-0.058,0-0.116-0.01-0.173-0.031
				c-0.259-0.095-0.392-0.383-0.296-0.642l0.353-0.958c0.618-1.267,1.307-2.451,2.066-3.564c0.156-0.229,0.47-0.284,0.694-0.131
				c0.229,0.156,0.287,0.467,0.132,0.695c-0.733,1.075-1.397,2.217-1.975,3.394l-0.333,0.91
				C443.315,243.078,443.124,243.203,442.921,243.203z M485.226,231.861c-0.103,0-0.206-0.031-0.295-0.096
				c-1.286-0.938-2.666-1.77-4.102-2.475l-0.123-0.06c-0.248-0.121-0.351-0.421-0.229-0.669c0.122-0.249,0.421-0.351,0.669-0.23
				l0.124,0.061c1.487,0.73,2.918,1.593,4.251,2.564c0.223,0.163,0.271,0.476,0.109,0.699
				C485.532,231.79,485.38,231.861,485.226,231.861z M452.297,231.673c-0.156,0-0.311-0.074-0.409-0.212
				c-0.158-0.226-0.104-0.538,0.121-0.697c1.388-0.978,2.873-1.839,4.416-2.56c0.249-0.116,0.548-0.01,0.665,0.242
				c0.117,0.25,0.009,0.547-0.241,0.665c-1.49,0.696-2.925,1.527-4.264,2.471C452.497,231.643,452.397,231.673,452.297,231.673z
				 M471.305,226.592c-0.016,0-0.031-0.001-0.047-0.002c-1.627-0.152-3.291-0.157-4.928-0.018c-0.283,0.026-0.518-0.18-0.541-0.456
				c-0.023-0.275,0.181-0.517,0.455-0.54c1.696-0.146,3.418-0.139,5.105,0.018c0.275,0.026,0.477,0.27,0.452,0.545
				C471.777,226.398,471.56,226.592,471.305,226.592z"/>
			<path style="opacity:0.11;fill:#7694F3;" d="M414.41,398.664c-0.007,0-0.014,0-0.021,0c-1.696-0.068-3.4-0.254-5.065-0.55
				c-0.271-0.048-0.453-0.308-0.404-0.58c0.049-0.272,0.305-0.45,0.58-0.404c1.62,0.288,3.279,0.468,4.931,0.534
				c0.275,0.012,0.49,0.244,0.479,0.521C414.898,398.453,414.678,398.664,414.41,398.664z M424.399,397.746
				c-0.23,0-0.436-0.158-0.488-0.391c-0.06-0.27,0.109-0.537,0.379-0.598c1.6-0.357,3.205-0.824,4.77-1.387
				c0.261-0.091,0.547,0.042,0.64,0.302c0.093,0.26-0.042,0.546-0.302,0.64c-1.604,0.576-3.249,1.055-4.889,1.422
				C424.472,397.742,424.435,397.746,424.399,397.746z M399.876,395.018c-0.075,0-0.151-0.017-0.224-0.053l-0.095-0.046
				c-1.541-0.756-3.023-1.615-4.423-2.562c-0.228-0.154-0.289-0.466-0.134-0.694c0.156-0.228,0.466-0.289,0.694-0.134
				c1.36,0.92,2.803,1.756,4.288,2.484l0.116,0.057c0.247,0.124,0.347,0.424,0.224,0.671
				C400.235,394.916,400.059,395.018,399.876,395.018z M438.196,391.833c-0.162,0-0.32-0.079-0.417-0.224
				c-0.152-0.23-0.089-0.541,0.141-0.693c1.377-0.911,2.715-1.915,3.978-2.982c0.213-0.176,0.527-0.151,0.705,0.059
				c0.179,0.211,0.152,0.526-0.059,0.705c-1.293,1.093-2.663,2.12-4.071,3.053C438.388,391.807,438.292,391.833,438.196,391.833z
				 M387.957,385.738c-0.142,0-0.283-0.061-0.382-0.177c-1.086-1.283-2.103-2.662-3.022-4.1c-0.149-0.232-0.081-0.542,0.151-0.69
				c0.228-0.149,0.54-0.083,0.69,0.151c0.896,1.399,1.887,2.743,2.944,3.992c0.179,0.211,0.152,0.526-0.059,0.705
				C388.186,385.699,388.071,385.738,387.957,385.738z M449.092,381.49c-0.103,0-0.208-0.032-0.298-0.099
				c-0.222-0.164-0.269-0.478-0.104-0.699c0.983-1.324,1.901-2.722,2.732-4.153c0.139-0.241,0.445-0.32,0.684-0.182
				c0.238,0.139,0.32,0.444,0.182,0.684c-0.849,1.464-1.789,2.893-2.794,4.247C449.396,381.42,449.244,381.49,449.092,381.49z
				 M380.685,372.621c-0.21,0-0.406-0.134-0.475-0.345c-0.525-1.603-0.957-3.259-1.285-4.922c-0.054-0.27,0.122-0.534,0.394-0.587
				c0.266-0.056,0.533,0.122,0.587,0.393c0.32,1.623,0.743,3.239,1.256,4.805c0.086,0.262-0.058,0.545-0.32,0.631
				C380.789,372.613,380.737,372.621,380.685,372.621z M455.863,368.078c-0.062,0-0.124-0.012-0.185-0.035
				c-0.257-0.103-0.382-0.394-0.28-0.649c0.621-1.559,1.246-3.116,1.877-4.671c0.103-0.256,0.394-0.381,0.65-0.275
				c0.256,0.104,0.38,0.395,0.275,0.65c-0.629,1.553-1.254,3.108-1.873,4.665C456.25,367.959,456.061,368.078,455.863,368.078z
				 M378.646,357.749c-0.007,0-0.014,0-0.021,0c-0.275-0.012-0.49-0.244-0.479-0.521c0.068-1.684,0.236-3.387,0.5-5.061
				c0.043-0.273,0.304-0.455,0.572-0.416c0.272,0.043,0.459,0.299,0.416,0.572c-0.258,1.636-0.422,3.301-0.488,4.946
				C379.134,357.538,378.913,357.749,378.646,357.749z M461.577,354.11c-0.064,0-0.13-0.013-0.193-0.039
				c-0.255-0.106-0.375-0.399-0.268-0.654c0.649-1.548,1.305-3.093,1.964-4.636c0.108-0.254,0.405-0.373,0.656-0.264
				c0.254,0.108,0.372,0.402,0.264,0.656c-0.659,1.541-1.313,3.084-1.962,4.63C461.958,353.995,461.772,354.11,461.577,354.11z
				 M381.824,343.072c-0.063,0-0.126-0.012-0.188-0.036c-0.256-0.104-0.38-0.396-0.276-0.651c0.407-1.008,0.859-2.019,1.342-3.004
				l0.953-1.556c0.143-0.235,0.452-0.311,0.688-0.164c0.235,0.145,0.309,0.452,0.164,0.688l-0.93,1.514
				c-0.449,0.923-0.891,1.911-1.289,2.897C382.209,342.954,382.022,343.072,381.824,343.072z M467.556,340.251
				c-0.068,0-0.137-0.014-0.202-0.043c-0.253-0.111-0.367-0.407-0.255-0.659c0.679-1.534,1.363-3.066,2.052-4.597
				c0.112-0.253,0.413-0.364,0.661-0.251c0.252,0.113,0.364,0.409,0.251,0.661c-0.689,1.528-1.371,3.059-2.05,4.591
				C467.931,340.14,467.747,340.251,467.556,340.251z M389.348,330.013c-0.09,0-0.18-0.023-0.262-0.074
				c-0.235-0.145-0.309-0.452-0.164-0.688l2.633-4.287c0.144-0.236,0.452-0.31,0.688-0.164c0.235,0.145,0.309,0.452,0.164,0.688
				l-2.633,4.287C389.68,329.928,389.516,330.013,389.348,330.013z M473.796,326.509c-0.071,0-0.143-0.015-0.211-0.047
				c-0.25-0.116-0.358-0.413-0.242-0.664c0.707-1.522,1.421-3.04,2.139-4.557c0.119-0.25,0.417-0.355,0.666-0.238
				c0.25,0.118,0.356,0.417,0.238,0.666c-0.718,1.515-1.43,3.031-2.137,4.551C474.165,326.401,473.984,326.509,473.796,326.509z
				 M397.246,317.151c-0.09,0-0.18-0.023-0.262-0.074c-0.235-0.145-0.309-0.452-0.164-0.688l2.632-4.287
				c0.144-0.235,0.451-0.31,0.688-0.164c0.235,0.143,0.309,0.452,0.164,0.688l-2.632,4.287
				C397.578,317.066,397.414,317.151,397.246,317.151z M480.297,312.888c-0.074,0-0.149-0.017-0.22-0.051
				c-0.248-0.122-0.35-0.421-0.229-0.669c0.738-1.507,1.479-3.012,2.226-4.515c0.124-0.248,0.426-0.347,0.671-0.226
				c0.247,0.123,0.348,0.424,0.226,0.671c-0.746,1.501-1.487,3.004-2.224,4.509C480.659,312.785,480.481,312.888,480.297,312.888z
				 M405.021,304.216c-0.085,0-0.171-0.021-0.25-0.067c-0.239-0.138-0.321-0.443-0.183-0.683c0.838-1.45,1.666-2.905,2.486-4.367
				c0.134-0.241,0.437-0.328,0.681-0.19c0.24,0.135,0.326,0.439,0.19,0.681c-0.822,1.464-1.652,2.923-2.492,4.377
				C405.361,304.126,405.192,304.216,405.021,304.216z M487.058,299.395c-0.077,0-0.155-0.017-0.227-0.055
				c-0.246-0.126-0.344-0.428-0.218-0.673c0.766-1.493,1.536-2.984,2.311-4.473c0.128-0.246,0.433-0.337,0.674-0.213
				c0.245,0.127,0.341,0.43,0.213,0.674c-0.773,1.486-1.544,2.976-2.308,4.467C487.414,299.295,487.239,299.395,487.058,299.395z
				 M412.319,291.005c-0.079,0-0.159-0.019-0.233-0.058c-0.244-0.129-0.338-0.432-0.209-0.676c0.782-1.482,1.555-2.968,2.318-4.458
				c0.126-0.246,0.428-0.342,0.674-0.218c0.245,0.126,0.343,0.428,0.217,0.673c-0.766,1.494-1.54,2.984-2.324,4.47
				C412.672,290.908,412.498,291.005,412.319,291.005z M494.071,286.031c-0.08,0-0.161-0.02-0.237-0.06
				c-0.243-0.131-0.334-0.435-0.203-0.678c0.796-1.478,1.594-2.953,2.396-4.427c0.133-0.242,0.437-0.331,0.679-0.2
				c0.242,0.133,0.332,0.436,0.2,0.679c-0.803,1.472-1.601,2.945-2.395,4.423C494.421,285.935,494.249,286.031,494.071,286.031z
				 M419.112,277.528c-0.073,0-0.147-0.016-0.217-0.05c-0.249-0.119-0.354-0.418-0.233-0.667c0.726-1.51,1.441-3.023,2.147-4.542
				c0.115-0.251,0.413-0.361,0.664-0.242c0.25,0.116,0.358,0.413,0.242,0.664c-0.708,1.522-1.426,3.04-2.153,4.554
				C419.477,277.424,419.298,277.528,419.112,277.528z M501.341,272.804c-0.083,0-0.167-0.021-0.245-0.064
				c-0.24-0.135-0.326-0.439-0.19-0.681c0.821-1.463,1.648-2.923,2.479-4.381c0.138-0.239,0.443-0.321,0.683-0.186
				c0.239,0.137,0.323,0.442,0.186,0.683c-0.831,1.456-1.656,2.914-2.478,4.375C501.685,272.712,501.516,272.804,501.341,272.804z
				 M425.392,263.805c-0.066,0-0.135-0.014-0.199-0.041c-0.254-0.11-0.369-0.405-0.26-0.658c0.669-1.536,1.327-3.076,1.975-4.62
				c0.107-0.255,0.397-0.374,0.654-0.268c0.255,0.106,0.375,0.399,0.268,0.654c-0.649,1.548-1.31,3.092-1.979,4.632
				C425.769,263.692,425.584,263.805,425.392,263.805z M508.859,259.717c-0.087,0-0.174-0.022-0.253-0.069
				c-0.238-0.14-0.318-0.446-0.178-0.684c0.85-1.447,1.704-2.892,2.563-4.333c0.142-0.238,0.449-0.314,0.686-0.174
				c0.237,0.142,0.315,0.448,0.174,0.686c-0.858,1.439-1.711,2.882-2.561,4.327C509.197,259.629,509.03,259.717,508.859,259.717z
				 M431.145,249.852c-0.06,0-0.122-0.011-0.182-0.034c-0.258-0.101-0.385-0.39-0.284-0.648c0.608-1.56,1.208-3.124,1.798-4.692
				c0.097-0.259,0.387-0.391,0.643-0.292c0.259,0.097,0.39,0.385,0.292,0.644c-0.592,1.572-1.191,3.139-1.802,4.703
				C431.533,249.731,431.345,249.852,431.145,249.852z M515.798,246.361c-0.053,0-0.107-0.008-0.159-0.026
				c-0.262-0.088-0.402-0.372-0.314-0.633c0.526-1.57,0.968-3.184,1.311-4.795c0.058-0.27,0.328-0.438,0.594-0.385
				c0.269,0.058,0.442,0.323,0.385,0.593c-0.351,1.649-0.803,3.299-1.342,4.905C516.202,246.229,516.007,246.361,515.798,246.361z
				 M436.483,235.736c-0.059,0-0.118-0.01-0.176-0.032c-0.259-0.097-0.39-0.386-0.292-0.644l1.77-4.71
				c0.097-0.259,0.387-0.389,0.644-0.292c0.259,0.097,0.39,0.386,0.292,0.644l-1.77,4.71
				C436.876,235.612,436.685,235.736,436.483,235.736z M518.069,231.517c-0.271,0-0.494-0.217-0.5-0.489
				c-0.036-1.657-0.171-3.323-0.4-4.951c-0.038-0.273,0.152-0.526,0.426-0.565c0.261-0.043,0.525,0.151,0.564,0.425
				c0.234,1.667,0.373,3.372,0.41,5.068c0.006,0.276-0.213,0.505-0.489,0.511C518.076,231.517,518.073,231.517,518.069,231.517z
				 M441.792,221.607c-0.059,0-0.118-0.01-0.176-0.032c-0.259-0.097-0.39-0.386-0.292-0.644l1.575-4.193l0.268-0.543
				c0.126-0.247,0.425-0.346,0.673-0.22c0.246,0.125,0.345,0.426,0.22,0.672l-0.243,0.487l-1.557,4.149
				C442.185,221.483,441.994,221.607,441.792,221.607z M515.084,216.809c-0.198,0-0.386-0.118-0.464-0.313
				c-0.62-1.542-1.34-3.049-2.139-4.479c-0.135-0.241-0.048-0.545,0.192-0.68c0.239-0.134,0.545-0.049,0.681,0.193
				c0.819,1.467,1.557,3.012,2.193,4.593c0.104,0.256-0.021,0.547-0.277,0.65C515.21,216.797,515.146,216.809,515.084,216.809z
				 M449.122,208.528c-0.113,0-0.227-0.038-0.32-0.116c-0.212-0.177-0.24-0.492-0.063-0.704c1.083-1.301,2.253-2.551,3.476-3.716
				c0.2-0.189,0.516-0.182,0.707,0.018c0.19,0.2,0.183,0.517-0.018,0.707c-1.195,1.138-2.338,2.359-3.397,3.631
				C449.407,208.467,449.265,208.528,449.122,208.528z M506.926,204.229c-0.13,0-0.26-0.05-0.357-0.15
				c-1.157-1.183-2.402-2.292-3.701-3.298c-0.219-0.17-0.259-0.483-0.09-0.702c0.17-0.218,0.485-0.256,0.701-0.089
				c1.336,1.034,2.616,2.174,3.805,3.39c0.193,0.197,0.189,0.514-0.008,0.707C507.178,204.182,507.052,204.229,506.926,204.229z
				 M460.586,198.821c-0.172,0-0.339-0.089-0.433-0.249c-0.139-0.239-0.058-0.545,0.182-0.684c1.467-0.854,2.996-1.625,4.543-2.292
				c0.252-0.109,0.548,0.007,0.657,0.261c0.109,0.253-0.008,0.547-0.261,0.657c-1.511,0.651-3.004,1.405-4.438,2.238
				C460.758,198.799,460.672,198.821,460.586,198.821z M494.47,195.897c-0.063,0-0.125-0.012-0.186-0.036
				c-1.531-0.616-3.118-1.13-4.717-1.528c-0.268-0.067-0.431-0.338-0.364-0.606c0.066-0.268,0.335-0.43,0.607-0.364
				c1.643,0.41,3.274,0.938,4.848,1.571c0.256,0.103,0.381,0.394,0.277,0.65C494.855,195.779,494.668,195.897,494.47,195.897z
				 M474.709,193.745c-0.241,0-0.453-0.175-0.493-0.421c-0.043-0.272,0.143-0.529,0.415-0.572c1.682-0.269,3.387-0.428,5.07-0.476
				c0.271,0.001,0.506,0.21,0.514,0.486c0.008,0.276-0.21,0.506-0.486,0.514c-1.64,0.046-3.302,0.202-4.939,0.463
				C474.762,193.743,474.735,193.745,474.709,193.745z"/>
		</g>
		<g>
			<g>
				<path style="fill:#3E479B;" d="M458.062,243.086c3.933-0.35,7.589,1.824,8.561,5.342l1.374,4.971
					c1.111,4.021-1.686,8.335-6.216,9.587c-4.53,1.252-9.146-1.014-10.257-5.034l-1.374-4.972c-0.972-3.518,1.048-7.261,4.603-8.981
					c-5.451,2.286-8.655,7.802-7.215,13.011l1.952,7.061c1.578,5.711,8.134,8.929,14.569,7.151
					c6.435-1.778,10.408-7.906,8.829-13.617l-1.952-7.061C469.495,245.336,463.913,242.248,458.062,243.086z"/>
			</g>
			<g>
				<path style="fill:#4C65BA;" d="M458.979,253.463L458.979,253.463c-25.077,6.931-51.025-7.78-57.956-32.857l-14.033-50.777
					l90.813-25.098l14.033,50.777C498.767,220.584,484.056,246.532,458.979,253.463z"/>
				<path style="fill:#3E479B;" d="M479.665,154.621l-88.88,24.564c-3.403,0.94-6.956-1.074-7.896-4.477l0,0
					c-0.94-3.403,1.074-6.956,4.477-7.896l88.88-24.564c3.403-0.94,6.956,1.074,7.896,4.477l0,0
					C485.082,150.127,483.068,153.68,479.665,154.621z"/>
				
					<rect x="393.858" y="182.192" transform="matrix(0.9639 -0.2664 0.2664 0.9639 -34.2242 124.2717)" style="opacity:0.31;fill:#7694F3;" width="94.218" height="12.195"/>
				
					<rect x="398.113" y="197.59" transform="matrix(0.9639 -0.2664 0.2664 0.9639 -38.1723 125.9622)" style="opacity:0.31;fill:#7694F3;" width="94.218" height="12.195"/>
			</g>
			<path style="opacity:0.35;fill:#FFFFFF;" d="M438.264,243.059c-17.488,0-25.855-12.556-25.942-12.689
				c-0.3-0.463-0.169-1.081,0.293-1.382c0.462-0.299,1.081-0.172,1.384,0.292c0.085,0.131,8.719,13.039,26.916,11.68
				c0.567-0.051,1.03,0.372,1.071,0.923c0.041,0.551-0.372,1.03-0.923,1.071C440.106,243.025,439.171,243.059,438.264,243.059z"/>
		</g>
		<g>
			<g>
				<path style="fill:#FFFFFF;" d="M449.398,128.597L449.398,128.597c-2.278-2.979-1.705-7.281,1.274-9.56l15.539-11.884
					c2.979-2.278,7.281-1.705,9.559,1.274l0,0c2.279,2.979,1.705,7.281-1.274,9.56l-15.539,11.884
					C455.978,132.149,451.677,131.576,449.398,128.597z"/>
				<path style="fill:#4C65BA;" d="M458.442,113.095l7.77-5.942c2.979-2.278,7.281-1.705,9.559,1.274l0,0
					c2.279,2.979,1.705,7.281-1.274,9.56l-7.77,5.942L458.442,113.095z"/>
			</g>
			<g>
				<path style="fill:#FFFFFF;" d="M491.272,153.388c-2.117-3.347-1.12-7.776,2.227-9.893c3.347-2.117,7.776-1.12,9.893,2.227
					c2.117,3.347,1.12,7.776-2.227,9.893C497.818,157.732,493.388,156.735,491.272,153.388z"/>
			</g>
			<g>
				<path style="fill:#4C65BA;" d="M495.99,101.148c2.237-5.609,8.598-8.342,14.206-6.104c5.609,2.237,8.342,8.598,6.104,14.206
					c-2.237,5.609-8.598,8.342-14.206,6.104C496.486,113.117,493.753,106.756,495.99,101.148z"/>
				<path style="fill:#FFFFFF;" d="M496.495,100.054l20.202,8.059c0.618,0.246,0.918,0.945,0.672,1.563
					c-0.246,0.618-0.945,0.918-1.563,0.672l-20.202-8.059c-0.618-0.246-0.918-0.946-0.672-1.563
					C495.178,100.108,495.877,99.808,496.495,100.054z"/>
			</g>
		</g>
	</g>
	<g>
		<g>
			<circle style="fill:#4C65BA;" cx="164.385" cy="301.52" r="84.433"/>
			
				<ellipse transform="matrix(0.7071 -0.7071 0.7071 0.7071 -165.0597 204.5512)" style="fill:#FFFFFF;" cx="164.385" cy="301.52" rx="68.907" ry="68.907"/>
			<g>
				<g>
					<path style="fill:#3E479B;" d="M185.55,252.558L185.55,252.558c-0.942-0.41-1.373-1.505-0.964-2.447l3.522-8.099
						c0.41-0.942,1.505-1.373,2.447-0.964l0,0c0.942,0.41,1.373,1.505,0.964,2.447l-3.522,8.099
						C187.587,252.536,186.491,252.967,185.55,252.558z"/>
					<path style="fill:#3E479B;" d="M138.216,361.992L138.216,361.992c-0.942-0.409-1.373-1.505-0.964-2.447l3.522-8.099
						c0.41-0.942,1.505-1.373,2.447-0.964l0,0c0.942,0.409,1.373,1.505,0.964,2.446l-3.522,8.099
						C140.253,361.97,139.158,362.402,138.216,361.992z"/>
				</g>
				<g>
					<path style="fill:#3E479B;" d="M213.348,322.685L213.348,322.685c0.41-0.942,1.505-1.373,2.447-0.964l8.099,3.522
						c0.942,0.41,1.373,1.505,0.964,2.447v0c-0.41,0.942-1.505,1.373-2.447,0.964l-8.099-3.522
						C213.369,324.722,212.938,323.626,213.348,322.685z"/>
					<path style="fill:#3E479B;" d="M103.913,275.351L103.913,275.351c0.41-0.942,1.505-1.373,2.447-0.964l8.099,3.522
						c0.942,0.409,1.373,1.505,0.964,2.447l0,0c-0.41,0.942-1.505,1.373-2.447,0.964l-8.099-3.522
						C103.935,277.388,103.504,276.293,103.913,275.351z"/>
				</g>
				<g>
					<path style="fill:#3E479B;" d="M216.18,280.995L216.18,280.995c-0.376-0.956,0.093-2.035,1.049-2.411l4.186-1.649
						c0.955-0.376,2.035,0.093,2.411,1.049l0,0c0.376,0.956-0.093,2.035-1.049,2.411l-4.186,1.649
						C217.636,282.419,216.556,281.95,216.18,280.995z"/>
					<path style="fill:#3E479B;" d="M104.872,325.086L104.872,325.086c-0.376-0.955,0.093-2.035,1.049-2.411l5.176-2.039
						c0.956-0.376,2.035,0.093,2.411,1.049l0,0c0.376,0.956-0.093,2.035-1.049,2.411l-5.176,2.039
						C106.328,326.511,105.249,326.041,104.872,325.086z"/>
				</g>
				<g>
					<path style="fill:#3E479B;" d="M184.889,353.366L184.889,353.366c0.956-0.376,2.035,0.093,2.411,1.049l1.649,4.186
						c0.376,0.956-0.093,2.035-1.049,2.411l0,0c-0.956,0.376-2.035-0.093-2.411-1.049l-1.649-4.186
						C183.464,354.822,183.934,353.742,184.889,353.366z"/>
					<path style="fill:#3E479B;" d="M140.798,242.058L140.798,242.058c0.955-0.376,2.035,0.093,2.411,1.049l2.039,5.176
						c0.376,0.955-0.093,2.035-1.049,2.411l0,0c-0.956,0.376-2.035-0.093-2.411-1.049l-2.039-5.176
						C139.373,243.514,139.842,242.434,140.798,242.058z"/>
				</g>
			</g>
		</g>
		<g>
			<path style="fill:#7694F3;" d="M164.821,267.762c-0.229,0-0.461-0.04-0.689-0.123c-1.037-0.38-1.569-1.529-1.189-2.566
				c4.336-11.828,3.646-24.055-1.941-34.428l-14.945-27.745c-0.523-0.972-0.16-2.185,0.813-2.709
				c0.973-0.524,2.185-0.161,2.709,0.813l14.945,27.745c6.049,11.229,6.842,24.971,2.176,37.702
				C166.402,267.259,165.637,267.762,164.821,267.762z"/>
			<path style="fill:#FFFFFF;" d="M163.477,197.517l-27.426,14.774c-2.502,1.348-5.622,0.412-6.97-2.09l-39.075-72.538
				c-5.427-10.075-1.66-22.642,8.416-28.069v0c10.075-5.427,22.642-1.659,28.07,8.416l39.075,72.538
				C166.914,193.049,165.979,196.169,163.477,197.517z"/>
			<path style="opacity:0.31;fill:#7694F3;" d="M163.477,197.517l-27.426,14.774c-2.502,1.348-5.622,0.412-6.97-2.09l-39.075-72.538
				c-5.427-10.075-1.66-22.642,8.416-28.069v0c10.075-5.427,22.642-1.659,28.07,8.416l39.075,72.538
				C166.914,193.049,165.979,196.169,163.477,197.517z"/>
			<path style="opacity:0.34;fill:#7694F3;" d="M137.119,211.716l-37.958-70.463c-3.245-6.024-4.415-13.059-3.293-19.809
				l0.812-11.155l0.998,0.073l-0.817,11.2c-1.091,6.578,0.041,13.386,3.182,19.216L138,211.241L137.119,211.716z"/>
			<path style="opacity:0.34;fill:#7694F3;" d="M160.992,198.855l-37.957-70.463c-3.141-5.83-8.203-10.521-14.256-13.209l-9.843-5.5
				l0.488-0.873l9.802,5.479c6.213,2.757,11.444,7.604,14.689,13.628l37.957,70.463L160.992,198.855z"/>
			
				<rect x="123.919" y="104.412" transform="matrix(0.8804 -0.4743 0.4743 0.8804 -59.9809 77.8878)" style="opacity:0.34;fill:#7694F3;" width="1.001" height="106.884"/>
		</g>
		<g>
			<path style="fill:#7694F3;" d="M170.736,268.079l57.525-60.206c5.334-5.583,14.184-5.784,19.766-0.45l129.551,123.781
				c5.583,5.334,5.784,14.184,0.45,19.767l-57.525,60.206c-5.334,5.583-14.184,5.784-19.766,0.45L171.186,287.845
				C165.604,282.511,165.402,273.661,170.736,268.079z"/>
			<path style="opacity:0.35;fill:#FFFFFF;" d="M180.585,268.248l48.294-50.545c5.334-5.583,14.184-5.784,19.766-0.45
				l119.085,113.781c5.583,5.334,5.784,14.184,0.45,19.766l-48.294,50.545c-5.334,5.583-14.184,5.784-19.766,0.45L181.035,288.014
				C175.452,282.681,175.251,273.831,180.585,268.248z"/>
			<path style="fill:#FCFFFF;" d="M212.906,250.34c0.432-0.453,1.149-0.469,1.602-0.036l123.352,117.858
				c0.452,0.432,0.469,1.149,0.036,1.602c-0.433,0.453-1.149,0.469-1.602,0.036L212.942,251.942
				C212.49,251.509,212.473,250.793,212.906,250.34z"/>
			<g>
				<path style="fill:#FFFFFF;" d="M296.102,310.231c-4.111-3.928-4.26-10.445-0.332-14.557c3.928-4.111,10.445-4.26,14.557-0.332
					s4.26,10.445,0.332,14.557C306.73,314.011,300.213,314.159,296.102,310.231z"/>
				<path style="opacity:0.52;fill:#7694F3;" d="M295.323,309.405l14.149-14.809c0.433-0.453,1.149-0.469,1.602-0.036
					c0.453,0.432,0.469,1.149,0.036,1.602l-14.149,14.809c-0.433,0.453-1.149,0.469-1.602,0.036
					C294.907,310.574,294.891,309.858,295.323,309.405z"/>
			</g>
			<g>
				
					<ellipse transform="matrix(0.9997 -0.0228 0.0228 0.9997 -6.3553 6.4895)" style="fill:#FFFFFF;" cx="281.735" cy="282.265" rx="10.296" ry="10.296"/>
				<path style="opacity:0.52;fill:#7694F3;" d="M273.845,288.883l14.149-14.809c0.432-0.453,1.149-0.469,1.602-0.036
					c0.453,0.433,0.469,1.149,0.036,1.602l-14.149,14.809c-0.433,0.453-1.149,0.469-1.602,0.036
					C273.428,290.052,273.412,289.335,273.845,288.883z"/>
			</g>
			<g>
				<path style="fill:#FFFFFF;" d="M249.963,261.977c-0.13-5.685,4.374-10.398,10.059-10.527
					c5.685-0.129,10.398,4.374,10.527,10.059c0.13,5.685-4.374,10.398-10.059,10.527
					C254.806,272.165,250.092,267.661,249.963,261.977z"/>
				<path style="opacity:0.52;fill:#7694F3;" d="M249.204,261.193c0.2-0.21,0.48-0.343,0.793-0.35l20.475-0.466
					c0.626-0.014,1.144,0.481,1.158,1.107c0.014,0.626-0.481,1.144-1.107,1.158l-20.475,0.466c-0.626,0.014-1.144-0.481-1.158-1.107
					C248.883,261.688,249.004,261.402,249.204,261.193z"/>
			</g>
			<g>
				<path style="fill:#FFFFFF;" d="M231.983,248.968c-4.111-3.928-4.26-10.445-0.331-14.557c3.928-4.111,10.445-4.26,14.556-0.331
					c4.111,3.928,4.26,10.445,0.332,14.557C242.611,252.748,236.094,252.896,231.983,248.968z"/>
				<path style="opacity:0.52;fill:#7694F3;" d="M231.205,248.142l14.149-14.809c0.433-0.453,1.149-0.469,1.602-0.036
					c0.453,0.433,0.469,1.149,0.036,1.602l-14.149,14.809c-0.433,0.453-1.149,0.469-1.602,0.036S230.773,248.595,231.205,248.142z"
					/>
			</g>
			<g>
				<path style="fill:#FFFFFF;" d="M334.838,343.072c-0.129-5.685,4.374-10.398,10.059-10.527
					c5.685-0.13,10.398,4.374,10.527,10.059c0.129,5.685-4.374,10.398-10.059,10.527
					C339.681,353.26,334.968,348.756,334.838,343.072z"/>
				<path style="opacity:0.52;fill:#7694F3;" d="M334.079,342.287c0.2-0.21,0.48-0.343,0.793-0.35l20.476-0.466
					c0.626-0.014,1.144,0.481,1.158,1.107c0.014,0.626-0.481,1.144-1.107,1.158l-20.476,0.466c-0.626,0.014-1.144-0.481-1.158-1.107
					C333.758,342.783,333.879,342.497,334.079,342.287z"/>
			</g>
			<g>
				<path style="fill:#FFFFFF;" d="M316.858,330.064c-4.111-3.928-4.26-10.445-0.331-14.557c3.928-4.111,10.445-4.26,14.556-0.332
					c4.111,3.928,4.26,10.445,0.332,14.557C327.487,333.843,320.97,333.992,316.858,330.064z"/>
				<path style="opacity:0.52;fill:#7694F3;" d="M316.081,329.238l14.149-14.809c0.433-0.453,1.149-0.469,1.602-0.036
					s0.469,1.149,0.036,1.602l-14.149,14.809c-0.433,0.453-1.149,0.469-1.602,0.036C315.665,330.407,315.648,329.69,316.081,329.238
					z"/>
			</g>
			<g>
				<path style="fill:#FFFFFF;" d="M262.09,345.828c-4.111-3.928-4.26-10.445-0.332-14.556c3.928-4.111,10.445-4.26,14.557-0.332
					c4.111,3.928,4.26,10.445,0.332,14.557C272.719,349.608,266.201,349.756,262.09,345.828z"/>
				<path style="opacity:0.52;fill:#7694F3;" d="M261.312,345.002l14.149-14.809c0.433-0.453,1.149-0.469,1.602-0.036
					c0.453,0.433,0.469,1.149,0.036,1.602l-14.149,14.809c-0.433,0.453-1.149,0.469-1.602,0.036
					C260.896,346.171,260.879,345.455,261.312,345.002z"/>
			</g>
			<g>
				<path style="fill:#FFFFFF;" d="M240.611,325.306c-4.111-3.928-4.26-10.445-0.331-14.557c3.928-4.111,10.445-4.26,14.557-0.331
					c4.111,3.928,4.26,10.445,0.332,14.556C251.239,329.085,244.722,329.234,240.611,325.306z"/>
				<path style="opacity:0.52;fill:#7694F3;" d="M239.833,324.48l14.149-14.809c0.433-0.453,1.149-0.469,1.602-0.036
					c0.453,0.433,0.469,1.149,0.036,1.602l-14.149,14.809c-0.433,0.453-1.149,0.469-1.602,0.036
					C239.417,325.649,239.4,324.932,239.833,324.48z"/>
			</g>
			<g>
				<path style="fill:#FFFFFF;" d="M215.951,297.573c-0.13-5.685,4.374-10.398,10.059-10.527
					c5.685-0.129,10.398,4.374,10.527,10.059c0.13,5.685-4.374,10.398-10.059,10.527
					C220.794,307.762,216.081,303.258,215.951,297.573z"/>
				<path style="opacity:0.52;fill:#7694F3;" d="M215.192,296.79c0.2-0.21,0.48-0.343,0.793-0.35l20.475-0.466
					c0.626-0.014,1.144,0.481,1.158,1.107c0.014,0.626-0.481,1.144-1.107,1.158l-20.475,0.466c-0.626,0.014-1.144-0.481-1.158-1.107
					C214.872,297.285,214.992,297,215.192,296.79z"/>
			</g>
			<g>
				<path style="fill:#FFFFFF;" d="M197.971,284.565c-4.111-3.928-4.26-10.445-0.332-14.556c3.928-4.111,10.445-4.26,14.557-0.332
					c4.111,3.928,4.26,10.445,0.331,14.557C208.6,288.345,202.083,288.493,197.971,284.565z"/>
				<path style="opacity:0.52;fill:#7694F3;" d="M197.194,283.739l14.149-14.809c0.432-0.453,1.149-0.469,1.602-0.036
					c0.453,0.433,0.469,1.149,0.036,1.602l-14.149,14.809c-0.433,0.453-1.149,0.469-1.602,0.036
					C196.777,284.909,196.761,284.192,197.194,283.739z"/>
			</g>
			<g>
				<path style="fill:#FFFFFF;" d="M300.827,378.669c-0.13-5.685,4.374-10.398,10.059-10.527
					c5.685-0.129,10.398,4.374,10.527,10.059c0.129,5.685-4.374,10.398-10.059,10.527
					C305.67,388.857,300.956,384.353,300.827,378.669z"/>
				<path style="opacity:0.52;fill:#7694F3;" d="M300.067,377.884c0.2-0.21,0.48-0.343,0.793-0.35l20.476-0.466
					c0.626-0.014,1.144,0.481,1.158,1.107c0.014,0.626-0.481,1.144-1.107,1.158l-20.476,0.466c-0.626,0.014-1.144-0.481-1.158-1.107
					C299.747,378.38,299.867,378.094,300.067,377.884z"/>
			</g>
			<g>
				<path style="fill:#FFFFFF;" d="M282.847,365.66c-4.111-3.928-4.26-10.445-0.331-14.557c3.928-4.111,10.445-4.26,14.556-0.332
					s4.26,10.445,0.332,14.556C293.475,369.44,286.958,369.589,282.847,365.66z"/>
				<path style="opacity:0.52;fill:#7694F3;" d="M282.069,364.835l14.149-14.809c0.433-0.453,1.149-0.469,1.602-0.036
					c0.453,0.433,0.469,1.149,0.037,1.602L283.707,366.4c-0.433,0.453-1.149,0.469-1.602,0.036
					C281.653,366.004,281.637,365.288,282.069,364.835z"/>
			</g>
		</g>
		<g>
			<g>
				<path style="fill:#FFFFFF;" d="M160.322,142.018c2.117-3.347,1.12-7.776-2.227-9.893c-3.347-2.117-7.776-1.12-9.893,2.227
					c-2.117,3.347-1.12,7.776,2.227,9.893C153.775,146.362,158.204,145.365,160.322,142.018z"/>
			</g>
			<g>
				
					<ellipse transform="matrix(0.1179 -0.993 0.993 0.1179 28.3818 236.7339)" style="fill:#7694F3;" cx="147.437" cy="102.392" rx="9.436" ry="9.436"/>
				<path style="fill:#FFFFFF;" d="M155.765,97.952l-17.434,6.955c-0.533,0.213-0.792,0.816-0.58,1.349
					c0.213,0.533,0.816,0.792,1.349,0.58l17.434-6.955c0.533-0.213,0.792-0.816,0.58-1.349
					C156.902,97.999,156.298,97.74,155.765,97.952z"/>
			</g>
		</g>
	</g>
	<g>
		<g>
			<path style="opacity:0.43;fill:#FD8181;" d="M420.214,312.682l-240.125,0.307c-8.054,0.01-14.593-6.509-14.607-14.563
				l-0.265-155.416l269.301-0.345l0.265,155.403C434.798,306.128,428.274,312.671,420.214,312.682z"/>
			<path style="fill:#FFFFFF;" d="M417.961,308.633l-235.632,0.302c-8.054,0.01-14.593-6.509-14.607-14.563l-0.258-151.364
				l264.809-0.339l0.258,151.351C432.545,302.079,426.021,308.622,417.961,308.633z"/>
			<g>
				<path style="fill:#F7A9B4;" d="M370.485,288.606l-0.225-131.421l38.761-0.05l0.226,131.422L370.485,288.606z M372.265,159.183
					l0.217,127.422l34.762-0.045l-0.218-127.421L372.265,159.183z"/>
				<g>
					<path style="fill:#F7A9B4;" d="M190.976,288.836l-0.225-131.42l218.271-0.28l0.226,131.422l-1.001,0.001L190.976,288.836z
						 M192.755,159.413l0.217,127.421l214.271-0.274l-0.218-127.421L192.755,159.413z"/>
					<path style="fill:#F7A9B4;" d="M190.809,191.254l-0.058-33.838l218.271-0.28l0.059,33.838L190.809,191.254z M192.755,159.413
						l0.05,29.838l214.271-0.274l-0.051-29.838L192.755,159.413z"/>
					<path style="fill:#F7A9B4;" d="M190.92,256.102l-0.059-33.838l218.272-0.28l0.058,33.839l-1.001,0.001L190.92,256.102z
						 M192.865,224.261l0.051,29.839l214.27-0.274l-0.05-29.838L192.865,224.261z"/>
					<path style="fill:#F7A9B4;" d="M299.06,288.697l-0.225-131.42l38.761-0.05l0.226,131.421L299.06,288.697z M300.84,159.274
						l0.217,127.421l34.762-0.045l-0.218-127.42L300.84,159.274z"/>
					<path style="fill:#F7A9B4;" d="M227.452,288.789l-0.225-131.42l38.761-0.05l0.226,131.421L227.452,288.789z M229.231,159.366
						l0.217,127.421l34.762-0.045l-0.218-127.42L229.231,159.366z"/>
				</g>
			</g>
			<g>
				<path style="fill:#FD6E7E;" d="M432.432,142.668l-264.809,0.339l-0.057-33.647c-0.007-4.317,3.487-7.822,7.804-7.827
					l249.181-0.319c4.314-0.006,7.817,3.486,7.824,7.801L432.432,142.668z"/>
				<path style="fill:#FF9399;" d="M167.624,133.772l-0.044-26.03c-0.005,0.104-0.015,0.207-0.015,0.312l0.06,34.952l264.809-0.339
					l-0.016-9.235L167.624,133.772z"/>
				<g>
					<path style="fill:#F7C8CE;" d="M398.976,125.642c-4.678,0-8.487-3.802-8.494-8.481c-0.004-2.269,0.877-4.403,2.479-6.01
						c1.603-1.606,3.734-2.493,6.003-2.497c0.004,0,0.009,0,0.013,0c4.678,0,8.487,3.802,8.494,8.482v0
						c0.006,4.684-3.799,8.5-8.481,8.506C398.984,125.642,398.979,125.642,398.976,125.642z M398.976,109.653
						c-0.004,0-0.007,0-0.011,0c-2.002,0.003-3.883,0.786-5.296,2.203c-1.414,1.418-2.19,3.3-2.188,5.302
						c0.007,4.128,3.367,7.483,7.494,7.483c0.004,0,0.007,0,0.011,0c4.132-0.006,7.489-3.373,7.483-7.505v0.001
						C406.463,113.008,403.103,109.653,398.976,109.653z"/>
					<path style="fill:#FFFFFF;" d="M399.132,118.468l-0.31,0.001c-2.046,0.003-3.707-1.653-3.71-3.699l-0.028-18.721
						c-0.003-2.046,1.653-3.707,3.699-3.71l0.31,0c2.046-0.003,3.707,1.653,3.71,3.699l0.028,18.721
						C402.834,116.804,401.178,118.465,399.132,118.468z"/>
				</g>
				<g>
					<path style="fill:#F7C8CE;" d="M200.568,125.889c-4.678,0-8.487-3.802-8.494-8.481c-0.007-4.684,3.798-8.499,8.481-8.507
						c0.004,0,0.009,0,0.013,0c4.678,0,8.487,3.802,8.494,8.481c0.004,2.269-0.877,4.403-2.479,6.01
						c-1.603,1.606-3.734,2.493-6.003,2.497C200.577,125.889,200.572,125.889,200.568,125.889z M200.568,109.901
						c-0.004,0-0.007,0-0.011,0c-2.002,0.003-3.883,0.786-5.296,2.203c-1.414,1.418-2.19,3.3-2.188,5.302
						c0.007,4.128,3.367,7.483,7.494,7.483c0.004,0,0.007,0,0.011,0c2.002-0.003,3.883-0.785,5.296-2.203
						c1.414-1.418,2.19-3.301,2.188-5.302C208.056,113.256,204.695,109.901,200.568,109.901z"/>
					<path style="fill:#FFFFFF;" d="M200.725,118.715l-0.31,0c-2.046,0.003-3.707-1.653-3.71-3.699l-0.028-18.721
						c-0.003-2.046,1.653-3.707,3.699-3.71l0.31,0c2.046-0.003,3.707,1.653,3.71,3.699l0.028,18.721
						C204.427,117.051,202.771,118.712,200.725,118.715z"/>
				</g>
				<g>
					<path style="fill:#F7C8CE;" d="M243.051,125.826c-2.264,0-4.393-0.88-5.996-2.479c-1.607-1.602-2.493-3.734-2.497-6.003
						c-0.006-4.684,3.799-8.5,8.481-8.507c0.005,0,0.01,0,0.014,0c2.264,0,4.393,0.88,5.996,2.479
						c1.607,1.602,2.493,3.734,2.497,6.002c0.004,2.269-0.877,4.403-2.479,6.01c-1.603,1.606-3.734,2.493-6.003,2.497
						C243.06,125.826,243.055,125.826,243.051,125.826z M243.053,109.838c-0.004,0-0.008,0-0.012,0
						c-4.132,0.006-7.489,3.372-7.483,7.505c0.003,2.001,0.785,3.882,2.203,5.295c1.414,1.411,3.293,2.187,5.29,2.187
						c0.004,0,0.008,0,0.012,0c2.002-0.003,3.883-0.785,5.296-2.203c1.414-1.417,2.19-3.301,2.188-5.302
						C250.539,113.193,247.179,109.838,243.053,109.838z"/>
					<path style="fill:#FFFFFF;" d="M243.209,118.653l-0.31,0c-2.046,0.003-3.707-1.653-3.71-3.699l-0.028-18.721
						c-0.003-2.046,1.653-3.707,3.699-3.71l0.31-0.001c2.046-0.003,3.707,1.653,3.71,3.699l0.028,18.721
						C246.911,116.989,245.255,118.65,243.209,118.653z"/>
				</g>
				<g>
					<path style="fill:#F7C8CE;" d="M357.768,125.703c-2.265,0-4.394-0.88-5.998-2.479c-1.606-1.602-2.493-3.734-2.496-6.003
						c-0.004-2.269,0.877-4.403,2.479-6.01c1.602-1.606,3.734-2.493,6.003-2.496c0.004,0,0.009,0,0.013,0
						c4.678,0,8.487,3.802,8.494,8.481v0c0.006,4.683-3.799,8.499-8.481,8.506C357.776,125.703,357.772,125.703,357.768,125.703z
						 M357.768,109.714c-0.004,0-0.007,0-0.011,0c-2.002,0.003-3.883,0.785-5.296,2.203c-1.414,1.418-2.19,3.301-2.188,5.302
						c0.003,2.002,0.785,3.883,2.202,5.296c1.415,1.411,3.294,2.188,5.292,2.188c0.004,0,0.007,0,0.011,0
						c4.132-0.006,7.489-3.373,7.483-7.505v0C365.255,113.069,361.895,109.714,357.768,109.714z"/>
					<path style="fill:#FFFFFF;" d="M357.924,118.529l-0.31,0c-2.046,0.003-3.707-1.653-3.71-3.699l-0.028-18.721
						c-0.003-2.046,1.653-3.707,3.699-3.71l0.31,0c2.046-0.003,3.707,1.653,3.71,3.699l0.028,18.721
						C361.626,116.865,359.97,118.526,357.924,118.529z"/>
				</g>
			</g>
			<g>
				<path style="fill:#FD6E7E;" d="M253.748,210.305c0,3.717-3.013,6.73-6.73,6.73c-3.717,0-6.73-3.013-6.73-6.73
					c0-3.717,6.73-13.253,6.73-13.253S253.748,206.588,253.748,210.305z"/>
				<path style="fill:#FD6E7E;" d="M290.024,210.305c0,3.717-3.013,6.73-6.73,6.73c-3.717,0-6.73-3.013-6.73-6.73
					c0-3.717,6.73-13.253,6.73-13.253S290.024,206.588,290.024,210.305z"/>
				<path style="fill:#FD6E7E;" d="M325.032,210.305c0,3.717-3.013,6.73-6.73,6.73c-3.717,0-6.73-3.013-6.73-6.73
					c0-3.717,6.73-13.253,6.73-13.253S325.032,206.588,325.032,210.305z"/>
				<path style="fill:#EF6074;" d="M252.117,207.275c0,3.717-3.013,6.73-6.73,6.73c-1.939,0-3.681-0.824-4.909-2.136
					c0.706,2.961,3.363,5.165,6.54,5.165c3.717,0,6.73-3.013,6.73-6.73c0-1.767-1.522-4.846-3.118-7.593
					C251.493,204.482,252.117,206.148,252.117,207.275z"/>
				<path style="fill:#EF6074;" d="M288.393,207.275c0,3.717-3.013,6.73-6.73,6.73c-1.939,0-3.681-0.824-4.909-2.136
					c0.706,2.961,3.363,5.165,6.54,5.165c3.717,0,6.73-3.013,6.73-6.73c0-1.767-1.522-4.846-3.118-7.593
					C287.769,204.482,288.393,206.148,288.393,207.275z"/>
				<path style="fill:#EF6074;" d="M323.401,207.275c0,3.717-3.013,6.73-6.73,6.73c-1.939,0-3.681-0.824-4.909-2.136
					c0.706,2.961,3.363,5.165,6.54,5.165c3.717,0,6.73-3.013,6.73-6.73c0-1.767-1.522-4.846-3.118-7.594
					C322.777,204.481,323.401,206.147,323.401,207.275z"/>
				<path style="fill:#EF6074;" d="M357.235,202.711c0.863,1.77,1.487,3.436,1.487,4.564c0,3.717-3.013,6.73-6.73,6.73
					c-1.939,0-3.68-0.824-4.908-2.136c0.706,2.961,3.362,5.165,6.539,5.165c3.717,0,6.73-3.013,6.73-6.73
					C360.353,208.538,358.831,205.459,357.235,202.711z"/>
				<path style="fill:#FD6E7E;" d="M360.353,210.305c0,3.717-3.013,6.73-6.73,6.73s-6.73-3.013-6.73-6.73
					c0-3.717,6.73-13.253,6.73-13.253S360.353,206.588,360.353,210.305z"/>
			</g>
		</g>
		<g>
			<g>
				<g>
					<g>
						<g>
							<g>
								<path style="fill:#FD9A9A;" d="M193.057,202.431l-1.764-19.775c-0.363-4.066-3.329-7.27-7.108-8.125
									c-0.908-0.205-1.861-0.279-2.838-0.191l-3.986,0.356c-5.043,0.45-8.766,4.903-8.316,9.945l1.765,19.775
									c0.01,0.111,0.032,0.218,0.046,0.328l-0.985,7.17l-1.279,9.318c-0.335,2.44,1.372,4.691,3.812,5.026l6.039,0.829
									c2.441,0.335,4.691-1.372,5.026-3.812l1.501-10.931C189.894,211.781,193.5,207.396,193.057,202.431z"/>
								<g>
									<path style="opacity:0.32;fill:#FD6E7E;" d="M176.578,206.945c0,0,1.758,4.656,8.323,5.201l-0.384,3.949
										C184.182,216.031,175.113,214.394,176.578,206.945z"/>
									<path style="fill:#FD6E7E;" d="M190.73,207.511c-0.069,0-0.139-0.029-0.189-0.085c-0.723-0.828-1.758-0.422-1.801-0.404
										c-0.132,0.051-0.274-0.01-0.326-0.137c-0.052-0.127,0.009-0.273,0.136-0.325c0.484-0.199,1.601-0.342,2.368,0.537
										c0.091,0.104,0.08,0.262-0.024,0.353C190.847,207.49,190.788,207.511,190.73,207.511z"/>
									<g>
										<g>
											<g>
												<g>
													<g>
														<path style="fill:#121936;" d="M184.609,192.96c0.345,0.031,0.723-0.136,1.098-0.276
															c0.374-0.149,0.754-0.289,1.088-0.399c0.335-0.111,0.724-0.225,1.113-0.328c0.385-0.111,0.79-0.203,1.044-0.432
															c0.247-0.216,0.249-0.603-0.233-0.919c-0.457-0.311-1.443-0.488-2.552-0.124c-1.106,0.368-1.778,1.093-1.947,1.611
															C184.036,192.629,184.278,192.935,184.609,192.96z"/>
													</g>
												</g>
											</g>
										</g>
									</g>
									<path style="fill:#FD6E7E;" d="M175.167,198.133c-0.107,0-0.206-0.069-0.239-0.177c-0.04-0.132,0.034-0.272,0.166-0.313
										l1.262-0.386l-0.691-2.153c-0.042-0.131,0.03-0.272,0.162-0.314c0.132-0.039,0.271,0.03,0.314,0.162l0.845,2.636
										l-1.746,0.534C175.216,198.13,175.191,198.133,175.167,198.133z"/>
									<g>
										<path style="fill:#FD9A9A;" d="M192.271,194.655c0.194,0.808,1.006,1.307,1.814,1.113l0,0
											c0.471-0.113,0.944,0.177,1.056,0.648l0.031,0.131c0.246,1.025-0.386,2.055-1.411,2.3l-1.419,0.34"/>
										<path style="fill:#FD6E7E;" d="M192.344,199.438c-0.113,0-0.216-0.077-0.243-0.192c-0.032-0.134,0.051-0.269,0.185-0.301
											l1.419-0.34c0.89-0.213,1.439-1.11,1.227-2l-0.031-0.131c-0.081-0.335-0.419-0.546-0.755-0.463
											c-0.457,0.11-0.928,0.035-1.327-0.21s-0.68-0.631-0.789-1.087c-0.032-0.134,0.051-0.269,0.185-0.301
											c0.14-0.035,0.27,0.052,0.302,0.185c0.078,0.326,0.278,0.602,0.564,0.777c0.284,0.175,0.623,0.228,0.948,0.15
											c0.603-0.144,1.213,0.229,1.358,0.833l0.031,0.131c0.276,1.158-0.44,2.325-1.596,2.602l-1.419,0.34
											C192.383,199.436,192.363,199.438,192.344,199.438z"/>
									</g>
									<g>
										<path style="fill:#121936;" d="M189.117,194.54c0.01,0.425-0.36,0.778-0.827,0.79s-0.854-0.324-0.865-0.748
											c-0.01-0.425,0.36-0.778,0.827-0.79C188.72,193.78,189.107,194.115,189.117,194.54z"/>
									</g>
									<path style="fill:#FD6E7E;" d="M187.748,195.968c-0.068,0-0.137-0.028-0.186-0.083c-0.093-0.103-0.084-0.26,0.018-0.353
										c0.043-0.038,1.05-0.928,1.978-0.412c0.121,0.067,0.164,0.22,0.098,0.34c-0.067,0.12-0.22,0.164-0.34,0.097
										c-0.62-0.343-1.393,0.338-1.4,0.346C187.867,195.947,187.808,195.968,187.748,195.968z"/>
									<path style="fill:#FD6E7E;" d="M188.785,202.552c-1.086-0.113-1.821-0.437-2.189-0.966
										c-0.409-0.588-0.196-1.196-0.187-1.221c0.037-0.101,0.148-0.153,0.249-0.117c0.101,0.037,0.153,0.147,0.118,0.248
										c-0.007,0.019-0.152,0.454,0.144,0.873c0.265,0.375,0.952,0.826,2.728,0.839c0.108,0.006,0.194,0.089,0.193,0.196
										c-0.001,0.107-0.089,0.194-0.196,0.193C189.337,202.595,189.051,202.58,188.785,202.552z"/>
								</g>
							</g>
						</g>
					</g>
					<g>
						<path style="fill:#121936;" d="M197.054,186.086l-0.576-2.772c-1.222-5.878-5.632-9.934-12.863-9.749
							c-1.523-0.726-4.043-2.545-7.174-2.539c-2.302,0.005-4.657,0.329-6.633,1.421c-2.141,1.184-3.669,3.06-4.859,5.05
							c-0.948,1.585-2.072,3.398-2.209,5.26c0,0-1.852,2.043-3.973,3.765c-2.225,1.807-4.906,3.304-6.328,5.791
							c-1.081,1.891-1.464,4.135-1.006,6.234c0.011,0.911,0.16,1.821,0.459,2.682c0.238,0.687,0.569,1.363,0.587,2.091
							c0.034,1.354-0.993,2.467-1.903,3.471c-0.91,1.003-1.825,2.275-1.513,3.593c0.211,0.892,0.967,1.576,1.809,1.938
							c0.842,0.362,1.773,0.453,2.686,0.537c8.601,0.792,17.22,1.386,25.846,1.828c0.923,0.047,1.909,0.078,2.699-0.402
							c1.546-0.939,1.451-3.337,0.414-4.819c-1.037-1.482-2.693-2.386-4.058-3.573c-0.42-0.365-0.724-2.368-0.94-4.672l-1.772-0.185
							c-2.401-0.251-4.155-2.308-3.916-4.595l0.009-0.088l0.015-0.141c0.066-0.635,0.291-1.214,0.615-1.724
							c0.105-0.165,0.222-0.323,0.349-0.471c0.073-0.085,0.156-0.161,0.236-0.24c0.059-0.059,0.112-0.122,0.175-0.177
							c0.134-0.119,0.278-0.227,0.427-0.329c0.013-0.009,0.025-0.021,0.038-0.03c0.818-0.546,1.838-0.825,2.916-0.718
							c0.008,0.001,0.016,0,0.024,0.001l2.368,0.247c0.931-1.003,1.708-2.374,2.263-3.978c2.291,0.458,4.797,0.558,7.391,0.213
							c0.148-0.02,0.218-0.188,0.25-0.43c0.126-0.97,1.227-1.455,1.983-0.835l0.02,0.016c0.515,0.422,1.269,0.583,2.009,0.43
							l3.192-0.664C196.769,187.388,197.191,186.744,197.054,186.086z"/>
					</g>
				</g>
				<g>
					<g>
						<g>
							<g>
								<g>
									<path style="fill:#FD6E7E;" d="M220.309,422.879c0.054-4.461-3.519-8.122-7.98-8.176l-7.326-0.089l0.086-7.113
										l-14.594-0.177l-0.186,15.318c-0.017,1.434,1.131,2.61,2.564,2.627l11.998,0.145l0,0l15.404,0.187L220.309,422.879z"/>
									<polygon style="fill:#121936;" points="220.272,425.957 190.269,425.986 190.301,423.391 220.303,423.391 									"/>
								</g>
								<g>
									<path style="fill:#FD6E7E;" d="M166.716,421.646c0.019-1.551-0.486-2.983-1.341-4.141v-9.168h-14.451v9.006
										c-0.977,1.22-1.554,2.772-1.533,4.456l0.046,3.803l8.616-0.104l8.616,0.104L166.716,421.646z"/>
									<path style="fill:#121936;" d="M166.103,426.343l-16.15-0.196c-0.307-0.004-0.554-0.256-0.55-0.564l0.018-1.482
										c0.004-0.307,0.256-0.554,0.563-0.55l16.15,0.196c0.307,0.004,0.554,0.256,0.55,0.563l-0.018,1.482
										C166.662,426.1,166.41,426.346,166.103,426.343z"/>
								</g>
							</g>
						</g>
					</g>
					<path style="fill:#121936;" d="M197.913,295.155l-47.382-5.946c-0.645-0.081-1.226,0.394-1.276,1.042l-0.285,3.752
						c-0.002,0.03-0.003,0.06-0.003,0.09l0.334,115.267c0.002,0.62,0.501,1.125,1.121,1.134l15.975,0.232
						c0.593,0.009,1.093-0.44,1.149-1.031l6.718-71.633c0.125-1.336,2.056-1.391,2.257-0.064l11.009,72.849
						c0.084,0.556,0.562,0.967,1.124,0.967h18.32c0.664,0,1.187-0.567,1.134-1.229l-9.202-114.392
						C198.862,295.656,198.448,295.223,197.913,295.155z"/>
				</g>
				<g>
					<g>
						<path style="fill:#FD9A9A;" d="M245.072,209.241l-0.553-0.32l1.219-0.097c0.295-0.024,0.572-0.151,0.771-0.355
							c0.688-0.706,0.444-1.802-0.484-2.178l-2.691-1.09c-1.277-0.517-2.772-0.383-3.943,0.355l-3.146,1.982
							c-1.373,0.865-2.123,2.342-1.949,3.835l-0.79,1.07l-15.91,12.297l-30.17-2.65l6.841,22.167l21.831-2.547
							c4.184-0.488,8.054-2.46,10.908-5.559l14.363-15.591c2.642-1.866,5.416-3.7,5.764-4.384
							C248.397,213.682,247.492,210.639,245.072,209.241z"/>
						<polygon style="opacity:0.32;fill:#FD6E7E;" points="217.596,224.739 215.811,226.796 208.121,223.869 						"/>
					</g>
				</g>
				<g>
					<g>
						<path style="fill:#FD6E7E;" d="M208.123,222.167c-0.044-0.619-0.523-1.119-1.139-1.191l-15.146-1.769
							c-2.388-1.36-5.575-1.9-9.556-1.868l-20.893,0.169c-2.327,0.019-4.478,0.811-6.243,2.148c-1.736,1.314-3.092,3.159-3.88,5.308
							l-14.482,25.51c-0.377,0.664,0.051,1.497,0.81,1.577l1.151,0.122l10.536,1.115c-0.059,2.771-0.131,5.542-0.174,8.312
							c-0.057,3.645-0.095,7.291-0.122,10.936c-0.051,6.85-0.052,13.7,0.021,20.548c0,0,0.099,9.264,0.099,9.264l49.024-0.65
							l0.882-0.012c-0.15-18.076-0.33-36.151-0.44-54.228l10.136-0.742c0.649-0.048,1.137-0.612,1.09-1.261L208.123,222.167z"/>
					</g>
					<path style="fill:#EF6074;" d="M150.037,227.13l-13.253,23.345c-0.377,0.664,0.051,1.497,0.81,1.577l11.668,1.235
						L150.037,227.13L150.037,227.13z"/>
					<polygon style="fill:#EF6074;" points="201.083,247.275 189.841,244.534 198.633,256.504 198.379,247.417 					"/>
				</g>
				<path style="fill:#FD9A9A;" d="M149.282,253.289l-10.536-1.115l-4.98,9.453c-2.116,4.632,0.266,10.259,5.32,12.568h0
					c3.56,1.626,7.552,0.847,9.901-1.658c0.027-3.645,0.064-7.291,0.122-10.936C149.151,258.83,149.223,256.059,149.282,253.289z"/>
				<polygon style="opacity:0.32;fill:#FD6E7E;" points="147.262,253.184 146.563,274.33 149.01,272.757 149.282,253.289 				"/>
			</g>
		</g>
	</g>
</g>
</svg>
