<?xml version="1.0" encoding="utf-8"?>
<!-- Generator: Adobe Illustrator 27.5.0, SVG Export Plug-In . SVG Version: 6.00 Build 0)  -->
<svg version="1.1" xmlns="http://www.w3.org/2000/svg" xmlns:xlink="http://www.w3.org/1999/xlink" x="0px" y="0px"
	 viewBox="0 0 500 500" style="enable-background:new 0 0 500 500;" xml:space="preserve">
<g id="BACKGROUND">
	<rect style="fill:#FEA2B0;" width="500" height="500"/>
</g>
<g id="OBJECTS">
	<g>
		<circle style="fill:#DD8497;" cx="95.099" cy="362.004" r="68.072"/>
		<g>
			<g>
				<path style="fill:#DDD3C1;" d="M100.66,391.826c-23.315,0-42.215-11.886-42.215-35.201l0,0h55.588L100.66,391.826z"/>
				<path style="fill:#DDD3C1;" d="M114.451,358.062H58.025c-1.19,0-2.155-0.965-2.155-2.155l0,0c0-1.19,0.965-2.155,2.155-2.155
					h56.426c1.19,0,2.155,0.965,2.155,2.155l0,0C116.607,357.097,115.642,358.062,114.451,358.062z"/>
				<path style="fill:#DDD3C1;" d="M127.443,379.656h-19.666v-56.689h25.03v51.325C132.807,377.254,130.405,379.656,127.443,379.656
					z"/>
				<path style="fill:#DDD3C1;" d="M114.032,402.221H84.126l4.876-37.06h29.183C112.221,381.951,114.032,402.221,114.032,402.221z"
					/>
				<path style="fill:#DDD3C1;" d="M132.046,324.784h-23.509c-1.26,0-2.282-1.022-2.282-2.282l0,0c0-1.26,1.022-2.282,2.282-2.282
					h23.509c1.26,0,2.282,1.022,2.282,2.282l0,0C134.328,323.762,133.306,324.784,132.046,324.784z"/>
				<path style="fill:#DDD3C1;" d="M114.045,404.503H84.113c-1.26,0-2.282-1.022-2.282-2.282l0,0c0-1.26,1.022-2.282,2.282-2.282
					h29.932c1.26,0,2.282,1.022,2.282,2.282l0,0C116.327,403.482,115.305,404.503,114.045,404.503z"/>
				<g>
					<g>
						<path style="fill:#262639;" d="M107.45,325.189c8.303,0.259,17.418,1.466,25.633,0.082c0.313-0.053,0.313-0.58,0-0.633
							c-8.217-1.385-17.335-0.177-25.633,0.082C107.149,324.73,107.148,325.18,107.45,325.189L107.45,325.189z"/>
					</g>
				</g>
				<g>
					<g>
						<path style="fill:#262639;" d="M114.927,379.758c-1.682-0.017-4.459,0.515-6.013-0.062c-1.445-0.537-0.537,0.143-0.929-1.404
							c-0.341-1.349,0.04-3.822,0.054-5.214c0.067-6.444,0.135-12.881,0.04-19.325c-0.008-0.543-0.836-0.544-0.844,0
							c-0.129,8.747,0.021,17.493,0.112,26.24c0.002,0.166,0.141,0.311,0.31,0.31c2.423-0.025,4.846-0.05,7.269-0.075
							C115.229,380.223,115.229,379.761,114.927,379.758L114.927,379.758z"/>
					</g>
				</g>
				<g>
					<g>
						<path style="fill:#262639;" d="M84.802,390.214c6.419,2.35,14.362,4.062,21.114,2.174c0.411-0.115,0.322-0.725-0.1-0.737
							c-7.236-0.198-13.805,0.253-20.964-1.618C84.734,390.002,84.691,390.173,84.802,390.214L84.802,390.214z"/>
					</g>
				</g>
				<g>
					<g>
						<path style="fill:#262639;" d="M84.426,400.221c9.975,0.081,19.948,0.272,29.92,0c0.362-0.01,0.362-0.553,0-0.563
							c-9.972-0.272-19.945-0.081-29.92,0C84.064,399.661,84.064,400.218,84.426,400.221L84.426,400.221z"/>
					</g>
				</g>
				<g>
					<g>
						<path style="fill:#262639;" d="M57.741,358.39c16.508,0.519,33.2,0.513,49.709,0c0.422-0.013,0.423-0.643,0-0.656
							c-16.51-0.513-33.202-0.519-49.709,0C57.319,357.747,57.318,358.377,57.741,358.39L57.741,358.39z"/>
					</g>
				</g>
			</g>
			<g>
				<path style="fill:#F3CA84;" d="M86.332,343.065c0,3.408-2.762,6.17-6.17,6.17c-3.408,0-6.17-2.763-6.17-6.17
					c0-3.408,6.17-18.49,6.17-18.49S86.332,339.657,86.332,343.065z"/>
				<path style="opacity:0.5;fill:none;stroke:#FFFFFF;stroke-linecap:round;stroke-miterlimit:10;" d="M77.492,335.812
					c0,0-2.218,5.952-1.47,8.625c0.748,2.673,2.566,2.245,2.566,2.245"/>
			</g>
			<g>
				<path style="fill:#F3CA84;" d="M97.275,331.508c0,2.212-1.793,4.006-4.006,4.006c-2.212,0-4.006-1.793-4.006-4.006
					c0-2.212,4.006-12.004,4.006-12.004S97.275,329.295,97.275,331.508z"/>
				<path style="opacity:0.5;fill:none;stroke:#FFFFFF;stroke-linecap:round;stroke-miterlimit:10;" d="M91.537,326.799
					c0,0-1.44,3.864-0.954,5.599c0.486,1.735,1.666,1.458,1.666,1.458"/>
			</g>
		</g>
	</g>
	<g>
		
			<ellipse transform="matrix(0.7071 -0.7071 0.7071 0.7071 -97.183 119.0372)" style="fill:#DD8497;" cx="95.099" cy="176.829" rx="68.072" ry="68.072"/>
		<g>
			<rect x="53.779" y="143.271" style="fill:#A85858;" width="82.64" height="13.027"/>
			<rect x="53.779" y="156.298" style="fill:#DDD3C1;" width="82.64" height="58.797"/>
			<rect x="80.463" y="158.016" style="fill:#C4B6A6;" width="7.911" height="7.911"/>
			<rect x="91.143" y="158.016" style="fill:#C4B6A6;" width="7.911" height="7.911"/>
			<rect x="101.824" y="158.016" style="fill:#C4B6A6;" width="7.911" height="7.911"/>
			<rect x="112.504" y="158.016" style="fill:#C4B6A6;" width="7.911" height="7.911"/>
			<rect x="123.184" y="158.016" style="fill:#C4B6A6;" width="7.911" height="7.911"/>
			<rect x="59.103" y="169.549" style="fill:#C4B6A6;" width="7.911" height="7.911"/>
			<rect x="69.783" y="169.549" style="fill:#C4B6A6;" width="7.911" height="7.911"/>
			<rect x="80.463" y="169.549" style="fill:#C4B6A6;" width="7.911" height="7.911"/>
			<rect x="91.143" y="169.549" style="fill:#C4B6A6;" width="7.911" height="7.911"/>
			<rect x="101.824" y="169.549" style="fill:#A85858;" width="7.911" height="7.911"/>
			<rect x="112.504" y="169.549" style="fill:#C4B6A6;" width="7.911" height="7.911"/>
			<rect x="123.184" y="169.549" style="fill:#C4B6A6;" width="7.911" height="7.911"/>
			<rect x="59.103" y="181.082" style="fill:#C4B6A6;" width="7.911" height="7.911"/>
			<rect x="69.783" y="181.082" style="fill:#C4B6A6;" width="7.911" height="7.911"/>
			<rect x="80.463" y="181.082" style="fill:#C4B6A6;" width="7.911" height="7.911"/>
			<rect x="91.143" y="181.082" style="fill:#C4B6A6;" width="7.911" height="7.911"/>
			<rect x="101.824" y="181.082" style="fill:#C4B6A6;" width="7.911" height="7.911"/>
			<rect x="112.504" y="181.082" style="fill:#C4B6A6;" width="7.911" height="7.911"/>
			<rect x="123.184" y="181.082" style="fill:#C4B6A6;" width="7.911" height="7.911"/>
			<rect x="59.103" y="192.615" style="fill:#C4B6A6;" width="7.911" height="7.911"/>
			<rect x="69.783" y="192.615" style="fill:#C4B6A6;" width="7.911" height="7.911"/>
			<rect x="80.463" y="192.615" style="fill:#C4B6A6;" width="7.911" height="7.911"/>
			<rect x="91.143" y="192.615" style="fill:#C4B6A6;" width="7.911" height="7.911"/>
			<rect x="101.824" y="192.615" style="fill:#C4B6A6;" width="7.911" height="7.911"/>
			<rect x="112.504" y="192.615" style="fill:#C4B6A6;" width="7.911" height="7.911"/>
			<rect x="123.184" y="192.615" style="fill:#C4B6A6;" width="7.911" height="7.911"/>
			<rect x="59.103" y="204.148" style="fill:#C4B6A6;" width="7.911" height="7.911"/>
			<rect x="69.783" y="204.148" style="fill:#C4B6A6;" width="7.911" height="7.911"/>
			<rect x="80.463" y="204.148" style="fill:#C4B6A6;" width="7.911" height="7.911"/>
			<rect x="91.143" y="204.148" style="fill:#C4B6A6;" width="7.911" height="7.911"/>
			<g>
				<rect x="60.419" y="138.562" style="fill:#262639;" width="2.905" height="11.223"/>
				<rect x="73.71" y="138.562" style="fill:#262639;" width="2.905" height="11.223"/>
				<rect x="87.001" y="138.562" style="fill:#262639;" width="2.905" height="11.223"/>
				<rect x="100.292" y="138.562" style="fill:#262639;" width="2.905" height="11.223"/>
				<rect x="113.583" y="138.562" style="fill:#262639;" width="2.905" height="11.223"/>
				<rect x="126.874" y="138.562" style="fill:#262639;" width="2.905" height="11.223"/>
			</g>
		</g>
	</g>
	<g>
		<defs>
			
				<ellipse id="SVGID_1_" transform="matrix(0.7071 -0.7071 0.7071 0.7071 -51.8137 228.5684)" cx="250" cy="176.829" rx="68.072" ry="68.072"/>
		</defs>
		<clipPath id="SVGID_00000117641813499851928930000000587197753814160307_">
			<use xlink:href="#SVGID_1_"  style="overflow:visible;"/>
		</clipPath>
		
			<ellipse transform="matrix(0.7071 -0.7071 0.7071 0.7071 -51.8137 228.5684)" style="clip-path:url(#SVGID_00000117641813499851928930000000587197753814160307_);fill:#DD8497;" cx="250" cy="176.829" rx="68.072" ry="68.072"/>
		<g style="clip-path:url(#SVGID_00000117641813499851928930000000587197753814160307_);">
			<path style="fill:#262639;" d="M232.944,142.014c-1.471,3.03-3.998,5.388-6.096,8.022c-3.932,4.936-6.439,11.175-6.139,17.479
				c0.3,6.304,3.667,12.573,9.197,15.613c2.657,1.461,5.668,2.145,8.662,2.621c10.327,1.642,21.015,0.974,31.058-1.94
				c1.449-0.42,2.928-0.91,4.071-1.895c1.57-1.352,2.277-3.425,2.919-5.395c0.667-2.05,1.34-4.128,1.463-6.28
				c0.252-4.412-1.816-8.61-4.11-12.388c-2.294-3.778-4.914-7.482-5.972-11.773c-0.774-3.139-0.692-6.525-2.107-9.432
				c-1.663-3.417-5.137-5.596-8.677-6.978c-3.001-1.171-6.173-1.903-9.383-2.164c-2.694-0.219-5.463-0.099-8.002,0.827
				c-2.113,0.77-5.155,2.58-5.704,4.964C233.438,136.273,234.42,138.973,232.944,142.014z"/>
			<g>
				<path style="fill:#A85858;" d="M220.588,216.679c1.443-7.063,3.975-12.553,3.845-17.373l-10.717-11.147
					c0,0-5.64,17.757-8.814,30.258L220.588,216.679z"/>
				<path style="fill:#A85858;" d="M277.048,217.335c-0.596-6.996-2.678-13.209-2.548-18.029l9.969-13.501
					c0,0,6.43,21.571,7.274,33.533L277.048,217.335z"/>
				<path style="fill:#A85858;" d="M260.762,167.22c-2.588-3.105-2.668-10.65-2.753-16.161c-3.152,0.02-11.661,0.02-14.812,0
					c-0.085,5.51-0.165,13.055-2.753,16.161c-2.761,3.313-17.548,7.017-17.054,7.483c3.604,3.32,15.175,22.278,26.832,22.314
					c11.911,0.037,23.912-18.922,27.595-22.314C278.31,174.238,263.523,170.533,260.762,167.22z"/>
				<g>
					<defs>
						<path id="SVGID_00000108988750924024927710000009937689932252744340_" d="M280.359,249.619
							c-0.838-15.641-7.732-25.05-6.976-35.083c0.38-5.042,4.519-39.834,4.519-39.834s-11.78-6.47-12.459-5.016
							c-1.709,3.659-9.732,7.773-15.221,7.743c-5.399-0.03-13.208-4.144-14.889-7.743c-0.679-1.454-12.459,5.016-12.459,5.016
							s4.139,34.792,4.519,39.834c0.756,10.033-6.138,19.442-6.976,35.083C231.128,251.715,269.647,251.715,280.359,249.619z"/>
					</defs>
					<clipPath id="SVGID_00000025428221610740859170000012561911930807181712_">
						<use xlink:href="#SVGID_00000108988750924024927710000009937689932252744340_"  style="overflow:visible;"/>
					</clipPath>
					<path style="clip-path:url(#SVGID_00000025428221610740859170000012561911930807181712_);fill:#DDD3C1;" d="M280.359,249.619
						c-0.838-15.641-7.732-25.05-6.976-35.083c0.38-5.042,4.519-39.834,4.519-39.834s-11.78-6.47-12.459-5.016
						c-1.709,3.659-9.732,7.773-15.221,7.743c-5.399-0.03-13.208-4.144-14.889-7.743c-0.679-1.454-12.459,5.016-12.459,5.016
						s4.139,34.792,4.519,39.834c0.756,10.033-6.138,19.442-6.976,35.083C231.128,251.715,269.647,251.715,280.359,249.619z"/>
					<g style="clip-path:url(#SVGID_00000025428221610740859170000012561911930807181712_);">
						
							<line style="fill:none;stroke:#31121D;stroke-width:2;stroke-miterlimit:10;" x1="277.829" y1="202.947" x2="220.26" y2="202.947"/>
						
							<line style="fill:none;stroke:#31121D;stroke-width:2;stroke-miterlimit:10;" x1="277.829" y1="209.178" x2="220.26" y2="209.178"/>
						
							<line style="fill:none;stroke:#31121D;stroke-width:2;stroke-miterlimit:10;" x1="277.829" y1="215.408" x2="220.26" y2="215.408"/>
						
							<line style="fill:none;stroke:#31121D;stroke-width:2;stroke-miterlimit:10;" x1="277.829" y1="221.639" x2="220.26" y2="221.639"/>
						
							<line style="fill:none;stroke:#31121D;stroke-width:2;stroke-miterlimit:10;" x1="277.829" y1="227.87" x2="220.26" y2="227.87"/>
					</g>
				</g>
				<path style="fill:#DDD3C1;" d="M222.873,174.702c-4.541,4.225-7.267,7.749-10.999,12.704c-0.435,0.578-0.88,1.201-0.941,1.921
					c-0.046,0.54,0.131,1.072,0.319,1.579c1.768,4.762,4.83,9.036,8.771,12.242c0.8,0.651,1.692,1.281,2.719,1.375
					c1.736,0.159,3.194-1.221,4.355-2.522c1.617-1.813,3.171-3.683,4.658-5.605c1.245-1.61,2.463-3.294,3.079-5.234
					C236.502,185.91,222.873,174.702,222.873,174.702z"/>
				<path style="fill:#DDD3C1;" d="M277.817,174.704c3.981,4.757,6.78,8.692,9.866,14.073c0.36,0.627,0.724,1.301,0.695,2.023
					c-0.021,0.541-0.263,1.047-0.513,1.527c-2.346,4.505-5.916,8.366-10.225,11.057c-0.875,0.546-1.838,1.061-2.869,1.027
					c-1.743-0.058-3.018-1.608-4.008-3.044c-1.379-2-2.689-4.048-3.925-6.14c-1.035-1.752-2.034-3.575-2.404-5.576
					C263.432,184.23,277.817,174.704,277.817,174.704z"/>
				<g>
					<path style="fill:#A85858;" d="M291.439,215.792l-14.392,1.543c0.134,1.569,0.267,3.057,0.391,4.408
						c-2.431-3.141-5.312-7.049-8.686-11.901c-0.034-0.627,0.004-1.249,0.143-1.858c0.469-2.059,1.274-7.922,0.038-8.267
						c-1.509-0.421-1.565,5.192-3.182,4.126c-0.685-1.19-2.411-11.888-4.333-11.16c-1.226,0.464,0.969,7.322,0.57,9.151
						c-2.404-3.109-5.05-8.904-6.015-8.391c-1.57,0.835,3.606,9.373,2.775,9.765c-1.234,0.581-5.349-7.064-6.446-6.52
						c-1.132,0.561,3.59,6.492,4.1,9.286c-1.062,0.435-5.768-4.954-6.851-4.064c-0.379,0.311,8.944,10.1,11.014,12.869
						c0,0,0.139,0.245,0.374,0.658c0,0,0,0,0,0c0.462,1.024,9.331,19.387,15.912,26.077c0.054,0.056,0.108,0.109,0.161,0.163
						c0.055,0.054,0.111,0.115,0.165,0.167l0.005-0.004C288.202,252.816,295.515,238.702,291.439,215.792z"/>
					<g>
						<g>
							<path style="fill:#262639;" d="M277.262,221.507c2.261,1.757,4.085,3.783,5.809,6.061c1.588,2.098,2.598,4.508,4.121,6.618
								c0.226,0.313,0.65,0.116,0.6-0.253c-0.738-5.451-5.939-9.986-10.417-12.574C277.287,221.309,277.176,221.44,277.262,221.507
								L277.262,221.507z"/>
						</g>
					</g>
				</g>
				<g>
					<path style="fill:#A85858;" d="M207.552,210.68l13.641,3.081c-0.452,1.508-0.76,4.319-1.159,5.616
						c3.024-2.576,6.645-5.81,10.943-9.866c0.162-0.607,0.252-1.223,0.241-1.848c-0.036-2.111,0.379-8.015,1.659-8.099
						c1.564-0.102,0.467,5.403,2.268,4.691c0.914-1.024,4.799-11.141,6.53-10.034c1.105,0.706-2.451,6.967-2.435,8.839
						c2.99-2.55,6.769-7.679,7.608-6.979c1.366,1.139-5.452,8.434-4.719,8.988c1.088,0.822,6.684-5.816,7.647-5.059
						c0.993,0.781-4.846,5.617-5.918,8.247c0.95,0.644,6.661-3.666,7.539-2.573c0.307,0.383-10.826,8.051-13.42,10.336
						c0,0-0.186,0.212-0.501,0.567c0,0,0,0,0,0c-0.663,0.907-13.11,17.061-20.923,22.258c-0.064,0.044-0.127,0.085-0.191,0.127
						c-0.065,0.042-0.132,0.09-0.196,0.13l-0.004-0.005C203.125,247.581,198.864,232.267,207.552,210.68z"/>
					<g>
						<g>
							<path style="fill:#262639;" d="M220.563,219.094c-4.948,1.626-10.959,5.011-12.804,10.234
								c-0.116,0.328,0.323,0.524,0.548,0.319c1.923-1.749,3.404-3.892,5.38-5.62c2.155-1.885,4.37-3.503,6.948-4.762
								C220.73,219.219,220.664,219.061,220.563,219.094L220.563,219.094z"/>
						</g>
					</g>
				</g>
			</g>
			<g>
				<g>
					<g>
						<path style="fill:#A85858;" d="M266.839,137.363c1.646-0.53,3.163,0.549,3.561,2.09c0.992,3.837-2.646,6.652-5.248,8.725
							C264.723,146.578,264.315,138.176,266.839,137.363z"/>
						<g>
							<g>
								<path style="fill:#262639;" d="M266.161,143.517c0.193-0.934,0.424-1.902,0.983-2.694c0.588-0.833,1.358-1.055,2.266-1.382
									c0.17-0.061,0.189-0.311,0-0.365c-0.904-0.257-1.79,0.382-2.342,1.064c-0.759,0.937-0.993,2.147-1.151,3.311
									C265.896,143.606,266.127,143.68,266.161,143.517L266.161,143.517z"/>
							</g>
							<g>
								<path style="fill:#262639;" d="M267.462,140.597c0.372,0.19,0.665,0.494,0.815,0.887c0.061,0.161,0.098,0.332,0.105,0.504
									c0.008,0.187-0.031,0.297,0.067,0.463c0.059,0.101,0.215,0.13,0.297,0.038c0.289-0.321,0.045-0.927-0.147-1.255
									c-0.237-0.408-0.601-0.704-1.04-0.868C267.426,140.316,267.335,140.532,267.462,140.597L267.462,140.597z"/>
							</g>
						</g>
					</g>
					<g>
						<path style="fill:#A85858;" d="M234.367,137.363c-1.646-0.53-3.163,0.549-3.561,2.09c-0.992,3.837,2.646,6.652,5.248,8.725
							C236.483,146.578,236.892,138.176,234.367,137.363z"/>
						<g>
							<g>
								<path style="fill:#262639;" d="M235.289,143.45c-0.158-1.162-0.39-2.376-1.151-3.311c-0.553-0.68-1.436-1.321-2.342-1.064
									c-0.189,0.054-0.171,0.304,0,0.365c0.916,0.33,1.672,0.54,2.266,1.382c0.559,0.792,0.79,1.76,0.983,2.694
									C235.079,143.68,235.31,143.606,235.289,143.45L235.289,143.45z"/>
							</g>
							<g>
								<path style="fill:#262639;" d="M233.647,140.366c-0.44,0.165-0.803,0.46-1.04,0.868c-0.192,0.33-0.436,0.933-0.146,1.255
									c0.082,0.092,0.238,0.062,0.297-0.038c0.087-0.148,0.064-0.241,0.065-0.411c0.001-0.19,0.039-0.379,0.107-0.556
									c0.15-0.394,0.443-0.697,0.815-0.887C233.87,140.533,233.782,140.315,233.647,140.366L233.647,140.366z"/>
							</g>
						</g>
					</g>
				</g>
				<g>
					<g>
						<path style="fill:#A85858;" d="M233.939,142.026c0,10.375,2.668,16.46,16.664,16.46s16.664-6.086,16.664-16.46
							C267.267,120.539,233.939,117.777,233.939,142.026z"/>
					</g>
					<g>
						<path style="fill:#262639;" d="M242.211,157.504c4.968,2.342,10.751,2.205,15.942,0.685c0.389-0.114,0.221-0.728-0.168-0.609
							c-5.384,1.655-10.369,1.213-15.75-0.134C242.202,157.438,242.178,157.488,242.211,157.504L242.211,157.504z"/>
					</g>
				</g>
				<g>
					<g>
						<path style="fill:#262639;" d="M250.595,139.376c-0.024,1.211-0.182,2.446-0.49,3.62c-0.174,0.664-0.411,1.323-0.707,1.941
							c-0.129,0.268-0.59,0.855-0.62,1.173c-0.085,0.88,1.013,1.136,1.712,1.395c0.083,0.031,0.141-0.104,0.061-0.144
							c-0.288-0.143-0.695-0.285-0.925-0.517c-0.705-0.709-0.356-0.887-0.047-1.497c0.285-0.563,0.527-1.148,0.715-1.751
							c0.44-1.404,0.51-2.761,0.333-4.22C250.625,139.356,250.596,139.355,250.595,139.376L250.595,139.376z"/>
					</g>
					<ellipse style="fill:#262639;" cx="245.089" cy="143.593" rx="0.85" ry="1.436"/>
					<path style="fill:#262639;" d="M256.509,143.593c0,0.793-0.381,1.437-0.85,1.437c-0.47,0-0.85-0.643-0.85-1.437
						c0-0.793,0.381-1.436,0.85-1.436C256.129,142.157,256.509,142.8,256.509,143.593z"/>
					<path style="fill:#FFFFFF;" d="M252.276,150.862c0,0.793-1.019,0.363-2.277,0.363c-1.257,0-2.277,0.43-2.277-0.363
						c0-0.793,1.019-1.436,2.277-1.436C251.257,149.426,252.276,150.069,252.276,150.862z"/>
					<g>
						<g>
							<path style="fill:#262639;" d="M243.465,140.626c0.526-0.482,1.211-0.741,1.926-0.597c0.53,0.107,0.821,0.375,1.36,0.128
								c0.093-0.043,0.175-0.181,0.163-0.283c-0.111-0.899-1.076-0.964-1.819-0.865c-0.863,0.115-1.563,0.581-2.07,1.277
								C242.828,140.553,243.24,140.832,243.465,140.626L243.465,140.626z"/>
						</g>
					</g>
					<g>
						<g>
							<path style="fill:#262639;" d="M257.561,140.419c-0.507-0.695-1.208-1.162-2.07-1.277c-0.745-0.099-1.708-0.036-1.819,0.865
								c-0.013,0.103,0.07,0.241,0.162,0.283c0.541,0.248,0.824-0.02,1.36-0.128c0.713-0.143,1.4,0.115,1.925,0.597
								C257.342,140.964,257.759,140.69,257.561,140.419L257.561,140.419z"/>
						</g>
					</g>
				</g>
				<path style="fill:#262639;" d="M244.979,128.711c0.62,1.274,1.619,2.32,2.637,3.305c5.703,5.519,11.761,9.631,19.646,10.528
					c2.282-4.556,2.106-7.047,1.185-10.586c-0.524-2.012-1.727-3.778-3.037-5.393c-1.105-1.362-2.312-2.659-3.74-3.677
					c-3.063-2.183-7.094-2.768-10.715-1.885C247.312,121.891,242.857,124.347,244.979,128.711z"/>
				<path style="fill:#262639;" d="M242.709,135.076c-1.983,2.888-4.826,5.277-8.19,6.253c-0.263,0.076-0.542,0.144-0.809,0.081
					c-0.499-0.117-0.782-0.637-0.972-1.114c-1.387-3.476-1.141-7.555,0.612-10.862c1.753-3.307,4.97-5.791,8.601-6.698
					c1.152-0.288,2.416-0.413,3.488,0.098C249.113,124.587,244.212,132.888,242.709,135.076z"/>
			</g>
		</g>
	</g>
	<g>
		<g>
			<defs>
				
					<ellipse id="SVGID_00000088831582972288806080000009604926177716736395_" transform="matrix(0.7071 -0.7071 0.7071 0.7071 -181.4796 282.2778)" cx="250" cy="360.204" rx="68.072" ry="68.072"/>
			</defs>
			<clipPath id="SVGID_00000020376640069977520210000011653225920365772684_">
				<use xlink:href="#SVGID_00000088831582972288806080000009604926177716736395_"  style="overflow:visible;"/>
			</clipPath>
			
				<ellipse transform="matrix(0.7071 -0.7071 0.7071 0.7071 -181.4796 282.2778)" style="clip-path:url(#SVGID_00000020376640069977520210000011653225920365772684_);fill:#DD8497;" cx="250" cy="360.204" rx="68.072" ry="68.072"/>
			<g style="clip-path:url(#SVGID_00000020376640069977520210000011653225920365772684_);">
				<path style="fill:#262639;" d="M233.198,324.187c-1.471,3.03-3.998,5.388-6.096,8.022c-3.932,4.936-6.439,11.175-6.139,17.478
					c0.3,6.304,3.667,12.573,9.197,15.613c2.657,1.461,5.668,2.145,8.662,2.621c10.327,1.641,21.015,0.974,31.058-1.94
					c1.449-0.421,2.928-0.91,4.071-1.895c1.57-1.352,2.277-3.425,2.919-5.395c0.667-2.05,1.34-4.128,1.463-6.28
					c0.252-4.413-1.816-8.61-4.11-12.388s-4.914-7.482-5.972-11.773c-0.774-3.139-0.692-6.526-2.107-9.432
					c-1.664-3.417-5.137-5.596-8.677-6.978c-3.001-1.171-6.173-1.903-9.383-2.164c-2.694-0.219-5.463-0.099-8.003,0.827
					c-2.113,0.77-5.155,2.58-5.704,4.965C233.692,318.446,234.674,321.146,233.198,324.187z"/>
				<g>
					<path style="fill:#A85858;" d="M261.016,349.393c-2.588-3.105-2.668-10.65-2.753-16.161c-3.152,0.02-11.661,0.02-14.812,0
						c-0.085,5.51-0.165,13.056-2.753,16.161c-2.761,3.313-17.548,7.017-17.054,7.483c3.604,3.32,15.175,22.278,26.832,22.314
						c11.911,0.037,23.912-18.922,27.595-22.314C278.564,356.41,263.778,352.706,261.016,349.393z"/>
					<g>
						<defs>
							<path id="SVGID_00000039830053597783993220000007942651601877831582_" d="M280.613,431.792
								c-0.838-15.642-7.732-25.05-6.976-35.083c0.38-5.042,4.519-39.834,4.519-39.834s-11.78-6.47-12.459-5.016
								c-1.709,3.659-9.732,7.773-15.221,7.743c-5.399-0.03-13.208-4.144-14.889-7.743c-0.679-1.454-12.459,5.016-12.459,5.016
								s4.139,34.792,4.519,39.834c0.756,10.033-6.138,19.442-6.976,35.083C231.382,433.887,269.901,433.887,280.613,431.792z"/>
						</defs>
						<clipPath id="SVGID_00000121249445198112161210000012733626261436037309_">
							<use xlink:href="#SVGID_00000039830053597783993220000007942651601877831582_"  style="overflow:visible;"/>
						</clipPath>
						<path style="clip-path:url(#SVGID_00000121249445198112161210000012733626261436037309_);fill:#DDD3C1;" d="M280.613,431.792
							c-0.838-15.642-7.732-25.05-6.976-35.083c0.38-5.042,4.519-39.834,4.519-39.834s-11.78-6.47-12.459-5.016
							c-1.709,3.659-9.732,7.773-15.221,7.743c-5.399-0.03-13.208-4.144-14.889-7.743c-0.679-1.454-12.459,5.016-12.459,5.016
							s4.139,34.792,4.519,39.834c0.756,10.033-6.138,19.442-6.976,35.083C231.382,433.887,269.901,433.887,280.613,431.792z"/>
						<g style="clip-path:url(#SVGID_00000121249445198112161210000012733626261436037309_);">
							
								<line style="fill:none;stroke:#31121D;stroke-width:2;stroke-miterlimit:10;" x1="278.083" y1="385.12" x2="220.514" y2="385.12"/>
							
								<line style="fill:none;stroke:#31121D;stroke-width:2;stroke-miterlimit:10;" x1="278.083" y1="391.35" x2="220.514" y2="391.35"/>
							
								<line style="fill:none;stroke:#31121D;stroke-width:2;stroke-miterlimit:10;" x1="278.083" y1="397.581" x2="220.514" y2="397.581"/>
							
								<line style="fill:none;stroke:#31121D;stroke-width:2;stroke-miterlimit:10;" x1="278.083" y1="403.812" x2="220.514" y2="403.812"/>
							
								<line style="fill:none;stroke:#31121D;stroke-width:2;stroke-miterlimit:10;" x1="278.083" y1="410.042" x2="220.514" y2="410.042"/>
						</g>
					</g>
					<g>
						<path style="fill:#A85858;" d="M214.063,432.665c1.766-4.794,7.272-45.077,14.022-61.166c2.358-5.62-9.669-8.359-13.558-4.42
							c-2.744,2.779-9.824,42.689-13.562,56.571C198.276,433.636,213.72,433.596,214.063,432.665z"/>
						<path style="fill:#DDD3C1;" d="M223.128,356.875c-4.542,4.225-7.267,7.749-10.999,12.704c-0.435,0.578-0.88,1.2-0.941,1.921
							c-0.046,0.54,0.131,1.072,0.319,1.579c1.768,4.762,4.831,9.036,8.771,12.242c0.8,0.651,1.692,1.281,2.719,1.375
							c1.736,0.159,3.194-1.221,4.355-2.522c1.617-1.813,3.171-3.683,4.658-5.604c1.245-1.61,2.463-3.294,3.079-5.234
							C236.756,368.082,223.128,356.875,223.128,356.875z"/>
					</g>
					<g>
						<path style="fill:#A85858;" d="M284.139,432.665c-1.766-4.794-7.272-45.077-14.022-61.166
							c-2.358-5.62,9.039-9.449,12.928-5.511c2.744,2.779,10.454,43.779,14.192,57.661
							C299.927,433.636,284.482,433.596,284.139,432.665z"/>
						<path style="fill:#DDD3C1;" d="M278.071,356.876c3.981,4.757,6.78,8.692,9.866,14.073c0.36,0.627,0.724,1.301,0.695,2.023
							c-0.021,0.541-0.263,1.047-0.513,1.527c-2.346,4.505-5.916,8.366-10.225,11.057c-0.875,0.546-1.838,1.061-2.869,1.027
							c-1.743-0.058-3.018-1.608-4.008-3.044c-1.379-2-2.689-4.048-3.925-6.14c-1.035-1.752-2.034-3.575-2.404-5.576
							C263.686,366.403,278.071,356.876,278.071,356.876z"/>
					</g>
				</g>
				<g>
					<g>
						<g>
							<path style="fill:#A85858;" d="M267.093,319.536c1.646-0.53,3.163,0.549,3.561,2.09c0.992,3.837-2.646,6.652-5.248,8.725
								C264.977,328.751,264.569,320.348,267.093,319.536z"/>
							<g>
								<g>
									<path style="fill:#262639;" d="M266.415,325.69c0.193-0.934,0.424-1.902,0.983-2.694c0.588-0.833,1.358-1.055,2.266-1.382
										c0.17-0.061,0.189-0.311,0-0.365c-0.905-0.257-1.79,0.382-2.342,1.064c-0.759,0.937-0.993,2.147-1.151,3.311
										C266.151,325.779,266.381,325.853,266.415,325.69L266.415,325.69z"/>
								</g>
								<g>
									<path style="fill:#262639;" d="M267.716,322.769c0.372,0.19,0.665,0.494,0.815,0.887c0.061,0.161,0.098,0.332,0.105,0.504
										c0.008,0.187-0.031,0.297,0.067,0.463c0.059,0.101,0.215,0.13,0.297,0.038c0.289-0.321,0.044-0.927-0.147-1.255
										c-0.237-0.408-0.601-0.704-1.04-0.868C267.68,322.489,267.589,322.705,267.716,322.769L267.716,322.769z"/>
								</g>
							</g>
						</g>
						<g>
							<path style="fill:#A85858;" d="M234.621,319.536c-1.646-0.53-3.163,0.549-3.561,2.09c-0.992,3.837,2.645,6.652,5.248,8.725
								C236.737,328.751,237.146,320.348,234.621,319.536z"/>
							<g>
								<g>
									<path style="fill:#262639;" d="M235.543,325.623c-0.158-1.162-0.391-2.376-1.151-3.311
										c-0.553-0.68-1.436-1.321-2.342-1.064c-0.189,0.054-0.17,0.304,0,0.365c0.916,0.33,1.672,0.54,2.266,1.382
										c0.559,0.792,0.79,1.76,0.983,2.694C235.333,325.853,235.564,325.779,235.543,325.623L235.543,325.623z"/>
								</g>
								<g>
									<path style="fill:#262639;" d="M233.901,322.539c-0.44,0.165-0.803,0.46-1.04,0.868c-0.192,0.331-0.436,0.933-0.146,1.255
										c0.082,0.092,0.238,0.062,0.297-0.038c0.087-0.148,0.064-0.241,0.065-0.411c0.001-0.19,0.039-0.379,0.107-0.556
										c0.15-0.394,0.443-0.697,0.815-0.887C234.124,322.706,234.036,322.488,233.901,322.539L233.901,322.539z"/>
								</g>
							</g>
						</g>
					</g>
					<g>
						<g>
							<path style="fill:#A85858;" d="M234.193,324.199c0,10.375,2.668,16.46,16.664,16.46c13.996,0,16.664-6.086,16.664-16.46
								C267.521,302.711,234.193,299.95,234.193,324.199z"/>
						</g>
						<g>
							<path style="fill:#262639;" d="M242.465,339.676c4.968,2.342,10.751,2.205,15.942,0.685c0.389-0.114,0.221-0.728-0.168-0.609
								c-5.383,1.655-10.369,1.213-15.75-0.134C242.456,339.61,242.432,339.66,242.465,339.676L242.465,339.676z"/>
						</g>
					</g>
					<g>
						<path style="fill:#914444;" d="M246.806,326.715c0,0.684-0.715,1.238-1.598,1.238c-0.882,0-1.598-0.555-1.598-1.238
							s0.715,0.182,1.598,0.182C246.091,326.897,246.806,326.031,246.806,326.715z"/>
						<path style="fill:#914444;" d="M257.511,326.715c0,0.684-0.715,1.238-1.598,1.238c-0.883,0-1.598-0.555-1.598-1.238
							s0.715,0.182,1.598,0.182C256.796,326.897,257.511,326.031,257.511,326.715z"/>
						<g>
							<path style="fill:#262639;" d="M250.849,321.549c-0.024,1.211-0.182,2.446-0.49,3.62c-0.174,0.664-0.411,1.323-0.707,1.941
								c-0.129,0.268-0.59,0.855-0.62,1.173c-0.085,0.88,1.013,1.136,1.712,1.395c0.083,0.031,0.141-0.104,0.061-0.144
								c-0.288-0.143-0.695-0.285-0.925-0.517c-0.705-0.709-0.356-0.887-0.047-1.497c0.285-0.563,0.526-1.149,0.715-1.751
								c0.44-1.404,0.51-2.761,0.333-4.22C250.879,321.529,250.85,321.528,250.849,321.549L250.849,321.549z"/>
						</g>
						<path style="fill:#262639;" d="M246.193,325.766c0,0.793-0.381,1.436-0.85,1.436c-0.47,0-0.85-0.643-0.85-1.436
							c0-0.793,0.381-1.436,0.85-1.436C245.812,324.329,246.193,324.973,246.193,325.766z"/>
						<path style="fill:#262639;" d="M256.763,325.766c0,0.793-0.381,1.436-0.85,1.436c-0.47,0-0.85-0.643-0.85-1.436
							c0-0.793,0.381-1.436,0.85-1.436C256.383,324.329,256.763,324.973,256.763,325.766z"/>
						<path style="fill:#262639;" d="M252.815,332.497c0,0.793-1.019,0.363-2.277,0.363c-1.257,0-2.277,0.43-2.277-0.363
							C248.262,331.704,252.815,331.704,252.815,332.497z"/>
						<g>
							<g>
								<path style="fill:#262639;" d="M243.12,324.38c0.709,0.076,1.418,0.152,2.127,0.228c0.598,0.064,1.164,0.212,1.702-0.108
									c0.184-0.109,0.181-0.376,0-0.486c-0.534-0.324-1.104-0.181-1.702-0.123c-0.709,0.069-1.418,0.138-2.127,0.207
									C242.939,324.116,242.94,324.361,243.12,324.38L243.12,324.38z"/>
							</g>
						</g>
						<g>
							<g>
								<path style="fill:#262639;" d="M241.46,322.161c1.123-0.09,2.252-0.109,3.378-0.1c0.942,0.007,1.985,0.208,2.852-0.244
									c0.214-0.111,0.214-0.455,0-0.567c-0.864-0.45-1.874-0.169-2.789-0.031c-1.167,0.176-2.332,0.384-3.479,0.665
									C241.272,321.922,241.3,322.173,241.46,322.161L241.46,322.161z"/>
							</g>
						</g>
						<g>
							<g>
								<path style="fill:#262639;" d="M258.331,324.099c-0.709-0.069-1.418-0.138-2.127-0.207
									c-0.597-0.058-1.168-0.201-1.702,0.123c-0.181,0.11-0.184,0.377,0,0.486c0.538,0.319,1.104,0.172,1.702,0.108
									c0.709-0.076,1.418-0.152,2.127-0.228C258.511,324.361,258.513,324.116,258.331,324.099L258.331,324.099z"/>
							</g>
						</g>
						<g>
							<g>
								<path style="fill:#262639;" d="M260.029,321.884c-1.147-0.281-2.311-0.488-3.479-0.665
									c-0.916-0.139-1.925-0.419-2.789,0.031c-0.214,0.111-0.214,0.455,0,0.567c0.869,0.453,1.909,0.25,2.852,0.244
									c1.127-0.008,2.255,0.011,3.378,0.1C260.15,322.173,260.181,321.922,260.029,321.884L260.029,321.884z"/>
							</g>
						</g>
					</g>
					<path style="fill:#262639;" d="M245.233,310.883c0.62,1.274,1.619,2.32,2.637,3.305c5.703,5.519,11.761,9.631,19.646,10.528
						c2.282-4.556,2.106-7.047,1.185-10.586c-0.524-2.012-1.727-3.778-3.037-5.393c-1.105-1.362-2.312-2.659-3.74-3.677
						c-3.063-2.183-7.094-2.767-10.715-1.885C247.566,304.064,243.112,306.52,245.233,310.883z"/>
					<path style="fill:#262639;" d="M242.963,317.249c-1.983,2.888-4.826,5.277-8.19,6.253c-0.263,0.076-0.542,0.144-0.809,0.081
						c-0.499-0.118-0.782-0.637-0.972-1.114c-1.387-3.476-1.141-7.555,0.612-10.862c1.753-3.307,4.97-5.791,8.601-6.698
						c1.152-0.288,2.416-0.413,3.488,0.098C249.367,306.76,244.466,315.061,242.963,317.249z"/>
				</g>
			</g>
		</g>
		<g>
			<g>
				<g>
					<path style="fill:#262639;" d="M279.473,319.676c0.072,0.09,0.115,0.493,0.131,1.208c0.004,0.46,0.009,0.916,0.014,1.367
						c0.017,0.737,0.033,1.47,0.047,2.202c0.018,0.839-0.002,1.575-0.058,2.208c1.467-1.237,2.317-1.947,2.547-2.13
						c0.456-0.362,0.8-0.395,1.033-0.102c0.226,0.285,0.081,0.631-0.433,1.039c-0.1,0.079-0.25,0.193-0.452,0.342
						c-0.202,0.149-0.355,0.264-0.458,0.347c-0.212,0.168-0.536,0.43-0.971,0.786c-0.435,0.356-0.761,0.619-0.977,0.791
						c-0.452,0.358-0.746,0.492-0.883,0.402c-0.046-0.03-0.099-0.083-0.16-0.16c-0.133-0.167-0.21-0.381-0.234-0.642
						c0.023-0.444,0.044-1.108,0.065-1.992c-0.031-0.939-0.062-2.355-0.093-4.249l-1.876,1.487
						c-0.402,0.319-0.733,0.555-0.992,0.709c-0.294-0.083-0.502-0.201-0.624-0.355c-0.079-0.099-0.064-0.224,0.044-0.376
						c0.152-0.216,0.975-0.917,2.47-2.102c0.122-0.097,0.313-0.244,0.574-0.444c0.253-0.2,0.44-0.349,0.562-0.446
						c0.109-0.086,0.235-0.116,0.38-0.092C279.272,319.5,279.387,319.567,279.473,319.676z"/>
				</g>
				<g>
					<path style="fill:#262639;" d="M292.735,310.115c0.024,0.182-0.244,0.769-0.805,1.762c-0.369,0.633-0.734,1.262-1.095,1.884
						c-0.577,1.023-1.152,2.041-1.73,3.054c-0.66,1.164-1.286,2.156-1.879,2.977c3.018-0.499,4.76-0.779,5.223-0.841
						c0.92-0.124,1.418,0.111,1.498,0.702c0.077,0.574-0.403,0.93-1.44,1.07c-0.201,0.027-0.499,0.06-0.897,0.1
						c-0.398,0.04-0.701,0.073-0.911,0.102c-0.428,0.058-1.085,0.153-1.97,0.286c-0.885,0.133-1.547,0.229-1.983,0.287
						c-0.91,0.122-1.423,0.066-1.537-0.168c-0.039-0.078-0.068-0.195-0.089-0.35c-0.045-0.337,0.022-0.693,0.203-1.07
						c0.394-0.59,0.964-1.482,1.712-2.675c0.722-1.311,1.834-3.276,3.335-5.896l-3.781,0.508c-0.81,0.109-1.455,0.163-1.937,0.162
						c-0.335-0.352-0.523-0.685-0.565-0.994c-0.027-0.2,0.095-0.36,0.367-0.48c0.384-0.172,2.083-0.461,5.095-0.866
						c0.246-0.033,0.628-0.08,1.148-0.14c0.509-0.068,0.887-0.119,1.133-0.152c0.219-0.029,0.417,0.032,0.595,0.184
						C292.602,309.711,292.705,309.896,292.735,310.115z"/>
				</g>
				<g>
					<path style="fill:#262639;" d="M297.015,294.879c0.135,0.184,0.194,0.985,0.174,2.403c-0.025,0.911-0.047,1.815-0.069,2.71
						c-0.018,1.461-0.038,2.915-0.063,4.365c-0.025,1.663-0.116,3.12-0.272,4.371c2.995-2.347,4.728-3.693,5.197-4.038
						c0.929-0.684,1.614-0.726,2.053-0.129c0.427,0.58,0.116,1.256-0.932,2.027c-0.203,0.149-0.509,0.364-0.919,0.645
						c-0.41,0.281-0.721,0.499-0.933,0.655c-0.433,0.319-1.092,0.815-1.979,1.488c-0.887,0.674-1.551,1.173-1.992,1.498
						c-0.92,0.677-1.513,0.922-1.778,0.734c-0.089-0.062-0.191-0.173-0.306-0.329c-0.251-0.341-0.39-0.77-0.417-1.289
						c0.077-0.879,0.167-2.192,0.269-3.941c0.005-1.862,0.044-4.67,0.117-8.425l-3.822,2.813c-0.819,0.603-1.491,1.047-2.016,1.334
						c-0.576-0.184-0.98-0.435-1.21-0.747c-0.149-0.202-0.111-0.449,0.114-0.742c0.316-0.417,1.997-1.747,5.042-3.988
						c0.248-0.183,0.638-0.462,1.169-0.838c0.515-0.379,0.897-0.66,1.145-0.843c0.221-0.163,0.474-0.214,0.758-0.155
						C296.629,294.517,296.852,294.657,297.015,294.879z"/>
				</g>
			</g>
		</g>
	</g>
	<g>
		<defs>
			
				<ellipse id="SVGID_00000171707901932677239860000003807241782394022283_" transform="matrix(0.2366 -0.9716 0.9716 0.2366 137.2815 528.3866)" cx="404.9" cy="176.829" rx="68.072" ry="68.072"/>
		</defs>
		<clipPath id="SVGID_00000034057194559098940970000014115641629266732430_">
			<use xlink:href="#SVGID_00000171707901932677239860000003807241782394022283_"  style="overflow:visible;"/>
		</clipPath>
		
			<ellipse transform="matrix(0.2366 -0.9716 0.9716 0.2366 137.2815 528.3866)" style="clip-path:url(#SVGID_00000034057194559098940970000014115641629266732430_);fill:#DD8497;" cx="404.9" cy="176.829" rx="68.072" ry="68.072"/>
		<g style="clip-path:url(#SVGID_00000034057194559098940970000014115641629266732430_);">
			<path style="fill:#262639;" d="M387.457,137.084c-1.471,3.03-3.998,5.388-6.096,8.022c-3.932,4.936-6.439,11.175-6.139,17.479
				c0.3,6.304,3.667,12.573,9.197,15.613c2.657,1.461,5.668,2.145,8.662,2.621c10.327,1.642,21.015,0.974,31.058-1.94
				c1.449-0.421,2.928-0.91,4.071-1.895c1.57-1.352,2.277-3.425,2.919-5.395c0.667-2.05,1.34-4.128,1.463-6.28
				c0.252-4.413-1.816-8.61-4.11-12.388c-2.294-3.778-4.914-7.482-5.972-11.773c-0.774-3.139-0.692-6.526-2.107-9.432
				c-1.663-3.417-5.137-5.596-8.677-6.978c-3.001-1.171-6.173-1.903-9.383-2.164c-2.694-0.219-5.463-0.099-8.003,0.827
				c-2.113,0.77-5.155,2.58-5.704,4.964C387.951,131.343,388.933,134.043,387.457,137.084z"/>
			<g>
				<path style="fill:#A85858;" d="M438.26,207.165c0,0-12.041-11.661-14.413-23.143l7.745-13.946c0,0,27.225,31.27,16.315,48.687
					L438.26,207.165z"/>
				<path style="fill:#A85858;" d="M366.226,207.524c0,0,11.405-11.484,16.573-22.008l-4.01-15.44c0,0-31.011,26.671-24.805,46.264
					L366.226,207.524z"/>
				<path style="fill:#A85858;" d="M415.275,162.29c-2.588-3.105-2.668-10.65-2.753-16.161c-3.152,0.02-11.661,0.02-14.812,0
					c-0.086,5.51-0.165,13.056-2.753,16.161c-2.761,3.313-17.548,7.017-17.054,7.483c3.604,3.32,15.175,22.278,26.832,22.314
					c11.911,0.037,23.912-18.922,27.595-22.314C432.823,169.308,418.036,165.603,415.275,162.29z"/>
				<g>
					<defs>
						<path id="SVGID_00000157295439209765137180000006896955261796196513_" d="M434.872,244.689
							c-0.838-15.642-7.732-25.05-6.976-35.083c0.38-5.042,4.519-39.834,4.519-39.834s-11.78-6.47-12.459-5.016
							c-1.709,3.659-9.732,7.773-15.221,7.743c-5.399-0.03-13.208-4.144-14.889-7.743c-0.679-1.454-12.459,5.016-12.459,5.016
							s4.139,34.792,4.519,39.834c0.756,10.033-6.138,19.442-6.976,35.083C385.641,246.785,424.16,246.785,434.872,244.689z"/>
					</defs>
					<clipPath id="SVGID_00000018922792708311580550000008766046170964501888_">
						<use xlink:href="#SVGID_00000157295439209765137180000006896955261796196513_"  style="overflow:visible;"/>
					</clipPath>
					<path style="clip-path:url(#SVGID_00000018922792708311580550000008766046170964501888_);fill:#DDD3C1;" d="M434.872,244.689
						c-0.838-15.642-7.732-25.05-6.976-35.083c0.38-5.042,4.519-39.834,4.519-39.834s-11.78-6.47-12.459-5.016
						c-1.709,3.659-9.732,7.773-15.221,7.743c-5.399-0.03-13.208-4.144-14.889-7.743c-0.679-1.454-12.459,5.016-12.459,5.016
						s4.139,34.792,4.519,39.834c0.756,10.033-6.138,19.442-6.976,35.083C385.641,246.785,424.16,246.785,434.872,244.689z"/>
					<g style="clip-path:url(#SVGID_00000018922792708311580550000008766046170964501888_);">
						
							<line style="fill:none;stroke:#31121D;stroke-width:2;stroke-miterlimit:10;" x1="432.341" y1="198.017" x2="374.773" y2="198.017"/>
						
							<line style="fill:none;stroke:#31121D;stroke-width:2;stroke-miterlimit:10;" x1="432.341" y1="204.248" x2="374.773" y2="204.248"/>
						
							<line style="fill:none;stroke:#31121D;stroke-width:2;stroke-miterlimit:10;" x1="432.341" y1="210.478" x2="374.773" y2="210.478"/>
						
							<line style="fill:none;stroke:#31121D;stroke-width:2;stroke-miterlimit:10;" x1="432.341" y1="216.709" x2="374.773" y2="216.709"/>
						
							<line style="fill:none;stroke:#31121D;stroke-width:2;stroke-miterlimit:10;" x1="432.341" y1="222.939" x2="374.773" y2="222.939"/>
					</g>
				</g>
				<g>
					<path style="fill:#A85858;" d="M402.72,219.829c0.57,1.46-5.01,2.076-3.788,3.578c1.252,0.562,12.07,1.211,11.538,3.196
						c-0.339,1.266-7.382-0.233-9.162,0.348c3.334,2.081,9.364,4.135,8.95,5.146c-0.674,1.646-9.686-2.652-9.993-1.785
						c-0.455,1.285,7.563,4.616,7.132,5.762c-0.445,1.182-6.818-2.924-9.649-3.151c-0.327,1.1,5.506,5.244,4.729,6.41
						c-0.272,0.408-10.943-7.889-13.905-9.673c0,0-11.335-4.995-11.904-5.513c-1.788-1.626,1.848-6.122,3.309-7.708
						c0.79-0.857,8.739,6.197,14.523,4.254C396.5,220.021,402.254,218.634,402.72,219.829z"/>
					<path style="fill:#A85858;" d="M353.984,216.339c1.544,5.208,32.812,12.651,33.895,13.015c1.521,0.511,12.45-4.128,7.237-6.98
						c-23.391-12.8-28.889-14.85-28.889-14.85L353.984,216.339z"/>
				</g>
				<g>
					<path style="fill:#A85858;" d="M400.13,201.745c-1.165,1.048,3.541,4.107,1.774,4.899c-1.371-0.061-11.325-4.346-11.742-2.334
						c-0.266,1.284,6.698,3.112,8.027,4.431c-3.914,0.359-10.223-0.518-10.308,0.572c-0.138,1.773,9.844,1.988,9.728,2.899
						c-0.172,1.353-8.831,0.722-8.961,1.94c-0.134,1.256,7.405,0.455,10.035,1.525c-0.203,1.129-7.276,2.207-7.106,3.599
						c0.06,0.487,13.322-2.126,16.77-2.387c0,0,12.37,0.635,13.112,0.429c2.328-0.648,1.102-6.299,0.511-8.373
						c-0.32-1.121-10.592,1.605-14.885-2.731C405.599,204.713,401.084,200.887,400.13,201.745z"/>
					<path style="fill:#A85858;" d="M447.907,218.763c-2.769,4.42-37.674-1.674-38.804-1.836c-1.588-0.228-9.264-9.285-3.325-9.489
						c26.649-0.914,32.481-0.273,32.481-0.273L447.907,218.763z"/>
				</g>
				<path style="fill:#DDD3C1;" d="M377.386,169.772c-4.803,3.925-7.75,7.266-11.792,11.972c-0.471,0.548-0.955,1.141-1.063,1.857
					c-0.081,0.536,0.062,1.078,0.217,1.596c1.459,4.866,4.241,9.328,7.967,12.78c0.757,0.701,1.606,1.387,2.625,1.547
					c1.723,0.27,3.266-1.013,4.508-2.237c1.73-1.705,3.401-3.472,5.008-5.294c1.346-1.526,2.669-3.129,3.409-5.025
					C390.267,181.832,377.386,169.772,377.386,169.772z"/>
				<path style="fill:#DDD3C1;" d="M432.329,169.774c4.224,4.543,7.224,8.326,10.588,13.538c0.392,0.607,0.791,1.261,0.8,1.984
					c0.007,0.542-0.208,1.059-0.433,1.552c-2.108,4.622-5.472,8.663-9.633,11.576c-0.845,0.591-1.78,1.155-2.811,1.175
					c-1.743,0.033-3.098-1.449-4.161-2.83c-1.482-1.925-2.896-3.902-4.24-5.927c-1.125-1.696-2.218-3.464-2.692-5.443
					C418.462,180.038,432.329,169.774,432.329,169.774z"/>
			</g>
			<g>
				<g>
					<g>
						<path style="fill:#A85858;" d="M421.352,132.433c1.646-0.53,3.163,0.549,3.561,2.09c0.992,3.837-2.646,6.652-5.248,8.725
							C419.236,141.648,418.827,133.246,421.352,132.433z"/>
						<g>
							<g>
								<path style="fill:#262639;" d="M420.674,138.587c0.193-0.934,0.424-1.902,0.983-2.694c0.588-0.833,1.358-1.055,2.266-1.382
									c0.17-0.061,0.189-0.311,0-0.365c-0.905-0.257-1.79,0.382-2.342,1.064c-0.759,0.937-0.993,2.147-1.151,3.311
									C420.409,138.676,420.64,138.75,420.674,138.587L420.674,138.587z"/>
							</g>
							<g>
								<path style="fill:#262639;" d="M421.975,135.667c0.372,0.19,0.665,0.494,0.815,0.887c0.061,0.161,0.098,0.332,0.105,0.504
									c0.008,0.187-0.031,0.297,0.067,0.463c0.059,0.101,0.215,0.13,0.297,0.038c0.289-0.321,0.045-0.926-0.147-1.255
									c-0.237-0.408-0.601-0.704-1.04-0.868C421.938,135.386,421.848,135.602,421.975,135.667L421.975,135.667z"/>
							</g>
						</g>
					</g>
					<g>
						<path style="fill:#A85858;" d="M388.88,132.433c-1.646-0.53-3.163,0.549-3.561,2.09c-0.992,3.837,2.646,6.652,5.248,8.725
							C390.996,141.648,391.404,133.246,388.88,132.433z"/>
						<g>
							<g>
								<path style="fill:#262639;" d="M389.801,138.52c-0.158-1.162-0.39-2.376-1.151-3.311c-0.553-0.68-1.436-1.321-2.342-1.064
									c-0.189,0.054-0.17,0.304,0,0.365c0.916,0.33,1.672,0.54,2.266,1.382c0.559,0.792,0.79,1.76,0.983,2.694
									C389.592,138.75,389.823,138.676,389.801,138.52L389.801,138.52z"/>
							</g>
							<g>
								<path style="fill:#262639;" d="M388.16,135.436c-0.44,0.165-0.803,0.46-1.04,0.868c-0.192,0.33-0.436,0.933-0.147,1.255
									c0.082,0.092,0.238,0.062,0.297-0.038c0.087-0.148,0.064-0.241,0.065-0.411c0.001-0.19,0.039-0.379,0.107-0.556
									c0.15-0.394,0.443-0.697,0.815-0.887C388.382,135.603,388.295,135.385,388.16,135.436L388.16,135.436z"/>
							</g>
						</g>
					</g>
				</g>
				<g>
					<g>
						<path style="fill:#A85858;" d="M388.452,137.096c0,10.375,2.668,16.46,16.664,16.46c13.997,0,16.664-6.086,16.664-16.46
							C421.78,115.609,388.452,112.847,388.452,137.096z"/>
						
							<linearGradient id="SVGID_00000078031353198555932250000014281229563954163091_" gradientUnits="userSpaceOnUse" x1="405.1158" y1="155.3992" x2="405.1158" y2="121.0799">
							<stop  offset="0" style="stop-color:#A85858;stop-opacity:0"/>
							<stop  offset="1" style="stop-color:#99B158"/>
						</linearGradient>
						<path style="fill:url(#SVGID_00000078031353198555932250000014281229563954163091_);" d="M388.452,137.096
							c0,10.375,2.668,16.46,16.664,16.46c13.997,0,16.664-6.086,16.664-16.46C421.78,115.609,388.452,112.847,388.452,137.096z"/>
					</g>
					<g>
						<path style="fill:#262639;" d="M396.724,152.574c4.968,2.342,10.751,2.205,15.942,0.685c0.389-0.114,0.221-0.728-0.168-0.609
							c-5.383,1.655-10.369,1.213-15.749-0.134C396.715,152.508,396.69,152.558,396.724,152.574L396.724,152.574z"/>
					</g>
				</g>
				<g>
					<g>
						<path style="fill:#262639;" d="M405.108,134.446c-0.024,1.211-0.182,2.446-0.49,3.62c-0.174,0.664-0.411,1.323-0.707,1.941
							c-0.129,0.268-0.59,0.855-0.62,1.173c-0.085,0.88,1.013,1.137,1.712,1.395c0.083,0.031,0.141-0.105,0.061-0.144
							c-0.288-0.143-0.695-0.285-0.925-0.517c-0.705-0.709-0.356-0.887-0.047-1.497c0.285-0.563,0.527-1.149,0.715-1.751
							c0.44-1.404,0.51-2.761,0.333-4.22C405.137,134.426,405.108,134.425,405.108,134.446L405.108,134.446z"/>
					</g>
					<path style="fill:#262639;" d="M404.797,144.627c1.823-0.054,2.913,0.204,3.432,0.973c0.25,0.371,0.041,0.908-0.574,0.97
						c-0.407,0.041-0.806-0.077-1.181-0.188c-0.67-0.198-1.419-0.389-2.122-0.249c-0.365,0.073-0.676,0.228-1.018,0.339
						c-1.138,0.37-1.955-0.707-1.076-1.259C403.132,144.665,404.176,144.645,404.797,144.627z"/>
					<g>
						<g>
							<path style="fill:#262639;" d="M396.825,135.779c0.733,0.231,1.463,0.257,2.22,0.132c0.76-0.125,1.81-0.317,2.341-0.909
								c0.19-0.211,0.06-0.552-0.232-0.56c-0.667-0.018-1.245,0.421-1.872,0.625c-0.758,0.247-1.521,0.343-2.308,0.169
								C396.621,135.159,396.478,135.67,396.825,135.779L396.825,135.779z"/>
						</g>
					</g>
					<g>
						<g>
							<path style="fill:#262639;" d="M412.332,135.656c-0.827-0.145-1.578-0.454-2.332-0.815c-0.498-0.239-1.185-0.701-1.743-0.581
								c-0.151,0.032-0.232,0.205-0.197,0.346c0.158,0.624,1.151,0.949,1.717,1.073c0.825,0.18,1.689,0.243,2.528,0.162
								C412.404,135.831,412.445,135.676,412.332,135.656L412.332,135.656z"/>
						</g>
					</g>
					<g>
						<g>
							<path style="fill:#262639;" d="M396.432,137.843c1.204,1.349,3.102,1.776,4.632,0.731c0.238-0.162,0.348-0.415,0.284-0.699
								c-0.173-0.762-1.038-0.29-1.485-0.152c-1.111,0.344-2.094,0.344-3.09-0.323C396.496,137.215,396.228,137.614,396.432,137.843
								L396.432,137.843z"/>
						</g>
					</g>
					<g>
						<g>
							<path style="fill:#262639;" d="M407.572,137.295c0.389,1.033,1.047,1.808,2.165,2.021c1.191,0.227,2.047-0.203,2.718-1.188
								c0.103-0.151-0.066-0.298-0.212-0.275c-1.216,0.186-3.006-0.16-3.966-0.968C407.989,136.642,407.409,136.863,407.572,137.295
								L407.572,137.295z"/>
						</g>
					</g>
				</g>
				<path style="fill:#262639;" d="M399.492,123.781c0.62,1.274,1.619,2.32,2.637,3.305c5.703,5.519,11.761,9.631,19.646,10.528
					c2.282-4.556,2.106-7.047,1.185-10.586c-0.524-2.012-1.727-3.778-3.037-5.393c-1.105-1.362-2.312-2.659-3.74-3.677
					c-3.063-2.183-7.094-2.768-10.715-1.885C401.825,116.961,397.37,119.417,399.492,123.781z"/>
				<path style="fill:#262639;" d="M397.221,130.146c-1.983,2.888-4.826,5.277-8.19,6.253c-0.263,0.076-0.542,0.144-0.809,0.082
					c-0.499-0.118-0.782-0.637-0.972-1.114c-1.387-3.476-1.141-7.555,0.612-10.862c1.753-3.307,4.97-5.791,8.601-6.698
					c1.151-0.288,2.416-0.413,3.488,0.098C403.625,119.657,398.724,127.958,397.221,130.146z"/>
			</g>
		</g>
	</g>
	<g>
		
			<ellipse transform="matrix(0.2366 -0.9716 0.9716 0.2366 -40.8858 668.3696)" style="fill:#DD8497;" cx="404.9" cy="360.204" rx="68.072" ry="68.072"/>
		<g>
			<g>
				<path style="fill:#C4B6A6;" d="M352.464,345.858c0,0,26.585,35.568,39.602,51.703c9.9-8.617,9.35-19.434,9.35-19.434
					l-6.05-36.669C395.366,341.458,356.865,338.891,352.464,345.858z"/>
				<path style="fill:#C4B6A6;" d="M457.336,345.858c0,0-26.585,35.568-39.602,51.703c-9.901-8.617-9.35-19.434-9.35-19.434
					l6.05-36.669C414.434,341.458,452.936,338.891,457.336,345.858z"/>
				<path style="fill:#DDD3C1;" d="M453.303,329.724c-28.968,2.934-67.837,2.934-96.805,0l-4.034,16.134
					c0,0,28.602-5.134,39.602,20.534c6.234,19.068,0,31.168,0,31.168c8.556,1.956,17.112,1.956,25.668,0c0,0-6.234-12.101,0-31.168
					c11-25.668,39.602-20.534,39.602-20.534L453.303,329.724z"/>
				<g>
					<g>
						<path style="fill:#262639;" d="M355.7,332.48c4.361,2.094,9.781,2.417,14.515,2.974c9.247,1.089,18.546,1.528,27.852,1.708
							c10.314,0.2,20.69,0.173,30.984-0.561c4.717-0.336,9.429-0.807,14.115-1.447c3.512-0.48,7.805-0.648,11.023-2.214
							c0.263-0.128,0.12-0.517-0.142-0.524c-3.725-0.095-7.719,1.107-11.431,1.51c-4.51,0.489-9.035,0.79-13.564,1.026
							c-9.898,0.514-19.792,0.786-29.704,0.664c-8.911-0.11-17.846-0.433-26.733-1.122c-5.302-0.411-11.585-0.451-16.535-2.66
							C355.645,331.639,355.261,332.269,355.7,332.48L355.7,332.48z"/>
					</g>
				</g>
				<g>
					<g>
						<path style="fill:#262639;" d="M393.961,387.905c7.125-0.592,14.088,0.156,21.192,0.048c0.562-0.008,0.725-0.894,0.137-1.013
							c-6.918-1.401-14.472-0.544-21.404,0.412C393.574,387.396,393.645,387.931,393.961,387.905L393.961,387.905z"/>
					</g>
				</g>
			</g>
			<g>
				<path style="fill:#A85858;" d="M411.955,374.47c0,3.896-3.158,7.054-7.054,7.054c-3.896,0-7.054-3.158-7.054-7.054
					c0-3.896,7.054-21.14,7.054-21.14S411.955,370.574,411.955,374.47z"/>
				<path style="opacity:0.5;fill:none;stroke:#FFFFFF;stroke-linecap:round;stroke-miterlimit:10;" d="M401.849,366.177
					c0,0-2.536,6.805-1.68,9.861c0.856,3.056,2.933,2.567,2.933,2.567"/>
			</g>
		</g>
	</g>
	<g>
		
			<text transform="matrix(1 0 0 1 132.464 64.3857)" style="fill:#262639; font-family:'SFCartoonistHand-Bold'; font-size:22.7742px;">PREGNANCY SYMPTOMS</text>
		<text transform="matrix(1 0 0 1 30.4567 264.4993)"><tspan x="0" y="0" style="fill:#262639; font-family:'SFCartoonistHand'; font-size:15.0125px;">MISSED MENSTRUAL </tspan><tspan x="40.953" y="15.006" style="fill:#262639; font-family:'SFCartoonistHand'; font-size:15.0125px;">PERIOD</tspan></text>
		<text transform="matrix(1 0 0 1 61.3214 447.4407)"><tspan x="0" y="0" style="fill:#262639; font-family:'SFCartoonistHand'; font-size:15.0125px;">FREQUENT</tspan><tspan x="-2.079" y="15.006" style="fill:#262639; font-family:'SFCartoonistHand'; font-size:15.0125px;">URINATION</tspan></text>
		<text transform="matrix(1 0 0 1 226.1754 264.4993)"><tspan x="0" y="0" style="fill:#262639; font-family:'SFCartoonistHand'; font-size:15.0125px;">BREAST</tspan><tspan x="-7.198" y="15.006" style="fill:#262639; font-family:'SFCartoonistHand'; font-size:15.0125px;">CHANGES</tspan></text>
		
			<text transform="matrix(1 0 0 1 222.8273 447.4407)" style="fill:#262639; font-family:'SFCartoonistHand'; font-size:15.0125px;">FATIGUE</text>
		<text transform="matrix(1 0 0 1 362.4 264.4993)"><tspan x="0" y="0" style="fill:#262639; font-family:'SFCartoonistHand'; font-size:15.0125px;">NAUSEA AND </tspan><tspan x="9.998" y="15.006" style="fill:#262639; font-family:'SFCartoonistHand'; font-size:15.0125px;">VOMITING</tspan></text>
		<text transform="matrix(1 0 0 1 356.0426 447.4407)"><tspan x="0" y="0" style="fill:#262639; font-family:'SFCartoonistHand'; font-size:15.0125px;">IMPLANTATION</tspan><tspan x="17.279" y="15.006" style="fill:#262639; font-family:'SFCartoonistHand'; font-size:15.0125px;">BLEEDING</tspan></text>
	</g>
</g>
</svg>
