<?xml version="1.0" encoding="utf-8"?>
<!-- Generator: Adobe Illustrator 27.5.0, SVG Export Plug-In . SVG Version: 6.00 Build 0)  -->
<svg version="1.1" xmlns="http://www.w3.org/2000/svg" xmlns:xlink="http://www.w3.org/1999/xlink" x="0px" y="0px"
	 viewBox="0 0 500 500" style="enable-background:new 0 0 500 500;" xml:space="preserve">
<g id="BACKGROUND">
	<g>
		<g>
			<rect transform="matrix(-1 -1.224647e-16 1.224647e-16 -1 500 500)" style="fill:#FFCFCF;" width="500" height="500"/>
		</g>
		<g>
			<path style="fill:#EE90AB;" d="M114.744,413.696H43.167c0,0-30.49-58.073-15.937-74.819c14.553-16.745,39.252,43.554,32.647,0
				c-6.605-43.554,12.851-61.982,26.331-22.017c13.481,39.965,19.983,2.281,19.941-16.723
				c-0.077-35.309,24.581-43.436,37.888,16.807c19.001,86.02,9.31,95.509,9.31,95.509L114.744,413.696z"/>
			<path style="fill:#E96B8F;" d="M102.677,417.74h-39.83c0,0-11.489-11.626-8.426-32.936c11.489-0.247,18.383,18.433,18.383,18.433
				s-9.192-29.825,0.766-46.082c11.489,4.807,14.553,40.754,14.553,40.754s-4.213-27.521,4.213-43.223
				C106.074,364.642,106.124,402.285,102.677,417.74z"/>
		</g>
		<g>
			<path style="fill:#E76288;" d="M419.589,413.94c0,0,36.359-25.075,38-61.505c-12.146,4.166-31.135,28.854-31.135,28.854
				s18.56-22.962,16.86-51.783c-11.658-3.544-30.426,20.716-34.446,40.756C404.848,390.302,419.589,413.94,419.589,413.94z"/>
			<g>
				<path style="fill:#E34673;" d="M369.047,310.098c0,0,7.924-87.63,74.184-109.583
					C445.814,256.406,387.39,311.046,369.047,310.098z"/>
				
					<line style="fill:none;stroke:#C7325C;stroke-width:0.8504;stroke-miterlimit:10;" x1="443.231" y1="200.515" x2="369.047" y2="310.098"/>
				
					<line style="fill:none;stroke:#C7325C;stroke-width:0.8504;stroke-miterlimit:10;" x1="421.426" y1="211.253" x2="424.204" y2="228.621"/>
				
					<line style="fill:none;stroke:#C7325C;stroke-width:0.8504;stroke-miterlimit:10;" x1="415.927" y1="240.848" x2="434.586" y2="243.632"/>
				
					<line style="fill:none;stroke:#C7325C;stroke-width:0.8504;stroke-miterlimit:10;" x1="396.469" y1="235.463" x2="404.574" y2="257.12"/>
				
					<line style="fill:none;stroke:#C7325C;stroke-width:0.8504;stroke-miterlimit:10;" x1="397.887" y1="267.497" x2="418.08" y2="271.324"/>
				
					<line style="fill:none;stroke:#C7325C;stroke-width:0.8504;stroke-miterlimit:10;" x1="381.844" y1="261.603" x2="387.317" y2="282.231"/>
				
					<line style="fill:none;stroke:#C7325C;stroke-width:0.8504;stroke-miterlimit:10;" x1="380.548" y1="293.108" x2="396.833" y2="294.679"/>
			</g>
			<g>
				<path style="fill:#E34673;" d="M360.315,343.039c0,0-64.252-60.111-40.844-125.871
					C365.146,249.483,372.338,329.152,360.315,343.039z"/>
				
					<line style="fill:none;stroke:#C7325C;stroke-width:0.8504;stroke-miterlimit:10;" x1="319.471" y1="217.168" x2="360.315" y2="343.039"/>
				
					<line style="fill:none;stroke:#C7325C;stroke-width:0.8504;stroke-miterlimit:10;" x1="314.539" y1="240.967" x2="329.947" y2="249.451"/>
				
					<line style="fill:none;stroke:#C7325C;stroke-width:0.8504;stroke-miterlimit:10;" x1="334.504" y1="263.496" x2="348.169" y2="250.488"/>
				
					<line style="fill:none;stroke:#C7325C;stroke-width:0.8504;stroke-miterlimit:10;" x1="318.297" y1="275.535" x2="340.362" y2="282.452"/>
				
					<line style="fill:none;stroke:#C7325C;stroke-width:0.8504;stroke-miterlimit:10;" x1="344.437" y1="294.105" x2="359.868" y2="280.529"/>
				
					<line style="fill:none;stroke:#C7325C;stroke-width:0.8504;stroke-miterlimit:10;" x1="329.927" y1="303.137" x2="349.563" y2="311.5"/>
				
					<line style="fill:none;stroke:#C7325C;stroke-width:0.8504;stroke-miterlimit:10;" x1="353.983" y1="323.524" x2="365.231" y2="311.643"/>
			</g>
			<g>
				<path style="fill:#E76288;" d="M348.967,323.131c0,0-30.202-112.661,42.209-170.271
					C419.942,221.225,372.226,315.924,348.967,323.131z"/>
				
					<line style="fill:none;stroke:#C7325C;stroke-width:0.8504;stroke-miterlimit:10;" x1="391.176" y1="152.86" x2="348.967" y2="323.131"/>
				
					<line style="fill:none;stroke:#C7325C;stroke-width:0.8504;stroke-miterlimit:10;" x1="368.954" y1="176.189" x2="380.351" y2="196.531"/>
				
					<line style="fill:none;stroke:#C7325C;stroke-width:0.8504;stroke-miterlimit:10;" x1="375.641" y1="215.529" x2="400.132" y2="210.462"/>
				
					<line style="fill:none;stroke:#C7325C;stroke-width:0.8504;stroke-miterlimit:10;" x1="348.967" y1="217.725" x2="368.954" y2="240.967"/>
				
					<line style="fill:none;stroke:#C7325C;stroke-width:0.8504;stroke-miterlimit:10;" x1="365.376" y1="256.937" x2="392.253" y2="252.467"/>
				
					<line style="fill:none;stroke:#C7325C;stroke-width:0.8504;stroke-miterlimit:10;" x1="342.72" y1="256.937" x2="358.961" y2="280.103"/>
				
					<line style="fill:none;stroke:#C7325C;stroke-width:0.8504;stroke-miterlimit:10;" x1="355.512" y1="296.732" x2="376.493" y2="291.241"/>
			</g>
		</g>
		<g>
			<path style="opacity:0.15;fill:#C6223D;" d="M430.507,421.871c0,2.281-44.6,4.131-99.616,4.131s-99.617-1.85-99.617-4.131
				s44.6-4.131,99.617-4.131S430.507,419.59,430.507,421.871z"/>
			<g>
				<polygon style="fill:#95AAEA;" points="401.848,420.995 235.953,420.995 251.462,283.873 417.357,283.873 				"/>
				<polygon style="fill:#B3C2FC;" points="409.043,420.995 243.148,420.995 251.462,283.873 417.357,283.873 				"/>
				<polygon style="fill:#D6E1FE;" points="416.999,420.995 251.104,420.995 251.462,283.873 417.357,283.873 				"/>
				<path style="fill:#103E56;" d="M275.491,294.789c-3.398,0-5.176-5.836-5.176-11.603c0-5.765,1.778-11.603,5.176-11.603v2.497
					c-0.801,0-2.68,3.098-2.68,9.106c0,6.009,1.879,9.107,2.68,9.107V294.789z"/>
				<path style="fill:#103E56;" d="M290.505,294.789c-3.398,0-5.176-5.836-5.176-11.603c0-5.765,1.778-11.603,5.176-11.603v2.497
					c-0.801,0-2.68,3.098-2.68,9.106c0,6.009,1.879,9.107,2.68,9.107V294.789z"/>
				<path style="fill:#103E56;" d="M305.52,294.789c-3.398,0-5.176-5.836-5.176-11.603c0-5.765,1.778-11.603,5.176-11.603v2.497
					c-0.801,0-2.68,3.098-2.68,9.106c0,6.009,1.879,9.107,2.68,9.107V294.789z"/>
				<path style="fill:#103E56;" d="M320.534,294.789c-3.398,0-5.176-5.836-5.176-11.603c0-5.765,1.778-11.603,5.176-11.603v2.497
					c-0.801,0-2.68,3.098-2.68,9.106c0,6.009,1.879,9.107,2.68,9.107V294.789z"/>
				<path style="fill:#103E56;" d="M335.548,294.789c-3.398,0-5.176-5.836-5.176-11.603c0-5.765,1.778-11.603,5.176-11.603v2.497
					c-0.801,0-2.68,3.098-2.68,9.106c0,6.009,1.879,9.107,2.68,9.107V294.789z"/>
				<path style="fill:#103E56;" d="M350.562,294.789c-3.398,0-5.176-5.836-5.176-11.603c0-5.765,1.778-11.603,5.176-11.603v2.497
					c-0.801,0-2.68,3.098-2.68,9.106c0,6.009,1.879,9.107,2.68,9.107V294.789z"/>
				<path style="fill:#103E56;" d="M365.577,294.789c-3.398,0-5.176-5.836-5.176-11.603c0-5.765,1.778-11.603,5.176-11.603v2.497
					c-0.801,0-2.68,3.098-2.68,9.106c0,6.009,1.879,9.107,2.68,9.107V294.789z"/>
				<path style="fill:#103E56;" d="M380.591,294.789c-3.398,0-5.176-5.836-5.176-11.603c0-5.765,1.778-11.603,5.176-11.603v2.497
					c-0.801,0-2.68,3.098-2.68,9.106c0,6.009,1.879,9.107,2.68,9.107V294.789z"/>
				<path style="fill:#103E56;" d="M395.605,294.789c-3.398,0-5.176-5.836-5.176-11.603c0-5.765,1.778-11.603,5.176-11.603v2.497
					c-0.801,0-2.68,3.098-2.68,9.106c0,6.009,1.879,9.107,2.68,9.107V294.789z"/>
				<polygon style="fill:#FFFFFF;" points="423.672,420.995 257.777,420.995 251.462,283.873 417.357,283.873 				"/>
				<polygon style="fill:#42A5C1;" points="418.572,310.268 252.677,310.268 251.462,283.873 417.357,283.873 				"/>
				<g>
					<polygon style="fill:#FFFFFF;stroke:#95AAEA;stroke-width:0.8504;stroke-miterlimit:10;" points="285.555,338.722 
						265.003,338.722 264.154,320.289 284.706,320.289 					"/>
					<polygon style="fill:#FFFFFF;stroke:#95AAEA;stroke-width:0.8504;stroke-miterlimit:10;" points="306.107,338.722 
						285.555,338.722 284.706,320.289 305.258,320.289 					"/>
					<polygon style="fill:#FFFFFF;stroke:#95AAEA;stroke-width:0.8504;stroke-miterlimit:10;" points="326.659,338.722 
						306.107,338.722 305.258,320.289 325.81,320.289 					"/>
					<polygon style="fill:#FFFFFF;stroke:#95AAEA;stroke-width:0.8504;stroke-miterlimit:10;" points="347.211,338.722 
						326.659,338.722 325.81,320.289 346.362,320.289 					"/>
					<polygon style="fill:#FFFFFF;stroke:#95AAEA;stroke-width:0.8504;stroke-miterlimit:10;" points="367.763,338.722 
						347.211,338.722 346.362,320.289 366.915,320.289 					"/>
					<polygon style="fill:#FFFFFF;stroke:#95AAEA;stroke-width:0.8504;stroke-miterlimit:10;" points="388.316,338.722 
						367.763,338.722 366.915,320.289 387.467,320.289 					"/>
					<polygon style="fill:#FFFFFF;stroke:#95AAEA;stroke-width:0.8504;stroke-miterlimit:10;" points="408.868,338.722 
						388.316,338.722 387.467,320.289 408.019,320.289 					"/>
					<polygon style="fill:#FFFFFF;stroke:#95AAEA;stroke-width:0.8504;stroke-miterlimit:10;" points="286.404,357.155 
						265.851,357.155 265.003,338.722 285.555,338.722 					"/>
					<polygon style="fill:#FFFFFF;stroke:#95AAEA;stroke-width:0.8504;stroke-miterlimit:10;" points="306.956,357.155 
						286.404,357.155 285.555,338.722 306.107,338.722 					"/>
					<polygon style="fill:#FFFFFF;stroke:#95AAEA;stroke-width:0.8504;stroke-miterlimit:10;" points="327.508,357.155 
						306.956,357.155 306.107,338.722 326.659,338.722 					"/>
					<polygon style="fill:#FFFFFF;stroke:#95AAEA;stroke-width:0.8504;stroke-miterlimit:10;" points="348.06,357.155 
						327.508,357.155 326.659,338.722 347.211,338.722 					"/>
					<polygon style="fill:#FFFFFF;stroke:#95AAEA;stroke-width:0.8504;stroke-miterlimit:10;" points="368.612,357.155 
						348.06,357.155 347.211,338.722 367.763,338.722 					"/>
					<polygon style="fill:#FFFFFF;stroke:#95AAEA;stroke-width:0.8504;stroke-miterlimit:10;" points="389.165,357.155 
						368.612,357.155 367.763,338.722 388.316,338.722 					"/>
					<polygon style="fill:#FFFFFF;stroke:#95AAEA;stroke-width:0.8504;stroke-miterlimit:10;" points="409.717,357.155 
						389.165,357.155 388.316,338.722 408.868,338.722 					"/>
					<polygon style="fill:#FFFFFF;stroke:#95AAEA;stroke-width:0.8504;stroke-miterlimit:10;" points="287.252,375.588 
						266.7,375.588 265.851,357.155 286.404,357.155 					"/>
					<polygon style="fill:#FFFFFF;stroke:#95AAEA;stroke-width:0.8504;stroke-miterlimit:10;" points="307.805,375.588 
						287.252,375.588 286.404,357.155 306.956,357.155 					"/>
					<polygon style="fill:#FFFFFF;stroke:#95AAEA;stroke-width:0.8504;stroke-miterlimit:10;" points="328.357,375.588 
						307.805,375.588 306.956,357.155 327.508,357.155 					"/>
					<polygon style="fill:#FFFFFF;stroke:#95AAEA;stroke-width:0.8504;stroke-miterlimit:10;" points="348.909,375.588 
						328.357,375.588 327.508,357.155 348.06,357.155 					"/>
					<polygon style="fill:#FFFFFF;stroke:#95AAEA;stroke-width:0.8504;stroke-miterlimit:10;" points="369.461,375.588 
						348.909,375.588 348.06,357.155 368.612,357.155 					"/>
					<polygon style="fill:#FFFFFF;stroke:#95AAEA;stroke-width:0.8504;stroke-miterlimit:10;" points="390.013,375.588 
						369.461,375.588 368.612,357.155 389.165,357.155 					"/>
					<polygon style="fill:#FFFFFF;stroke:#95AAEA;stroke-width:0.8504;stroke-miterlimit:10;" points="410.566,375.588 
						390.013,375.588 389.165,357.155 409.717,357.155 					"/>
					<polygon style="fill:#FFFFFF;stroke:#95AAEA;stroke-width:0.8504;stroke-miterlimit:10;" points="288.101,394.02 
						267.549,394.02 266.7,375.588 287.252,375.588 					"/>
					<polygon style="fill:#FFFFFF;stroke:#95AAEA;stroke-width:0.8504;stroke-miterlimit:10;" points="308.654,394.02 
						288.101,394.02 287.252,375.588 307.805,375.588 					"/>
					<polygon style="fill:#FFFFFF;stroke:#95AAEA;stroke-width:0.8504;stroke-miterlimit:10;" points="329.206,394.02 
						308.654,394.02 307.805,375.588 328.357,375.588 					"/>
					<polygon style="fill:#FFFFFF;stroke:#95AAEA;stroke-width:0.8504;stroke-miterlimit:10;" points="349.758,394.02 
						329.206,394.02 328.357,375.588 348.909,375.588 					"/>
					<polygon style="fill:#FFFFFF;stroke:#95AAEA;stroke-width:0.8504;stroke-miterlimit:10;" points="370.31,394.02 
						349.758,394.02 348.909,375.588 369.461,375.588 					"/>
					<polygon style="fill:#FFFFFF;stroke:#95AAEA;stroke-width:0.8504;stroke-miterlimit:10;" points="390.862,394.02 
						370.31,394.02 369.461,375.588 390.013,375.588 					"/>
					<polygon style="fill:#FFFFFF;stroke:#95AAEA;stroke-width:0.8504;stroke-miterlimit:10;" points="411.415,394.02 
						390.862,394.02 390.013,375.588 410.566,375.588 					"/>
					<polygon style="fill:#FFFFFF;stroke:#95AAEA;stroke-width:0.8504;stroke-miterlimit:10;" points="288.95,412.453 
						268.398,412.453 267.549,394.02 288.101,394.02 					"/>
					<polygon style="fill:#FFFFFF;stroke:#95AAEA;stroke-width:0.8504;stroke-miterlimit:10;" points="309.502,412.453 
						288.95,412.453 288.101,394.02 308.654,394.02 					"/>
					<polygon style="fill:#FFFFFF;stroke:#95AAEA;stroke-width:0.8504;stroke-miterlimit:10;" points="330.055,412.453 
						309.502,412.453 308.654,394.02 329.206,394.02 					"/>
					<polygon style="fill:#FFFFFF;stroke:#95AAEA;stroke-width:0.8504;stroke-miterlimit:10;" points="350.607,412.453 
						330.055,412.453 329.206,394.02 349.758,394.02 					"/>
					<polygon style="fill:#FFFFFF;stroke:#95AAEA;stroke-width:0.8504;stroke-miterlimit:10;" points="371.159,412.453 
						350.607,412.453 349.758,394.02 370.31,394.02 					"/>
					<polygon style="fill:#FFFFFF;stroke:#95AAEA;stroke-width:0.8504;stroke-miterlimit:10;" points="391.711,412.453 
						371.159,412.453 370.31,394.02 390.862,394.02 					"/>
					<polygon style="fill:#FFFFFF;stroke:#95AAEA;stroke-width:0.8504;stroke-miterlimit:10;" points="412.263,412.453 
						391.711,412.453 390.862,394.02 411.415,394.02 					"/>
				</g>
				<path style="fill:#337E94;" d="M276.772,293.461c0,1.911-0.879,3.461-1.964,3.461c-1.085,0-1.964-1.549-1.964-3.461
					s0.879-3.461,1.964-3.461C275.892,290,276.772,291.549,276.772,293.461z"/>
				<path style="fill:#103E56;" d="M275.491,294.789c-0.689,0-1.248-0.558-1.248-1.247c0-0.689,0.559-1.248,1.248-1.248
					c0.801,0,2.68-3.098,2.68-9.107c0-6.008-1.879-9.106-2.68-9.106c-0.689,0-1.248-0.559-1.248-1.248
					c0-0.689,0.559-1.248,1.248-1.248c3.398,0,5.176,5.837,5.176,11.603C280.667,288.953,278.889,294.789,275.491,294.789z"/>
				<path style="fill:#337E94;" d="M291.786,293.461c0,1.911-0.879,3.461-1.964,3.461c-1.085,0-1.964-1.549-1.964-3.461
					s0.879-3.461,1.964-3.461C290.906,290,291.786,291.549,291.786,293.461z"/>
				<path style="fill:#103E56;" d="M290.505,294.789c-0.689,0-1.248-0.558-1.248-1.247c0-0.689,0.559-1.248,1.248-1.248
					c0.801,0,2.68-3.098,2.68-9.107c0-6.008-1.879-9.106-2.68-9.106c-0.689,0-1.248-0.559-1.248-1.248
					c0-0.689,0.559-1.248,1.248-1.248c3.398,0,5.176,5.837,5.176,11.603C295.681,288.953,293.903,294.789,290.505,294.789z"/>
				<path style="fill:#337E94;" d="M306.8,293.461c0,1.911-0.879,3.461-1.964,3.461c-1.085,0-1.964-1.549-1.964-3.461
					s0.879-3.461,1.964-3.461C305.921,290,306.8,291.549,306.8,293.461z"/>
				<path style="fill:#103E56;" d="M305.52,294.789c-0.689,0-1.248-0.558-1.248-1.247c0-0.689,0.559-1.248,1.248-1.248
					c0.801,0,2.68-3.098,2.68-9.107c0-6.008-1.879-9.106-2.68-9.106c-0.689,0-1.248-0.559-1.248-1.248
					c0-0.689,0.559-1.248,1.248-1.248c3.398,0,5.176,5.837,5.176,11.603C310.696,288.953,308.918,294.789,305.52,294.789z"/>
				<path style="fill:#337E94;" d="M321.814,293.461c0,1.911-0.879,3.461-1.964,3.461c-1.085,0-1.964-1.549-1.964-3.461
					S318.765,290,319.85,290C320.935,290,321.814,291.549,321.814,293.461z"/>
				<path style="fill:#103E56;" d="M320.534,294.789c-0.689,0-1.248-0.558-1.248-1.247c0-0.689,0.559-1.248,1.248-1.248
					c0.801,0,2.68-3.098,2.68-9.107c0-6.008-1.879-9.106-2.68-9.106c-0.689,0-1.248-0.559-1.248-1.248
					c0-0.689,0.559-1.248,1.248-1.248c3.398,0,5.176,5.837,5.176,11.603C325.71,288.953,323.932,294.789,320.534,294.789z"/>
				<path style="fill:#337E94;" d="M336.828,293.461c0,1.911-0.879,3.461-1.964,3.461c-1.085,0-1.964-1.549-1.964-3.461
					S333.78,290,334.864,290C335.949,290,336.828,291.549,336.828,293.461z"/>
				<path style="fill:#103E56;" d="M335.548,294.789c-0.689,0-1.248-0.558-1.248-1.247c0-0.689,0.559-1.248,1.248-1.248
					c0.801,0,2.68-3.098,2.68-9.107c0-6.008-1.879-9.106-2.68-9.106c-0.689,0-1.248-0.559-1.248-1.248
					c0-0.689,0.559-1.248,1.248-1.248c3.398,0,5.176,5.837,5.176,11.603C340.724,288.953,338.946,294.789,335.548,294.789z"/>
				<path style="fill:#337E94;" d="M351.843,293.461c0,1.911-0.879,3.461-1.964,3.461c-1.085,0-1.964-1.549-1.964-3.461
					s0.879-3.461,1.964-3.461C350.963,290,351.843,291.549,351.843,293.461z"/>
				<path style="fill:#103E56;" d="M350.562,294.789c-0.689,0-1.248-0.558-1.248-1.247c0-0.689,0.559-1.248,1.248-1.248
					c0.801,0,2.68-3.098,2.68-9.107c0-6.008-1.879-9.106-2.68-9.106c-0.689,0-1.248-0.559-1.248-1.248
					c0-0.689,0.559-1.248,1.248-1.248c3.398,0,5.176,5.837,5.176,11.603C355.738,288.953,353.96,294.789,350.562,294.789z"/>
				<path style="fill:#337E94;" d="M366.857,293.461c0,1.911-0.879,3.461-1.964,3.461c-1.085,0-1.964-1.549-1.964-3.461
					s0.879-3.461,1.964-3.461C365.978,290,366.857,291.549,366.857,293.461z"/>
				<path style="fill:#103E56;" d="M365.577,294.789c-0.689,0-1.248-0.558-1.248-1.247c0-0.689,0.559-1.248,1.248-1.248
					c0.801,0,2.68-3.098,2.68-9.107c0-6.008-1.879-9.106-2.68-9.106c-0.689,0-1.248-0.559-1.248-1.248
					c0-0.689,0.559-1.248,1.248-1.248c3.398,0,5.176,5.837,5.176,11.603C370.753,288.953,368.975,294.789,365.577,294.789z"/>
				<path style="fill:#337E94;" d="M381.871,293.461c0,1.911-0.879,3.461-1.964,3.461c-1.085,0-1.964-1.549-1.964-3.461
					s0.879-3.461,1.964-3.461C380.992,290,381.871,291.549,381.871,293.461z"/>
				<path style="fill:#103E56;" d="M380.591,294.789c-0.689,0-1.248-0.558-1.248-1.247c0-0.689,0.559-1.248,1.248-1.248
					c0.801,0,2.68-3.098,2.68-9.107c0-6.008-1.879-9.106-2.68-9.106c-0.689,0-1.248-0.559-1.248-1.248
					c0-0.689,0.559-1.248,1.248-1.248c3.398,0,5.176,5.837,5.176,11.603C385.767,288.953,383.989,294.789,380.591,294.789z"/>
				<path style="fill:#337E94;" d="M396.885,293.461c0,1.911-0.879,3.461-1.964,3.461c-1.085,0-1.964-1.549-1.964-3.461
					s0.879-3.461,1.964-3.461C396.006,290,396.885,291.549,396.885,293.461z"/>
				<path style="fill:#103E56;" d="M395.605,294.789c-0.689,0-1.248-0.558-1.248-1.247c0-0.689,0.559-1.248,1.248-1.248
					c0.801,0,2.68-3.098,2.68-9.107c0-6.008-1.879-9.106-2.68-9.106c-0.689,0-1.248-0.559-1.248-1.248
					c0-0.689,0.559-1.248,1.248-1.248c3.398,0,5.176,5.837,5.176,11.603C400.781,288.953,399.003,294.789,395.605,294.789z"/>
				<path style="fill:none;stroke:#EE90AB;stroke-width:2.8347;stroke-miterlimit:10;" d="M384.23,384.924
					c2.331-2.685,0.973-7.337-2.133-9.069c-6.951-3.877-16.148,3.975-14.995,11.319c1.954,12.449,23.325,11.316,24.609-1.17
					c0.624-6.073-2.073-13.731-7.221-17.3"/>
			</g>
		</g>
		<g>
			<path style="opacity:0.15;fill:#C6223D;" d="M227.684,421.871c0,2.281-33.504,4.131-74.833,4.131s-74.833-1.85-74.833-4.131
				s33.504-4.131,74.833-4.131S227.684,419.59,227.684,421.871z"/>
			<g>
				<path style="fill:#B3C2FC;" d="M190.101,241.066c14.554-8.497,23.653-23.93,23.653-40.783v-55.816H99.69v55.816
					c0,16.778,8.947,32.282,23.473,40.678h0c2.743,1.585,5.287,3.424,7.609,5.477c19.1,16.885,19.099,47.346-0.001,64.231
					c-2.322,2.053-4.866,3.892-7.609,5.477l0,0c-14.526,8.396-23.473,23.9-23.473,40.678v55.816h114.064v-55.816
					c0-16.778-8.947-32.282-23.473-40.678v0c-1.456-0.841-2.856-1.754-4.196-2.733c-22.591-16.49-23.644-50.568-1.948-68.218
					C185.999,243.681,187.99,242.298,190.101,241.066z"/>
				<path style="fill:#D6E1FE;" d="M204.807,214.276c1.657-4.436,2.562-9.163,2.562-13.994v-49.431H106.074v49.431
					c0,0.768,0.034,1.532,0.077,2.294C134.919,221.495,170.617,223.23,204.807,214.276z"/>
				<path style="fill:#FE88B1;" d="M180.108,240.242c2.128-1.732,4.409-3.309,6.773-4.688c8.39-4.899,14.652-12.511,17.925-21.277
					c-30.699-10.212-66.335-12.289-98.656-11.7c0.774,13.569,8.361,26.011,20.207,32.858c3.075,1.777,5.983,3.869,8.644,6.221
					c8.999,7.957,14.687,19.008,16.111,30.964c0.306,2.569,2.22,4.672,4.781,5.037c0.036,0.005,0.071,0.01,0.107,0.015
					c3.177,0.452,6.081-1.798,6.441-4.987C163.879,259.946,170.098,248.386,180.108,240.242z"/>
				<path style="fill:#E34673;" d="M180.108,240.242c2.128-1.732,4.409-3.309,6.773-4.688c8.39-4.899,14.652-12.511,17.925-21.277
					c-34.189,8.953-69.887,7.219-98.656-11.7c0.774,13.569,8.361,26.011,20.207,32.858c3.075,1.777,5.983,3.869,8.644,6.221
					c8.999,7.957,14.687,19.008,16.111,30.964c0.306,2.569,2.22,4.672,4.781,5.037c0.036,0.005,0.071,0.01,0.107,0.015
					c3.177,0.452,6.081-1.798,6.441-4.987C163.879,259.946,170.098,248.386,180.108,240.242z"/>
				<path style="fill:#FE88B1;" d="M114.21,332.487c-5.182,6.925-8.136,15.442-8.136,24.338v49.431h101.295v-49.431
					c0-7.117-1.893-13.991-5.301-20.004C175.979,327.635,145.354,325.482,114.21,332.487z"/>
				<path style="fill:#E34673;" d="M114.21,332.487c-5.182,6.925-8.136,15.442-8.136,24.338v49.431h101.295v-49.431
					c0-7.117-1.893-13.991-5.301-20.004C172.647,342.402,141.816,341.163,114.21,332.487z"/>
				<rect x="95.604" y="136.113" style="fill:#A35141;" width="122.235" height="16.709"/>
				
					<rect x="95.604" y="404.286" transform="matrix(-1 -1.224647e-16 1.224647e-16 -1 313.4433 825.2816)" style="fill:#A35141;" width="122.235" height="16.709"/>
				<path style="fill:#E34673;" d="M155.641,292.341c0,1.266-1.026,2.292-2.292,2.292c-1.266,0-2.292-1.026-2.292-2.292
					c0-1.266,1.026-2.292,2.292-2.292C154.615,290.049,155.641,291.075,155.641,292.341z"/>
				<path style="fill:#E34673;" d="M158.698,303.65c0,2.11-1.711,3.82-3.82,3.82s-3.82-1.71-3.82-3.82c0-2.11,1.711-3.82,3.82-3.82
					S158.698,301.54,158.698,303.65z"/>
				<path style="fill:#E34673;" d="M161.306,284.089c0,1.266-1.026,2.292-2.292,2.292c-1.266,0-2.292-1.026-2.292-2.292
					c0-1.266,1.026-2.292,2.292-2.292C160.28,281.797,161.306,282.823,161.306,284.089z"/>
				<path style="fill:#E34673;" d="M153.349,284.089c0,1.266-1.026,2.292-2.292,2.292c-1.266,0-2.292-1.026-2.292-2.292
					c0-1.266,1.026-2.292,2.292-2.292C152.323,281.797,153.349,282.823,153.349,284.089z"/>
				<circle style="fill:#E34673;" cx="161.066" cy="294.71" r="2.369"/>
				<circle style="fill:#E34673;" cx="161.83" cy="312.054" r="3.056"/>
				<path style="fill:#E34673;" d="M155.641,316.944c0,2.701-2.189,4.89-4.89,4.89c-2.701,0-4.89-2.189-4.89-4.89
					c0-2.701,2.189-4.89,4.89-4.89C153.452,312.054,155.641,314.244,155.641,316.944z"/>
				
					<line style="fill:none;stroke:#5B171D;stroke-width:0.8504;stroke-miterlimit:10;" x1="95.604" y1="148.259" x2="217.839" y2="148.259"/>
				
					<line style="fill:none;stroke:#5B171D;stroke-width:0.8504;stroke-miterlimit:10;" x1="95.604" y1="408.017" x2="217.839" y2="408.017"/>
			</g>
		</g>
		<path style="fill:#E96B8F;" d="M309.502,429.621c0,0-1.331-15.068,7.305-25.335c7.615,8.167,5.691,16.708,5.691,16.708
			s2.647-15.007,11.732-20.991c6.021,10.213,0.274,25.995,0.274,25.995s3.436-12.523,16.336-17.982
			c3.709,12.978-6.404,21.604-6.404,21.604H309.502z"/>
		<g>
			<g>
				<path style="fill:#FFFFFF;" d="M78.4,101.918L78.4,101.918c8.96,0.143,17.919,0.286,26.879,0.43
					c5.712,0.091,11.437,0.182,17.124-0.347c5.207-0.485,10.368-1.488,15.594-1.691c9.416-0.365,18.744,1.874,28.163,2.158
					c2.119,0.064,4.298,0.018,6.268-0.767c1.97-0.785,3.71-2.452,4.029-4.548c0.507-3.333-2.682-6.187-5.935-7.073
					c-3.253-0.886-6.728-0.519-10.025-1.226c-10.965-2.351-17.175-15.642-28.246-17.425c-6.424-1.035-12.832,2.225-17.746,6.491
					c-1.73,1.502-3.466,3.205-5.707,3.679c-2.517,0.533-5.044-0.607-7.431-1.566c-4.421-1.776-9.757-2.919-13.714-0.266
					c-2.216,1.486-3.641,3.965-5.916,5.361c-1.867,1.146-4.111,1.445-6.247,1.936C64.795,89.518,68.843,101.765,78.4,101.918z"/>
			</g>
			<g>
				<path style="fill:#FFFFFF;" d="M275.721,121.142c5.087,0.326,10.173-0.394,15.239-0.959c8.157-0.911,16.357-1.428,24.564-1.549
					c8.468-0.124,16.936,0.173,25.399,0.47c14.405,0.506,28.867,1.01,43.2-0.508c1.279-0.135,2.62-0.311,3.656-1.073
					c1.036-0.761,1.611-2.309,0.889-3.373c-0.46-0.677-1.294-0.981-2.087-1.181c-5.297-1.332-11.197,0.181-16.152-2.116
					c-4.244-1.967-6.803-6.258-9.805-9.845c-3.002-3.587-7.532-6.847-12.024-5.544c-2.259,0.655-4.033,2.352-5.919,3.758
					c-1.885,1.406-4.232,2.604-6.511,2.024c-2.751-0.699-4.216-3.598-5.545-6.105c-2.808-5.294-6.507-10.114-10.894-14.196
					c-3.962-3.686-9.096-6.924-14.441-6.08c-4.042,0.638-7.393,3.53-9.853,6.8c-2.46,3.27-4.252,6.997-6.638,10.322
					c-1.088,1.516-2.417,3.024-4.221,3.498c-2.682,0.705-5.312-1.068-7.62-2.603c-2.309-1.535-5.313-2.942-7.724-1.573
					c-3.526,2.002-2.445,7.892-5.553,10.495c-1.348,1.129-3.28,1.426-4.515,2.677l0,0c-2.857,2.896-0.223,9.081,2.233,11.572
					C264.85,119.554,271.049,120.842,275.721,121.142z"/>
			</g>
			<g>
				<path style="fill:#FFFFFF;" d="M432.547,69.082L432.547,69.082c2.32,0.035,5.094-0.174,6.237-2.193
					c1.056-1.865-0.037-4.359-1.814-5.557c-1.777-1.198-4.016-1.424-6.154-1.578c-7.526-0.542-15.692-0.836-21.525-5.622
					c-2.494-2.046-4.349-4.773-6.784-6.888c-2.435-2.115-5.852-3.606-8.872-2.474c-3.351,1.257-5.269,5.366-8.809,5.891
					c-4.354,0.646-7.89-4.579-12.267-4.116c-2.388,0.253-4.22,2.132-6.248,3.416c-4.388,2.779-13.711,1.527-16.697,5.684
					c-2.555,3.558,1.097,9.009,4.161,10.902c5.535,3.42,15.469,1.57,21.738,1.666c8.974,0.137,17.947,0.273,26.92,0.41
					C412.471,68.776,422.509,68.929,432.547,69.082z"/>
			</g>
		</g>
	</g>
</g>
<g id="OBJECTS">
	<g>
		<path style="opacity:0.15;fill:#C6223D;" d="M290.505,447.05c0.401,4.772-16.555,11.196-31.573,12.571
			c-11.169,1.023-11.115-1.826-29.067-3.173c-21.505-1.614-30.177,1.737-47.969-3.384c-6.152-1.77-12.729-3.663-12.671-6.015
			c0.13-5.249,33.24-9.398,60.64-9.398C253.376,437.652,289.927,440.174,290.505,447.05z"/>
		<path style="fill:#E7B73E;" d="M223.558,112.174c-14.727,7.401-54.685,67.039-38.354,90.493
			c16.33,23.453,48.271-33.926,48.371-47.825C233.674,140.944,223.558,112.174,223.558,112.174z"/>
		<path style="fill:#E7B73E;" d="M275.37,109.7c14.727,7.401,61.457,66.278,35.647,96.219
			c-23.736,27.535-45.564-39.653-45.663-53.551C265.254,138.469,275.37,109.7,275.37,109.7z"/>
		<path style="fill:#F5804E;" d="M205.694,434.461c4.47-3.701,3.245-10.021-1.438-11.159c0.911-0.753-1.419-40.81-1.419-40.81
			l18.619-1.204l-4.534,44.519c0,0,1.186,4.027,1.388,6.082C216.31,434.892,215.265,435.076,205.694,434.461z"/>
		<path style="fill:#285167;" d="M201.878,445.43c9.623-5.031,9.9-6.657,16.526-7.778c-0.05,0.938-0.138,1.845-0.277,2.693
			c-8.418,3.842-30.265,18.479-33.468,3.873C189.288,446.978,195.441,447.944,201.878,445.43z"/>
		<path style="fill:#103E56;" d="M204.256,423.302c8.666,0.254,4.998,11.615,6.445,11.549c3.788-0.173,6.13-1.543,7.609-2.96
			c0.137,1.917,0.192,3.902,0.093,5.761c-6.626,1.121-6.903,2.747-16.526,7.778c-6.062,3.169-15.087,2.897-16.966-0.592
			C182.208,439.816,194.25,431.576,204.256,423.302z"/>
		<path style="fill:#F5804E;" d="M254.707,432.494c0.535-3.627,1.102-7.056,0.897-9.987c-0.549-7.865-1.551-34.521-1.551-34.521
			l19.977,1.078c0,0-7.766,28.541-3.01,41.009c0.06,0.155,0.107,0.295,0.165,0.447C269.671,442.83,256.05,442.516,254.707,432.494z"
			/>
		<path style="fill:#285167;" d="M273.913,448.53c-0.371,1.209-0.907,2.248-1.56,3.198c-2.657,3.865-11.262,8.63-16.235-0.643
			c-0.131-0.245-0.229-0.497-0.347-0.746C259.687,454.444,265.794,455.741,273.913,448.53z"/>
		<path style="fill:#103E56;" d="M254.707,432.494c0.415,0.186,0.859,0.444,1.34,0.804c2.74-8.222,11.339-8.743,13.245-0.513
			c1.047,0.022,1.482-0.933,1.892-2.266c3.428,9.121,3.849,14.357,2.729,18.011c-8.119,7.211-14.226,5.914-18.141,1.81
			C253.095,444.702,253.845,438.342,254.707,432.494z"/>
		<path style="fill:#3B749B;" d="M277.131,203.464c0,0,11.524,41.157,8.78,74.632c-2.744,33.475-0.221,114.296-0.221,114.296
			s-23.068,6.282-32.43,1.194c-0.358-40.242-5.763-86.877-5.763-92.717c0-5.84-2.744-45.822-2.744-45.822
			s-11.4,62.778-11.806,65.005c-0.406,2.226-6.059,76.387-6.059,76.387s-18.414,4.383-30.374-1.993
			c6.322-181.058,16.959-192.081,16.959-192.081L277.131,203.464z"/>
		<path style="fill:none;stroke:#103E56;stroke-width:0.8504;stroke-miterlimit:10;" d="M285.176,375.986
			c-0.007-0.233-15.731,6.194-32.248,3.382"/>
		<path style="fill:none;stroke:#103E56;stroke-width:0.8504;stroke-miterlimit:10;" d="M280.036,377.505
			c0,0,4.215-110.617-1.706-142.413"/>
		<path style="fill:none;stroke:#103E56;stroke-width:0.8504;stroke-miterlimit:10;" d="M228.171,379.722
			c0,0-22.015,4.009-31.174-0.798"/>
		<path style="fill:none;stroke:#103E56;stroke-width:0.8504;stroke-miterlimit:10;" d="M219.527,380.281
			c0,0,12.962-109.668,25.115-122.758l9.263-1.497"/>
		<path style="fill:none;stroke:#285167;stroke-width:0.8504;stroke-miterlimit:10;" d="M274.467,444.11
			c-5.083-7.133-18.72-4.631-20.241,1.154"/>
		<path style="fill:none;stroke:#285167;stroke-width:0.8504;stroke-miterlimit:10;" d="M202.837,444.447
			c-1.294-8.426-7.857-11.249-11.178-10.836"/>
		<path style="fill:#E7B73E;" d="M211.727,213.389c3.561-21.817,9.092-56.983,2.577-70.186c-6.515-13.203-1.579-32.09,23.983-35.219
			c25.562-3.129,36.214-0.307,46.29,8.77c10.076,9.077-11.425,35.484-9.013,55.636c2.412,20.152,8.318,39.263,8.318,39.263
			S262.6,230.588,211.727,213.389z"/>
		<g>
			<defs>
				<path id="SVGID_3_" d="M285.83,118.241c-0.351-0.533-0.753-1.038-1.253-1.488c-0.771-0.694-1.546-1.348-2.33-1.969
					c-2.66-2.403-5.022-4.153-6.876-5.084c0,0-0.082,0.235-0.226,0.653c-8.224-3.819-18.831-4.576-36.858-2.37
					c-5.962,0.73-10.788,2.325-14.622,4.496c-0.068-0.196-0.106-0.305-0.106-0.305c-14.727,7.401-54.685,67.039-38.354,90.493
					c7.965,11.44,19.644,3.646,29.53-8.951c-0.965,7.06-2.056,13.844-3.007,19.673c50.873,17.199,72.155-1.737,72.155-1.737
					s-2.094-6.776-4.298-16.512c8.409,14.831,19.687,24.406,31.433,10.779C332.18,181.368,304.576,137.371,285.83,118.241z"/>
			</defs>
			<clipPath id="SVGID_00000178924957267007836790000009920568951680724408_">
				<use xlink:href="#SVGID_3_"  style="overflow:visible;"/>
			</clipPath>
			<g style="clip-path:url(#SVGID_00000178924957267007836790000009920568951680724408_);">
				<path style="opacity:0.5;fill:none;stroke:#FFFFFF;stroke-width:0.8504;stroke-miterlimit:10;" d="M197.327,130.328
					c4.729-4.994,12.46-6.053,19.19-4.634c6.73,1.419,12.802,4.914,18.975,7.946c6.173,3.032,12.844,5.693,19.706,5.238
					c13.205-0.876,23.075-12.724,35.787-16.401c11.149-3.224,24.03,0.708,31.477,9.609"/>
				<path style="opacity:0.5;fill:none;stroke:#FFFFFF;stroke-width:0.8504;stroke-miterlimit:10;" d="M186.222,150.814
					c5.923-5.404,14.672-6.666,22.609-5.528c7.937,1.138,15.396,4.359,22.986,6.944c7.59,2.584,15.697,4.566,23.582,3.111
					c6.745-1.244,12.756-4.891,18.858-8.022c8.201-4.208,17.138-7.635,26.35-7.331c9.213,0.304,18.737,5.052,22.526,13.455"/>
				<path style="opacity:0.5;fill:none;stroke:#FFFFFF;stroke-width:0.8504;stroke-miterlimit:10;" d="M187.035,142.64
					c5.923-5.404,14.672-6.666,22.609-5.528c7.937,1.138,15.396,4.359,22.986,6.944c7.59,2.584,15.697,4.565,23.582,3.111
					c6.745-1.244,12.755-4.89,18.858-8.022c8.201-4.208,17.138-7.635,26.351-7.331c9.213,0.304,18.737,5.052,22.526,13.455"/>
				<path style="opacity:0.5;fill:none;stroke:#FFFFFF;stroke-width:0.8504;stroke-miterlimit:10;" d="M179.82,164.058
					c12.028-4.94,25.735-1.425,38.019,2.84c12.284,4.264,25.048,9.321,37.887,7.259c11.393-1.83,21.261-9.079,32.515-11.626
					c8.858-2.005,18.383-0.93,26.571,2.998c8.189,3.929,14.987,10.686,18.966,18.85"/>
				<path style="opacity:0.5;fill:none;stroke:#FFFFFF;stroke-width:0.8504;stroke-miterlimit:10;" d="M176.926,154.778
					c12.028-4.94,25.735-1.425,38.019,2.84c12.284,4.265,25.048,9.321,37.887,7.259c11.393-1.83,21.261-9.079,32.515-11.626
					c8.858-2.005,18.383-0.93,26.571,2.998c8.189,3.929,14.987,10.686,18.966,18.85"/>
				<path style="opacity:0.5;fill:none;stroke:#FFFFFF;stroke-width:0.8504;stroke-miterlimit:10;" d="M176.684,174.054
					c3.269,7.712,12.371,11.213,20.724,11.84c8.352,0.627,16.855-0.78,25.073,0.839c7.82,1.54,14.95,5.746,22.817,7.022
					c9.772,1.586,19.647-1.479,28.993-4.742c9.346-3.263,18.941-6.817,28.824-6.235c9.883,0.582,20.223,6.557,22.439,16.206"/>
				<path style="opacity:0.5;fill:none;stroke:#FFFFFF;stroke-width:0.8504;stroke-miterlimit:10;" d="M178.935,165.309
					c3.269,7.712,12.371,11.214,20.724,11.84c8.352,0.627,16.855-0.78,25.073,0.839c7.819,1.54,14.95,5.746,22.817,7.022
					c9.772,1.586,19.647-1.479,28.993-4.742c9.346-3.263,18.941-6.817,28.824-6.235c9.883,0.582,20.223,6.557,22.439,16.206"/>
				<path style="opacity:0.5;fill:none;stroke:#FFFFFF;stroke-width:0.8504;stroke-miterlimit:10;" d="M177.395,194.282
					c3.836,3.637,9.368,4.911,14.651,5.065c5.283,0.154,10.559-0.661,15.842-0.526c9.875,0.253,19.32,3.789,28.732,6.787
					c9.412,2.998,19.382,5.515,29.088,3.676c11.151-2.113,21.403-9.864,32.667-8.472c9.56,1.182,17.65,9.812,18.212,19.429"/>
				<path style="opacity:0.5;fill:none;stroke:#FFFFFF;stroke-width:0.8504;stroke-miterlimit:10;" d="M180.404,185.431
					c3.836,3.637,9.368,4.912,14.651,5.065s10.559-0.661,15.842-0.525c9.875,0.253,19.32,3.789,28.732,6.787
					c9.412,2.998,19.383,5.515,29.088,3.676c11.152-2.113,21.403-9.864,32.667-8.472c9.56,1.182,17.65,9.812,18.212,19.429"/>
			</g>
		</g>
		<path style="fill:#733430;" d="M250.551,43.83c-8.147-0.13-16.033,4.821-17.758,11.466c-1.725,6.645-7.115,12.49-2.53,26.115
			c4.584,13.625-22.977,20.27,3.312,32.127c26.289,11.857,44.14-0.391,38.667-12.248c-5.473-11.857,3.519-20.772,2.476-34.406
			C273.65,52.95,271.336,41.615,250.551,43.83z"/>
		<path style="fill:#F5804E;" d="M242.107,103.09c0,0-17.492,8.618-18.549,9.084c-1.057,0.466,1.756,14.674,25.612,16.771
			c23.856,2.096,26.393-19.082,26.393-19.082l-19.582-8.171L242.107,103.09z"/>
		<g>
			<path style="fill:#F5804E;" d="M260.011,85.483v21.909c0,0-6.901,7.225-18.921-0.466c0.445-17.247,0.445-17.247,0.445-17.247"/>
			<path style="fill:#F5804E;" d="M269.471,72.664c-0.223,9.09-11.353,22.271-18.921,22.737
				c-7.568,0.466-16.027-12.016-16.918-23.903c-0.89-11.887,8.588-26.489,18.605-25.324C262.255,47.34,271.03,56.582,269.471,72.664
				z"/>
			<path style="fill:#F5804E;" d="M268.371,69.613c2.508-5.127,5.574,0.395,5.257,3.253c-0.317,2.858-2.803,9.859-6.066,6.669"/>
			<path style="fill:#F5804E;" d="M235.541,69.613c-2.508-5.127-5.574,0.395-5.257,3.253c0.317,2.858,2.803,9.859,6.066,6.669"/>
			<path style="fill:#3D1E1C;" d="M257.043,70.918c0,0.745,0.604,1.349,1.349,1.349c0.745,0,1.349-0.604,1.349-1.349
				c0-0.745-0.604-1.349-1.349-1.349C257.647,69.569,257.043,70.173,257.043,70.918z"/>
			<path style="fill:#3D1E1C;" d="M243.274,70.918c0,0.745,0.604,1.349,1.349,1.349c0.745,0,1.349-0.604,1.349-1.349
				c0-0.745-0.604-1.349-1.349-1.349C243.878,69.569,243.274,70.173,243.274,70.918z"/>
			<path style="fill:none;stroke:#A14722;stroke-width:0.8504;stroke-miterlimit:10;" d="M251.613,72.267
				c0,0-0.302,0.598,0.977,2.436c1.279,1.838,1.118,3.303-1.484,3.877"/>
			<path style="fill:none;stroke:#A14722;stroke-width:0.8504;stroke-miterlimit:10;" d="M255.491,82.134
				c0,0-3.878,0.447-7.816-0.723"/>
			<path style="fill:none;stroke:#A14722;stroke-width:0.8504;stroke-miterlimit:10;" d="M259.556,67.825
				c0,0-0.895-0.716-2.267-0.298"/>
			<path style="fill:none;stroke:#A14722;stroke-width:0.8504;stroke-miterlimit:10;" d="M245.635,67.101c0,0-0.806-0.489-1.999,0"
				/>
			<path style="fill:none;stroke:#A14722;stroke-width:0.8504;stroke-miterlimit:10;" d="M259.95,90.204
				c-3.134,2.971-6.497,3.611-9.399,3.79c-3.053,0.188-6.914-1.384-9.102-3.46"/>
		</g>
		<path style="fill:#733430;" d="M232.762,66.884c0,0-0.199,5.88,0.813,7.049c1.012,1.168,1.985,7.944,0,10.81
			c5.442-3.909,5.051-12.248,3.878-16.287c-1.173-4.039,3.638-8.991,3.638-8.991s17.08,7.802,25.288,7.419
			c-1.694,8.477-3.367,16.947,1.183,19.683c-0.664-5.413,2.451-16.026,3.044-21.629c0.593-5.603-2.231-18.241-17.236-19.935
			C238.364,43.308,230.811,54.624,232.762,66.884z"/>
		<path style="fill:none;stroke:#301816;stroke-width:0.8504;stroke-miterlimit:10;" d="M241.449,53.081
			c0,0,11.248,9.512,23.757,9.121"/>
		<path style="fill:none;stroke:#301816;stroke-width:0.8504;stroke-miterlimit:10;" d="M245.972,51.257
			c0,0,13.13,6.645,21.589,5.472"/>
		<path style="fill:none;stroke:#301816;stroke-width:0.8504;stroke-miterlimit:10;" d="M249.468,47.999
			c0,0,9.484,4.169,17.432,3.257"/>
		<path style="fill:none;stroke:#301816;stroke-width:0.8504;stroke-miterlimit:10;" d="M238.762,54.062
			c0,0-3.382,4.23-2.411,11.006"/>
		<path style="fill:none;stroke:#301816;stroke-width:0.8504;stroke-miterlimit:10;" d="M233.306,86.567
			c-0.154,0.782,0.189,2.897-3.044,7.442c-3.233,4.545-3.624,9.105-2.321,10.539"/>
		<path style="fill:none;stroke:#301816;stroke-width:0.8504;stroke-miterlimit:10;" d="M234.325,93.473
			c0,0-3.036,7.001-1.866,11.075"/>
		<path style="fill:none;stroke:#301816;stroke-width:0.8504;stroke-miterlimit:10;" d="M237.469,90.204
			c-0.277,0.272,1.971,5.875,0,9.914"/>
		<path style="fill:none;stroke:#301816;stroke-width:0.8504;stroke-miterlimit:10;" d="M266.899,88.652
			c0,0-1.824,7.427,1.824,12.117"/>
		<path style="fill:none;stroke:#301816;stroke-width:0.8504;stroke-miterlimit:10;" d="M262.6,92.691c0,0,0.782,8.209,3.844,10.945
			"/>
		
			<ellipse transform="matrix(0.2252 -0.9743 0.9743 0.2252 -25.9766 416.3264)" style="fill:#103E56;" cx="248.79" cy="224.497" rx="46.656" ry="46.656"/>
		
			<ellipse transform="matrix(0.2258 -0.9742 0.9742 0.2258 -26.095 416.1568)" style="fill:#FFFFFF;" cx="248.79" cy="224.497" rx="40.332" ry="40.332"/>
		<path style="fill:#C6E4EC;" d="M289.122,224.497c0-22.275-18.057-40.332-40.332-40.332v40.332H289.122z"/>
		<g>
			<rect x="247.197" y="186.784" style="fill:#103E56;" width="3.187" height="8.599"/>
			<rect x="247.197" y="253.61" style="fill:#103E56;" width="3.187" height="8.599"/>
		</g>
		<g>
			
				<rect x="231.561" y="191.261" transform="matrix(0.866 -0.5 0.5 0.866 -66.6868 142.2415)" style="fill:#103E56;" width="1.045" height="8.6"/>
			
				<rect x="264.974" y="249.133" transform="matrix(0.866 -0.5001 0.5001 0.866 -91.1539 166.7309)" style="fill:#103E56;" width="1.045" height="8.6"/>
		</g>
		<g>
			
				<rect x="219.331" y="203.491" transform="matrix(0.5 -0.866 0.866 0.5 -70.0247 294.2947)" style="fill:#103E56;" width="1.045" height="8.6"/>
			
				<rect x="277.204" y="236.904" transform="matrix(0.5001 -0.866 0.866 0.5001 -70.0346 361.0918)" style="fill:#103E56;" width="1.045" height="8.6"/>
		</g>
		<g>
			
				<rect x="219.331" y="236.904" transform="matrix(-0.5 -0.866 0.866 -0.5 120.892 552.2038)" style="fill:#103E56;" width="1.045" height="8.6"/>
			
				<rect x="277.204" y="203.491" transform="matrix(-0.5001 -0.866 0.866 -0.5001 236.6662 552.2073)" style="fill:#103E56;" width="1.045" height="8.6"/>
		</g>
		<g>
			
				<rect x="231.561" y="249.133" transform="matrix(-0.866 -0.5 0.5 -0.866 306.3582 588.9547)" style="fill:#103E56;" width="1.045" height="8.6"/>
			
				<rect x="264.974" y="191.261" transform="matrix(-0.866 -0.5001 0.5001 -0.866 397.6188 497.6798)" style="fill:#103E56;" width="1.045" height="8.6"/>
		</g>
		<g>
			
				<rect x="280.61" y="220.197" transform="matrix(-1.836970e-16 1 -1 -1.836970e-16 506.7 -57.7063)" style="fill:#103E56;" width="3.187" height="8.6"/>
			
				<rect x="213.784" y="220.197" transform="matrix(-1.836970e-16 1 -1 -1.836970e-16 439.8742 9.1195)" style="fill:#103E56;" width="3.187" height="8.599"/>
		</g>
		<g>
			<path style="fill:#F5804E;" d="M215.538,217.847c0,0,6.766,3.505,11.121,9.398c2.131,2.884-0.576,4.632-5.643-0.396
				c9.2,8.053,10.727,9.357,9.298,10.64c-1.912,1.715-7.977-5.294-7.977-5.294s7.547,6.703,6.02,8.151
				c-1.637,1.553-9.132-6.595-9.132-6.595s6.506,5.831,5.515,7.144c-0.991,1.314-8.48-5.589-8.48-5.589s6.262,4.595,4.885,5.839
				c-1.377,1.244-11.617-6.789-12.065-18.928C211.088,217.476,215.538,217.847,215.538,217.847z"/>
			<path style="fill:#F5804E;" d="M188.768,202.901l20.756,22.98l7.762-7.011l-16.329-25.309c-2.575-3.991-8.112-4.724-11.636-1.54
				h0C186.164,194.872,185.916,199.744,188.768,202.901z"/>
			
				<line style="fill:none;stroke:#A14722;stroke-width:0.8504;stroke-miterlimit:10;" x1="219.579" y1="226.701" x2="224.265" y2="229.695"/>
			
				<line style="fill:none;stroke:#A14722;stroke-width:0.8504;stroke-miterlimit:10;" x1="221.212" y1="232.453" x2="227.178" y2="236.808"/>
			
				<line style="fill:none;stroke:#A14722;stroke-width:0.8504;stroke-miterlimit:10;" x1="219.862" y1="235.246" x2="223.818" y2="238.185"/>
			<path style="fill:none;stroke:#A14722;stroke-width:0.8504;stroke-miterlimit:10;" d="M217.159,236.113
				c0,0,1.528,1.529,2.785,2.776"/>
		</g>
		<g>
			<path style="fill:#F5804E;" d="M282.642,214.545c0,0-6.795,3.45-11.197,9.307c-2.155,2.867,0.538,4.636,5.646-0.35
				c-9.266,7.978-10.503,8.475-9.084,9.769c1.898,1.731,7.72-4.435,7.72-4.435s-7.601,6.641-6.087,8.102
				c1.624,1.566,9.185-6.52,9.185-6.52s-6.553,5.778-5.573,7.099c0.981,1.322,8.525-5.519,8.525-5.519s-6.3,4.544-4.933,5.799
				c1.367,1.255,11.672-6.694,12.219-18.829C287.095,214.21,282.642,214.545,282.642,214.545z"/>
			<path style="fill:#F5804E;" d="M306.97,204.1l-19.049,18.776l-8.01-5.708l17.104-22.627c2.191-2.804,6.709-2.451,9.514,0.744l0,0
				C308.967,198.061,309.161,201.94,306.97,204.1z"/>
			
				<line style="fill:none;stroke:#A14722;stroke-width:0.8504;stroke-miterlimit:10;" x1="277.755" y1="222.655" x2="274.584" y2="225.648"/>
			
				<line style="fill:none;stroke:#A14722;stroke-width:0.8504;stroke-miterlimit:10;" x1="275.727" y1="228.836" x2="271.943" y2="232.181"/>
			
				<line style="fill:none;stroke:#A14722;stroke-width:0.8504;stroke-miterlimit:10;" x1="278.134" y1="231.046" x2="274.625" y2="234.643"/>
			
				<line style="fill:none;stroke:#A14722;stroke-width:0.8504;stroke-miterlimit:10;" x1="280.805" y1="232.736" x2="277.754" y2="235.351"/>
		</g>
		<g>
			<path style="fill:#FE88B1;" d="M272.942,214.161c-1.318-4.217-5.074-3.163-9.884-2.438c-4.81,0.725-8.971-2.438-14.268-2.438
				c-5.297,0-9.458,3.163-14.268,2.438c-4.81-0.725-8.566-1.779-9.884,2.438c-1.318,4.217,2.833,8.961,6.721,9.423
				c3.888,0.461,7.755-2.636,8.358-3.492c0.603-0.857,1.328-1.384,1.657-0.395c0.329,0.988,1.581,3.576,2.109,4.72
				c0.527,1.144-1.252,3.516-0.066,8.524c1.186,5.008,1.647,9.533,1.647,11.004c0,1.471,1.845,1.318,2.372,0.988
				c0.527-0.329,1.354-0.395,1.354-0.395s0.827,0.066,1.354,0.395c0.527,0.329,2.372,0.482,2.372-0.988
				c0-1.47,0.461-5.996,1.647-11.004c1.186-5.008-0.593-7.38-0.066-8.524c0.527-1.144,1.779-3.732,2.108-4.72
				c0.329-0.988,1.054-0.461,1.657,0.395c0.603,0.857,4.471,3.953,8.358,3.492C270.109,223.122,274.26,218.378,272.942,214.161z
				 M240.189,218.18c-2.636,3.295-4.151,0.857-6.919-0.527c-2.768-1.384-5.337,1.054-6.721-1.252
				c-0.622-1.037-0.152-3.393,1.647-3.888c3.163-0.957,3.822,1.384,9.884,1.516C240.263,214.077,240.979,216.863,240.189,218.18z
				 M271.031,216.401c-1.384,2.306-3.953-0.132-6.721,1.252c-2.767,1.384-4.283,3.822-6.919,0.527
				c-0.791-1.318-0.074-4.104,2.109-4.151c6.062-0.132,6.721-2.473,9.884-1.516C271.184,213.009,271.654,215.364,271.031,216.401z"
				/>
			<g>
				<defs>
					<path id="SVGID_1_" d="M272.942,214.161c-1.318-4.217-5.074-3.163-9.884-2.438c-4.81,0.725-8.971-2.438-14.268-2.438
						c-5.297,0-9.458,3.163-14.268,2.438c-4.81-0.725-8.566-1.779-9.884,2.438c-1.318,4.217,2.833,8.961,6.721,9.423
						c3.888,0.461,7.755-2.636,8.358-3.492c0.603-0.857,1.328-1.384,1.657-0.395c0.329,0.988,1.581,3.576,2.109,4.72
						c0.527,1.144-1.252,3.516-0.066,8.524c1.186,5.008,1.647,9.533,1.647,11.004c0,1.471,1.845,1.318,2.372,0.988
						c0.527-0.329,1.354-0.395,1.354-0.395s0.827,0.066,1.354,0.395c0.527,0.329,2.372,0.482,2.372-0.988
						c0-1.47,0.461-5.996,1.647-11.004c1.186-5.008-0.593-7.38-0.066-8.524c0.527-1.144,1.779-3.732,2.108-4.72
						c0.329-0.988,1.054-0.461,1.657,0.395c0.603,0.857,4.471,3.953,8.358,3.492C270.109,223.122,274.26,218.378,272.942,214.161z
						 M240.189,218.18c-2.636,3.295-4.151,0.857-6.919-0.527c-2.768-1.384-5.337,1.054-6.721-1.252
						c-0.622-1.037-0.152-3.393,1.647-3.888c3.163-0.957,3.822,1.384,9.884,1.516C240.263,214.077,240.979,216.863,240.189,218.18z
						 M271.031,216.401c-1.384,2.306-3.953-0.132-6.721,1.252c-2.767,1.384-4.283,3.822-6.919,0.527
						c-0.791-1.318-0.074-4.104,2.109-4.151c6.062-0.132,6.721-2.473,9.884-1.516C271.184,213.009,271.654,215.364,271.031,216.401z
						"/>
				</defs>
				<clipPath id="SVGID_00000107569218715877967950000008351825081019735689_">
					<use xlink:href="#SVGID_1_"  style="overflow:visible;"/>
				</clipPath>
				<path style="clip-path:url(#SVGID_00000107569218715877967950000008351825081019735689_);fill:#E34673;" d="M254.954,213.304
					c-2.043,0.066-3.436,0.857-6.164,0.857c-2.727,0-4.121-0.791-6.164-0.857c-2.043-0.066-2.701,0.198-1.12,0.857
					c1.581,0.659,2.174,1.12,2.57,2.504c0.792,2.774,3.53,4.105,4.085,7.446c0.307,1.845-0.108,2.296-0.198,4.53
					c-0.034,0.838,0.257,2.03,0.294,2.712c0.041,0.746,0.065,1.174-0.228,1.456c-0.308,0.296-0.804,0.325-1.205,0.28
					c-0.255-0.029-0.503-0.122-0.747-0.2c-0.383-0.122-1.039-0.516-1.316-0.021c-0.205,0.367,0.19,0.935,0.41,1.284
					c0.469,0.741,0.708,1.605,1.082,2.398c0.607,1.285,0.345,2.283,0.301,4.224c-0.029,1.29,0.034,3.154,0.486,5.477
					c0.659,0,1.09,0,1.749,0l0,0c0.659,0,1.09,0,1.749,0c0.452-2.323,0.515-4.187,0.486-5.477c-0.044-1.941-0.305-2.938,0.301-4.224
					c0.374-0.793,0.613-1.657,1.082-2.398c0.221-0.348,0.615-0.917,0.41-1.284c-0.277-0.495-0.934-0.102-1.316,0.021
					c-0.245,0.078-0.492,0.171-0.747,0.2c-0.401,0.045-0.898,0.017-1.205-0.28c-0.293-0.282-0.269-0.71-0.228-1.456
					c0.037-0.681,0.328-1.873,0.294-2.712c-0.089-2.234-0.504-2.685-0.198-4.53c0.555-3.341,3.293-4.672,4.085-7.446
					c0.395-1.384,0.988-1.845,2.57-2.504C257.655,213.502,256.996,213.238,254.954,213.304z"/>
			</g>
		</g>
		<path style="fill:none;stroke:#D98816;stroke-width:0.8504;stroke-miterlimit:10;" d="M188.591,179.598
			c8.86-7.036,26.47-0.129,22.486,15.962"/>
		<path style="fill:none;stroke:#D98816;stroke-width:0.8504;stroke-miterlimit:10;" d="M196.516,170.217
			c0,0,16.832,2.345,17.092,15.114"/>
		<path style="fill:none;stroke:#D98816;stroke-width:0.8504;stroke-miterlimit:10;" d="M217.778,139.728
			c0,0-3.522,25.82-2.4,32.313c1.121,6.493-2.551,13.97-2.29,20.015"/>
		<path style="fill:none;stroke:#D98816;stroke-width:0.8504;stroke-miterlimit:10;" d="M277.241,137.643
			c0,0,1.373,16.938,4.962,24.496c3.589,7.557,6.045,26.32,5.078,32.053"/>
		<path style="fill:none;stroke:#D98816;stroke-width:0.8504;stroke-miterlimit:10;" d="M287.11,184.165
			c1.899-9.642,24.348-11.896,27.869-4.306"/>
		<path style="fill:none;stroke:#D98816;stroke-width:0.8504;stroke-miterlimit:10;" d="M285.608,173.918
			c4.614-5.525,16.341-7.089,19.729-5.004"/>
		<path style="fill:none;stroke:#D98816;stroke-width:0.8504;stroke-miterlimit:10;" d="M221.358,113.53
			c8.904,28.804,58.016,23.187,55.883-3.061"/>
	</g>
</g>
</svg>
